<svg width="522" height="391" viewBox="0 0 522 391" fill="none" xmlns="http://www.w3.org/2000/svg">
<path d="M340.866 87.6883C340.866 109.232 305.109 126.71 261 126.71C216.891 126.71 181.134 109.232 181.134 87.6883C181.134 66.1442 216.891 40.4946 261 40.4946C305.109 40.4946 340.866 66.1312 340.866 87.6883Z" fill="#5872FF"/>
<path d="M261 127.362C216.63 127.362 180.481 109.558 180.481 87.6883C180.481 76.8446 189.342 64.8018 204.18 55.4569C220.167 45.3952 240.342 39.8169 261 39.8169C281.658 39.8169 301.833 45.3691 317.82 55.4569C332.657 64.8018 341.518 76.8967 341.518 87.6883C341.518 109.558 305.37 127.362 261 127.362ZM261 41.1463C217.126 41.1463 181.786 66.6004 181.786 87.6883C181.786 108.776 217.322 126.058 261 126.058C304.678 126.058 340.213 108.841 340.213 87.6883C340.213 66.5352 304.874 41.1463 261 41.1463Z" fill="#093269"/>
<path d="M261 140.082C357.088 140.082 434.983 122.973 434.983 101.869C434.983 80.7637 357.088 63.6548 261 63.6548C164.912 63.6548 87.0176 80.7637 87.0176 101.869C87.0176 122.973 164.912 140.082 261 140.082Z" fill="white"/>
<path d="M261 140.76C214.477 140.76 170.733 136.772 137.834 129.552C104.635 122.24 86.3521 112.413 86.3521 101.869C86.3521 91.3248 104.622 81.5107 137.834 74.225C170.733 66.9915 214.477 63.0164 261 63.0164C307.523 63.0164 351.267 66.9264 384.166 74.225C417.365 81.5107 435.648 91.3248 435.648 101.869C435.648 112.413 417.378 122.24 384.166 129.525C351.267 136.746 307.523 140.76 261 140.76ZM261 64.3458C165.422 64.3458 87.6571 81.1979 87.6571 101.895C87.6571 122.592 165.422 139.457 261 139.457C356.578 139.457 434.343 122.579 434.343 101.869C434.343 81.1588 356.578 64.3197 261 64.3197V64.3458Z" fill="#093269"/>
<path d="M261 140.082C357.088 140.082 434.983 124.514 434.983 105.309C434.983 86.1048 357.088 70.5364 261 70.5364C164.912 70.5364 87.0176 86.1048 87.0176 105.309C87.0176 124.514 164.912 140.082 261 140.082Z" fill="white"/>
<path d="M261 140.76C163.125 140.76 86.3521 125.12 86.3521 105.31C86.3521 85.4989 163.125 69.885 261 69.885C358.875 69.885 435.648 85.4468 435.648 105.31C435.648 125.172 358.875 140.76 261 140.76ZM261 71.2144C214.568 71.2144 170.955 74.8377 138.095 81.3934C106.045 87.7667 87.6571 96.4469 87.6571 105.31C87.6571 114.172 106.045 122.852 138.095 129.252C170.916 135.769 214.568 139.431 261 139.431C307.432 139.431 351.045 135.821 383.905 129.252C415.956 122.852 434.343 114.12 434.343 105.31C434.343 96.4991 415.956 87.7667 383.905 81.3674C351.045 74.8116 307.432 71.1883 261 71.1883V71.2144Z" fill="#093269"/>
<path d="M222.725 134.426L147.7 342.881H374.3L299.276 134.426H222.725Z" fill="#5872FF"/>
<path d="M261 140.082C282.139 140.082 299.276 137.55 299.276 134.426C299.276 131.302 282.139 128.769 261 128.769C239.861 128.769 222.725 131.302 222.725 134.426C222.725 137.55 239.861 140.082 261 140.082Z" fill="#093269"/>
<path d="M261 140.76C245.34 140.76 222.059 139.079 222.059 134.439C222.059 129.799 245.34 128.092 261 128.092C276.66 128.092 299.941 129.773 299.941 134.426C299.941 139.079 276.66 140.76 261 140.76ZM261 129.447C238.045 129.447 223.403 132.406 223.403 134.439C223.403 136.472 238.045 139.457 261 139.457C283.955 139.457 298.597 136.511 298.597 134.478C298.597 132.445 283.955 129.434 261 129.434V129.447Z" fill="#093269"/>
<path d="M261 105.309C263.372 105.309 265.294 104.294 265.294 103.041C265.294 101.789 263.372 100.774 261 100.774C258.629 100.774 256.707 101.789 256.707 103.041C256.707 104.294 258.629 105.309 261 105.309Z" fill="#D5E6FB"/>
<path d="M203.802 107.577C206.173 107.577 208.096 106.562 208.096 105.31C208.096 104.057 206.173 103.042 203.802 103.042C201.431 103.042 199.509 104.057 199.509 105.31C199.509 106.562 201.431 107.577 203.802 107.577Z" fill="#D5E6FB"/>
<path d="M318.198 107.577C320.569 107.577 322.492 106.562 322.492 105.31C322.492 104.057 320.569 103.042 318.198 103.042C315.827 103.042 313.905 104.057 313.905 105.31C313.905 106.562 315.827 107.577 318.198 107.577Z" fill="#D5E6FB"/>
<path d="M138.291 115.554C140.662 115.554 142.584 114.538 142.584 113.286C142.584 112.033 140.662 111.018 138.291 111.018C135.92 111.018 133.998 112.033 133.998 113.286C133.998 114.538 135.92 115.554 138.291 115.554Z" fill="#D5E6FB"/>
<path d="M383.709 114.042C386.081 114.042 388.003 113.026 388.003 111.774C388.003 110.521 386.081 109.506 383.709 109.506C381.338 109.506 379.416 110.521 379.416 111.774C379.416 113.026 381.338 114.042 383.709 114.042Z" fill="#D5E6FB"/>
<path d="M361.655 131.871C364.026 131.871 365.948 130.856 365.948 129.604C365.948 128.351 364.026 127.336 361.655 127.336C359.284 127.336 357.361 128.351 357.361 129.604C357.361 130.856 359.284 131.871 361.655 131.871Z" fill="#D5E6FB"/>
<path d="M164.665 131.871C167.036 131.871 168.959 130.856 168.959 129.604C168.959 128.351 167.036 127.336 164.665 127.336C162.294 127.336 160.372 128.351 160.372 129.604C160.372 130.856 162.294 131.871 164.665 131.871Z" fill="#D5E6FB"/>
<path d="M242.221 216.992C242.11 216.993 242.001 216.964 241.905 216.909C241.809 216.855 241.729 216.775 241.673 216.679C235.552 206.771 233.282 194.964 235.292 183.496C235.306 183.411 235.338 183.329 235.384 183.255C235.43 183.182 235.49 183.118 235.561 183.068C235.632 183.018 235.712 182.982 235.797 182.963C235.882 182.943 235.97 182.941 236.055 182.955C236.141 182.97 236.223 183.001 236.296 183.047C236.37 183.094 236.434 183.154 236.484 183.225C236.534 183.295 236.57 183.375 236.59 183.46C236.609 183.545 236.611 183.632 236.597 183.718C234.619 194.862 236.802 206.343 242.73 215.988C242.819 216.136 242.847 216.312 242.808 216.48C242.769 216.648 242.666 216.794 242.521 216.888C242.431 216.945 242.328 216.981 242.221 216.992Z" fill="#093269"/>
<path d="M235.67 184.591C237.356 184.591 238.724 183.226 238.724 181.541C238.724 179.857 237.356 178.491 235.67 178.491C233.983 178.491 232.616 179.857 232.616 181.541C232.616 183.226 233.983 184.591 235.67 184.591Z" fill="#093269"/>
<path d="M235.67 185.256C234.934 185.256 234.215 185.038 233.604 184.63C232.992 184.222 232.515 183.642 232.234 182.963C231.952 182.284 231.879 181.537 232.022 180.817C232.166 180.096 232.52 179.434 233.04 178.915C233.56 178.395 234.223 178.042 234.944 177.898C235.666 177.755 236.414 177.829 237.093 178.11C237.773 178.391 238.354 178.867 238.762 179.478C239.171 180.089 239.389 180.807 239.389 181.541C239.386 182.525 238.993 183.468 238.296 184.164C237.599 184.86 236.655 185.252 235.67 185.256ZM235.67 179.169C235.2 179.169 234.741 179.308 234.35 179.569C233.96 179.83 233.655 180.2 233.476 180.634C233.296 181.067 233.249 181.544 233.34 182.004C233.432 182.464 233.658 182.887 233.99 183.219C234.323 183.55 234.746 183.776 235.207 183.868C235.667 183.959 236.145 183.912 236.579 183.733C237.013 183.553 237.384 183.249 237.645 182.859C237.906 182.469 238.045 182.011 238.045 181.541C238.045 180.912 237.795 180.309 237.349 179.864C236.904 179.419 236.3 179.169 235.67 179.169Z" fill="#093269"/>
<path d="M317.507 282.706C317.872 282.836 331.588 275.003 329.252 269.868C326.916 264.733 318.225 276.085 316.88 277.936" fill="white"/>
<path d="M317.402 283.345H317.298C317.136 283.288 317.001 283.171 316.924 283.018C316.846 282.865 316.83 282.688 316.88 282.523C316.917 282.406 316.987 282.302 317.082 282.223C317.177 282.144 317.293 282.095 317.415 282.08C318.342 281.728 326.55 276.958 328.508 272.657C328.716 272.277 328.838 271.856 328.865 271.423C328.892 270.991 328.823 270.558 328.664 270.155C328.312 269.373 327.881 269.242 327.594 269.216C325.193 269.008 320.195 274.534 317.415 278.34C317.365 278.409 317.301 278.468 317.228 278.512C317.154 278.557 317.073 278.587 316.988 278.6C316.903 278.614 316.817 278.61 316.733 278.59C316.65 278.57 316.571 278.534 316.502 278.483C316.432 278.433 316.374 278.369 316.329 278.296C316.284 278.223 316.254 278.141 316.241 278.057C316.228 277.972 316.231 277.885 316.251 277.802C316.271 277.719 316.308 277.64 316.358 277.571C317.585 275.889 323.953 267.522 327.725 267.939C328.2 267.998 328.649 268.186 329.024 268.482C329.399 268.779 329.686 269.172 329.852 269.62C330.674 271.432 329.956 273.609 327.712 276.137C324.775 279.317 318.603 283.345 317.402 283.345Z" fill="#093269"/>
<path d="M234.091 269.256C233.908 270.025 224.865 289.483 232.616 285.639C240.368 281.794 239.859 264.029 239.859 264.029" fill="#093269"/>
<path d="M230.907 286.812C230.423 286.826 229.954 286.647 229.602 286.316C227.918 284.752 228.949 279.917 233.034 270.155C233.269 269.595 233.425 269.217 233.465 269.086C233.513 268.917 233.627 268.774 233.781 268.688C233.935 268.603 234.117 268.582 234.287 268.63C234.454 268.67 234.599 268.775 234.69 268.922C234.78 269.068 234.809 269.245 234.77 269.412C234.77 269.569 234.626 269.816 234.274 270.716C229.524 282.094 229.876 284.791 230.515 285.391C230.789 285.639 231.455 285.534 232.342 285.091C239.624 281.481 239.22 264.238 239.22 264.095C239.216 264.006 239.23 263.918 239.261 263.835C239.293 263.752 239.34 263.677 239.401 263.612C239.461 263.548 239.534 263.496 239.615 263.461C239.696 263.425 239.784 263.405 239.872 263.404C240.047 263.409 240.214 263.479 240.342 263.599C240.469 263.719 240.548 263.881 240.564 264.055C240.564 264.798 240.994 282.302 232.943 286.29C232.314 286.621 231.617 286.8 230.907 286.812Z" fill="#093269"/>
<path d="M268.726 288.102C268.321 288.414 266.534 314.52 272.302 307.56C278.07 300.601 278.905 287.307 278.905 287.307" fill="#093269"/>
<path d="M270.579 309.424C270.449 309.437 270.317 309.437 270.187 309.424C269.209 309.19 268.543 308.121 268.099 306.088C267.277 302.269 267.238 288.467 268.308 287.62C268.451 287.512 268.63 287.465 268.808 287.486C268.986 287.508 269.148 287.598 269.261 287.737C269.328 287.845 269.363 287.969 269.363 288.095C269.363 288.222 269.328 288.346 269.261 288.454C268.817 290.187 268.021 306.831 270.37 308.095C270.618 308.225 271.127 307.9 271.675 307.196C277.247 300.484 278.122 287.45 278.2 287.32C278.219 287.147 278.302 286.988 278.432 286.872C278.562 286.757 278.731 286.693 278.905 286.694C278.994 286.699 279.081 286.722 279.162 286.761C279.242 286.799 279.314 286.854 279.373 286.92C279.433 286.987 279.479 287.064 279.508 287.149C279.537 287.233 279.549 287.322 279.544 287.411C279.544 287.959 278.631 301.005 272.784 308.043C272.536 308.417 272.211 308.733 271.831 308.971C271.45 309.209 271.024 309.364 270.579 309.424Z" fill="#093269"/>
<path d="M298.924 292.507C298.015 293.699 296.873 294.694 295.568 295.431C294.262 296.168 292.82 296.633 291.329 296.795C286.03 297.538 253.588 288.115 239.664 280.021C226.066 272.123 215.73 260.172 218.314 248.885C218.379 248.611 218.444 248.35 218.523 248.077C220.624 240.739 229.68 228.162 237.484 219.964C241.947 215.298 245.98 212.039 248.094 211.987C249.686 211.987 253.197 213.291 257.738 215.702C263.624 218.926 269.233 222.632 274.507 226.78C276.713 228.474 278.918 230.299 281.097 232.241C284.618 235.34 287.939 238.657 291.042 242.173C294.196 245.743 297.022 249.59 299.485 253.668C313.448 277.18 298.924 292.507 298.924 292.507Z" fill="white"/>
<path d="M248.185 211.987C249.817 211.987 253.288 213.291 257.738 215.702C263.624 218.926 269.233 222.632 274.507 226.78C276.713 228.474 278.918 230.299 281.097 232.241C284.618 235.34 287.939 238.657 291.042 242.172C294.196 245.743 297.022 249.59 299.485 253.668C313.448 277.206 298.924 292.533 298.924 292.533C298.015 293.725 296.874 294.72 295.568 295.457C294.262 296.194 292.82 296.659 291.329 296.821C291.094 296.844 290.858 296.844 290.624 296.821C283.642 296.821 253.066 287.789 239.729 279.995C226.131 272.097 215.795 260.145 218.379 248.859C218.444 248.585 218.51 248.324 218.588 248.05C220.689 240.713 229.746 228.136 237.55 219.938C242.013 215.272 246.045 212.013 248.159 211.961H248.251L248.185 211.987ZM248.251 210.658H248.12C245.745 210.658 241.869 213.538 236.61 219.038C228.937 227.106 219.567 239.892 217.335 247.712C217.257 247.998 217.179 248.285 217.113 248.572C215.169 257.03 219.932 270.025 239.076 281.155C252.531 288.975 283.107 298.098 290.689 298.098C290.985 298.121 291.281 298.121 291.577 298.098C293.233 297.911 294.834 297.392 296.285 296.572C297.736 295.753 299.006 294.649 300.02 293.328C301.194 292.025 314.375 276.163 300.672 252.925C298.174 248.765 295.304 244.839 292.099 241.195C288.956 237.637 285.591 234.281 282.024 231.146C279.858 229.204 277.613 227.354 275.369 225.62C270.031 221.436 264.357 217.701 258.404 214.451C255.715 213.004 250.808 210.541 248.238 210.541L248.251 210.658Z" fill="#093269"/>
<path d="M282.128 279.982C282.128 279.982 287.922 269.034 293.651 264.994C299.38 260.953 316.267 270.207 319.099 275.499C321.93 280.79 314.505 295.935 314.505 295.935C314.505 295.935 288.235 280.217 282.128 279.982Z" fill="white"/>
<path d="M314.505 296.587C314.385 296.584 314.267 296.548 314.166 296.482C313.905 296.326 288.066 280.842 282.154 280.634C282.044 280.631 281.936 280.601 281.841 280.546C281.745 280.492 281.664 280.414 281.606 280.321C281.555 280.222 281.528 280.113 281.528 280.002C281.528 279.891 281.555 279.781 281.606 279.682C281.854 279.226 287.544 268.539 293.351 264.459C295.113 263.221 297.814 263.013 301.377 263.86C308.476 265.528 317.572 271.146 319.751 275.199C322.701 280.699 315.445 295.583 315.132 296.222C315.091 296.303 315.034 296.375 314.964 296.433C314.895 296.491 314.814 296.535 314.727 296.561L314.505 296.587ZM283.185 279.461C290.154 280.764 310.316 292.69 314.205 295.01C316.371 290.422 320.613 279.695 318.538 275.812C316.724 272.436 308.28 266.845 301.011 265.124C297.88 264.381 295.465 264.525 294.043 265.528C289.397 268.787 284.634 276.854 283.185 279.461Z" fill="#093269"/>
<path d="M296.131 267.666C296.131 267.666 286.226 254.632 283.198 256.327C280.171 258.021 283.198 267.913 292.816 269.125" fill="white"/>
<path d="M292.816 269.79H292.738C290.124 269.549 287.648 268.507 285.651 266.806C283.653 265.105 282.231 262.829 281.58 260.289C281.15 258.178 281.58 256.496 282.885 255.779C286.174 253.89 294.265 264.108 296.666 267.288C296.77 267.426 296.814 267.6 296.79 267.771C296.765 267.942 296.674 268.096 296.536 268.2C296.396 268.301 296.223 268.343 296.052 268.319C295.882 268.294 295.728 268.205 295.622 268.07C291.028 261.996 285.104 256.001 283.538 256.913C282.82 257.317 282.572 258.516 282.872 260.028C283.468 262.301 284.751 264.334 286.548 265.85C288.344 267.367 290.565 268.292 292.908 268.5C293.079 268.52 293.235 268.606 293.343 268.74C293.45 268.874 293.5 269.046 293.482 269.217C293.46 269.377 293.38 269.523 293.257 269.629C293.135 269.734 292.978 269.792 292.816 269.79Z" fill="#093269"/>
<path d="M297.279 264.642C297.279 264.642 298.049 257.708 299.028 258.125C300.007 258.542 302.317 265.802 302.317 265.802" fill="white"/>
<path d="M302.317 266.506C302.181 266.507 302.048 266.464 301.937 266.384C301.827 266.305 301.745 266.192 301.703 266.062C300.978 263.679 300.066 261.356 298.976 259.116C298.452 260.942 298.103 262.815 297.932 264.707C297.913 264.88 297.826 265.038 297.69 265.147C297.554 265.256 297.381 265.306 297.208 265.287C297.035 265.268 296.876 265.181 296.767 265.045C296.658 264.91 296.608 264.737 296.627 264.564C297.097 260.38 297.723 258.047 298.493 257.617C298.621 257.553 298.761 257.519 298.904 257.519C299.047 257.519 299.188 257.553 299.315 257.617C300.32 258.125 301.847 262.283 302.943 265.685C302.993 265.849 302.978 266.026 302.9 266.179C302.822 266.332 302.688 266.449 302.526 266.506H302.317Z" fill="#093269"/>
<path d="M312.705 272.24C312.705 272.24 317.925 268.33 319.308 269.021C320.691 269.712 315.393 275.655 315.393 275.655" fill="white"/>
<path d="M315.419 276.307C315.261 276.308 315.108 276.253 314.988 276.15C314.859 276.035 314.779 275.874 314.767 275.701C314.755 275.528 314.811 275.357 314.923 275.225C317.024 272.853 318.76 270.377 318.838 269.569C318.107 269.569 315.471 270.95 313.057 272.762C312.988 272.813 312.91 272.85 312.827 272.872C312.744 272.893 312.658 272.898 312.573 272.885C312.488 272.873 312.406 272.845 312.333 272.801C312.259 272.758 312.195 272.7 312.143 272.631C312.092 272.563 312.054 272.485 312.033 272.402C312.012 272.319 312.007 272.233 312.019 272.148C312.031 272.063 312.06 271.982 312.104 271.908C312.147 271.835 312.205 271.77 312.274 271.719C313.957 270.416 318.016 267.6 319.582 268.448C319.725 268.525 319.848 268.635 319.94 268.769C320.033 268.902 320.094 269.056 320.117 269.217C320.404 270.768 317.233 274.547 315.862 276.085C315.809 276.152 315.741 276.206 315.665 276.244C315.588 276.282 315.504 276.304 315.419 276.307Z" fill="#093269"/>
<path d="M220.976 259.689C220.832 260.041 212.219 278.157 215.756 277.936C219.292 277.714 228.806 261.253 228.806 261.253" fill="white"/>
<path d="M215.73 278.64C215.506 278.647 215.284 278.597 215.085 278.495C214.886 278.392 214.717 278.24 214.594 278.053C213.485 276.398 215.39 270.233 220.271 259.676L220.376 259.428C220.409 259.349 220.458 259.277 220.519 259.216C220.581 259.155 220.653 259.107 220.733 259.074C220.813 259.042 220.899 259.025 220.985 259.025C221.072 259.026 221.157 259.043 221.237 259.077C221.317 259.11 221.389 259.159 221.45 259.22C221.511 259.281 221.559 259.354 221.591 259.434C221.624 259.514 221.641 259.599 221.64 259.685C221.64 259.772 221.623 259.857 221.589 259.937L221.459 260.223C216.108 271.758 215.077 276.776 215.691 277.336C218.079 277.219 224.656 267.248 228.245 260.979C228.287 260.905 228.343 260.839 228.411 260.787C228.478 260.735 228.556 260.696 228.639 260.675C228.721 260.653 228.808 260.648 228.893 260.66C228.977 260.672 229.059 260.701 229.132 260.745C229.28 260.832 229.388 260.973 229.434 261.138C229.481 261.303 229.461 261.48 229.38 261.631C227.762 264.446 219.54 278.457 215.808 278.574L215.73 278.64Z" fill="#093269"/>
<path d="M253.888 279.226C253.601 279.487 244.936 307.821 251.996 300.875C259.056 293.928 263.636 280.021 263.636 280.021" fill="white"/>
<path d="M250.221 302.621C250.096 302.641 249.968 302.641 249.842 302.621C249.548 302.515 249.288 302.33 249.093 302.086C248.897 301.843 248.773 301.549 248.733 301.239C247.676 296.899 252.896 279.317 253.444 278.796C253.504 278.735 253.575 278.687 253.653 278.654C253.732 278.621 253.816 278.604 253.901 278.604C253.986 278.604 254.07 278.621 254.149 278.654C254.227 278.687 254.298 278.735 254.358 278.796C254.456 278.899 254.519 279.03 254.535 279.172C254.551 279.313 254.521 279.455 254.449 279.578C253.327 282.028 248.472 300.366 250.195 301.331C250.195 301.331 250.573 301.331 251.5 300.418C258.351 293.667 262.932 279.995 262.984 279.852C263.009 279.769 263.05 279.693 263.106 279.627C263.161 279.561 263.229 279.507 263.306 279.468C263.383 279.429 263.467 279.406 263.552 279.4C263.638 279.395 263.725 279.406 263.806 279.435C263.969 279.494 264.103 279.613 264.181 279.768C264.259 279.924 264.274 280.103 264.223 280.269C264.028 280.829 259.486 294.371 252.413 301.357C251.862 302.032 251.082 302.482 250.221 302.621Z" fill="#093269"/>
<path d="M319.021 294.306C313.461 289.926 293.73 279.174 284.216 278.04C274.703 276.906 267.891 284.856 275.93 297.668C283.968 310.48 300.398 312.2 308.32 312.187C316.241 312.174 324.58 298.685 319.021 294.306Z" fill="white"/>
<path d="M308.229 312.8C301.09 312.8 283.773 311.34 275.382 297.968C269.992 289.405 271.715 284.14 273.215 281.781C275.329 278.431 279.492 276.776 284.295 277.349C294.017 278.509 313.971 289.457 319.425 293.758C321.54 295.427 322.035 298.411 320.822 301.956C319.021 307.17 313.723 312.8 308.32 312.8H308.229ZM282.442 278.548C280.865 278.455 279.291 278.766 277.869 279.45C276.446 280.134 275.222 281.17 274.312 282.458C272.041 286.056 272.824 291.451 276.478 297.264C284.491 310.193 301.299 311.497 308.229 311.497H308.32C312.992 311.497 317.925 306.283 319.582 301.526C320.626 298.542 320.274 296.078 318.616 294.775C313.201 290.643 293.626 279.813 284.138 278.692C283.576 278.619 283.009 278.584 282.442 278.588V278.548Z" fill="#093269"/>
<path d="M310.59 304.85C310.59 304.85 304.914 283.997 281.789 287.359L310.59 304.85Z" fill="white"/>
<path d="M310.59 305.501C310.448 305.503 310.31 305.459 310.197 305.374C310.083 305.289 310.001 305.169 309.964 305.032C309.677 304.198 304.065 284.83 281.88 288.037C281.707 288.059 281.533 288.013 281.394 287.908C281.255 287.803 281.162 287.648 281.136 287.476C281.114 287.305 281.161 287.132 281.266 286.995C281.371 286.859 281.526 286.769 281.697 286.746C305.083 283.397 311.164 304.498 311.217 304.706C311.261 304.874 311.238 305.052 311.153 305.203C311.067 305.354 310.926 305.466 310.76 305.514L310.59 305.501Z" fill="#093269"/>
<path d="M302.317 275.733H294.656C294.483 275.733 294.317 275.665 294.195 275.542C294.073 275.42 294.004 275.254 294.004 275.082C294.007 274.91 294.077 274.746 294.199 274.624C294.32 274.503 294.484 274.433 294.656 274.43H302.317C302.49 274.43 302.656 274.499 302.778 274.621C302.901 274.743 302.969 274.909 302.969 275.082C302.969 275.254 302.901 275.42 302.778 275.542C302.656 275.665 302.49 275.733 302.317 275.733Z" fill="#093269"/>
<path d="M299.798 278.588C299.672 278.587 299.55 278.55 299.445 278.48C299.341 278.411 299.259 278.312 299.21 278.197L296.679 272.553C296.645 272.474 296.626 272.39 296.625 272.304C296.623 272.218 296.639 272.133 296.67 272.053C296.702 271.973 296.749 271.9 296.808 271.838C296.868 271.777 296.939 271.727 297.018 271.693C297.097 271.659 297.182 271.64 297.268 271.639C297.354 271.637 297.439 271.653 297.519 271.684C297.599 271.716 297.672 271.763 297.734 271.822C297.796 271.882 297.845 271.953 297.879 272.032L300.398 277.662C300.469 277.819 300.474 277.998 300.413 278.16C300.352 278.321 300.229 278.451 300.072 278.522C299.986 278.562 299.893 278.584 299.798 278.588Z" fill="#093269"/>
<path d="M314.361 279.852H306.675C306.503 279.849 306.339 279.779 306.217 279.657C306.096 279.536 306.026 279.372 306.022 279.2C306.022 279.027 306.091 278.862 306.214 278.739C306.336 278.617 306.502 278.549 306.675 278.549H314.335C314.508 278.549 314.674 278.617 314.797 278.739C314.919 278.862 314.988 279.027 314.988 279.2C314.988 279.369 314.923 279.531 314.806 279.652C314.689 279.774 314.53 279.845 314.361 279.852Z" fill="#093269"/>
<path d="M311.895 282.693C311.771 282.694 311.65 282.658 311.545 282.591C311.441 282.524 311.359 282.428 311.308 282.315L308.776 276.672C308.705 276.513 308.7 276.332 308.763 276.169C308.825 276.007 308.95 275.876 309.109 275.805C309.268 275.734 309.449 275.729 309.612 275.792C309.775 275.854 309.906 275.978 309.977 276.137L312.495 281.781C312.566 281.938 312.571 282.117 312.51 282.278C312.449 282.439 312.326 282.57 312.169 282.641C312.082 282.677 311.989 282.695 311.895 282.693Z" fill="#093269"/>
<path d="M291.015 242.146C288.092 243.802 284.086 244.206 282.546 247.19C281.763 248.715 281.88 250.553 281.371 252.195C280.976 253.41 280.253 254.492 279.281 255.322C278.31 256.152 277.127 256.698 275.864 256.9C275.453 257.007 275.02 256.999 274.613 256.877C274.205 256.756 273.839 256.525 273.554 256.209C273.15 255.571 273.333 254.723 273.072 254.02C272.458 252.391 270.005 252.495 268.582 253.498C267.16 254.502 266.142 256.105 264.537 256.77C263.642 257.074 262.684 257.142 261.755 256.966C260.827 256.79 259.96 256.376 259.239 255.766C257.808 254.531 256.675 252.99 255.924 251.257C255.084 249.878 254.735 248.257 254.932 246.656C255.195 245.69 255.678 244.798 256.342 244.049C259.297 240.433 263.538 238.098 268.178 237.533C273.046 236.959 276.543 237.037 280.119 233.245C280.445 232.893 280.771 232.515 281.071 232.137C284.594 235.261 287.915 238.604 291.015 242.146Z" fill="#D5E6FB"/>
<path d="M248.55 234.665C245.862 235.747 242.717 236.438 241.099 238.836C239.481 241.234 239.911 244.297 238.41 246.656C236.766 249.184 233.425 249.966 230.411 250.097C226.343 250.286 222.269 249.891 218.313 248.924C218.379 248.65 218.444 248.389 218.522 248.116C220.623 240.778 229.68 228.201 237.484 220.003C242.477 220.228 247.265 222.056 251.134 225.216C252.196 225.995 252.982 227.09 253.379 228.344C254.044 231.185 251.226 233.596 248.55 234.665Z" fill="#D5E6FB"/>
<path d="M274.507 226.78C272.956 227.891 271.201 228.685 269.343 229.117C267.484 229.549 265.558 229.609 263.675 229.295C261.468 228.959 259.423 227.938 257.829 226.376C254.788 223.183 256.133 219.416 257.738 215.728C263.623 218.944 269.232 222.641 274.507 226.78Z" fill="#D5E6FB"/>
<path d="M187.202 266.505C187.129 266.519 187.054 266.519 186.981 266.505C186.899 266.478 186.824 266.434 186.76 266.377C186.695 266.319 186.643 266.25 186.607 266.172C186.57 266.094 186.55 266.009 186.547 265.923C186.544 265.837 186.558 265.752 186.589 265.671L228.192 150.652C228.251 150.49 228.372 150.357 228.529 150.284C228.686 150.211 228.865 150.202 229.028 150.261C229.109 150.289 229.184 150.333 229.249 150.39C229.313 150.447 229.365 150.517 229.401 150.595C229.438 150.673 229.458 150.757 229.461 150.843C229.464 150.929 229.45 151.015 229.419 151.095L187.816 266.114C187.764 266.233 187.678 266.334 187.569 266.403C187.459 266.473 187.332 266.509 187.202 266.505Z" fill="white"/>
<path d="M311.151 226.259C311.009 226.258 310.87 226.21 310.757 226.123C310.644 226.036 310.562 225.914 310.525 225.777L295.505 172.535C295.46 172.368 295.483 172.19 295.568 172.039C295.654 171.888 295.795 171.776 295.961 171.727C296.044 171.704 296.13 171.697 296.215 171.707C296.3 171.718 296.382 171.745 296.456 171.787C296.53 171.83 296.595 171.887 296.647 171.955C296.699 172.023 296.736 172.101 296.757 172.184L311.778 225.477C311.822 225.644 311.799 225.823 311.714 225.974C311.629 226.125 311.488 226.236 311.321 226.285L311.151 226.259Z" fill="white"/>
<path d="M344.951 318.978C344.812 318.977 344.677 318.932 344.564 318.85C344.452 318.768 344.368 318.654 344.325 318.522L339.183 302.165C339.133 301.999 339.151 301.82 339.231 301.667C339.312 301.514 339.449 301.398 339.614 301.344C339.778 301.295 339.955 301.313 340.106 301.393C340.258 301.474 340.371 301.61 340.423 301.774L345.577 318.131C345.626 318.295 345.609 318.472 345.528 318.623C345.447 318.774 345.31 318.888 345.147 318.939L344.951 318.978Z" fill="white"/>
<path d="M189.525 317.505H189.303C189.223 317.478 189.15 317.434 189.086 317.378C189.023 317.321 188.972 317.253 188.936 317.176C188.899 317.1 188.878 317.017 188.874 316.933C188.87 316.848 188.883 316.764 188.912 316.684L198.047 290.422C198.103 290.26 198.221 290.127 198.375 290.052C198.529 289.976 198.706 289.964 198.869 290.018C199.032 290.077 199.165 290.197 199.241 290.353C199.316 290.509 199.328 290.688 199.273 290.852L190.139 317.114C190.087 317.233 190.001 317.333 189.892 317.403C189.782 317.473 189.655 317.508 189.525 317.505Z" fill="white"/>
<path d="M268.138 179.143C267.982 179.137 267.833 179.074 267.72 178.966C267.607 178.858 267.538 178.712 267.525 178.557L264.641 155.097C264.63 155.013 264.636 154.927 264.658 154.846C264.681 154.764 264.719 154.688 264.771 154.621C264.824 154.554 264.889 154.498 264.963 154.457C265.037 154.416 265.118 154.389 265.202 154.38C265.374 154.357 265.547 154.404 265.684 154.509C265.821 154.614 265.91 154.769 265.933 154.94L268.817 178.4C268.839 178.571 268.793 178.744 268.688 178.881C268.582 179.018 268.427 179.107 268.256 179.13L268.138 179.143Z" fill="white"/>
<path d="M229.485 324.113H229.341C229.257 324.094 229.177 324.059 229.107 324.01C229.036 323.961 228.976 323.898 228.93 323.825C228.884 323.752 228.853 323.671 228.838 323.586C228.823 323.502 228.826 323.415 228.845 323.331L231.99 308.616C232.007 308.533 232.041 308.453 232.089 308.383C232.137 308.313 232.199 308.253 232.271 308.206C232.342 308.16 232.423 308.129 232.507 308.114C232.591 308.1 232.677 308.102 232.76 308.121C232.928 308.159 233.075 308.26 233.17 308.403C233.265 308.546 233.3 308.721 233.269 308.89L230.124 323.605C230.091 323.749 230.01 323.879 229.894 323.971C229.778 324.064 229.633 324.114 229.485 324.113Z" fill="white"/>
<path d="M287.1 155.67C286.954 155.669 286.812 155.62 286.697 155.531C286.581 155.441 286.498 155.316 286.461 155.175L281.463 134.569C281.423 134.396 281.454 134.215 281.548 134.065C281.642 133.914 281.792 133.808 281.965 133.768C282.138 133.728 282.32 133.759 282.471 133.853C282.621 133.947 282.728 134.097 282.768 134.27L287.779 154.875C287.815 155.043 287.785 155.217 287.695 155.363C287.605 155.509 287.462 155.614 287.296 155.657L287.1 155.67Z" fill="white"/>
<path d="M245.014 153.794H244.871C244.787 153.777 244.708 153.743 244.637 153.695C244.567 153.647 244.506 153.585 244.46 153.514C244.414 153.442 244.383 153.362 244.368 153.278C244.353 153.194 244.356 153.108 244.375 153.025L248.042 136.081C248.06 135.997 248.095 135.918 248.145 135.847C248.194 135.777 248.257 135.717 248.33 135.671C248.403 135.625 248.484 135.593 248.569 135.579C248.654 135.564 248.741 135.567 248.825 135.586C248.908 135.603 248.988 135.637 249.058 135.685C249.129 135.733 249.189 135.794 249.235 135.866C249.281 135.938 249.313 136.018 249.327 136.102C249.342 136.186 249.34 136.272 249.321 136.355L245.641 153.298C245.608 153.44 245.528 153.566 245.414 153.656C245.3 153.746 245.159 153.794 245.014 153.794Z" fill="white"/>
<path d="M299.276 55.7437C299.165 55.7458 299.055 55.714 298.963 55.6525C279.857 45.1346 256.968 45.9427 256.733 45.9557C256.562 45.9533 256.399 45.8881 256.274 45.7726C256.148 45.6571 256.07 45.4996 256.054 45.3301C256.051 45.2445 256.064 45.1591 256.094 45.0787C256.123 44.9983 256.169 44.9245 256.227 44.8615C256.285 44.7986 256.355 44.7477 256.433 44.7118C256.511 44.6759 256.595 44.6557 256.681 44.6524C256.916 44.6524 280.171 43.8183 299.589 54.5186C299.739 54.6037 299.85 54.7437 299.899 54.9091C299.948 55.0744 299.93 55.2522 299.85 55.4049C299.791 55.5051 299.707 55.5888 299.607 55.648C299.506 55.7073 299.392 55.7402 299.276 55.7437Z" fill="white"/>
</svg>
