<svg width="160" height="148" viewBox="0 0 160 148" fill="none" xmlns="http://www.w3.org/2000/svg">
<path d="M138.355 25.9341H59.1912V87.8221H159.097V45.0653C159.097 34.5147 149.808 25.9341 138.355 25.9341Z" fill="#5872FF"/>
<path d="M159.097 88.1608H59.1912C59.0986 88.1588 59.0104 88.1206 58.9457 88.0545C58.8809 87.9883 58.8446 87.8994 58.8446 87.8068V25.9342C58.8446 25.8423 58.8811 25.7543 58.9461 25.6893C59.0111 25.6244 59.0993 25.5879 59.1912 25.5879H138.355C149.985 25.5879 159.451 34.3378 159.451 45.0885V87.8222C159.446 87.9128 159.406 87.9979 159.34 88.0606C159.275 88.1233 159.188 88.1591 159.097 88.1608ZM59.5455 87.4528H158.743V45.0655C158.743 34.6995 149.6 26.2651 138.355 26.2651H59.5455V87.4528Z" fill="#093269"/>
<path d="M79.9334 88.2147H38.449C38.3475 88.2128 38.2507 88.1716 38.1789 88.0998C38.1071 88.0281 38.0659 87.9314 38.0639 87.83V45.8351C38.066 40.4495 40.2081 35.2851 44.0196 31.4769C47.8311 27.6687 52.9999 25.5284 58.3902 25.5264H60.1617C64.2519 25.5641 68.2358 26.8326 71.5937 29.1663C74.9517 31.5 77.5278 34.7906 78.986 38.6089C79.2958 39.3597 79.5532 40.1311 79.7562 40.9176C79.7886 41.0175 79.8093 41.1208 79.8179 41.2254C80.1758 42.7201 80.3542 44.252 80.3493 45.7889V87.7607C80.3604 87.8194 80.3576 87.8798 80.3412 87.9373C80.3248 87.9947 80.2953 88.0475 80.2549 88.0916C80.2146 88.1356 80.1645 88.1697 80.1087 88.1911C80.0529 88.2124 79.9929 88.2205 79.9334 88.2147ZM38.8342 87.4452H79.5483V45.8351C79.5509 44.3398 79.3777 42.8495 79.0322 41.3947C79.0386 41.3333 79.0386 41.2714 79.0322 41.21V41.1253C78.8264 40.3718 78.5743 39.6316 78.2774 38.909C76.869 35.2396 74.388 32.0787 71.1571 29.8374C67.9261 27.596 64.0949 26.3781 60.1617 26.3421H58.3979C55.8319 26.337 53.29 26.8374 50.9176 27.8146C48.5453 28.7917 46.389 30.2265 44.572 32.0369C42.7551 33.8473 41.3131 35.9978 40.3285 38.3654C39.344 40.733 38.8362 43.2712 38.8342 45.8351V87.4452Z" fill="#093269"/>
<path d="M38.4568 87.822H79.9334V124.545C79.9334 129.554 77.942 134.358 74.3973 137.899C70.8526 141.441 66.045 143.43 61.0321 143.43H57.3504C52.3374 143.43 47.5298 141.441 43.9851 137.899C40.4404 134.358 38.4491 129.554 38.4491 124.545V87.822H38.4568Z" fill="white"/>
<path d="M61.0321 143.785H57.3581C52.2512 143.785 47.3534 141.758 43.7423 138.15C40.1312 134.542 38.1025 129.648 38.1025 124.546V87.8223C38.1044 87.729 38.1424 87.6401 38.2084 87.5741C38.2744 87.5081 38.3634 87.4702 38.4568 87.4683H79.9334C80.0267 87.4702 80.1157 87.5081 80.1817 87.5741C80.2478 87.6401 80.2857 87.729 80.2877 87.8223V124.546C80.2877 129.648 78.259 134.542 74.6479 138.15C71.0367 141.758 66.139 143.785 61.0321 143.785ZM38.8034 88.1609V124.53C38.8095 129.444 40.7666 134.156 44.2451 137.63C47.7237 141.104 52.4396 143.057 57.3581 143.061H61.0321C65.9498 143.057 70.6649 141.104 74.1423 137.629C77.6196 134.155 79.575 129.444 79.5791 124.53V88.1609H38.8034Z" fill="#093269"/>
<path d="M69.4429 121.475H48.9472C48.8451 121.475 48.7471 121.435 48.6749 121.362C48.6027 121.29 48.5621 121.192 48.5621 121.09C48.5621 120.988 48.6027 120.89 48.6749 120.818C48.7471 120.746 48.8451 120.706 48.9472 120.706H69.4429C69.5451 120.706 69.643 120.746 69.7152 120.818C69.7875 120.89 69.828 120.988 69.828 121.09C69.828 121.192 69.7875 121.29 69.7152 121.362C69.643 121.435 69.5451 121.475 69.4429 121.475Z" fill="#D5E6FB"/>
<path d="M102.201 57.0705C104.391 57.0705 106.167 55.2961 106.167 53.1073C106.167 50.9184 104.391 49.144 102.201 49.144C100.01 49.144 98.2339 50.9184 98.2339 53.1073C98.2339 55.2961 100.01 57.0705 102.201 57.0705Z" fill="white"/>
<path d="M102.201 57.4169C101.345 57.4184 100.509 57.1663 99.7971 56.6926C99.0854 56.2188 98.5303 55.5446 98.2023 54.7554C97.8743 53.9662 97.7881 53.0975 97.9546 52.2593C98.1211 51.4212 98.5328 50.6512 99.1375 50.047C99.7423 49.4427 100.513 49.0314 101.352 48.8651C102.191 48.6987 103.06 48.7849 103.85 49.1126C104.64 49.4403 105.315 49.9948 105.789 50.706C106.263 51.4171 106.515 52.2529 106.514 53.1074C106.512 54.2497 106.057 55.3447 105.248 56.1524C104.44 56.9602 103.344 57.4149 102.201 57.4169ZM102.201 49.4982C101.486 49.4982 100.788 49.7098 100.194 50.1064C99.5996 50.503 99.1366 51.0667 98.8632 51.7262C98.5898 52.3857 98.5183 53.1114 98.6577 53.8115C98.797 54.5116 99.1411 55.1547 99.6463 55.6595C100.151 56.1643 100.795 56.508 101.496 56.6473C102.197 56.7865 102.923 56.7151 103.583 56.4419C104.243 56.1687 104.807 55.7061 105.204 55.1126C105.601 54.519 105.813 53.8212 105.813 53.1074C105.813 52.6334 105.72 52.1641 105.538 51.7262C105.356 51.2883 105.09 50.8904 104.755 50.5553C104.419 50.2201 104.021 49.9543 103.583 49.7729C103.145 49.5915 102.675 49.4982 102.201 49.4982Z" fill="#093269"/>
<path d="M102.201 49.4982C102.107 49.4963 102.018 49.4583 101.952 49.3924C101.886 49.3264 101.848 49.2375 101.846 49.1442V0.384874C101.848 0.292328 101.887 0.204254 101.953 0.139522C102.019 0.07479 102.108 0.0385524 102.201 0.0385742C102.293 0.0385742 102.381 0.0750593 102.446 0.140004C102.511 0.204948 102.547 0.293029 102.547 0.384874V49.1442C102.547 49.2368 102.511 49.3257 102.446 49.3918C102.381 49.458 102.293 49.4962 102.201 49.4982Z" fill="#093269"/>
<path d="M116.781 4.07096L102.201 10.6276V0.384766H116.781V4.07096Z" fill="white"/>
<path d="M102.201 11.0124C102.127 11.0122 102.055 10.9908 101.993 10.9508C101.937 10.9172 101.892 10.8696 101.861 10.8129C101.83 10.7562 101.814 10.6923 101.815 10.6276V0.38478C101.815 0.28273 101.856 0.184859 101.928 0.112699C102.001 0.0405389 102.098 0 102.201 0H116.789C116.89 0.00197013 116.987 0.0431427 117.059 0.11488C117.131 0.186618 117.172 0.283347 117.174 0.38478V4.06328C117.173 4.13816 117.151 4.21128 117.11 4.27401C117.069 4.33673 117.011 4.38644 116.943 4.41728L102.355 10.9739C102.307 10.9982 102.254 11.0114 102.201 11.0124ZM102.586 0.76956V10.0043L116.396 3.79393V0.715691L102.586 0.76956Z" fill="#093269"/>
<path d="M110.496 87.822H93.782V91.8084H110.496V87.822Z" fill="white"/>
<path d="M110.496 92.1549H93.782C93.6894 92.1549 93.6004 92.1187 93.5342 92.0539C93.468 91.9892 93.4297 91.9011 93.4277 91.8086V87.8223C93.4297 87.729 93.4677 87.6401 93.5337 87.5741C93.5997 87.5081 93.6887 87.4702 93.782 87.4683H110.496C110.589 87.4702 110.678 87.5081 110.744 87.5741C110.81 87.6401 110.848 87.729 110.85 87.8223V91.8086C110.848 91.9011 110.81 91.9892 110.744 92.0539C110.678 92.1187 110.589 92.1549 110.496 92.1549ZM94.1363 91.4546H110.142V88.1609H94.1363V91.4546Z" fill="#093269"/>
<path d="M96.4701 147.594V91.8086H106.529V147.594" fill="white"/>
<path d="M106.529 147.948C106.437 147.946 106.348 147.908 106.284 147.842C106.219 147.775 106.183 147.687 106.183 147.594V92.1857H96.8167V147.594C96.8242 147.644 96.8208 147.696 96.8066 147.745C96.7924 147.793 96.7679 147.839 96.7346 147.877C96.7013 147.916 96.6602 147.947 96.6138 147.968C96.5675 147.989 96.5172 148 96.4663 148C96.4154 148 96.365 147.989 96.3187 147.968C96.2724 147.947 96.2312 147.916 96.198 147.877C96.1647 147.839 96.1401 147.793 96.126 147.745C96.1118 147.696 96.1083 147.644 96.1158 147.594V91.8086C96.1158 91.7621 96.125 91.7161 96.1428 91.6731C96.1606 91.6302 96.1867 91.5911 96.2196 91.5583C96.2525 91.5254 96.2916 91.4993 96.3345 91.4815C96.3775 91.4637 96.4236 91.4546 96.4701 91.4546H106.529C106.576 91.4546 106.622 91.4637 106.665 91.4815C106.708 91.4993 106.747 91.5254 106.78 91.5583C106.813 91.5911 106.839 91.6302 106.857 91.6731C106.874 91.7161 106.884 91.7621 106.884 91.8086V147.594C106.884 147.64 106.874 147.687 106.857 147.729C106.839 147.772 106.813 147.811 106.78 147.844C106.747 147.877 106.708 147.903 106.665 147.921C106.622 147.939 106.576 147.948 106.529 147.948Z" fill="#093269"/>
<path d="M96.4701 100.52L106.529 107.915V91.8086H96.4701V100.52Z" fill="#093269"/>
<path d="M106.529 108.3C106.449 108.301 106.371 108.277 106.306 108.231L96.2391 100.836C96.1917 100.799 96.1532 100.753 96.1265 100.699C96.0998 100.646 96.0856 100.587 96.085 100.528V91.8086C96.085 91.7066 96.1256 91.6087 96.1978 91.5365C96.27 91.4644 96.368 91.4238 96.4701 91.4238H106.529C106.631 91.4238 106.729 91.4644 106.802 91.5365C106.874 91.6087 106.914 91.7066 106.914 91.8086V107.915C106.916 107.987 106.898 108.057 106.861 108.119C106.824 108.18 106.77 108.23 106.706 108.262C106.652 108.29 106.591 108.303 106.529 108.3ZM96.8552 100.328L106.144 107.161V92.1934H96.8552V100.328Z" fill="#093269"/>
<path d="M62.7497 62.9268H62.6804L61.9101 62.7883C61.8596 62.7797 61.8112 62.7612 61.7677 62.7339C61.7243 62.7067 61.6867 62.6711 61.657 62.6293C61.6273 62.5875 61.6062 62.5403 61.5947 62.4903C61.5833 62.4403 61.5819 62.3886 61.5905 62.3381C61.5991 62.2875 61.6176 62.2392 61.6449 62.1958C61.6721 62.1524 61.7077 62.1148 61.7496 62.0852C61.7914 62.0555 61.8387 62.0344 61.8887 62.023C61.9387 62.0116 61.9905 62.0101 62.0411 62.0187L62.8113 62.1495C62.9118 62.17 63.0003 62.229 63.0579 62.3138C63.1155 62.3987 63.1376 62.5027 63.1194 62.6036C63.1065 62.6927 63.0622 62.7742 62.9944 62.8335C62.9266 62.8928 62.8398 62.9259 62.7497 62.9268Z" fill="#D5E6FB"/>
<path d="M10.4052 88.6301C10.3544 88.6409 10.3019 88.6409 10.2511 88.6301C10.2045 88.61 10.1623 88.5809 10.1269 88.5445C10.0916 88.508 10.0638 88.465 10.0452 88.4177C10.0266 88.3705 10.0175 88.3201 10.0185 88.2694C10.0195 88.2187 10.0305 88.1686 10.0508 88.1222C10.2588 87.645 10.4822 87.1756 10.7132 86.7062C10.7353 86.6606 10.7663 86.6199 10.8045 86.5865C10.8426 86.5532 10.8871 86.5278 10.9353 86.512C10.9834 86.4962 11.0343 86.4903 11.0848 86.4946C11.1353 86.4988 11.1845 86.5132 11.2293 86.5369C11.2749 86.559 11.3156 86.59 11.3492 86.6279C11.3828 86.6658 11.4086 86.71 11.425 86.7579C11.4415 86.8058 11.4483 86.8565 11.4451 86.9071C11.4419 86.9576 11.4288 87.007 11.4064 87.0525C11.1754 87.5065 10.9597 87.9683 10.7595 88.43C10.725 88.4931 10.6735 88.5453 10.6109 88.5806C10.5483 88.616 10.477 88.6331 10.4052 88.6301ZM11.7916 85.875C11.724 85.8727 11.658 85.8542 11.599 85.8212C11.5118 85.7697 11.4478 85.6864 11.4205 85.5889C11.3933 85.4914 11.4048 85.3871 11.4527 85.2979C11.7145 84.8438 11.9841 84.3975 12.2691 83.9588C12.3267 83.8789 12.4129 83.8241 12.5098 83.8057C12.6066 83.7874 12.7069 83.8068 12.7898 83.8601C12.8728 83.9134 12.9321 83.9964 12.9556 84.0921C12.9791 84.1878 12.9649 84.2888 12.9161 84.3744C12.6388 84.8054 12.3769 85.2363 12.1459 85.675C12.109 85.7344 12.0564 85.7824 11.9938 85.8136C11.9313 85.8449 11.8612 85.8582 11.7916 85.852V85.875ZM13.4629 83.2739C13.3808 83.2737 13.3006 83.2496 13.2319 83.2047C13.1506 83.1434 13.0964 83.0529 13.0806 82.9524C13.0648 82.8519 13.0887 82.7492 13.1472 82.666C13.4552 82.2427 13.771 81.8272 14.1022 81.427C14.1658 81.3477 14.2581 81.2967 14.3591 81.2852C14.4601 81.2737 14.5616 81.3025 14.6414 81.3654C14.7207 81.4289 14.7718 81.5212 14.7833 81.6221C14.7948 81.723 14.766 81.8244 14.703 81.9041C14.3795 82.3043 14.0714 82.6737 13.771 83.12C13.7356 83.1683 13.6892 83.2074 13.6356 83.2341C13.582 83.2609 13.5228 83.2745 13.4629 83.2739ZM30.2924 83.2201C29.7339 83.1774 29.1868 83.0394 28.6749 82.8122C28.5809 82.7714 28.507 82.6949 28.4695 82.5997C28.4319 82.5044 28.4338 82.3982 28.4746 82.3043C28.5155 82.2104 28.592 82.1366 28.6873 82.0991C28.7827 82.0615 28.889 82.0634 28.983 82.1042C29.4134 82.2992 29.8749 82.4165 30.3463 82.4505C30.3966 82.4534 30.4458 82.4663 30.491 82.4886C30.5362 82.5108 30.5765 82.5418 30.6095 82.5798C30.6425 82.6178 30.6676 82.662 30.6832 82.7099C30.6989 82.7577 30.7048 82.8082 30.7006 82.8584C30.6987 82.9093 30.6865 82.9593 30.6647 83.0053C30.6429 83.0514 30.612 83.0926 30.5738 83.1264C30.5357 83.1602 30.4911 83.1859 30.4427 83.202C30.3943 83.2181 30.3432 83.2243 30.2924 83.2201ZM31.8328 83.0354C31.7307 83.0507 31.6266 83.0248 31.5436 82.9635C31.4605 82.9021 31.4053 82.8104 31.3899 82.7083C31.3746 82.6063 31.4005 82.5023 31.4619 82.4193C31.5233 82.3363 31.6151 82.2811 31.7173 82.2658C32.1516 82.1316 32.5494 81.9 32.8803 81.5886C32.9161 81.5525 32.9587 81.5239 33.0056 81.5044C33.0526 81.4848 33.1029 81.4748 33.1538 81.4748C33.2046 81.4748 33.2549 81.4848 33.3019 81.5044C33.3488 81.5239 33.3914 81.5525 33.4272 81.5886C33.4982 81.6618 33.538 81.7598 33.538 81.8618C33.538 81.9638 33.4982 82.0618 33.4272 82.135C33.0072 82.5321 32.5011 82.8271 31.9484 82.9969L31.8328 83.0354ZM27.5042 82.0349C27.4142 82.039 27.3261 82.0088 27.2577 81.9503C26.8346 81.6043 26.4545 81.209 26.1255 80.7729C26.0661 80.6905 26.041 80.5885 26.0554 80.488C26.0697 80.3876 26.1224 80.2966 26.2025 80.2342C26.2425 80.2028 26.2885 80.1799 26.3377 80.1668C26.3868 80.1537 26.4381 80.1506 26.4885 80.1578C26.5388 80.165 26.5872 80.1823 26.6307 80.2086C26.6742 80.235 26.7119 80.2698 26.7416 80.3111C27.0352 80.6963 27.371 81.0474 27.7429 81.3577C27.7825 81.3891 27.8154 81.4281 27.8396 81.4724C27.8639 81.5167 27.8789 81.5654 27.884 81.6157C27.889 81.6659 27.8839 81.7167 27.8689 81.7649C27.8539 81.8131 27.8294 81.8578 27.7968 81.8964C27.7568 81.9363 27.7084 81.9666 27.6551 81.9853C27.6017 82.0039 27.5449 82.0104 27.4887 82.0042L27.5042 82.0349ZM33.8508 80.9191H33.7892C33.6889 80.902 33.5992 80.8468 33.5388 80.765C33.4785 80.6832 33.4523 80.5812 33.4657 80.4804C33.4771 80.3627 33.4771 80.2442 33.4657 80.1264C33.4617 79.7931 33.4018 79.4627 33.2885 79.1491C33.2548 79.047 33.2631 78.9358 33.3115 78.8398C33.3599 78.7439 33.4444 78.671 33.5466 78.6373C33.6487 78.6037 33.7601 78.6119 33.8561 78.6602C33.9522 78.7086 34.0251 78.7931 34.0588 78.8951C34.1962 79.2914 34.269 79.7071 34.2744 80.1264C34.2856 80.2853 34.2856 80.4447 34.2744 80.6036C34.2574 80.7032 34.2018 80.7922 34.1197 80.8513C34.0375 80.9103 33.9354 80.9347 33.8354 80.9191H33.8508ZM15.4193 80.8806C15.3232 80.8779 15.2308 80.8426 15.1574 80.7806C15.1213 80.7448 15.0927 80.7022 15.0731 80.6553C15.0536 80.6085 15.0435 80.5582 15.0435 80.5074C15.0435 80.4566 15.0536 80.4063 15.0731 80.3594C15.0927 80.3125 15.1213 80.2699 15.1574 80.2342C15.504 79.8494 15.8738 79.4646 16.2435 79.1029C16.317 79.0315 16.4159 78.9922 16.5185 78.9936C16.621 78.995 16.7188 79.0371 16.7903 79.1106C16.8618 79.1841 16.9012 79.2829 16.8997 79.3854C16.8983 79.4879 16.8562 79.5856 16.7826 79.657C16.4206 80.011 16.0663 80.3727 15.7274 80.7498C15.6876 80.7955 15.6376 80.8312 15.5813 80.8539C15.5251 80.8766 15.4643 80.8858 15.4039 80.8806H15.4193ZM25.6556 79.5954C25.5813 79.5964 25.5083 79.5758 25.4454 79.5362C25.3826 79.4966 25.3325 79.4397 25.3013 79.3723C25.0776 78.8808 24.9147 78.364 24.8161 77.8331C24.7977 77.7311 24.8206 77.6259 24.8798 77.5408C24.9391 77.4556 25.0297 77.3975 25.1319 77.3791C25.234 77.3607 25.3393 77.3837 25.4245 77.4428C25.5097 77.502 25.5679 77.5926 25.5863 77.6946C25.6684 78.1724 25.8107 78.6378 26.0099 79.0798C26.0516 79.1727 26.0547 79.2783 26.0186 79.3735C25.9825 79.4687 25.9102 79.5458 25.8174 79.5877C25.7597 79.6038 25.6991 79.6064 25.6402 79.5954H25.6556ZM17.6376 78.7258C17.5592 78.7251 17.4829 78.7004 17.4189 78.6551C17.3549 78.6099 17.3062 78.5462 17.2794 78.4726C17.2526 78.3989 17.249 78.3189 17.2689 78.2432C17.2889 78.1674 17.3315 78.0995 17.3911 78.0486C17.7993 77.71 18.2152 77.3791 18.6389 77.0867C18.6796 77.0573 18.7259 77.0364 18.7748 77.0252C18.8238 77.014 18.8745 77.0126 18.924 77.0212C18.9735 77.0298 19.0208 77.0482 19.0631 77.0753C19.1054 77.1024 19.1418 77.1377 19.1703 77.179C19.1999 77.2204 19.2209 77.2672 19.2323 77.3167C19.2436 77.3662 19.2451 77.4175 19.2365 77.4676C19.2279 77.5177 19.2094 77.5656 19.1822 77.6085C19.155 77.6514 19.1195 77.6885 19.0779 77.7177C18.6774 77.9947 18.3077 78.3103 17.884 78.6412C17.8109 78.702 17.7171 78.7323 17.6222 78.7258H17.6376ZM32.9496 78.0486C32.8898 78.0492 32.8306 78.0356 32.777 78.0088C32.7234 77.9821 32.677 77.943 32.6416 77.8947C32.3701 77.5427 32.0542 77.2271 31.7019 76.9558L31.6172 76.8943C31.5354 76.8331 31.4814 76.7419 31.467 76.6409C31.4525 76.5399 31.4788 76.4372 31.5401 76.3556C31.6015 76.2744 31.692 76.2202 31.7926 76.2044C31.8932 76.1886 31.996 76.2125 32.0793 76.2709L32.1717 76.3402C32.578 76.6552 32.9406 77.0226 33.25 77.433C33.2957 77.4888 33.3244 77.5565 33.3327 77.628C33.341 77.6996 33.3287 77.7721 33.2971 77.8369C33.2655 77.9016 33.2159 77.956 33.1544 77.9935C33.0928 78.0311 33.0218 78.0502 32.9496 78.0486ZM20.1639 76.9558C20.0945 76.9569 20.0261 76.9387 19.9663 76.9034C19.9065 76.8681 19.8576 76.817 19.825 76.7558C19.7771 76.6665 19.7656 76.5622 19.7929 76.4647C19.8202 76.3672 19.8841 76.284 19.9714 76.2325C20.4303 75.9705 20.9034 75.7341 21.3886 75.5245C21.4791 75.496 21.5769 75.5019 21.6633 75.5411C21.7497 75.5803 21.8185 75.6499 21.8567 75.7367C21.8949 75.8234 21.8997 75.9212 21.8701 76.0113C21.8406 76.1014 21.7788 76.1774 21.6967 76.2248C21.2499 76.4249 20.7955 76.648 20.3488 76.902C20.2897 76.9414 20.2194 76.9603 20.1485 76.9558H20.1639ZM25.1319 76.6172C25.0304 76.6094 24.9359 76.5624 24.8684 76.4863C24.8009 76.4103 24.7656 76.311 24.7699 76.2094C24.8108 75.6713 24.9011 75.138 25.0394 74.6164C25.052 74.5673 25.0741 74.5212 25.1046 74.4807C25.135 74.4402 25.1731 74.4062 25.2168 74.3804C25.2604 74.3547 25.3087 74.3378 25.3589 74.3307C25.4091 74.3237 25.4602 74.3266 25.5093 74.3393C25.5754 74.3579 25.6356 74.3931 25.6842 74.4416C25.7327 74.4902 25.768 74.5503 25.7865 74.6164C25.8215 74.5801 25.8634 74.5513 25.9097 74.5314C25.956 74.5116 26.0058 74.5012 26.0561 74.501H26.3026C26.753 74.4993 27.2032 74.525 27.6505 74.5779C27.7521 74.5914 27.8444 74.644 27.9077 74.7245C27.971 74.805 28.0003 74.9071 27.9894 75.0089C27.976 75.1098 27.923 75.2014 27.8422 75.2634C27.7613 75.3254 27.6592 75.3529 27.5581 75.3398C27.1412 75.2933 26.7221 75.2701 26.3026 75.2705H26.0715C25.9992 75.2711 25.9281 75.252 25.8657 75.2155C25.8033 75.1789 25.752 75.1261 25.7172 75.0627C25.6281 75.4579 25.5689 75.8592 25.5401 76.2632C25.5322 76.364 25.485 76.4576 25.4086 76.5238C25.3322 76.5901 25.2328 76.6236 25.1319 76.6172ZM30.5234 76.2017C30.4676 76.2133 30.4099 76.2133 30.354 76.2017C29.911 75.9863 29.4496 75.8112 28.9753 75.6784C28.8731 75.6508 28.7861 75.5839 28.7334 75.4922C28.6807 75.4006 28.6666 75.2918 28.6942 75.1897C28.7217 75.0877 28.7887 75.0007 28.8805 74.9481C28.9722 74.8954 29.0811 74.8813 29.1832 74.9088C29.7119 75.058 30.2272 75.2511 30.7237 75.486C30.8138 75.5308 30.8827 75.609 30.9158 75.7039C30.949 75.7988 30.9436 75.9029 30.9008 75.9939C30.8609 76.0558 30.8043 76.1052 30.7376 76.1365C30.6708 76.1678 30.5966 76.1798 30.5234 76.1709V76.2017ZM22.9829 75.7553C22.8993 75.7566 22.8176 75.7301 22.7507 75.68C22.6838 75.6298 22.6354 75.5589 22.6132 75.4783C22.5843 75.3813 22.5948 75.2769 22.6423 75.1876C22.6899 75.0983 22.7708 75.0313 22.8674 75.0012C23.3716 74.8458 23.8864 74.7275 24.4078 74.6472C24.4584 74.6391 24.5101 74.641 24.5599 74.6529C24.6097 74.6648 24.6567 74.6863 24.6982 74.7163C24.7397 74.7463 24.7749 74.7842 24.8017 74.8278C24.8285 74.8714 24.8465 74.9199 24.8546 74.9704C24.8627 75.0209 24.8607 75.0725 24.8488 75.1223C24.837 75.1721 24.8154 75.219 24.7854 75.2605C24.7553 75.3019 24.7174 75.3371 24.6738 75.3639C24.6301 75.3907 24.5817 75.4086 24.5311 75.4167C24.0391 75.4986 23.5529 75.6117 23.0754 75.7553H22.9829ZM25.9021 73.616C25.8487 73.6265 25.7937 73.6265 25.7403 73.616C25.6475 73.574 25.5752 73.4969 25.5391 73.4017C25.503 73.3065 25.5061 73.2009 25.5478 73.108C25.7695 72.6228 26.0269 72.1546 26.318 71.7074C26.3721 71.6207 26.4585 71.559 26.5582 71.5359C26.6579 71.5128 26.7626 71.5302 26.8495 71.5843C26.9363 71.6384 26.998 71.7247 27.0211 71.8243C27.0443 71.9239 27.0268 72.0286 26.9727 72.1153C26.7083 72.5356 26.4716 72.9726 26.2641 73.4236C26.2287 73.4871 26.1757 73.539 26.1115 73.5732C26.0473 73.6073 25.9746 73.6222 25.9021 73.616ZM27.5273 70.9994C27.4405 70.9984 27.3565 70.9686 27.2885 70.9148C27.2481 70.8833 27.2144 70.844 27.1894 70.7994C27.1643 70.7547 27.1485 70.7054 27.1427 70.6545C27.137 70.6037 27.1415 70.5521 27.1559 70.503C27.1704 70.4539 27.1945 70.4081 27.2269 70.3684C27.5427 69.9682 27.897 69.5988 28.2667 69.1833C28.3382 69.1098 28.436 69.0677 28.5385 69.0663C28.6411 69.0648 28.74 69.1042 28.8135 69.1756C28.8871 69.247 28.9292 69.3447 28.9306 69.4472C28.9321 69.5497 28.8927 69.6485 28.8212 69.722C28.4712 70.0821 28.1396 70.4597 27.8276 70.8532C27.7894 70.8998 27.7412 70.9371 27.6865 70.9624C27.6318 70.9877 27.5721 71.0004 27.5119 70.9994H27.5273ZM29.9689 68.6369L29.6685 68.3906L29.4143 68.0982C29.8456 67.7288 30.2307 67.4133 30.6236 67.1055C30.7043 67.0434 30.8064 67.0159 30.9075 67.0288C31.0085 67.0418 31.1003 67.0943 31.1627 67.1747C31.1945 67.2143 31.2179 67.2598 31.2317 67.3086C31.2454 67.3574 31.2492 67.4085 31.2427 67.4588C31.2362 67.5091 31.2197 67.5576 31.194 67.6013C31.1684 67.6451 31.1341 67.6832 31.0934 67.7134C30.7006 68.0136 30.3232 68.3137 29.9535 68.6369H29.9689ZM32.1178 66.8977C32.0543 66.8971 31.9919 66.8815 31.9356 66.852C31.8794 66.8226 31.8309 66.7802 31.7943 66.7284C31.7382 66.6424 31.718 66.5378 31.7382 66.4371C31.7583 66.3363 31.8172 66.2475 31.9021 66.1897C32.3335 65.8973 32.7725 65.6202 33.2269 65.3586C33.314 65.3074 33.4176 65.2925 33.5156 65.3169C33.6135 65.3414 33.698 65.4033 33.7507 65.4894C33.8023 65.5775 33.8175 65.6823 33.793 65.7814C33.7686 65.8806 33.7064 65.9663 33.6197 66.0204C33.1833 66.2769 32.752 66.5463 32.3258 66.8284C32.2613 66.8761 32.1826 66.9005 32.1024 66.8977H32.1178ZM34.7751 65.3586C34.7039 65.3586 34.634 65.3392 34.573 65.3026C34.5119 65.266 34.462 65.2136 34.4285 65.1508C34.3828 65.0599 34.375 64.9547 34.4067 64.8581C34.4385 64.7614 34.5072 64.6813 34.5979 64.6352C35.0678 64.3966 35.5376 64.1735 36.0151 63.958C36.1093 63.9189 36.215 63.9179 36.3098 63.9553C36.4047 63.9926 36.4813 64.0653 36.5235 64.1581C36.5439 64.2045 36.5549 64.2546 36.5559 64.3053C36.5568 64.356 36.5477 64.4064 36.5291 64.4536C36.5105 64.5009 36.4827 64.5439 36.4474 64.5804C36.4121 64.6168 36.3699 64.6459 36.3232 64.666C35.8611 64.8661 35.399 65.0892 34.9522 65.3201C34.8892 65.3353 34.8237 65.3379 34.7597 65.3278L34.7751 65.3586ZM37.6018 64.1119C37.4997 64.1303 37.3944 64.1073 37.3092 64.0482C37.224 63.989 37.1658 63.8984 37.1474 63.7964C37.129 63.6943 37.1519 63.5891 37.2111 63.504C37.2704 63.4189 37.361 63.3607 37.4632 63.3423C37.9484 63.1576 38.4413 62.9883 38.942 62.8267C39.039 62.7952 39.1446 62.8034 39.2356 62.8495C39.3266 62.8957 39.3955 62.9761 39.4272 63.073C39.4564 63.1709 39.4462 63.2764 39.3987 63.367C39.3512 63.4575 39.2703 63.526 39.1731 63.5578C38.6878 63.7117 38.2103 63.881 37.7327 64.058C37.6873 64.0801 37.6364 64.0881 37.5864 64.0811L37.6018 64.1119ZM40.5364 63.1576C40.4527 63.1589 40.371 63.1324 40.3041 63.0823C40.2372 63.0321 40.1888 62.9612 40.1667 62.8806C40.1405 62.7816 40.154 62.6764 40.2043 62.5872C40.2547 62.4981 40.3379 62.4322 40.4362 62.4035C40.9369 62.2726 41.4452 62.1418 41.9767 62.0341C42.0263 62.0227 42.0776 62.0213 42.1277 62.0299C42.1778 62.0385 42.2258 62.0569 42.2687 62.0841C42.3117 62.1113 42.3489 62.1467 42.3781 62.1883C42.4072 62.2299 42.4279 62.2769 42.4388 62.3265C42.4501 62.3756 42.4515 62.4264 42.4428 62.476C42.4341 62.5255 42.4156 62.5729 42.3883 62.6152C42.361 62.6575 42.3255 62.6939 42.284 62.7223C42.2424 62.7507 42.1955 62.7705 42.1461 62.7806C41.6455 62.896 41.1525 63.0114 40.6596 63.1499L40.5364 63.1576ZM60.4852 62.5728H60.4236L58.8831 62.3573C58.8334 62.3516 58.7853 62.3361 58.7417 62.3116C58.698 62.2872 58.6597 62.2543 58.6289 62.2149C58.598 62.1755 58.5754 62.1304 58.5622 62.0822C58.549 62.034 58.5455 61.9836 58.5519 61.934C58.5654 61.8325 58.6181 61.7403 58.6986 61.677C58.7792 61.6138 58.8814 61.5845 58.9833 61.5954L60.5237 61.8109C60.6258 61.818 60.721 61.8654 60.7881 61.9427C60.8553 62.0199 60.889 62.1206 60.8819 62.2226C60.8747 62.3247 60.8273 62.4197 60.75 62.4868C60.6727 62.5539 60.5719 62.5876 60.4698 62.5805L60.4852 62.5728ZM43.5402 62.4881C43.4897 62.4927 43.4387 62.4872 43.3902 62.4721C43.3418 62.4569 43.2968 62.4324 43.2578 62.3999C43.1791 62.3342 43.1297 62.24 43.1205 62.138C43.1113 62.0359 43.143 61.9344 43.2088 61.8557C43.2745 61.7771 43.3688 61.7277 43.4709 61.7186C43.9793 61.6262 44.4953 61.5493 45.0114 61.4723C45.1133 61.4591 45.2164 61.4863 45.2985 61.5482C45.3806 61.6101 45.4351 61.7016 45.4504 61.8032C45.4635 61.9042 45.436 62.0063 45.3739 62.0871C45.3119 62.1679 45.2203 62.2207 45.1192 62.2342L43.5788 62.4727L43.5402 62.4881ZM57.4043 62.1726H57.3581L55.8176 62.0264C55.7155 62.0182 55.6208 61.9698 55.5543 61.8919C55.4879 61.814 55.4552 61.7129 55.4633 61.6108C55.4715 61.5088 55.5199 61.4141 55.5979 61.3478C55.6759 61.2814 55.7771 61.2487 55.8792 61.2568C56.3953 61.2953 56.9114 61.3415 57.4197 61.403C57.5207 61.4146 57.6129 61.4656 57.6764 61.5449C57.7399 61.6242 57.7694 61.7253 57.7586 61.8263C57.7446 61.9115 57.7018 61.9892 57.6373 62.0467C57.5728 62.1041 57.4906 62.1377 57.4043 62.1418V62.1726ZM46.6211 62.0649C46.519 62.07 46.419 62.0343 46.3432 61.9658C46.2674 61.8972 46.2219 61.8014 46.2168 61.6993C46.2117 61.5973 46.2473 61.4974 46.316 61.4216C46.3846 61.3458 46.4805 61.3004 46.5826 61.2953C47.0987 61.2414 47.6224 61.1953 48.1231 61.1645C48.1741 61.1591 48.2257 61.1645 48.2746 61.1801C48.3235 61.1958 48.3685 61.2215 48.4069 61.2555C48.4453 61.2895 48.4762 61.3311 48.4976 61.3777C48.519 61.4243 48.5305 61.4749 48.5313 61.5262C48.5377 61.627 48.5041 61.7263 48.4378 61.8026C48.3715 61.879 48.2778 61.9261 48.177 61.934C47.6609 61.934 47.1526 62.011 46.6365 62.0572L46.6211 62.0649ZM54.3234 61.9263C53.815 61.9263 53.299 61.8802 52.7829 61.8648C52.7324 61.8638 52.6825 61.8528 52.6361 61.8326C52.5898 61.8123 52.5479 61.7831 52.5129 61.7467C52.4778 61.7102 52.4503 61.6672 52.4319 61.6201C52.4135 61.5731 52.4045 61.5228 52.4055 61.4723C52.4131 61.3722 52.4573 61.2783 52.5298 61.2087C52.6023 61.1391 52.6979 61.0987 52.7983 61.0952C53.3221 61.0952 53.8382 61.0952 54.3388 61.1568C54.4416 61.1627 54.538 61.2088 54.6072 61.2851C54.6763 61.3614 54.7127 61.4618 54.7085 61.5646C54.6954 61.6571 54.6492 61.7416 54.5783 61.8025C54.5074 61.8634 54.4168 61.8965 54.3234 61.8956V61.9263ZM49.702 61.8648C49.5999 61.8648 49.502 61.8242 49.4297 61.7521C49.3575 61.6799 49.3169 61.582 49.3169 61.48C49.3169 61.3779 49.3575 61.2801 49.4297 61.2079C49.502 61.1357 49.5999 61.0952 49.702 61.0952H51.2425C51.3446 61.0952 51.4426 61.1357 51.5148 61.2079C51.587 61.2801 51.6276 61.3779 51.6276 61.48C51.6286 61.5302 51.6196 61.58 51.6011 61.6267C51.5826 61.6733 51.555 61.7158 51.5198 61.7516C51.4847 61.7875 51.4427 61.8159 51.3964 61.8353C51.3501 61.8548 51.3004 61.8648 51.2502 61.8648C50.7341 61.8648 50.2258 61.8648 49.7098 61.8648H49.702Z" fill="#D5E6FB"/>
<path d="M9.5502 90.8312H9.42697C9.33139 90.7979 9.25276 90.7284 9.20808 90.6377C9.1634 90.547 9.15626 90.4423 9.1882 90.3464C9.27293 90.1001 9.35765 89.8539 9.45007 89.5768C9.48635 89.4823 9.55843 89.4059 9.6507 89.3641C9.74297 89.3224 9.84799 89.3186 9.94302 89.3536C10.039 89.3884 10.1173 89.4598 10.1606 89.5521C10.2039 89.6445 10.2088 89.7502 10.1741 89.8462C10.0817 90.0873 9.99694 90.3259 9.91991 90.5619C9.89521 90.6403 9.84597 90.7089 9.77943 90.7573C9.71289 90.8058 9.63255 90.8317 9.5502 90.8312Z" fill="#D5E6FB"/>
<path d="M53.0063 51.4298C52.9168 51.428 52.8307 51.3958 52.762 51.3384C52.6934 51.281 52.6464 51.2019 52.6289 51.1143C52.6109 51.0143 52.6332 50.9113 52.6909 50.8277C52.7486 50.744 52.8371 50.6866 52.937 50.6679C53.1742 50.6176 53.4063 50.5454 53.6302 50.4524C53.6772 50.4337 53.7275 50.4244 53.7781 50.4251C53.8287 50.4258 53.8787 50.4364 53.9252 50.4564C53.9717 50.4765 54.0138 50.5054 54.0491 50.5417C54.0844 50.578 54.1122 50.6209 54.1308 50.6679C54.1667 50.763 54.1642 50.8682 54.124 50.9615C54.0838 51.0548 54.0089 51.1288 53.9152 51.1681C53.6528 51.2683 53.3822 51.3456 53.1064 51.399L53.0063 51.4298Z" fill="#D5E6FB"/>
<path d="M51.4967 51.4835C50.9757 51.4266 50.4604 51.3262 49.9562 51.1834C49.9057 51.1703 49.8582 51.1473 49.8165 51.1158C49.7748 51.0843 49.7397 51.045 49.7132 51C49.6868 50.9549 49.6694 50.9052 49.6622 50.8534C49.655 50.8017 49.6581 50.7491 49.6712 50.6986C49.6844 50.648 49.7074 50.6006 49.7389 50.5589C49.7704 50.5173 49.8098 50.4822 49.8548 50.4558C49.8999 50.4294 49.9497 50.412 50.0015 50.4048C50.0532 50.3976 50.1059 50.4007 50.1565 50.4138C50.6258 50.5428 51.105 50.6329 51.5891 50.6832C51.6398 50.688 51.689 50.7028 51.7339 50.7267C51.7788 50.7506 51.8185 50.7832 51.8508 50.8226C51.883 50.8619 51.9071 50.9073 51.9217 50.956C51.9363 51.0047 51.941 51.0559 51.9357 51.1064C51.9365 51.1616 51.9251 51.2162 51.9024 51.2665C51.8797 51.3168 51.8462 51.3615 51.8044 51.3975C51.7625 51.4334 51.7132 51.4598 51.6601 51.4746C51.6069 51.4895 51.5511 51.4925 51.4967 51.4835ZM48.5467 50.714C48.5034 50.7213 48.4591 50.7213 48.4158 50.714L46.9832 50.1984C46.9343 50.1822 46.8891 50.1565 46.8503 50.1226C46.8116 50.0887 46.78 50.0475 46.7575 50.0012C46.735 49.9549 46.722 49.9046 46.7193 49.8532C46.7166 49.8019 46.7242 49.7505 46.7417 49.7021C46.7592 49.6537 46.7863 49.6093 46.8212 49.5716C46.8562 49.5338 46.8984 49.5035 46.9453 49.4823C46.9923 49.4611 47.043 49.4496 47.0945 49.4483C47.1459 49.447 47.1971 49.4561 47.245 49.475L48.6777 49.9906C48.7282 49.9992 48.7766 50.0176 48.82 50.0449C48.8635 50.0722 48.9011 50.1077 48.9308 50.1495C48.9605 50.1913 48.9816 50.2386 48.993 50.2885C49.0044 50.3385 49.0059 50.3902 48.9973 50.4408C48.9887 50.4913 48.9702 50.5396 48.9429 50.583C48.9156 50.6264 48.88 50.664 48.8382 50.6937C48.7964 50.7234 48.7491 50.7445 48.6991 50.7559C48.6491 50.7673 48.5973 50.7687 48.5467 50.7601V50.714ZM45.6815 49.6828C45.6381 49.6901 45.5939 49.6901 45.5505 49.6828L44.1179 49.1441C44.0704 49.127 44.0269 49.1005 43.9898 49.0663C43.9528 49.0321 43.9229 48.9909 43.9021 48.9449C43.8813 48.899 43.8699 48.8494 43.8686 48.799C43.8673 48.7486 43.8761 48.6985 43.8946 48.6515C43.9125 48.6038 43.9397 48.5602 43.9747 48.5231C44.0096 48.486 44.0516 48.4562 44.0982 48.4354C44.1448 48.4146 44.195 48.4033 44.246 48.4021C44.297 48.4009 44.3477 48.4098 44.3952 48.4284L45.8201 48.9594C45.9147 48.9956 45.9912 49.0676 46.033 49.1598C46.0748 49.252 46.0786 49.3569 46.0435 49.4519C46.0147 49.5232 45.9644 49.5838 45.8995 49.6252C45.8346 49.6666 45.7584 49.6867 45.6815 49.6828ZM42.847 48.6131C42.7989 48.6245 42.7488 48.6245 42.7007 48.6131C42.2309 48.4284 41.7533 48.236 41.2835 48.0359C41.1911 47.9952 41.118 47.9205 41.0793 47.8274C41.0406 47.7342 41.0392 47.6298 41.0755 47.5357C41.1178 47.4428 41.194 47.3696 41.2884 47.331C41.3829 47.2924 41.4886 47.2913 41.5839 47.3279C42.046 47.528 42.5158 47.7127 42.9857 47.8974C43.0327 47.916 43.0757 47.9438 43.112 47.979C43.1483 48.0143 43.1773 48.0563 43.1973 48.1028C43.2174 48.1493 43.228 48.1992 43.2287 48.2498C43.2294 48.3004 43.2201 48.3506 43.2014 48.3976C43.1698 48.4642 43.1194 48.52 43.0565 48.5583C42.9935 48.5966 42.9207 48.6156 42.847 48.6131ZM40.0357 47.4356C39.985 47.4472 39.9324 47.4472 39.8817 47.4356L38.4876 46.7969C38.4413 46.7754 38.3998 46.745 38.3654 46.7074C38.331 46.6698 38.3045 46.6257 38.2873 46.5777C38.2701 46.5297 38.2626 46.4788 38.2652 46.428C38.2679 46.3771 38.2806 46.3272 38.3027 46.2813C38.3477 46.1894 38.4268 46.1186 38.5232 46.0842C38.6196 46.0497 38.7256 46.0541 38.8188 46.0966C39.2732 46.3198 39.7276 46.5276 40.1898 46.7276C40.2919 46.7481 40.3818 46.8082 40.4395 46.8948C40.4973 46.9814 40.5183 47.0873 40.4979 47.1894C40.4774 47.2914 40.4173 47.3812 40.3306 47.4389C40.2439 47.4967 40.1379 47.5176 40.0357 47.4972V47.4356ZM37.286 46.1274C37.2239 46.1278 37.1629 46.1118 37.1089 46.0812C36.6544 45.8503 36.2 45.6118 35.7533 45.3578C35.7086 45.3338 35.6692 45.301 35.6375 45.2614C35.6057 45.2217 35.5824 45.1761 35.5687 45.1273C35.555 45.0784 35.5514 45.0273 35.5579 44.977C35.5645 44.9267 35.5812 44.8782 35.6069 44.8345C35.6571 44.7459 35.7404 44.6807 35.8386 44.6533C35.9367 44.6259 36.0418 44.6385 36.1307 44.6883C36.5697 44.9346 37.0164 45.1731 37.4632 45.404C37.5081 45.4267 37.5481 45.4582 37.5807 45.4967C37.6133 45.5351 37.6379 45.5796 37.6529 45.6277C37.668 45.6758 37.6733 45.7264 37.6685 45.7765C37.6637 45.8266 37.6489 45.8753 37.6249 45.9196C37.5921 45.9829 37.5423 46.0359 37.4811 46.0726C37.4199 46.1093 37.3497 46.1282 37.2783 46.1274H37.286ZM34.6287 44.6421C34.5587 44.6398 34.4902 44.6214 34.4285 44.5883C33.9895 44.3189 33.5581 44.0419 33.1268 43.7571C33.0845 43.7286 33.0484 43.6919 33.0204 43.6493C32.9925 43.6066 32.9733 43.5588 32.964 43.5087C32.9547 43.4586 32.9554 43.4071 32.9662 43.3573C32.9769 43.3075 32.9975 43.2603 33.0267 43.2184C33.0545 43.1765 33.0905 43.1405 33.1326 43.1127C33.1746 43.0848 33.2217 43.0657 33.2713 43.0564C33.3208 43.0471 33.3717 43.0477 33.421 43.0584C33.4703 43.069 33.5169 43.0895 33.5581 43.1184C33.9741 43.3955 34.3977 43.652 34.829 43.888C34.9019 43.9312 34.9584 43.9971 34.99 44.0757C35.0215 44.1542 35.0262 44.241 35.0034 44.3225C34.9806 44.404 34.9315 44.4757 34.8638 44.5266C34.7961 44.5774 34.7134 44.6045 34.6287 44.6037V44.6421ZM32.0639 42.9414C31.9803 42.9432 31.8986 42.916 31.8328 42.8645L31.3707 42.5105C31.1165 42.3181 30.8623 42.118 30.6005 41.9102C30.5615 41.8779 30.5293 41.8382 30.5057 41.7934C30.4822 41.7486 30.4676 41.6997 30.463 41.6493C30.4583 41.5989 30.4637 41.5481 30.4787 41.4998C30.4937 41.4515 30.518 41.4066 30.5504 41.3677C30.5828 41.3287 30.6225 41.2966 30.6673 41.273C30.7121 41.2495 30.7611 41.2349 30.8115 41.2303C30.862 41.2256 30.9128 41.231 30.9612 41.246C31.0095 41.2609 31.0545 41.2853 31.0934 41.3176C31.3399 41.5177 31.5786 41.7178 31.8636 41.9025L32.3181 42.2488C32.3827 42.2973 32.4305 42.3648 32.4546 42.4419C32.4787 42.519 32.4779 42.6017 32.4523 42.6783C32.4268 42.7549 32.3778 42.8216 32.3122 42.8688C32.2466 42.916 32.1678 42.9414 32.087 42.9414H32.0639ZM29.7532 40.9944C29.6556 40.9923 29.5622 40.9539 29.4913 40.8867C29.1139 40.5327 28.7211 40.171 28.3976 39.7939C28.3618 39.7588 28.3333 39.7169 28.3138 39.6706C28.2944 39.6244 28.2843 39.5747 28.2843 39.5246C28.2843 39.4744 28.2944 39.4247 28.3138 39.3785C28.3333 39.3322 28.3618 39.2903 28.3976 39.2552C28.4334 39.2191 28.476 39.1905 28.5229 39.171C28.5699 39.1515 28.6202 39.1414 28.671 39.1414C28.7219 39.1414 28.7722 39.1515 28.8192 39.171C28.8661 39.1905 28.9087 39.2191 28.9445 39.2552C29.2834 39.6169 29.6377 39.9709 30.0074 40.3095C30.0435 40.3453 30.0721 40.3878 30.0917 40.4347C30.1112 40.4816 30.1213 40.5319 30.1213 40.5827C30.1213 40.6335 30.1112 40.6838 30.0917 40.7307C30.0721 40.7776 30.0435 40.8201 30.0074 40.8559C29.9762 40.8946 29.9377 40.9267 29.8941 40.9505C29.8505 40.9743 29.8026 40.9892 29.7532 40.9944ZM27.6659 38.7781C27.6098 38.7787 27.5543 38.7666 27.5036 38.7426C27.4529 38.7186 27.4083 38.6833 27.3732 38.6396C27.042 38.2471 26.7185 37.87 26.4181 37.4237C26.3596 37.3404 26.3358 37.2377 26.3516 37.1372C26.3674 37.0367 26.4216 36.9463 26.5029 36.885C26.5438 36.8551 26.5902 36.8335 26.6395 36.8216C26.6888 36.8096 26.7399 36.8075 26.79 36.8154C26.8401 36.8233 26.8882 36.8409 26.9314 36.8674C26.9747 36.8939 27.0123 36.9286 27.042 36.9696C27.3347 37.3698 27.6428 37.7392 27.9586 38.1471C28.0238 38.2261 28.0555 38.3275 28.0468 38.4296C28.0382 38.5317 27.9899 38.6264 27.9124 38.6934C27.8414 38.7473 27.755 38.777 27.6659 38.7781ZM25.879 36.3155C25.8134 36.316 25.7487 36.3 25.6908 36.2691C25.633 36.2382 25.5838 36.1933 25.5478 36.1385C25.2705 35.6998 25.0086 35.2458 24.7776 34.7918C24.7306 34.7009 24.7216 34.5952 24.7527 34.4978C24.7837 34.4004 24.8523 34.3193 24.9432 34.2723C25.0341 34.2254 25.1399 34.2164 25.2374 34.2475C25.3349 34.2785 25.4161 34.3469 25.4631 34.4378C25.6941 34.8687 25.9406 35.2997 26.2333 35.7306C26.2602 35.7736 26.2783 35.8214 26.2867 35.8713C26.295 35.9213 26.2934 35.9724 26.282 36.0217C26.2706 36.071 26.2495 36.1176 26.22 36.1588C26.1905 36.2 26.1531 36.2349 26.11 36.2616C26.0476 36.2998 25.9752 36.3185 25.9021 36.3155H25.879ZM24.4541 33.6297C24.3789 33.63 24.3053 33.6083 24.2423 33.5672C24.1794 33.5262 24.1298 33.4677 24.0998 33.3989C23.8892 32.9115 23.7044 32.4266 23.5452 31.9444C23.5217 31.8954 23.5088 31.8419 23.5075 31.7875C23.5062 31.7332 23.5164 31.6792 23.5375 31.629C23.5586 31.5789 23.5901 31.5338 23.6299 31.4967C23.6697 31.4597 23.7169 31.4314 23.7684 31.4139C23.8199 31.3964 23.8746 31.39 23.9288 31.3951C23.9829 31.4002 24.0354 31.4167 24.0827 31.4436C24.13 31.4705 24.1711 31.507 24.2033 31.5509C24.2354 31.5948 24.2579 31.6449 24.2692 31.6981C24.4233 32.1599 24.6081 32.6293 24.8084 33.091C24.8475 33.1851 24.8485 33.2907 24.8111 33.3855C24.7737 33.4803 24.7009 33.5568 24.6081 33.5989C24.5585 33.6166 24.5066 33.6269 24.4541 33.6297ZM23.4836 30.7439C23.3979 30.7443 23.3146 30.7156 23.2474 30.6625C23.1802 30.6093 23.1331 30.5349 23.1139 30.4514C22.9901 29.9437 22.8924 29.43 22.8212 28.9123C22.8136 28.8622 22.8163 28.811 22.8289 28.7619C22.8416 28.7128 22.8641 28.6667 22.895 28.6265C22.926 28.5862 22.9647 28.5526 23.0089 28.5277C23.0531 28.5028 23.1019 28.487 23.1524 28.4814C23.2523 28.4681 23.3535 28.4946 23.4341 28.555C23.5147 28.6154 23.5685 28.705 23.5837 28.8046C23.653 29.2894 23.7455 29.7819 23.861 30.2668C23.8821 30.3656 23.8643 30.4687 23.8112 30.5547C23.7581 30.6407 23.6739 30.703 23.576 30.7285L23.4836 30.7439Z" fill="#D5E6FB"/>
<path d="M23.0677 27.7194C22.9681 27.7195 22.8724 27.6811 22.8007 27.6122C22.7289 27.5434 22.6865 27.4494 22.6825 27.35C22.6825 27.0884 22.6825 26.8267 22.6825 26.5805C22.6803 26.5297 22.6887 26.479 22.7074 26.4317C22.7261 26.3844 22.7545 26.3416 22.7908 26.306C22.8272 26.2704 22.8706 26.2429 22.9183 26.2252C22.966 26.2075 23.0169 26.2001 23.0677 26.2034C23.1698 26.2034 23.2678 26.2439 23.34 26.3161C23.4122 26.3883 23.4528 26.4861 23.4528 26.5882C23.4528 26.8421 23.4528 27.0884 23.4528 27.3577C23.4548 27.4083 23.4469 27.4587 23.4294 27.5062C23.412 27.5537 23.3853 27.5972 23.351 27.6344C23.3166 27.6716 23.2753 27.7016 23.2293 27.7228C23.1833 27.744 23.1336 27.7559 23.0831 27.7579L23.0677 27.7194Z" fill="#D5E6FB"/>
<path d="M23.9457 17.1611C26.2435 15.125 27.8529 12.4272 28.5523 9.43921C29.2516 6.45122 29.0065 3.32008 27.8508 0.477051C27.8508 0.477051 22.4592 0.61557 20.6954 6.90288C18.9315 13.1902 23.9457 17.1611 23.9457 17.1611Z" fill="white"/>
<path d="M23.9457 17.5459C23.8583 17.5488 23.773 17.5186 23.7069 17.4613C23.653 17.4613 18.5387 13.2672 20.318 6.80285C22.0972 0.338543 27.7814 0.0922852 27.8431 0.0922852C27.923 0.0929076 28.001 0.117425 28.0668 0.162685C28.1327 0.207944 28.1835 0.271872 28.2128 0.346238C29.3797 3.26736 29.6191 6.47641 28.8985 9.5381C28.1778 12.5998 26.5321 15.3659 24.1845 17.4613C24.1184 17.5186 24.0331 17.5488 23.9457 17.5459ZM27.5889 0.884931C26.4952 1.00806 22.4977 1.80071 21.0651 7.04141C19.6325 12.2821 23.006 15.8067 23.9457 16.684C26.0824 14.7286 27.5746 12.1713 28.2251 9.35025C28.8757 6.52919 28.6538 3.57728 27.5889 0.884931Z" fill="#D5E6FB"/>
<path d="M24.6312 21.1552C24.5532 21.1547 24.4771 21.131 24.4127 21.0871C24.3482 21.0433 24.2983 20.9812 24.2692 20.9089C21.1883 12.6131 27.25 0.80032 27.5042 0.300106C27.5532 0.210281 27.6353 0.143121 27.7331 0.112935C27.831 0.0827488 27.9367 0.0919192 28.0279 0.138496C28.1173 0.185965 28.1843 0.266672 28.2146 0.36316C28.2449 0.459649 28.2359 0.564164 28.1897 0.654103C28.128 0.777232 22.0279 12.6669 24.9932 20.6627C25.0117 20.7096 25.0205 20.7597 25.0192 20.8101C25.0179 20.8605 25.0065 20.9101 24.9857 20.9561C24.9648 21.002 24.935 21.0433 24.8979 21.0775C24.8609 21.1117 24.8173 21.1381 24.7699 21.1552C24.7239 21.1625 24.6771 21.1625 24.6312 21.1552Z" fill="#D5E6FB"/>
<path d="M14.4951 95.4177C16.7919 97.4545 18.4006 100.152 19.0999 103.14C19.7992 106.128 19.5547 109.259 18.4001 112.102C18.4001 112.102 13.0085 111.971 11.2447 105.676C9.48089 99.381 14.4951 95.4177 14.4951 95.4177Z" fill="white"/>
<path d="M18.4001 112.487C18.3462 112.487 12.6696 112.271 10.8827 105.776C9.09577 99.281 14.2101 95.1562 14.264 95.1177C14.3326 95.0621 14.4183 95.0317 14.5066 95.0317C14.595 95.0317 14.6806 95.0621 14.7492 95.1177C17.0953 97.2158 18.7392 99.9837 19.4583 103.046C20.1775 106.109 19.9371 109.319 18.7698 112.24C18.7412 112.315 18.6903 112.378 18.6241 112.422C18.5579 112.466 18.4796 112.489 18.4001 112.487ZM14.4951 95.9257C13.1686 97.109 12.1969 98.637 11.6883 100.34C11.1797 102.042 11.1541 103.852 11.6144 105.568C13.0547 110.778 17.0522 111.579 18.1382 111.725C19.1732 109.028 19.3794 106.084 18.7304 103.27C18.0814 100.455 16.6067 97.8981 14.4951 95.9257Z" fill="#D5E6FB"/>
<path d="M18.4001 112.487C18.33 112.486 18.2614 112.466 18.2017 112.43C18.142 112.393 18.0934 112.341 18.0612 112.279C17.7993 111.779 11.7685 99.9659 14.8263 91.6701C14.8625 91.5756 14.9346 91.4992 15.0269 91.4574C15.1191 91.4156 15.2242 91.4119 15.3192 91.4469C15.4152 91.4816 15.4934 91.553 15.5368 91.6454C15.5801 91.7377 15.5849 91.8435 15.5503 91.9394C12.608 99.9198 18.6851 111.809 18.7467 111.948C18.7924 112.039 18.8002 112.144 18.7684 112.241C18.7367 112.337 18.6679 112.417 18.5772 112.464C18.5211 112.486 18.4602 112.494 18.4001 112.487Z" fill="#D5E6FB"/>
<path d="M17.5374 49.0442C15.0972 50.9073 12.1392 51.969 9.07023 52.0834C6.00129 52.1978 2.97227 51.3592 0.399925 49.683C0.399925 49.683 1.56297 44.3961 8.10218 43.8959C14.6414 43.3957 17.5374 49.0442 17.5374 49.0442Z" fill="white"/>
<path d="M8.48729 52.484C5.54517 52.4532 2.67088 51.5972 0.19197 50.0137C0.124399 49.9721 0.0716553 49.9103 0.0412355 49.8371C0.0108158 49.7639 0.00426659 49.683 0.0225194 49.6058C0.0225194 49.5443 1.3242 44.0265 8.04826 43.5109C14.7723 42.9953 17.8455 48.8055 17.8763 48.8978C17.9177 48.9747 17.931 49.0635 17.9142 49.1491C17.8973 49.2347 17.8513 49.3118 17.7839 49.3672C15.0967 51.3695 11.8394 52.4615 8.48729 52.484ZM0.84666 49.5058C3.28411 51.0552 6.13402 51.8308 9.0212 51.7305C11.9084 51.6302 14.6975 50.6588 17.0214 48.944C16.1107 47.4223 14.7959 46.1825 13.2229 45.362C11.6498 44.5416 9.88006 44.1725 8.10988 44.2959C2.71831 44.6883 1.17015 48.4592 0.84666 49.5058Z" fill="#D5E6FB"/>
<path d="M20.9495 50.791C20.879 50.7925 20.8095 50.7738 20.7493 50.7371C13.4783 46.3275 0.638694 50.0137 0.507756 50.0522C0.405617 50.0808 0.296305 50.0676 0.20386 50.0157C0.111415 49.9637 0.0434105 49.8772 0.0148118 49.7752C-0.0137869 49.6731 -0.00063759 49.5639 0.0513627 49.4715C0.103363 49.3792 0.189955 49.3112 0.292093 49.2827C0.831251 49.1287 13.5785 45.4349 21.1498 50.0522C21.219 50.0969 21.2721 50.1625 21.3013 50.2396C21.3304 50.3166 21.334 50.4009 21.3116 50.4802C21.2892 50.5594 21.2419 50.6294 21.1767 50.6798C21.1116 50.7302 21.0319 50.7584 20.9495 50.7602V50.791Z" fill="#D5E6FB"/>
</svg>
