<svg width="239" height="199" viewBox="0 0 239 199" fill="none" xmlns="http://www.w3.org/2000/svg">
<path d="M207.264 34.9742H88.6721V118.136H238.337V60.6818C238.337 46.5043 224.422 34.9742 207.264 34.9742Z" fill="#1264D1"/>
<path d="M238.337 118.591H88.6721C88.5333 118.588 88.4012 118.537 88.3042 118.448C88.2071 118.359 88.1528 118.24 88.1528 118.115V34.9742C88.1528 34.8508 88.2075 34.7324 88.3049 34.6451C88.4023 34.5579 88.5344 34.5089 88.6721 34.5089H207.264C224.687 34.5089 238.868 46.2665 238.868 60.7128V118.136C238.86 118.258 238.8 118.372 238.702 118.456C238.604 118.541 238.473 118.589 238.337 118.591ZM89.2028 117.64H237.807V60.6818C237.807 46.7525 224.111 35.4189 207.264 35.4189H89.2028V117.64Z" fill="#093269"/>
<path d="M119.745 118.664H57.5991C57.4471 118.661 57.302 118.606 57.1945 118.509C57.0869 118.413 57.0252 118.283 57.0222 118.146V61.7159C57.0253 54.479 60.2344 47.5393 65.9442 42.4221C71.654 37.3049 79.3973 34.4288 87.4722 34.4261H90.1261C96.2535 34.4768 102.222 36.1813 107.252 39.3172C112.282 42.4531 116.142 46.8748 118.326 52.0057C118.79 53.0147 119.176 54.0512 119.48 55.108C119.528 55.2422 119.559 55.381 119.572 55.5216C120.108 57.5301 120.376 59.5887 120.368 61.6538V118.053C120.385 118.132 120.381 118.214 120.356 118.291C120.332 118.368 120.287 118.439 120.227 118.498C120.167 118.557 120.092 118.603 120.008 118.632C119.924 118.66 119.834 118.671 119.745 118.664ZM58.1761 117.629H119.168V61.7159C119.172 59.7067 118.913 57.704 118.395 55.7491C118.405 55.6666 118.405 55.5835 118.395 55.501V55.3872C118.087 54.3746 117.709 53.38 117.265 52.409C115.155 47.4783 111.438 43.2307 106.598 40.219C101.758 37.2072 96.0182 35.5707 90.1261 35.5222H87.4838C83.6397 35.5154 79.8318 36.1878 76.2779 37.5008C72.724 38.8139 69.4937 40.7419 66.7718 43.1746C64.0498 45.6073 61.8896 48.497 60.4147 51.6785C58.9398 54.8599 58.1791 58.2707 58.1761 61.7159V117.629Z" fill="#093269"/>
<path d="M57.6107 118.136H119.745V167.483C119.745 174.214 116.762 180.668 111.452 185.427C106.142 190.186 98.9396 192.86 91.4299 192.86H85.9145C78.4048 192.86 71.2027 190.186 65.8925 185.427C60.5823 180.668 57.5991 174.214 57.5991 167.483V118.136H57.6107Z" fill="white"/>
<path d="M91.4298 193.336H85.926C78.2755 193.336 70.9384 190.612 65.5287 185.764C60.119 180.915 57.0798 174.34 57.0798 167.483V118.136C57.0828 118.011 57.1396 117.891 57.2386 117.803C57.3375 117.714 57.4708 117.663 57.6106 117.661H119.745C119.885 117.663 120.018 117.714 120.117 117.803C120.216 117.891 120.273 118.011 120.276 118.136V167.483C120.276 174.34 117.237 180.915 111.827 185.764C106.417 190.612 99.0803 193.336 91.4298 193.336ZM58.1298 118.591V167.463C58.139 174.066 61.0708 180.396 66.282 185.065C71.4931 189.733 78.5579 192.358 85.926 192.364H91.4298C98.7969 192.358 105.86 189.733 111.07 185.064C116.279 180.396 119.208 174.065 119.214 167.463V118.591H58.1298Z" fill="#093269"/>
<path d="M104.03 163.357H73.3262C73.1732 163.357 73.0264 163.303 72.9183 163.206C72.8101 163.109 72.7493 162.977 72.7493 162.84C72.7493 162.703 72.8101 162.571 72.9183 162.475C73.0264 162.378 73.1732 162.323 73.3262 162.323H104.03C104.183 162.323 104.33 162.378 104.438 162.475C104.546 162.571 104.607 162.703 104.607 162.84C104.607 162.977 104.546 163.109 104.438 163.206C104.33 163.303 104.183 163.357 104.03 163.357Z" fill="#D5E6FB"/>
<path d="M153.103 76.8137C156.385 76.8137 159.045 74.4293 159.045 71.4881C159.045 68.5468 156.385 66.1625 153.103 66.1625C149.821 66.1625 147.161 68.5468 147.161 71.4881C147.161 74.4293 149.821 76.8137 153.103 76.8137Z" fill="white"/>
<path d="M153.103 77.2791C151.822 77.2811 150.569 76.9424 149.502 76.3057C148.436 75.669 147.605 74.7631 147.113 73.7026C146.622 72.6422 146.493 71.4749 146.742 70.3486C146.992 69.2223 147.608 68.1876 148.514 67.3757C149.42 66.5637 150.575 66.011 151.831 65.7875C153.088 65.564 154.391 65.6797 155.574 66.1201C156.757 66.5605 157.768 67.3056 158.478 68.2612C159.189 69.2168 159.567 70.3399 159.565 71.4881C159.562 73.0231 158.88 74.4945 157.669 75.5799C156.458 76.6653 154.816 77.2763 153.103 77.2791ZM153.103 66.6382C152.033 66.6382 150.986 66.9227 150.097 67.4556C149.207 67.9885 148.513 68.7459 148.103 69.6321C147.694 70.5183 147.587 71.4935 147.795 72.4343C148.004 73.3751 148.52 74.2393 149.276 74.9175C150.033 75.5958 150.998 76.0577 152.047 76.2448C153.097 76.432 154.185 76.3359 155.174 75.9689C156.163 75.6018 157.008 74.9802 157.603 74.1826C158.197 73.385 158.515 72.4473 158.515 71.4881C158.515 70.8512 158.375 70.2206 158.103 69.6321C157.831 69.0437 157.432 68.5091 156.93 68.0587C156.427 67.6084 155.83 67.2511 155.174 67.0074C154.517 66.7637 153.814 66.6382 153.103 66.6382Z" fill="#093269"/>
<path d="M153.103 66.6378C152.963 66.6351 152.83 66.5842 152.731 66.4955C152.632 66.4069 152.575 66.2874 152.572 66.1621V0.641793C152.575 0.517434 152.633 0.399085 152.732 0.312101C152.831 0.225117 152.964 0.176423 153.103 0.176453C153.241 0.176453 153.373 0.225479 153.47 0.312748C153.568 0.400017 153.622 0.518376 153.622 0.641793V66.1621C153.622 66.2865 153.568 66.4059 153.471 66.4949C153.374 66.5838 153.242 66.6351 153.103 66.6378Z" fill="#093269"/>
<path d="M174.945 5.59553L153.103 14.406V0.642212H174.945V5.59553Z" fill="white"/>
<path d="M153.103 14.9231C152.993 14.9228 152.884 14.8941 152.792 14.8404C152.709 14.7951 152.641 14.7312 152.594 14.655C152.548 14.5788 152.524 14.4929 152.526 14.406V0.642231C152.526 0.505101 152.587 0.373588 152.695 0.276623C152.803 0.179657 152.95 0.125183 153.103 0.125183H174.957C175.109 0.12783 175.254 0.183156 175.362 0.279553C175.469 0.375951 175.531 0.50593 175.534 0.642231V5.58521C175.533 5.68583 175.5 5.78409 175.438 5.86837C175.377 5.95266 175.29 6.01946 175.188 6.06089L153.334 14.8714C153.262 14.904 153.183 14.9217 153.103 14.9231ZM153.68 1.15928V13.5684L174.369 5.22328V1.08689L153.68 1.15928Z" fill="#093269"/>
<path d="M165.53 118.136H140.491V123.493H165.53V118.136Z" fill="white"/>
<path d="M165.53 123.958H140.491C140.353 123.958 140.219 123.909 140.12 123.823C140.021 123.736 139.964 123.617 139.961 123.493V118.136C139.964 118.011 140.021 117.891 140.119 117.803C140.218 117.714 140.352 117.663 140.491 117.661H165.53C165.67 117.663 165.803 117.714 165.902 117.803C166.001 117.891 166.058 118.011 166.061 118.136V123.493C166.058 123.617 166 123.736 165.901 123.823C165.802 123.909 165.669 123.958 165.53 123.958ZM141.022 123.017H164.999V118.591H141.022V123.017Z" fill="#093269"/>
<path d="M144.518 198.454V123.493H159.588V198.454" fill="white"/>
<path d="M159.587 198.93C159.449 198.927 159.317 198.876 159.22 198.787C159.123 198.698 159.068 198.579 159.068 198.454V123.999H145.037V198.454C145.049 198.522 145.043 198.591 145.022 198.657C145.001 198.722 144.964 198.783 144.914 198.835C144.865 198.887 144.803 198.928 144.734 198.957C144.664 198.985 144.589 199 144.512 199C144.436 199 144.361 198.985 144.291 198.957C144.222 198.928 144.16 198.887 144.11 198.835C144.061 198.783 144.024 198.722 144.003 198.657C143.981 198.591 143.976 198.522 143.987 198.454V123.493C143.987 123.43 144.001 123.368 144.028 123.311C144.055 123.253 144.094 123.201 144.143 123.156C144.192 123.112 144.251 123.077 144.315 123.053C144.38 123.029 144.449 123.017 144.518 123.017H159.587C159.657 123.017 159.726 123.029 159.791 123.053C159.855 123.077 159.913 123.112 159.963 123.156C160.012 123.201 160.051 123.253 160.078 123.311C160.104 123.368 160.118 123.43 160.118 123.493V198.454C160.118 198.517 160.104 198.579 160.078 198.636C160.051 198.694 160.012 198.746 159.963 198.791C159.913 198.835 159.855 198.87 159.791 198.894C159.726 198.918 159.657 198.93 159.587 198.93Z" fill="#093269"/>
<path d="M144.518 135.199L159.588 145.136V123.493H144.518V135.199Z" fill="#093269"/>
<path d="M159.588 145.653C159.468 145.654 159.351 145.622 159.253 145.56L144.172 135.623C144.101 135.574 144.043 135.511 144.004 135.44C143.964 135.368 143.942 135.289 143.941 135.209V123.493C143.941 123.356 144.002 123.224 144.11 123.127C144.219 123.03 144.365 122.976 144.518 122.976H159.588C159.741 122.976 159.887 123.03 159.996 123.127C160.104 123.224 160.164 123.356 160.164 123.493V145.136C160.167 145.232 160.139 145.327 160.084 145.41C160.029 145.492 159.949 145.559 159.853 145.602C159.771 145.639 159.68 145.657 159.588 145.653ZM145.095 134.94L159.011 144.123V124.01H145.095V134.94Z" fill="#093269"/>
<path d="M94.0029 84.6832H93.899L92.7452 84.497C92.6694 84.4855 92.5969 84.4607 92.5319 84.424C92.4668 84.3874 92.4104 84.3396 92.366 84.2834C92.3215 84.2273 92.2898 84.1638 92.2727 84.0966C92.2556 84.0295 92.2535 83.96 92.2663 83.8921C92.2792 83.8242 92.3069 83.7592 92.3478 83.7009C92.3887 83.6426 92.442 83.5921 92.5047 83.5522C92.5673 83.5124 92.6382 83.484 92.7131 83.4686C92.788 83.4533 92.8656 83.4514 92.9413 83.4629L94.0952 83.6387C94.2458 83.6662 94.3784 83.7455 94.4646 83.8595C94.5509 83.9735 94.5839 84.1133 94.5567 84.2488C94.5374 84.3686 94.471 84.4782 94.3694 84.5578C94.2679 84.6375 94.1378 84.6819 94.0029 84.6832Z" fill="#D5E6FB"/>
<path d="M15.5874 119.222C15.5113 119.237 15.4327 119.237 15.3566 119.222C15.2868 119.195 15.2236 119.156 15.1706 119.107C15.1177 119.058 15.0761 119 15.0482 118.937C15.0203 118.873 15.0067 118.805 15.0082 118.737C15.0096 118.669 15.0261 118.602 15.0566 118.539C15.3682 117.898 15.7028 117.268 16.0489 116.637C16.082 116.575 16.1285 116.521 16.1856 116.476C16.2428 116.431 16.3094 116.397 16.3816 116.376C16.4537 116.355 16.5299 116.347 16.6056 116.352C16.6813 116.358 16.7549 116.377 16.822 116.409C16.8903 116.439 16.9514 116.481 17.0017 116.532C17.052 116.583 17.0906 116.642 17.1152 116.706C17.1399 116.771 17.1501 116.839 17.1454 116.907C17.1406 116.975 17.1209 117.041 17.0874 117.102C16.7413 117.712 16.4182 118.333 16.1182 118.953C16.0665 119.038 15.9895 119.108 15.8957 119.156C15.8019 119.203 15.6951 119.226 15.5874 119.222ZM17.6643 115.52C17.5631 115.517 17.4642 115.492 17.3759 115.448C17.2452 115.378 17.1494 115.266 17.1085 115.135C17.0677 115.004 17.0849 114.864 17.1566 114.744C17.5489 114.134 17.9528 113.534 18.3797 112.945C18.4661 112.838 18.5951 112.764 18.7402 112.739C18.8854 112.715 19.0355 112.741 19.1598 112.812C19.2841 112.884 19.373 112.995 19.4081 113.124C19.4433 113.253 19.4221 113.388 19.3489 113.503C18.9336 114.083 18.5413 114.662 18.1951 115.251C18.1399 115.331 18.0611 115.395 17.9673 115.437C17.8736 115.479 17.7687 115.497 17.6643 115.489V115.52ZM20.1682 112.025C20.0452 112.024 19.9249 111.992 19.822 111.932C19.7003 111.849 19.6191 111.728 19.5954 111.593C19.5717 111.458 19.6075 111.32 19.6951 111.208C20.1566 110.639 20.6297 110.081 21.1259 109.543C21.2211 109.436 21.3594 109.368 21.5107 109.352C21.662 109.337 21.814 109.376 21.9336 109.46C22.0524 109.545 22.1289 109.669 22.1461 109.805C22.1634 109.941 22.1202 110.077 22.0259 110.184C21.5413 110.722 21.0797 111.218 20.6297 111.818C20.5766 111.883 20.5071 111.935 20.4268 111.971C20.3466 112.007 20.2579 112.025 20.1682 112.025ZM45.3797 111.952C44.543 111.895 43.7235 111.71 42.9566 111.404C42.8159 111.349 42.7052 111.247 42.6489 111.119C42.5927 110.991 42.5954 110.848 42.6566 110.722C42.7178 110.596 42.8325 110.496 42.9753 110.446C43.1181 110.396 43.2774 110.398 43.4182 110.453C44.0629 110.715 44.7544 110.872 45.4605 110.918C45.5358 110.922 45.6095 110.939 45.6773 110.969C45.745 110.999 45.8054 111.041 45.8548 111.092C45.9043 111.143 45.9419 111.202 45.9653 111.267C45.9887 111.331 45.9975 111.399 45.9913 111.466C45.9884 111.535 45.9701 111.602 45.9375 111.664C45.9048 111.726 45.8585 111.781 45.8014 111.826C45.7442 111.872 45.6774 111.906 45.6049 111.928C45.5325 111.95 45.4558 111.958 45.3797 111.952ZM47.6874 111.704C47.5344 111.725 47.3785 111.69 47.2541 111.608C47.1297 111.525 47.0469 111.402 47.0239 111.265C47.001 111.127 47.0398 110.988 47.1317 110.876C47.2237 110.765 47.3613 110.691 47.5143 110.67C48.1649 110.49 48.7609 110.178 49.2566 109.76C49.3103 109.712 49.3741 109.673 49.4444 109.647C49.5147 109.621 49.5901 109.607 49.6663 109.607C49.7424 109.607 49.8178 109.621 49.8881 109.647C49.9584 109.673 50.0222 109.712 50.0759 109.76C50.1823 109.858 50.2418 109.99 50.2418 110.127C50.2418 110.264 50.1823 110.396 50.0759 110.494C49.4467 111.028 48.6885 111.424 47.8605 111.652L47.6874 111.704ZM41.2028 110.36C41.0681 110.365 40.936 110.325 40.8336 110.246C40.1998 109.781 39.6304 109.25 39.1374 108.664C39.0485 108.553 39.0109 108.416 39.0324 108.281C39.0539 108.146 39.1329 108.024 39.2528 107.94C39.3128 107.898 39.3817 107.867 39.4553 107.849C39.5289 107.832 39.6058 107.828 39.6812 107.837C39.7567 107.847 39.8292 107.87 39.8943 107.906C39.9595 107.941 40.016 107.988 40.0605 108.043C40.5002 108.561 41.0034 109.033 41.5605 109.45C41.6198 109.492 41.6691 109.544 41.7054 109.604C41.7417 109.663 41.7642 109.729 41.7718 109.796C41.7793 109.864 41.7716 109.932 41.7492 109.997C41.7268 110.062 41.6901 110.122 41.6413 110.174C41.5813 110.227 41.5087 110.268 41.4289 110.293C41.349 110.318 41.2638 110.327 41.1797 110.318L41.2028 110.36ZM50.7105 108.86H50.6182C50.468 108.837 50.3335 108.763 50.2431 108.653C50.1528 108.543 50.1135 108.406 50.1336 108.271C50.1507 108.113 50.1507 107.953 50.1336 107.795C50.1275 107.347 50.0378 106.903 49.8682 106.482C49.8177 106.345 49.83 106.195 49.9025 106.066C49.975 105.937 50.1017 105.84 50.2547 105.794C50.4077 105.749 50.5745 105.76 50.7184 105.825C50.8623 105.89 50.9715 106.004 51.022 106.141C51.2278 106.673 51.3369 107.232 51.3451 107.795C51.3618 108.009 51.3618 108.223 51.3451 108.436C51.3196 108.57 51.2363 108.69 51.1133 108.769C50.9902 108.849 50.8372 108.881 50.6874 108.86H50.7105ZM23.0989 108.809C22.9549 108.805 22.8166 108.758 22.7066 108.674C22.6526 108.626 22.6096 108.569 22.5804 108.506C22.5511 108.443 22.536 108.375 22.536 108.307C22.536 108.239 22.5511 108.171 22.5804 108.108C22.6096 108.045 22.6526 107.988 22.7066 107.94C23.2259 107.423 23.7797 106.906 24.3336 106.42C24.4437 106.324 24.5919 106.271 24.7456 106.273C24.8992 106.275 25.0457 106.331 25.1528 106.43C25.2599 106.529 25.3189 106.662 25.3167 106.799C25.3145 106.937 25.2514 107.068 25.1413 107.164C24.599 107.64 24.0682 108.126 23.5605 108.633C23.5009 108.694 23.4259 108.742 23.3417 108.773C23.2575 108.803 23.1664 108.816 23.0759 108.809H23.0989ZM38.4336 107.082C38.3222 107.083 38.2129 107.055 38.1187 107.002C38.0245 106.949 37.9495 106.872 37.9028 106.782C37.5677 106.121 37.3236 105.427 37.1759 104.714C37.1483 104.576 37.1827 104.435 37.2714 104.321C37.3601 104.206 37.4959 104.128 37.6489 104.104C37.802 104.079 37.9596 104.11 38.0873 104.189C38.215 104.269 38.3022 104.39 38.3297 104.527C38.4527 105.169 38.666 105.795 38.9643 106.389C39.0268 106.514 39.0315 106.656 38.9774 106.784C38.9233 106.911 38.8149 107.015 38.6759 107.071C38.5894 107.093 38.4987 107.096 38.4105 107.082H38.4336ZM26.422 105.913C26.3046 105.912 26.1903 105.879 26.0944 105.818C25.9985 105.757 25.9257 105.672 25.8855 105.573C25.8454 105.474 25.8399 105.366 25.8698 105.265C25.8997 105.163 25.9635 105.072 26.0528 105.003C26.6643 104.548 27.2874 104.104 27.922 103.711C27.9831 103.671 28.0524 103.643 28.1257 103.628C28.1991 103.613 28.2751 103.611 28.3492 103.623C28.4234 103.634 28.4942 103.659 28.5576 103.695C28.6209 103.732 28.6755 103.779 28.7182 103.835C28.7625 103.89 28.794 103.953 28.811 104.02C28.828 104.086 28.8301 104.155 28.8173 104.222C28.8044 104.29 28.7768 104.354 28.736 104.412C28.6952 104.469 28.6421 104.519 28.5797 104.559C27.9797 104.931 27.4259 105.355 26.7913 105.799C26.6817 105.881 26.5412 105.922 26.3989 105.913H26.422ZM49.3605 105.003C49.2708 105.004 49.1821 104.986 49.1019 104.95C49.0216 104.914 48.952 104.861 48.8989 104.796C48.4923 104.323 48.0191 103.899 47.4913 103.535L47.3643 103.452C47.2419 103.37 47.161 103.247 47.1394 103.112C47.1177 102.976 47.1571 102.838 47.2489 102.728C47.3409 102.619 47.4765 102.546 47.6271 102.525C47.7778 102.504 47.9318 102.536 48.0566 102.614L48.1951 102.707C48.8037 103.131 49.3469 103.624 49.8105 104.176C49.8789 104.251 49.9219 104.342 49.9343 104.438C49.9468 104.534 49.9283 104.632 49.8809 104.719C49.8336 104.806 49.7594 104.879 49.6672 104.929C49.5749 104.98 49.4685 105.005 49.3605 105.003ZM30.2066 103.535C30.1026 103.536 30.0002 103.512 29.9106 103.464C29.821 103.417 29.7478 103.348 29.699 103.266C29.6272 103.146 29.61 103.006 29.6508 102.875C29.6917 102.744 29.7875 102.632 29.9182 102.563C30.6057 102.211 31.3145 101.893 32.0413 101.611C32.1768 101.573 32.3234 101.581 32.4528 101.634C32.5822 101.686 32.6854 101.78 32.7426 101.896C32.7998 102.013 32.8069 102.144 32.7627 102.266C32.7184 102.387 32.6259 102.489 32.5028 102.552C31.8336 102.821 31.1528 103.121 30.4836 103.462C30.3951 103.515 30.2897 103.541 30.1836 103.535H30.2066ZM37.6489 103.08C37.4969 103.069 37.3555 103.006 37.2543 102.904C37.1531 102.802 37.1002 102.668 37.1066 102.532C37.168 101.809 37.3032 101.092 37.5105 100.391C37.5293 100.325 37.5625 100.263 37.6081 100.209C37.6537 100.154 37.7108 100.109 37.7762 100.074C37.8416 100.039 37.9139 100.017 37.9891 100.007C38.0643 99.9978 38.1408 100.002 38.2143 100.019C38.3134 100.044 38.4036 100.091 38.4763 100.156C38.5491 100.221 38.6019 100.302 38.6297 100.391C38.6821 100.342 38.7448 100.304 38.8141 100.277C38.8835 100.25 38.9581 100.236 39.0336 100.236H39.4028C40.0776 100.234 40.7519 100.268 41.422 100.339C41.5742 100.358 41.7125 100.428 41.8073 100.536C41.9022 100.645 41.9461 100.782 41.9297 100.918C41.9096 101.054 41.8303 101.177 41.7092 101.261C41.5881 101.344 41.435 101.381 41.2836 101.363C40.6591 101.301 40.0312 101.27 39.4028 101.27H39.0566C38.9483 101.271 38.8417 101.245 38.7483 101.196C38.6548 101.147 38.578 101.076 38.5259 100.991C38.3924 101.522 38.3037 102.061 38.2605 102.604C38.2487 102.739 38.1779 102.865 38.0635 102.954C37.9491 103.043 37.8002 103.088 37.6489 103.08ZM45.7259 102.521C45.6422 102.537 45.5557 102.537 45.472 102.521C44.8085 102.232 44.1172 101.997 43.4066 101.818C43.2536 101.781 43.1233 101.691 43.0443 101.568C42.9653 101.445 42.9442 101.299 42.9855 101.162C43.0268 101.024 43.1272 100.908 43.2646 100.837C43.402 100.766 43.5652 100.747 43.7182 100.784C44.5102 100.985 45.2821 101.244 46.0259 101.56C46.1608 101.62 46.2641 101.725 46.3137 101.852C46.3633 101.98 46.3553 102.12 46.2913 102.242C46.2314 102.325 46.1467 102.392 46.0467 102.434C45.9467 102.476 45.8355 102.492 45.7259 102.48V102.521ZM34.4297 101.922C34.3044 101.923 34.182 101.888 34.0818 101.82C33.9815 101.753 33.9091 101.658 33.8759 101.549C33.8326 101.419 33.8482 101.279 33.9195 101.159C33.9908 101.039 34.1119 100.949 34.2566 100.908C35.0119 100.699 35.7832 100.54 36.5643 100.432C36.6401 100.422 36.7175 100.424 36.7921 100.44C36.8668 100.456 36.9372 100.485 36.9993 100.525C37.0615 100.566 37.1141 100.617 37.1543 100.675C37.1945 100.734 37.2214 100.799 37.2336 100.867C37.2457 100.935 37.2428 101.004 37.225 101.071C37.2072 101.138 37.1749 101.201 37.1299 101.257C37.0849 101.312 37.0281 101.36 36.9627 101.396C36.8973 101.432 36.8247 101.456 36.749 101.467C36.012 101.577 35.2836 101.729 34.5682 101.922H34.4297ZM38.8028 99.0468C38.7228 99.061 38.6405 99.061 38.5605 99.0468C38.4214 98.9904 38.313 98.8868 38.259 98.7589C38.2049 98.631 38.2096 98.4891 38.272 98.3643C38.6041 97.7122 38.9898 97.0831 39.4259 96.4822C39.507 96.3657 39.6364 96.2827 39.7857 96.2517C39.935 96.2207 40.092 96.2441 40.222 96.3168C40.3521 96.3895 40.4446 96.5055 40.4792 96.6393C40.5138 96.7731 40.4877 96.9137 40.4066 97.0303C40.0106 97.595 39.656 98.1822 39.3451 98.7883C39.2921 98.8736 39.2128 98.9434 39.1165 98.9893C39.0203 99.0351 38.9114 99.0551 38.8028 99.0468ZM41.2374 95.5309C41.1074 95.5294 40.9817 95.4894 40.8797 95.4171C40.8192 95.3748 40.7687 95.322 40.7312 95.262C40.6937 95.2019 40.67 95.1358 40.6614 95.0674C40.6528 94.999 40.6595 94.9298 40.6811 94.8638C40.7028 94.7977 40.7389 94.7362 40.7874 94.6829C41.2605 94.1452 41.7913 93.6488 42.3451 93.0904C42.4522 92.9917 42.5987 92.9351 42.7523 92.9332C42.906 92.9312 43.0542 92.9841 43.1643 93.0801C43.2745 93.176 43.3376 93.3073 43.3398 93.445C43.3419 93.5827 43.283 93.7155 43.1759 93.8142C42.6515 94.2982 42.1547 94.8055 41.6874 95.3344C41.6301 95.3969 41.5578 95.4471 41.4759 95.4811C41.394 95.5151 41.3046 95.5321 41.2143 95.5309H41.2374ZM44.8951 92.3562L44.4451 92.0253L44.0643 91.6323C44.7105 91.1359 45.2874 90.712 45.8759 90.2983C45.9969 90.2149 46.1498 90.1779 46.3012 90.1954C46.4525 90.2128 46.5901 90.2833 46.6836 90.3914C46.7311 90.4445 46.7663 90.5057 46.7868 90.5713C46.8074 90.6369 46.813 90.7055 46.8034 90.7731C46.7937 90.8407 46.7689 90.9058 46.7304 90.9646C46.692 91.0234 46.6407 91.0746 46.5797 91.1153C45.9913 91.5186 45.4259 91.9219 44.872 92.3562H44.8951ZM48.1143 90.0191C48.0192 90.0183 47.9257 89.9973 47.8414 89.9578C47.7571 89.9182 47.6846 89.8613 47.6297 89.7916C47.5456 89.676 47.5154 89.5355 47.5456 89.4001C47.5758 89.2648 47.664 89.1455 47.7913 89.0678C48.4374 88.6748 49.0951 88.3025 49.7759 87.9509C49.9063 87.8822 50.0615 87.8621 50.2083 87.895C50.3551 87.9279 50.4815 88.0111 50.5605 88.1267C50.6378 88.2452 50.6605 88.3859 50.6239 88.5191C50.5873 88.6524 50.4942 88.7676 50.3643 88.8403C49.7105 89.185 49.0643 89.5469 48.4259 89.9261C48.3293 89.9901 48.2113 90.0229 48.0913 90.0191H48.1143ZM52.0951 87.9509C51.9884 87.9509 51.8838 87.925 51.7923 87.8758C51.7009 87.8266 51.6261 87.7561 51.5759 87.6717C51.5074 87.5496 51.4957 87.4082 51.5433 87.2784C51.5909 87.1485 51.6938 87.0409 51.8297 86.9789C52.5336 86.6583 53.2374 86.3584 53.9528 86.0689C54.0939 86.0164 54.2522 86.015 54.3943 86.0652C54.5364 86.1154 54.6511 86.2131 54.7143 86.3377C54.7449 86.4002 54.7614 86.4674 54.7628 86.5356C54.7643 86.6037 54.7506 86.6715 54.7228 86.7349C54.6949 86.7984 54.6533 86.8562 54.6003 86.9052C54.5474 86.9542 54.4842 86.9933 54.4143 87.0202C53.722 87.2891 53.0297 87.589 52.3605 87.8992C52.266 87.9197 52.168 87.9232 52.072 87.9096L52.0951 87.9509ZM56.3297 86.2757C56.1767 86.3004 56.019 86.2696 55.8914 86.1901C55.7637 86.1106 55.6765 85.9888 55.649 85.8517C55.6214 85.7146 55.6558 85.5733 55.7445 85.4588C55.8332 85.3444 55.969 85.2663 56.122 85.2416C56.8489 84.9934 57.5874 84.7659 58.3374 84.5488C58.4828 84.5064 58.641 84.5174 58.7773 84.5794C58.9136 84.6415 59.0168 84.7494 59.0643 84.8797C59.108 85.0113 59.0927 85.153 59.0216 85.2747C58.9505 85.3964 58.8292 85.4884 58.6836 85.5311C57.9566 85.738 57.2413 85.9655 56.5259 86.2033C56.4579 86.2329 56.3815 86.2437 56.3066 86.2343L56.3297 86.2757ZM60.7259 84.9934C60.6006 84.9951 60.4782 84.9595 60.3779 84.8921C60.2777 84.8248 60.2053 84.7294 60.172 84.6211C60.1328 84.4882 60.153 84.3467 60.2285 84.227C60.3039 84.1072 60.4286 84.0186 60.5759 83.98C61.3259 83.8042 62.0874 83.6284 62.8836 83.4836C62.9578 83.4684 63.0347 83.4665 63.1098 83.478C63.1849 83.4895 63.2567 83.5143 63.3211 83.5508C63.3855 83.5874 63.4411 83.635 63.4849 83.6909C63.5286 83.7468 63.5595 83.8099 63.5759 83.8766C63.5928 83.9425 63.5948 84.0108 63.5818 84.0774C63.5688 84.144 63.5411 84.2077 63.5002 84.2645C63.4593 84.3214 63.4062 84.3703 63.3439 84.4085C63.2816 84.4467 63.2114 84.4733 63.1374 84.4867C62.3874 84.6418 61.649 84.7969 60.9105 84.9831L60.7259 84.9934ZM90.6105 84.2075H90.5182L88.2105 83.918C88.136 83.9103 88.064 83.8894 87.9986 83.8566C87.9332 83.8238 87.8758 83.7796 87.8296 83.7267C87.7834 83.6737 87.7495 83.6131 87.7297 83.5483C87.7099 83.4835 87.7047 83.4158 87.7143 83.3492C87.7345 83.2128 87.8134 83.0889 87.9341 83.0039C88.0548 82.9189 88.2078 82.8795 88.3605 82.8942L90.6682 83.1837C90.8212 83.1933 90.9637 83.257 91.0643 83.3608C91.1649 83.4645 91.2154 83.5999 91.2047 83.737C91.194 83.8741 91.123 84.0018 91.0072 84.092C90.8914 84.1822 90.7404 84.2274 90.5874 84.2178L90.6105 84.2075ZM65.2259 84.0938C65.1501 84.0999 65.0737 84.0925 65.0011 84.0722C64.9285 84.0519 64.8611 84.0189 64.8027 83.9752C64.6848 83.887 64.6108 83.7604 64.597 83.6232C64.5833 83.4861 64.6308 83.3497 64.7293 83.244C64.8277 83.1383 64.969 83.072 65.122 83.0597C65.8836 82.9356 66.6566 82.8322 67.4297 82.7288C67.5825 82.711 67.7369 82.7476 67.8599 82.8307C67.9828 82.9139 68.0645 83.0369 68.0874 83.1734C68.1071 83.3091 68.0659 83.4463 67.9729 83.5549C67.8799 83.6634 67.7426 83.7345 67.5913 83.7525L65.2836 84.0731L65.2259 84.0938ZM85.9951 83.6698H85.9259L83.6182 83.4733C83.4652 83.4623 83.3233 83.3973 83.2238 83.2926C83.1242 83.1879 83.0752 83.052 83.0874 82.9149C83.0997 82.7778 83.1722 82.6506 83.289 82.5614C83.4059 82.4722 83.5575 82.4282 83.7105 82.4392C84.4836 82.4909 85.2566 82.553 86.0182 82.6357C86.1694 82.6513 86.3076 82.7198 86.4027 82.8263C86.4978 82.9329 86.5421 83.0688 86.5259 83.2044C86.5049 83.3189 86.4408 83.4234 86.3442 83.5006C86.2476 83.5777 86.1243 83.6229 85.9951 83.6284V83.6698ZM69.8413 83.525C69.6882 83.5319 69.5385 83.484 69.4249 83.3918C69.3113 83.2997 69.2431 83.1709 69.2355 83.0338C69.2278 82.8967 69.2813 82.7624 69.3841 82.6606C69.4869 82.5588 69.6306 82.4978 69.7836 82.4909C70.5566 82.4185 71.3413 82.3565 72.0913 82.3151C72.1677 82.3079 72.245 82.3151 72.3182 82.3361C72.3914 82.3572 72.459 82.3917 72.5165 82.4374C72.574 82.4831 72.6203 82.5391 72.6524 82.6017C72.6844 82.6643 72.7016 82.7322 72.7028 82.8011C72.7124 82.9367 72.662 83.0701 72.5627 83.1727C72.4634 83.2752 72.3231 83.3386 72.172 83.3492C71.3989 83.3492 70.6374 83.4526 69.8643 83.5147L69.8413 83.525ZM81.3797 83.3389C80.6182 83.3389 79.8451 83.2768 79.072 83.2561C78.9963 83.2548 78.9215 83.2401 78.8521 83.2129C78.7827 83.1856 78.7199 83.1464 78.6674 83.0974C78.6149 83.0484 78.5737 82.9907 78.5461 82.9274C78.5185 82.8642 78.5051 82.7967 78.5066 82.7288C78.5179 82.5942 78.5842 82.4681 78.6928 82.3746C78.8014 82.2811 78.9446 82.2268 79.0951 82.222C79.8797 82.222 80.6528 82.222 81.4028 82.3048C81.5569 82.3128 81.7013 82.3747 81.8049 82.4772C81.9084 82.5798 81.9629 82.7147 81.9566 82.8528C81.937 82.9771 81.8677 83.0907 81.7616 83.1725C81.6554 83.2543 81.5197 83.2987 81.3797 83.2975V83.3389ZM74.4566 83.2561C74.3036 83.2561 74.1569 83.2017 74.0487 83.1047C73.9405 83.0077 73.8797 82.8762 73.8797 82.7391C73.8797 82.602 73.9405 82.4704 74.0487 82.3735C74.1569 82.2765 74.3036 82.222 74.4566 82.222H76.7643C76.9173 82.222 77.0641 82.2765 77.1723 82.3735C77.2805 82.4704 77.3413 82.602 77.3413 82.7391C77.3428 82.8065 77.3293 82.8735 77.3016 82.9362C77.2739 82.9988 77.2325 83.0559 77.1798 83.1041C77.1271 83.1522 77.0643 83.1905 76.9949 83.2166C76.9256 83.2427 76.8511 83.2562 76.7759 83.2561C76.0028 83.2561 75.2413 83.2561 74.4682 83.2561H74.4566Z" fill="#D5E6FB"/>
<path d="M14.3067 122.179H14.122C13.9789 122.135 13.8611 122.041 13.7941 121.919C13.7272 121.798 13.7165 121.657 13.7644 121.528C13.8913 121.197 14.0182 120.866 14.1567 120.494C14.211 120.367 14.319 120.264 14.4572 120.208C14.5954 120.152 14.7528 120.147 14.8951 120.194C15.0389 120.241 15.1561 120.337 15.2211 120.461C15.286 120.585 15.2932 120.727 15.2413 120.856C15.1028 121.18 14.9759 121.5 14.8605 121.818C14.8235 121.923 14.7497 122.015 14.6501 122.08C14.5504 122.145 14.43 122.18 14.3067 122.179Z" fill="#D5E6FB"/>
<path d="M79.4068 69.2338C79.2728 69.2314 79.1437 69.1881 79.0408 69.111C78.938 69.0339 78.8677 68.9276 78.8414 68.8098C78.8144 68.6755 78.8478 68.537 78.9343 68.4247C79.0207 68.3123 79.1533 68.2351 79.3029 68.21C79.6583 68.1424 80.0059 68.0454 80.3414 67.9205C80.4119 67.8953 80.4872 67.8828 80.563 67.8837C80.6388 67.8846 80.7137 67.899 80.7834 67.9259C80.8531 67.9527 80.9161 67.9917 80.969 68.0404C81.0218 68.0892 81.0634 68.1468 81.0914 68.21C81.1451 68.3377 81.1414 68.4791 81.0811 68.6045C81.0209 68.7298 80.9088 68.8294 80.7683 68.8822C80.3753 69.0168 79.9699 69.1206 79.5568 69.1924L79.4068 69.2338Z" fill="#D5E6FB"/>
<path d="M77.1454 69.3062C76.365 69.2297 75.593 69.0948 74.8377 68.9029C74.7619 68.8852 74.6908 68.8544 74.6283 68.8121C74.5659 68.7698 74.5133 68.7169 74.4737 68.6564C74.4341 68.5959 74.4081 68.529 74.3973 68.4595C74.3865 68.39 74.3911 68.3193 74.4108 68.2514C74.4305 68.1835 74.4649 68.1198 74.5121 68.0638C74.5593 68.0078 74.6183 67.9607 74.6858 67.9252C74.7533 67.8897 74.828 67.8664 74.9055 67.8567C74.983 67.847 75.062 67.8511 75.1377 67.8688C75.8408 68.0421 76.5586 68.1632 77.2839 68.2307C77.3598 68.2372 77.4335 68.2571 77.5008 68.2892C77.5681 68.3214 77.6276 68.3652 77.6758 68.4181C77.7241 68.4709 77.7602 68.5319 77.7821 68.5974C77.8039 68.6628 77.8111 68.7315 77.8031 68.7995C77.8042 68.8736 77.7872 68.947 77.7532 69.0146C77.7192 69.0822 77.669 69.1422 77.6063 69.1905C77.5436 69.2389 77.4698 69.2743 77.3902 69.2942C77.3106 69.3142 77.227 69.3183 77.1454 69.3062ZM72.7262 68.2721C72.6612 68.2819 72.5949 68.2819 72.53 68.2721L70.3839 67.5793C70.3106 67.5576 70.243 67.523 70.1849 67.4775C70.1268 67.432 70.0795 67.3765 70.0458 67.3143C70.0121 67.2521 69.9926 67.1845 69.9885 67.1155C69.9845 67.0465 69.9959 66.9774 70.0222 66.9124C70.0484 66.8474 70.0889 66.7877 70.1413 66.737C70.1937 66.6863 70.2569 66.6455 70.3272 66.617C70.3975 66.5886 70.4735 66.573 70.5506 66.5714C70.6277 66.5697 70.7044 66.5819 70.7762 66.6072L72.9223 67.3C72.9981 67.3116 73.0706 67.3364 73.1356 67.373C73.2007 67.4097 73.2571 67.4575 73.3015 67.5136C73.346 67.5698 73.3777 67.6333 73.3948 67.7004C73.4119 67.7676 73.4141 67.8371 73.4012 67.905C73.3883 67.9729 73.3606 68.0379 73.3197 68.0962C73.2788 68.1545 73.2255 68.205 73.1628 68.2449C73.1002 68.2847 73.0293 68.3131 72.9544 68.3284C72.8795 68.3437 72.8019 68.3457 72.7262 68.3341V68.2721ZM68.4339 66.8864C68.3689 66.8962 68.3026 66.8962 68.2377 66.8864L66.0916 66.1625C66.0204 66.1396 65.9552 66.1041 65.8997 66.0581C65.8441 66.0121 65.7995 65.9567 65.7683 65.895C65.7371 65.8333 65.72 65.7666 65.7181 65.6989C65.7161 65.6312 65.7293 65.5638 65.7569 65.5007C65.7838 65.4366 65.8246 65.3779 65.877 65.3281C65.9293 65.2782 65.9922 65.2382 66.062 65.2103C66.1318 65.1824 66.207 65.1672 66.2834 65.1655C66.3598 65.1639 66.4358 65.1759 66.5069 65.2008L68.6416 65.9144C68.7832 65.9631 68.8978 66.0598 68.9604 66.1837C69.0231 66.3076 69.0287 66.4486 68.9762 66.5762C68.9331 66.6721 68.8577 66.7535 68.7604 66.8091C68.6632 66.8647 68.549 66.8917 68.4339 66.8864ZM64.1877 65.449C64.1156 65.4644 64.0405 65.4644 63.9685 65.449C63.2646 65.2008 62.5493 64.9423 61.8454 64.6734C61.7071 64.6187 61.5975 64.5184 61.5395 64.3932C61.4815 64.2681 61.4795 64.1277 61.5339 64.0013C61.5972 63.8765 61.7113 63.7782 61.8528 63.7263C61.9944 63.6744 62.1527 63.6729 62.2954 63.7221C62.9877 63.9909 63.6915 64.2391 64.3954 64.4873C64.4659 64.5124 64.5302 64.5497 64.5846 64.597C64.639 64.6444 64.6825 64.7009 64.7125 64.7633C64.7425 64.8258 64.7585 64.8929 64.7595 64.9609C64.7605 65.0288 64.7466 65.0963 64.7185 65.1595C64.6712 65.2489 64.5958 65.324 64.5015 65.3754C64.4071 65.4269 64.2981 65.4525 64.1877 65.449ZM59.9762 63.8669C59.9002 63.8824 59.8213 63.8824 59.7454 63.8669L57.6569 63.0086C57.5877 62.9797 57.5255 62.9388 57.474 62.8883C57.4225 62.8377 57.3827 62.7785 57.3569 62.714C57.3311 62.6495 57.3199 62.5811 57.3239 62.5128C57.3279 62.4444 57.3469 62.3774 57.38 62.3157C57.4474 62.1922 57.5659 62.0971 57.7103 62.0508C57.8547 62.0044 58.0136 62.0104 58.1531 62.0675C58.8339 62.3674 59.5146 62.6466 60.2069 62.9155C60.36 62.9429 60.4945 63.0237 60.5811 63.14C60.6677 63.2564 60.6991 63.3988 60.6685 63.5359C60.6379 63.6731 60.5478 63.7937 60.4179 63.8713C60.2881 63.9488 60.1292 63.977 59.9762 63.9496V63.8669ZM55.8569 62.1089C55.7639 62.1094 55.6724 62.088 55.5916 62.0468C54.9108 61.7366 54.23 61.416 53.5608 61.0748C53.4938 61.0425 53.4348 60.9984 53.3873 60.9452C53.3398 60.8919 53.3047 60.8306 53.2843 60.765C53.2638 60.6993 53.2583 60.6307 53.2682 60.5631C53.278 60.4955 53.303 60.4303 53.3416 60.3716C53.4167 60.2525 53.5415 60.1649 53.6886 60.128C53.8356 60.0912 53.993 60.1081 54.1262 60.1751C54.7839 60.506 55.4531 60.8266 56.1223 61.1368C56.1897 61.1674 56.2496 61.2097 56.2984 61.2614C56.3472 61.313 56.384 61.3729 56.4066 61.4374C56.4292 61.502 56.4371 61.57 56.4299 61.6374C56.4227 61.7047 56.4005 61.7701 56.3646 61.8297C56.3155 61.9148 56.2409 61.9859 56.1492 62.0352C56.0575 62.0845 55.9523 62.11 55.8454 62.1089H55.8569ZM51.8762 60.1131C51.7713 60.11 51.6686 60.0852 51.5762 60.0407C50.9185 59.6788 50.2723 59.3065 49.6262 58.9239C49.5629 58.8855 49.5087 58.8362 49.4668 58.7789C49.425 58.7216 49.3962 58.6574 49.3823 58.5901C49.3683 58.5227 49.3694 58.4535 49.3855 58.3866C49.4017 58.3196 49.4325 58.2562 49.4762 58.2C49.5179 58.1436 49.5719 58.0953 49.6348 58.0579C49.6977 58.0205 49.7684 57.9948 49.8426 57.9822C49.9168 57.9697 49.9931 57.9706 50.0669 57.9849C50.1407 57.9992 50.2105 58.0267 50.2723 58.0656C50.8954 58.4378 51.53 58.7825 52.1762 59.0997C52.2853 59.1577 52.3701 59.2464 52.4173 59.3519C52.4645 59.4575 52.4716 59.574 52.4374 59.6836C52.4033 59.7931 52.3298 59.8895 52.2283 59.9578C52.1268 60.0261 52.0031 60.0625 51.8762 60.0614V60.1131ZM48.0339 57.8277C47.9086 57.8301 47.7863 57.7936 47.6877 57.7243L46.9954 57.2486C46.6146 56.9901 46.2339 56.7213 45.8416 56.442C45.7832 56.3986 45.735 56.3453 45.6997 56.2851C45.6643 56.225 45.6426 56.1591 45.6356 56.0914C45.6286 56.0237 45.6366 55.9555 45.6591 55.8906C45.6815 55.8256 45.7181 55.7653 45.7666 55.713C45.8151 55.6607 45.8746 55.6175 45.9417 55.5858C46.0088 55.5542 46.0822 55.5346 46.1578 55.5284C46.2333 55.5222 46.3095 55.5293 46.3819 55.5495C46.4544 55.5696 46.5217 55.6023 46.58 55.6458C46.9492 55.9147 47.3069 56.1835 47.7339 56.4317L48.4146 56.897C48.5115 56.9622 48.5831 57.0529 48.6192 57.1565C48.6553 57.2601 48.6541 57.3712 48.6158 57.4742C48.5775 57.5771 48.504 57.6667 48.4058 57.7301C48.3076 57.7936 48.1896 57.8277 48.0685 57.8277H48.0339ZM44.5723 55.2115C44.426 55.2086 44.2862 55.157 44.18 55.0667C43.6146 54.591 43.0262 54.105 42.5416 53.5983C42.4878 53.5511 42.4451 53.4948 42.416 53.4326C42.3869 53.3705 42.3719 53.3038 42.3719 53.2364C42.3719 53.1689 42.3869 53.1022 42.416 53.0401C42.4451 52.9779 42.4878 52.9216 42.5416 52.8744C42.5952 52.8259 42.659 52.7875 42.7293 52.7612C42.7996 52.735 42.875 52.7215 42.9512 52.7215C43.0273 52.7215 43.1027 52.735 43.173 52.7612C43.2433 52.7875 43.3072 52.8259 43.3608 52.8744C43.8685 53.3604 44.3993 53.8361 44.9531 54.2911C45.0072 54.3392 45.0501 54.3964 45.0794 54.4594C45.1087 54.5224 45.1237 54.59 45.1237 54.6582C45.1237 54.7265 45.1087 54.7941 45.0794 54.8571C45.0501 54.9201 45.0072 54.9773 44.9531 55.0253C44.9064 55.0773 44.8488 55.1205 44.7834 55.1524C44.7181 55.1844 44.6463 55.2044 44.5723 55.2115ZM41.4454 52.2333C41.3614 52.2341 41.2782 52.2178 41.2022 52.1855C41.1263 52.1533 41.0595 52.106 41.0069 52.0471C40.5108 51.5197 40.0262 51.013 39.5762 50.4133C39.4885 50.3014 39.4528 50.1634 39.4765 50.0284C39.5001 49.8933 39.5814 49.7718 39.7031 49.6894C39.7644 49.6492 39.834 49.6202 39.9078 49.6042C39.9816 49.5882 40.0583 49.5853 40.1333 49.5959C40.2084 49.6065 40.2803 49.6302 40.3451 49.6658C40.4099 49.7014 40.4662 49.748 40.5108 49.8032C40.9493 50.3409 41.4108 50.8372 41.8839 51.3853C41.9815 51.4916 42.029 51.6279 42.016 51.765C42.0031 51.9022 41.9308 52.0295 41.8146 52.1195C41.7083 52.1919 41.5789 52.2318 41.4454 52.2333ZM38.7685 48.9242C38.6702 48.9248 38.5733 48.9034 38.4866 48.8618C38.4 48.8203 38.3263 48.76 38.2723 48.6863C37.8569 48.0969 37.4646 47.4868 37.1185 46.8767C37.0481 46.7546 37.0347 46.6125 37.0812 46.4816C37.1277 46.3507 37.2304 46.2417 37.3666 46.1786C37.5027 46.1156 37.6613 46.1036 37.8074 46.1452C37.9534 46.1869 38.075 46.2789 38.1454 46.401C38.4916 46.9801 38.8608 47.5592 39.2993 48.1383C39.3395 48.1959 39.3667 48.2602 39.3792 48.3273C39.3918 48.3944 39.3894 48.4631 39.3722 48.5294C39.3551 48.5957 39.3235 48.6583 39.2793 48.7136C39.2351 48.7689 39.1791 48.8159 39.1146 48.8518C39.0211 48.903 38.9126 48.9282 38.8031 48.9242H38.7685ZM36.6339 45.3152C36.5213 45.3155 36.411 45.2863 36.3167 45.2312C36.2224 45.1761 36.1481 45.0974 36.1031 45.0049C35.7877 44.35 35.5108 43.6985 35.2723 43.0505C35.2371 42.9846 35.2179 42.9128 35.2159 42.8397C35.2139 42.7667 35.2292 42.6941 35.2608 42.6267C35.2924 42.5594 35.3396 42.4988 35.3992 42.449C35.4588 42.3992 35.5295 42.3612 35.6067 42.3377C35.6839 42.3141 35.7658 42.3055 35.8469 42.3124C35.9281 42.3193 36.0067 42.3415 36.0776 42.3776C36.1485 42.4136 36.21 42.4628 36.2582 42.5217C36.3063 42.5807 36.34 42.6481 36.3569 42.7196C36.5877 43.34 36.8646 43.9709 37.1646 44.5913C37.2232 44.7177 37.2247 44.8596 37.1687 44.987C37.1127 45.1143 37.0037 45.2172 36.8646 45.2738C36.7903 45.2975 36.7126 45.3114 36.6339 45.3152ZM35.18 41.4373C35.0516 41.4379 34.9269 41.3993 34.8262 41.3279C34.7255 41.2565 34.655 41.1565 34.6262 41.0444C34.4408 40.3621 34.2944 39.6718 34.1877 38.9762C34.1764 38.9088 34.1803 38.84 34.1993 38.774C34.2184 38.708 34.252 38.6461 34.2983 38.592C34.3447 38.538 34.4027 38.4928 34.4689 38.4593C34.5352 38.4258 34.6083 38.4047 34.6839 38.3971C34.8336 38.3793 34.9851 38.4148 35.1059 38.496C35.2267 38.5772 35.3072 38.6976 35.33 38.8314C35.4339 39.4829 35.5723 40.1447 35.7454 40.7962C35.777 40.929 35.7503 41.0676 35.6708 41.1831C35.5913 41.2987 35.4651 41.3824 35.3185 41.4166L35.18 41.4373Z" fill="#D5E6FB"/>
<path d="M34.5567 37.3733C34.4076 37.3734 34.2643 37.3218 34.1567 37.2292C34.0492 37.1367 33.9858 37.0104 33.9798 36.8769C33.9798 36.5253 33.9798 36.1737 33.9798 35.8428C33.9764 35.7746 33.9891 35.7065 34.017 35.6429C34.045 35.5794 34.0875 35.5218 34.142 35.474C34.1964 35.4262 34.2615 35.3892 34.3329 35.3654C34.4044 35.3417 34.4807 35.3317 34.5567 35.3361C34.7097 35.3361 34.8565 35.3906 34.9647 35.4875C35.0729 35.5845 35.1336 35.716 35.1336 35.8532C35.1336 36.1944 35.1336 36.5253 35.1336 36.8872C35.1367 36.9552 35.1248 37.023 35.0987 37.0868C35.0725 37.1505 35.0326 37.2091 34.9811 37.259C34.9297 37.309 34.8678 37.3493 34.7989 37.3778C34.73 37.4063 34.6556 37.4223 34.5798 37.425L34.5567 37.3733Z" fill="#D5E6FB"/>
<path d="M35.8722 23.1855C39.3144 20.4495 41.7254 16.8243 42.7731 12.8092C43.8208 8.79408 43.4537 4.58661 41.7222 0.766296C41.7222 0.766296 33.6453 0.952432 31.003 9.40099C28.3607 17.8496 35.8722 23.1855 35.8722 23.1855Z" fill="white"/>
<path d="M35.8723 23.7026C35.7413 23.7064 35.6135 23.6658 35.5146 23.5888C35.4338 23.5888 27.7723 17.953 30.4376 9.26658C33.103 0.580176 41.6184 0.249268 41.7107 0.249268C41.8305 0.250104 41.9473 0.28305 42.046 0.343867C42.1447 0.404684 42.2208 0.490588 42.2646 0.590517C44.0127 4.51577 44.3713 8.82793 43.2918 12.9421C42.2123 17.0562 39.7468 20.7732 36.2299 23.5888C36.131 23.6658 36.0032 23.7064 35.8723 23.7026ZM41.3299 1.31438C39.6915 1.47984 33.703 2.54496 31.5569 9.58715C29.4107 16.6293 34.4646 21.3655 35.8723 22.5444C39.0731 19.9169 41.3086 16.4805 42.2831 12.6897C43.2576 8.89885 42.9253 4.93223 41.3299 1.31438Z" fill="#D5E6FB"/>
<path d="M36.899 28.5525C36.7822 28.5518 36.6682 28.52 36.5716 28.461C36.4751 28.4021 36.4002 28.3187 36.3567 28.2216C31.7413 17.074 40.8221 1.20063 41.2029 0.528473C41.2763 0.407771 41.3994 0.317525 41.5459 0.276963C41.6925 0.2364 41.8509 0.248722 41.9875 0.31131C42.1213 0.375096 42.2218 0.483546 42.2672 0.613202C42.3125 0.742858 42.2991 0.883301 42.2298 1.00416C42.1375 1.16961 32.999 17.1464 37.4413 27.8906C37.4689 27.9537 37.4822 28.0211 37.4802 28.0888C37.4783 28.1565 37.4612 28.2232 37.43 28.2849C37.3988 28.3466 37.3541 28.4021 37.2986 28.448C37.2431 28.494 37.1778 28.5295 37.1067 28.5525C37.0379 28.5623 36.9678 28.5623 36.899 28.5525Z" fill="#D5E6FB"/>
<path d="M21.7145 128.343C25.1553 131.08 27.5653 134.705 28.6129 138.719C29.6605 142.734 29.2942 146.941 27.5645 150.762C27.5645 150.762 19.4876 150.586 16.8453 142.127C14.203 133.668 21.7145 128.343 21.7145 128.343Z" fill="white"/>
<path d="M27.5647 151.279C27.4839 151.279 18.9801 150.989 16.3031 142.262C13.6262 133.534 21.2877 127.991 21.3685 127.939C21.4713 127.865 21.5996 127.824 21.732 127.824C21.8643 127.824 21.9927 127.865 22.0954 127.939C25.6099 130.759 28.0726 134.478 29.15 138.594C30.2273 142.709 29.8672 147.022 28.1185 150.948C28.0756 151.048 27.9994 151.133 27.9002 151.192C27.801 151.251 27.6838 151.282 27.5647 151.279ZM21.7147 129.025C19.7275 130.615 18.2719 132.668 17.5099 134.956C16.748 137.244 16.7097 139.676 17.3993 141.982C19.557 148.983 25.5454 150.059 27.1724 150.255C28.7229 146.631 29.0318 142.675 28.0595 138.894C27.0873 135.112 24.8781 131.676 21.7147 129.025Z" fill="#D5E6FB"/>
<path d="M27.5645 151.279C27.4596 151.278 27.3568 151.252 27.2674 151.203C27.1779 151.153 27.1051 151.083 27.0568 151C26.6645 150.328 17.6299 134.454 22.2107 123.307C22.265 123.18 22.373 123.077 22.5112 123.021C22.6495 122.965 22.8068 122.96 22.9492 123.007C23.0929 123.053 23.2102 123.149 23.2751 123.273C23.34 123.398 23.3473 123.54 23.2953 123.669C18.8876 134.392 27.9915 150.369 28.0838 150.555C28.1522 150.677 28.1639 150.819 28.1164 150.948C28.0688 151.078 27.9658 151.186 27.8299 151.248C27.7459 151.278 27.6545 151.289 27.5645 151.279Z" fill="#D5E6FB"/>
<path d="M26.2722 66.0281C22.6166 68.5316 18.1853 69.9583 13.5878 70.112C8.99031 70.2657 4.45265 69.1388 0.599121 66.8864C0.599121 66.8864 2.34143 59.7822 12.1376 59.11C21.9337 58.4379 26.2722 66.0281 26.2722 66.0281Z" fill="white"/>
<path d="M12.7145 70.6505C8.307 70.6091 4.00114 69.459 0.287565 67.3311C0.186339 67.2752 0.107326 67.1922 0.0617555 67.0938C0.0161849 66.9954 0.00637367 66.8867 0.0337175 66.783C0.0337175 66.7003 1.98372 59.2858 12.0568 58.593C22.1299 57.9001 26.7337 65.7075 26.7799 65.8316C26.8418 65.9349 26.8618 66.0542 26.8366 66.1692C26.8113 66.2842 26.7423 66.3879 26.6414 66.4624C22.6157 69.1529 17.7362 70.6203 12.7145 70.6505ZM1.26833 66.6486C4.91979 68.7305 9.18913 69.7728 13.5143 69.638C17.8395 69.5033 22.0178 68.1979 25.4991 65.8937C24.1348 63.849 22.1652 62.1829 19.8087 61.0804C17.4522 59.9779 14.8009 59.482 12.1491 59.6477C4.07218 60.1751 1.75295 65.2422 1.26833 66.6486Z" fill="#D5E6FB"/>
<path d="M31.3837 68.3755C31.2781 68.3775 31.174 68.3524 31.0837 68.3031C20.1914 62.3777 0.956804 67.3311 0.76065 67.3828C0.60764 67.4212 0.443883 67.4035 0.305395 67.3337C0.166907 67.2639 0.0650317 67.1476 0.022189 67.0105C-0.0206537 66.8734 -0.00095515 66.7266 0.0769446 66.6025C0.154844 66.4784 0.284565 66.3871 0.437574 66.3487C1.24527 66.1418 20.3414 61.1782 31.6837 67.3828C31.7875 67.4428 31.867 67.531 31.9106 67.6345C31.9542 67.738 31.9597 67.8513 31.9261 67.9578C31.8925 68.0643 31.8217 68.1583 31.7241 68.2261C31.6265 68.2938 31.5072 68.3317 31.3837 68.3341V68.3755Z" fill="#D5E6FB"/>
</svg>
