<svg width="286" height="233" viewBox="0 0 286 233" fill="none" xmlns="http://www.w3.org/2000/svg">
<path d="M208.264 68.9742H89.6721V152.136H239.337V94.6818C239.337 80.5043 225.422 68.9742 208.264 68.9742Z" fill="#1264D1"/>
<path d="M239.337 152.591H89.6721C89.5333 152.588 89.4012 152.537 89.3042 152.448C89.2071 152.359 89.1528 152.24 89.1528 152.115V68.9742C89.1528 68.8508 89.2075 68.7324 89.3049 68.6451C89.4023 68.5579 89.5344 68.5089 89.6721 68.5089H208.264C225.687 68.5089 239.868 80.2665 239.868 94.7128V152.136C239.86 152.258 239.8 152.372 239.702 152.456C239.604 152.541 239.473 152.589 239.337 152.591V152.591ZM90.2028 151.64H238.807V94.6818C238.807 80.7525 225.111 69.4189 208.264 69.4189H90.2028V151.64Z" fill="#093269"/>
<path d="M120.745 152.664H58.5991C58.4471 152.661 58.302 152.606 58.1945 152.509C58.0869 152.413 58.0252 152.283 58.0222 152.146V95.7159C58.0253 88.479 61.2344 81.5393 66.9442 76.4221C72.654 71.3049 80.3973 68.4288 88.4722 68.4261H91.1261C97.2535 68.4768 103.222 70.1813 108.252 73.3172C113.282 76.4531 117.142 80.8748 119.326 86.0057C119.79 87.0147 120.176 88.0512 120.48 89.108V89.108C120.528 89.2422 120.559 89.381 120.572 89.5216C121.108 91.5301 121.376 93.5887 121.368 95.6538V152.053C121.385 152.132 121.381 152.213 121.356 152.291C121.332 152.368 121.287 152.439 121.227 152.498C121.167 152.557 121.092 152.603 121.008 152.632C120.924 152.66 120.834 152.671 120.745 152.664V152.664ZM59.1761 151.629H120.168V95.7159C120.172 93.7067 119.913 91.704 119.395 89.7491C119.405 89.6666 119.405 89.5835 119.395 89.501V89.3872C119.087 88.3746 118.709 87.38 118.265 86.409C116.155 81.4783 112.438 77.2307 107.598 74.219C102.758 71.2072 97.0182 69.5707 91.1261 69.5222H88.4838C84.6397 69.5154 80.8318 70.1878 77.2779 71.5008C73.724 72.8139 70.4937 74.7419 67.7718 77.1746C65.0498 79.6073 62.8896 82.497 61.4147 85.6785C59.9398 88.8599 59.1791 92.2707 59.1761 95.7159V151.629Z" fill="#093269"/>
<path d="M58.6107 152.136H120.745V201.483C120.745 208.214 117.762 214.668 112.452 219.427C107.142 224.186 99.9396 226.86 92.4299 226.86H86.9145C79.4048 226.86 72.2027 224.186 66.8925 219.427C61.5823 214.668 58.5991 208.214 58.5991 201.483V152.136H58.6107Z" fill="white"/>
<path d="M92.4298 227.336H86.926C79.2755 227.336 71.9384 224.612 66.5287 219.764C61.119 214.915 58.0798 208.34 58.0798 201.483V152.136C58.0828 152.011 58.1396 151.891 58.2386 151.803C58.3375 151.714 58.4708 151.663 58.6106 151.661H120.745C120.885 151.663 121.018 151.714 121.117 151.803C121.216 151.891 121.273 152.011 121.276 152.136V201.483C121.276 208.34 118.237 214.915 112.827 219.764C107.417 224.612 100.08 227.336 92.4298 227.336V227.336ZM59.1298 152.591V201.463C59.139 208.066 62.0708 214.396 67.282 219.065C72.4931 223.733 79.5579 226.358 86.926 226.364H92.4298C99.7969 226.358 106.86 223.733 112.07 219.064C117.279 214.396 120.208 208.065 120.214 201.463V152.591H59.1298Z" fill="#093269"/>
<path d="M105.03 197.357H74.3262C74.1732 197.357 74.0264 197.303 73.9183 197.206C73.8101 197.109 73.7493 196.977 73.7493 196.84C73.7493 196.703 73.8101 196.571 73.9183 196.475C74.0264 196.378 74.1732 196.323 74.3262 196.323H105.03C105.183 196.323 105.33 196.378 105.438 196.475C105.546 196.571 105.607 196.703 105.607 196.84C105.607 196.977 105.546 197.109 105.438 197.206C105.33 197.303 105.183 197.357 105.03 197.357Z" fill="#D5E6FB"/>
<path d="M154.103 110.814C157.385 110.814 160.045 108.429 160.045 105.488C160.045 102.547 157.385 100.162 154.103 100.162C150.821 100.162 148.161 102.547 148.161 105.488C148.161 108.429 150.821 110.814 154.103 110.814Z" fill="white"/>
<path d="M154.103 111.279C152.822 111.281 151.569 110.942 150.502 110.306C149.436 109.669 148.605 108.763 148.113 107.703C147.622 106.642 147.493 105.475 147.742 104.349C147.992 103.222 148.608 102.188 149.514 101.376C150.42 100.564 151.575 100.011 152.831 99.7875C154.088 99.564 155.391 99.6797 156.574 100.12C157.757 100.56 158.768 101.306 159.478 102.261C160.189 103.217 160.567 104.34 160.565 105.488C160.562 107.023 159.88 108.494 158.669 109.58C157.458 110.665 155.816 111.276 154.103 111.279V111.279ZM154.103 100.638C153.033 100.638 151.986 100.923 151.097 101.456C150.207 101.988 149.513 102.746 149.103 103.632C148.694 104.518 148.587 105.494 148.795 106.434C149.004 107.375 149.52 108.239 150.276 108.918C151.033 109.596 151.998 110.058 153.047 110.245C154.097 110.432 155.185 110.336 156.174 109.969C157.163 109.602 158.008 108.98 158.603 108.183C159.197 107.385 159.515 106.447 159.515 105.488C159.515 104.851 159.375 104.221 159.103 103.632C158.831 103.044 158.432 102.509 157.93 102.059C157.427 101.608 156.83 101.251 156.174 101.007C155.517 100.764 154.814 100.638 154.103 100.638V100.638Z" fill="#093269"/>
<path d="M154.103 100.638C153.963 100.635 153.83 100.584 153.731 100.496C153.632 100.407 153.575 100.287 153.572 100.162V34.6418C153.575 34.5174 153.633 34.3991 153.732 34.3121C153.831 34.2251 153.964 34.1764 154.103 34.1765C154.241 34.1765 154.373 34.2255 154.47 34.3127C154.568 34.4 154.622 34.5184 154.622 34.6418V100.162C154.622 100.286 154.568 100.406 154.471 100.495C154.374 100.584 154.242 100.635 154.103 100.638Z" fill="#093269"/>
<path d="M175.945 39.5955L154.103 48.406V34.6422H175.945V39.5955Z" fill="white"/>
<path d="M154.103 48.9231C153.993 48.9228 153.884 48.8941 153.792 48.8404C153.709 48.7951 153.641 48.7312 153.594 48.655C153.548 48.5788 153.524 48.4929 153.526 48.406V34.6422C153.526 34.5051 153.587 34.3736 153.695 34.2766C153.803 34.1797 153.95 34.1252 154.103 34.1252H175.957C176.109 34.1278 176.254 34.1832 176.362 34.2796C176.469 34.376 176.531 34.5059 176.534 34.6422V39.5852C176.533 39.6858 176.5 39.7841 176.438 39.8684C176.377 39.9527 176.29 40.0195 176.188 40.0609L154.334 48.8714C154.262 48.904 154.183 48.9217 154.103 48.9231V48.9231ZM154.68 35.1593V47.5684L175.369 39.2233V35.0869L154.68 35.1593Z" fill="#093269"/>
<path d="M166.53 152.136H141.491V157.493H166.53V152.136Z" fill="white"/>
<path d="M166.53 157.958H141.491C141.353 157.958 141.219 157.909 141.12 157.823C141.021 157.736 140.964 157.617 140.961 157.493V152.136C140.964 152.011 141.021 151.891 141.119 151.803C141.218 151.714 141.352 151.663 141.491 151.661H166.53C166.67 151.663 166.803 151.714 166.902 151.803C167.001 151.891 167.058 152.011 167.061 152.136V157.493C167.058 157.617 167 157.736 166.901 157.823C166.802 157.909 166.669 157.958 166.53 157.958V157.958ZM142.022 157.017H165.999V152.591H142.022V157.017Z" fill="#093269"/>
<path d="M145.518 232.454V157.493H160.588V232.454" fill="white"/>
<path d="M160.587 232.93C160.449 232.927 160.317 232.876 160.22 232.787C160.123 232.698 160.068 232.579 160.068 232.454V157.999H146.037V232.454C146.049 232.522 146.043 232.591 146.022 232.657C146.001 232.722 145.964 232.783 145.914 232.835C145.865 232.887 145.803 232.928 145.734 232.957C145.664 232.985 145.589 233 145.512 233C145.436 233 145.361 232.985 145.291 232.957C145.222 232.928 145.16 232.887 145.11 232.835C145.061 232.783 145.024 232.722 145.003 232.657C144.981 232.591 144.976 232.522 144.987 232.454V157.493C144.987 157.43 145.001 157.368 145.028 157.311C145.055 157.253 145.094 157.201 145.143 157.156C145.192 157.112 145.251 157.077 145.315 157.053C145.38 157.029 145.449 157.017 145.518 157.017H160.587C160.657 157.017 160.726 157.029 160.791 157.053C160.855 157.077 160.913 157.112 160.963 157.156C161.012 157.201 161.051 157.253 161.078 157.311C161.104 157.368 161.118 157.43 161.118 157.493V232.454C161.118 232.517 161.104 232.579 161.078 232.636C161.051 232.694 161.012 232.746 160.963 232.791C160.913 232.835 160.855 232.87 160.791 232.894C160.726 232.918 160.657 232.93 160.587 232.93V232.93Z" fill="#093269"/>
<path d="M145.518 169.199L160.588 179.136V157.493H145.518V169.199Z" fill="#093269"/>
<path d="M160.588 179.653C160.468 179.654 160.351 179.622 160.253 179.56L145.172 169.623C145.101 169.574 145.043 169.511 145.004 169.44C144.964 169.368 144.942 169.289 144.941 169.209V157.493C144.941 157.356 145.002 157.224 145.11 157.127C145.219 157.03 145.365 156.976 145.518 156.976H160.588C160.741 156.976 160.887 157.03 160.996 157.127C161.104 157.224 161.164 157.356 161.164 157.493V179.136C161.167 179.232 161.139 179.327 161.084 179.41C161.029 179.492 160.949 179.559 160.853 179.602C160.771 179.639 160.68 179.657 160.588 179.653ZM146.095 168.94L160.011 178.123V158.01H146.095V168.94Z" fill="#093269"/>
<path d="M95.0029 118.683H94.899L93.7452 118.497C93.6694 118.485 93.5969 118.461 93.5319 118.424C93.4668 118.387 93.4104 118.34 93.366 118.283C93.3215 118.227 93.2898 118.164 93.2727 118.097C93.2556 118.029 93.2535 117.96 93.2663 117.892C93.2792 117.824 93.3069 117.759 93.3478 117.701C93.3887 117.643 93.442 117.592 93.5047 117.552C93.5673 117.512 93.6382 117.484 93.7131 117.469C93.788 117.453 93.8656 117.451 93.9413 117.463L95.0952 117.639C95.2458 117.666 95.3784 117.745 95.4646 117.86C95.5509 117.974 95.5839 118.113 95.5567 118.249C95.5374 118.369 95.471 118.478 95.3694 118.558C95.2679 118.637 95.1378 118.682 95.0029 118.683V118.683Z" fill="#D5E6FB"/>
<path d="M16.5874 153.222C16.5113 153.237 16.4327 153.237 16.3566 153.222C16.2868 153.195 16.2236 153.156 16.1706 153.107C16.1177 153.058 16.0761 153 16.0482 152.937C16.0203 152.873 16.0067 152.805 16.0082 152.737C16.0096 152.669 16.0261 152.602 16.0566 152.539C16.3682 151.898 16.7028 151.268 17.0489 150.637C17.082 150.575 17.1285 150.521 17.1856 150.476C17.2428 150.431 17.3094 150.397 17.3816 150.376C17.4537 150.355 17.5299 150.347 17.6056 150.352C17.6813 150.358 17.7549 150.377 17.822 150.409C17.8903 150.439 17.9514 150.481 18.0017 150.532C18.052 150.583 18.0906 150.642 18.1152 150.706C18.1399 150.771 18.1501 150.839 18.1454 150.907C18.1406 150.975 18.1209 151.041 18.0874 151.102C17.7413 151.712 17.4182 152.333 17.1182 152.953C17.0665 153.038 16.9895 153.108 16.8957 153.156C16.8019 153.203 16.6951 153.226 16.5874 153.222V153.222ZM18.6643 149.52C18.5631 149.517 18.4642 149.492 18.3759 149.448C18.2452 149.378 18.1494 149.266 18.1085 149.135C18.0677 149.004 18.0849 148.864 18.1566 148.744C18.5489 148.134 18.9528 147.534 19.3797 146.945C19.4661 146.838 19.5951 146.764 19.7402 146.739C19.8854 146.715 20.0355 146.741 20.1598 146.812C20.2841 146.884 20.373 146.995 20.4081 147.124C20.4433 147.253 20.4221 147.388 20.3489 147.503C19.9336 148.083 19.5413 148.662 19.1951 149.251C19.1399 149.331 19.0611 149.395 18.9673 149.437C18.8736 149.479 18.7687 149.497 18.6643 149.489V149.52ZM21.1682 146.025C21.0452 146.024 20.9249 145.992 20.822 145.932C20.7003 145.849 20.6191 145.728 20.5954 145.593C20.5717 145.458 20.6075 145.32 20.6951 145.208C21.1566 144.639 21.6297 144.081 22.1259 143.543C22.2211 143.436 22.3594 143.368 22.5107 143.352C22.662 143.337 22.814 143.376 22.9336 143.46C23.0524 143.545 23.1289 143.669 23.1461 143.805C23.1634 143.941 23.1202 144.077 23.0259 144.184C22.5413 144.722 22.0797 145.218 21.6297 145.818C21.5766 145.883 21.5071 145.935 21.4268 145.971C21.3466 146.007 21.2579 146.025 21.1682 146.025V146.025ZM46.3797 145.952C45.543 145.895 44.7235 145.71 43.9566 145.404C43.8159 145.349 43.7052 145.247 43.6489 145.119C43.5927 144.991 43.5954 144.848 43.6566 144.722C43.7178 144.596 43.8325 144.496 43.9753 144.446C44.1181 144.396 44.2774 144.398 44.4182 144.453C45.0629 144.715 45.7544 144.872 46.4605 144.918C46.5358 144.922 46.6095 144.939 46.6773 144.969C46.745 144.999 46.8054 145.041 46.8548 145.092C46.9043 145.143 46.9419 145.202 46.9653 145.267C46.9887 145.331 46.9975 145.399 46.9913 145.466C46.9884 145.535 46.9701 145.602 46.9375 145.664C46.9048 145.726 46.8585 145.781 46.8014 145.826C46.7442 145.872 46.6774 145.906 46.6049 145.928C46.5325 145.95 46.4558 145.958 46.3797 145.952V145.952ZM48.6874 145.704C48.5344 145.725 48.3785 145.69 48.2541 145.608C48.1297 145.525 48.0469 145.402 48.0239 145.265C48.001 145.127 48.0398 144.988 48.1317 144.876C48.2237 144.765 48.3613 144.691 48.5143 144.67C49.1649 144.49 49.7609 144.178 50.2566 143.76C50.3103 143.712 50.3741 143.673 50.4444 143.647C50.5147 143.621 50.5901 143.607 50.6663 143.607C50.7424 143.607 50.8178 143.621 50.8881 143.647C50.9584 143.673 51.0222 143.712 51.0759 143.76C51.1823 143.858 51.2418 143.99 51.2418 144.127C51.2418 144.264 51.1823 144.396 51.0759 144.494C50.4467 145.028 49.6885 145.424 48.8605 145.652L48.6874 145.704ZM42.2028 144.36C42.0681 144.365 41.936 144.325 41.8336 144.246C41.1998 143.781 40.6304 143.25 40.1374 142.664C40.0485 142.553 40.0109 142.416 40.0324 142.281C40.0539 142.146 40.1329 142.024 40.2528 141.94C40.3128 141.898 40.3817 141.867 40.4553 141.849C40.5289 141.832 40.6058 141.828 40.6812 141.837C40.7567 141.847 40.8292 141.87 40.8943 141.906C40.9595 141.941 41.016 141.988 41.0605 142.043C41.5002 142.561 42.0034 143.033 42.5605 143.45C42.6198 143.492 42.6691 143.544 42.7054 143.604C42.7417 143.663 42.7642 143.729 42.7718 143.796C42.7793 143.864 42.7716 143.932 42.7492 143.997C42.7268 144.062 42.6901 144.122 42.6413 144.174C42.5813 144.227 42.5087 144.268 42.4289 144.293C42.349 144.318 42.2638 144.327 42.1797 144.318L42.2028 144.36ZM51.7105 142.86H51.6182C51.468 142.837 51.3335 142.763 51.2431 142.653C51.1528 142.543 51.1135 142.406 51.1336 142.271C51.1507 142.113 51.1507 141.953 51.1336 141.795C51.1275 141.347 51.0378 140.903 50.8682 140.482C50.8177 140.345 50.83 140.195 50.9025 140.066C50.975 139.937 51.1017 139.84 51.2547 139.794C51.4077 139.749 51.5745 139.76 51.7184 139.825C51.8623 139.89 51.9715 140.004 52.022 140.141C52.2278 140.673 52.3369 141.232 52.3451 141.795C52.3618 142.009 52.3618 142.223 52.3451 142.436C52.3196 142.57 52.2363 142.69 52.1133 142.769C51.9902 142.849 51.8372 142.881 51.6874 142.86H51.7105ZM24.0989 142.809C23.9549 142.805 23.8166 142.758 23.7066 142.674C23.6526 142.626 23.6096 142.569 23.5804 142.506C23.5511 142.443 23.536 142.375 23.536 142.307C23.536 142.239 23.5511 142.171 23.5804 142.108C23.6096 142.045 23.6526 141.988 23.7066 141.94C24.2259 141.423 24.7797 140.906 25.3336 140.42C25.4437 140.324 25.5919 140.271 25.7456 140.273C25.8992 140.275 26.0457 140.331 26.1528 140.43C26.2599 140.529 26.3189 140.662 26.3167 140.799C26.3145 140.937 26.2514 141.068 26.1413 141.164C25.599 141.64 25.0682 142.126 24.5605 142.633C24.5009 142.694 24.4259 142.742 24.3417 142.773C24.2575 142.803 24.1664 142.816 24.0759 142.809H24.0989ZM39.4336 141.082C39.3222 141.083 39.2129 141.055 39.1187 141.002C39.0245 140.949 38.9495 140.872 38.9028 140.782C38.5677 140.121 38.3236 139.427 38.1759 138.714C38.1483 138.576 38.1827 138.435 38.2714 138.321C38.3601 138.206 38.4959 138.128 38.6489 138.104C38.802 138.079 38.9596 138.11 39.0873 138.189C39.215 138.269 39.3022 138.39 39.3297 138.527C39.4527 139.169 39.666 139.795 39.9643 140.389C40.0268 140.514 40.0315 140.656 39.9774 140.784C39.9233 140.911 39.8149 141.015 39.6759 141.071C39.5894 141.093 39.4987 141.096 39.4105 141.082H39.4336ZM27.422 139.913C27.3046 139.912 27.1903 139.879 27.0944 139.818C26.9985 139.757 26.9257 139.672 26.8855 139.573C26.8454 139.474 26.8399 139.366 26.8698 139.265C26.8997 139.163 26.9635 139.072 27.0528 139.003C27.6643 138.548 28.2874 138.104 28.922 137.711C28.9831 137.671 29.0524 137.643 29.1257 137.628C29.1991 137.613 29.2751 137.611 29.3492 137.623C29.4234 137.634 29.4942 137.659 29.5576 137.695C29.6209 137.732 29.6755 137.779 29.7182 137.835C29.7625 137.89 29.794 137.953 29.811 138.02C29.828 138.086 29.8301 138.155 29.8173 138.222C29.8044 138.29 29.7768 138.354 29.736 138.412C29.6952 138.469 29.6421 138.519 29.5797 138.559C28.9797 138.931 28.4259 139.355 27.7913 139.799C27.6817 139.881 27.5412 139.922 27.3989 139.913H27.422ZM50.3605 139.003C50.2708 139.004 50.1821 138.986 50.1019 138.95C50.0216 138.914 49.952 138.861 49.8989 138.796C49.4923 138.323 49.0191 137.899 48.4913 137.535L48.3643 137.452C48.2419 137.37 48.161 137.247 48.1394 137.112C48.1177 136.976 48.1571 136.838 48.2489 136.728C48.3409 136.619 48.4765 136.546 48.6271 136.525C48.7778 136.504 48.9318 136.536 49.0566 136.614L49.1951 136.707C49.8037 137.131 50.3469 137.624 50.8105 138.176C50.8789 138.251 50.9219 138.342 50.9343 138.438C50.9468 138.534 50.9283 138.632 50.8809 138.719C50.8336 138.806 50.7594 138.879 50.6672 138.929C50.5749 138.98 50.4685 139.005 50.3605 139.003V139.003ZM31.2066 137.535C31.1026 137.536 31.0002 137.512 30.9106 137.464C30.821 137.417 30.7478 137.348 30.699 137.266C30.6272 137.146 30.61 137.006 30.6508 136.875C30.6917 136.744 30.7875 136.632 30.9182 136.563C31.6057 136.211 32.3145 135.893 33.0413 135.611C33.1768 135.573 33.3234 135.581 33.4528 135.634C33.5822 135.686 33.6854 135.78 33.7426 135.896C33.7998 136.013 33.8069 136.144 33.7627 136.266C33.7184 136.387 33.6259 136.489 33.5028 136.552C32.8336 136.821 32.1528 137.121 31.4836 137.462C31.3951 137.515 31.2897 137.541 31.1836 137.535H31.2066ZM38.6489 137.08C38.4969 137.069 38.3555 137.006 38.2543 136.904C38.1531 136.802 38.1002 136.668 38.1066 136.532C38.168 135.809 38.3032 135.092 38.5105 134.391C38.5293 134.325 38.5625 134.263 38.6081 134.209C38.6537 134.154 38.7108 134.109 38.7762 134.074C38.8416 134.039 38.9139 134.017 38.9891 134.007C39.0643 133.998 39.1408 134.002 39.2143 134.019C39.3134 134.044 39.4036 134.091 39.4763 134.156C39.5491 134.221 39.6019 134.302 39.6297 134.391C39.6821 134.342 39.7448 134.304 39.8141 134.277C39.8835 134.25 39.9581 134.236 40.0336 134.236H40.4028C41.0776 134.234 41.7519 134.268 42.422 134.339C42.5742 134.358 42.7125 134.428 42.8073 134.536C42.9022 134.645 42.9461 134.782 42.9297 134.918C42.9096 135.054 42.8303 135.177 42.7092 135.261C42.5881 135.344 42.435 135.381 42.2836 135.363C41.6591 135.301 41.0312 135.27 40.4028 135.27H40.0566C39.9483 135.271 39.8417 135.245 39.7483 135.196C39.6548 135.147 39.578 135.076 39.5259 134.991C39.3924 135.522 39.3037 136.061 39.2605 136.604C39.2487 136.739 39.1779 136.865 39.0635 136.954C38.9491 137.043 38.8002 137.088 38.6489 137.08V137.08ZM46.7259 136.521C46.6422 136.537 46.5557 136.537 46.472 136.521C45.8085 136.232 45.1172 135.997 44.4066 135.818C44.2536 135.781 44.1233 135.691 44.0443 135.568C43.9653 135.445 43.9442 135.299 43.9855 135.162C44.0268 135.024 44.1272 134.908 44.2646 134.837C44.402 134.766 44.5652 134.747 44.7182 134.784C45.5102 134.985 46.2821 135.244 47.0259 135.56C47.1608 135.62 47.2641 135.725 47.3137 135.852C47.3633 135.98 47.3553 136.12 47.2913 136.242C47.2314 136.325 47.1467 136.392 47.0467 136.434C46.9467 136.476 46.8355 136.492 46.7259 136.48V136.521ZM35.4297 135.922C35.3044 135.923 35.182 135.888 35.0818 135.82C34.9815 135.753 34.9091 135.658 34.8759 135.549C34.8326 135.419 34.8482 135.279 34.9195 135.159C34.9908 135.039 35.1119 134.949 35.2566 134.908C36.0119 134.699 36.7832 134.54 37.5643 134.432C37.6401 134.422 37.7175 134.424 37.7921 134.44C37.8668 134.456 37.9372 134.485 37.9993 134.525C38.0615 134.566 38.1141 134.617 38.1543 134.675C38.1945 134.734 38.2214 134.799 38.2336 134.867C38.2457 134.935 38.2428 135.004 38.225 135.071C38.2072 135.138 38.1749 135.201 38.1299 135.257C38.0849 135.312 38.0281 135.36 37.9627 135.396C37.8973 135.432 37.8247 135.456 37.749 135.467C37.012 135.577 36.2836 135.729 35.5682 135.922H35.4297ZM39.8028 133.047C39.7228 133.061 39.6405 133.061 39.5605 133.047C39.4214 132.99 39.313 132.887 39.259 132.759C39.2049 132.631 39.2096 132.489 39.272 132.364C39.6041 131.712 39.9898 131.083 40.4259 130.482C40.507 130.366 40.6364 130.283 40.7857 130.252C40.935 130.221 41.092 130.244 41.222 130.317C41.3521 130.389 41.4446 130.505 41.4792 130.639C41.5138 130.773 41.4877 130.914 41.4066 131.03C41.0106 131.595 40.656 132.182 40.3451 132.788C40.2921 132.874 40.2128 132.943 40.1165 132.989C40.0203 133.035 39.9114 133.055 39.8028 133.047V133.047ZM42.2374 129.531C42.1074 129.529 41.9817 129.489 41.8797 129.417C41.8192 129.375 41.7687 129.322 41.7312 129.262C41.6937 129.202 41.67 129.136 41.6614 129.067C41.6528 128.999 41.6595 128.93 41.6811 128.864C41.7028 128.798 41.7389 128.736 41.7874 128.683C42.2605 128.145 42.7913 127.649 43.3451 127.09C43.4522 126.992 43.5987 126.935 43.7523 126.933C43.906 126.931 44.0542 126.984 44.1643 127.08C44.2745 127.176 44.3376 127.307 44.3398 127.445C44.3419 127.583 44.283 127.716 44.1759 127.814C43.6515 128.298 43.1547 128.806 42.6874 129.334C42.6301 129.397 42.5578 129.447 42.4759 129.481C42.394 129.515 42.3046 129.532 42.2143 129.531H42.2374ZM45.8951 126.356L45.4451 126.025L45.0643 125.632C45.7105 125.136 46.2874 124.712 46.8759 124.298C46.9969 124.215 47.1498 124.178 47.3012 124.195C47.4525 124.213 47.5901 124.283 47.6836 124.391C47.7311 124.445 47.7663 124.506 47.7868 124.571C47.8074 124.637 47.813 124.706 47.8034 124.773C47.7937 124.841 47.7688 124.906 47.7304 124.965C47.692 125.023 47.6407 125.075 47.5797 125.115C46.9913 125.519 46.4259 125.922 45.872 126.356H45.8951ZM49.1143 124.019C49.0192 124.018 48.9257 123.997 48.8414 123.958C48.7571 123.918 48.6846 123.861 48.6297 123.792C48.5456 123.676 48.5154 123.535 48.5456 123.4C48.5758 123.265 48.664 123.145 48.7913 123.068C49.4374 122.675 50.0951 122.303 50.7759 121.951C50.9063 121.882 51.0615 121.862 51.2083 121.895C51.3551 121.928 51.4815 122.011 51.5605 122.127C51.6378 122.245 51.6605 122.386 51.6239 122.519C51.5873 122.652 51.4942 122.768 51.3643 122.84C50.7105 123.185 50.0643 123.547 49.4259 123.926C49.3293 123.99 49.2113 124.023 49.0913 124.019H49.1143ZM53.0951 121.951C52.9884 121.951 52.8838 121.925 52.7923 121.876C52.7009 121.827 52.6261 121.756 52.5759 121.672C52.5074 121.55 52.4957 121.408 52.5433 121.278C52.5909 121.149 52.6938 121.041 52.8297 120.979C53.5336 120.658 54.2374 120.358 54.9528 120.069C55.0939 120.016 55.2522 120.015 55.3943 120.065C55.5364 120.115 55.6511 120.213 55.7143 120.338C55.7449 120.4 55.7614 120.467 55.7628 120.536C55.7643 120.604 55.7506 120.671 55.7228 120.735C55.6949 120.798 55.6533 120.856 55.6003 120.905C55.5474 120.954 55.4842 120.993 55.4143 121.02C54.722 121.289 54.0297 121.589 53.3605 121.899C53.266 121.92 53.168 121.923 53.072 121.91L53.0951 121.951ZM57.3297 120.276C57.1767 120.3 57.019 120.27 56.8914 120.19C56.7637 120.111 56.6765 119.989 56.649 119.852C56.6214 119.715 56.6558 119.573 56.7445 119.459C56.8332 119.344 56.969 119.266 57.122 119.242C57.8489 118.993 58.5874 118.766 59.3374 118.549C59.4828 118.506 59.641 118.517 59.7773 118.579C59.9136 118.641 60.0168 118.749 60.0643 118.88C60.108 119.011 60.0927 119.153 60.0216 119.275C59.9505 119.396 59.8292 119.488 59.6836 119.531C58.9566 119.738 58.2413 119.965 57.5259 120.203C57.4579 120.233 57.3815 120.244 57.3066 120.234L57.3297 120.276ZM61.7259 118.993C61.6006 118.995 61.4782 118.96 61.3779 118.892C61.2777 118.825 61.2053 118.729 61.172 118.621C61.1328 118.488 61.153 118.347 61.2285 118.227C61.3039 118.107 61.4286 118.019 61.5759 117.98C62.3259 117.804 63.0874 117.628 63.8836 117.484C63.9578 117.468 64.0347 117.466 64.1098 117.478C64.1849 117.49 64.2567 117.514 64.3211 117.551C64.3855 117.587 64.4411 117.635 64.4849 117.691C64.5286 117.747 64.5595 117.81 64.5759 117.877C64.5928 117.943 64.5948 118.011 64.5818 118.077C64.5688 118.144 64.5411 118.208 64.5002 118.265C64.4593 118.321 64.4062 118.37 64.3439 118.409C64.2816 118.447 64.2114 118.473 64.1374 118.487C63.3874 118.642 62.649 118.797 61.9105 118.983L61.7259 118.993ZM91.6105 118.208H91.5182L89.2105 117.918C89.136 117.91 89.064 117.889 88.9986 117.857C88.9332 117.824 88.8758 117.78 88.8296 117.727C88.7834 117.674 88.7495 117.613 88.7297 117.548C88.7099 117.484 88.7047 117.416 88.7143 117.349C88.7345 117.213 88.8134 117.089 88.9341 117.004C89.0548 116.919 89.2078 116.88 89.3605 116.894L91.6682 117.184C91.8212 117.193 91.9637 117.257 92.0643 117.361C92.1649 117.465 92.2154 117.6 92.2047 117.737C92.194 117.874 92.123 118.002 92.0072 118.092C91.8914 118.182 91.7404 118.227 91.5874 118.218L91.6105 118.208ZM66.2259 118.094C66.1501 118.1 66.0737 118.093 66.0011 118.072C65.9285 118.052 65.8611 118.019 65.8027 117.975C65.6848 117.887 65.6108 117.76 65.597 117.623C65.5833 117.486 65.6308 117.35 65.7293 117.244C65.8277 117.138 65.969 117.072 66.122 117.06C66.8836 116.936 67.6566 116.832 68.4297 116.729C68.5825 116.711 68.7369 116.748 68.8599 116.831C68.9828 116.914 69.0645 117.037 69.0874 117.173C69.1071 117.309 69.0659 117.446 68.9729 117.555C68.8799 117.663 68.7426 117.734 68.5913 117.753L66.2836 118.073L66.2259 118.094ZM86.9951 117.67H86.9259L84.6182 117.473C84.4652 117.462 84.3233 117.397 84.2238 117.293C84.1242 117.188 84.0752 117.052 84.0874 116.915C84.0997 116.778 84.1722 116.651 84.289 116.561C84.4059 116.472 84.5575 116.428 84.7105 116.439C85.4836 116.491 86.2566 116.553 87.0182 116.636C87.1694 116.651 87.3076 116.72 87.4027 116.826C87.4978 116.933 87.5421 117.069 87.5259 117.204C87.5049 117.319 87.4408 117.423 87.3442 117.501C87.2476 117.578 87.1243 117.623 86.9951 117.628V117.67ZM70.8413 117.525C70.6882 117.532 70.5385 117.484 70.4249 117.392C70.3113 117.3 70.2431 117.171 70.2355 117.034C70.2278 116.897 70.2813 116.762 70.3841 116.661C70.4869 116.559 70.6306 116.498 70.7836 116.491C71.5566 116.419 72.3413 116.356 73.0913 116.315C73.1677 116.308 73.245 116.315 73.3182 116.336C73.3914 116.357 73.459 116.392 73.5165 116.437C73.574 116.483 73.6203 116.539 73.6524 116.602C73.6844 116.664 73.7016 116.732 73.7028 116.801C73.7124 116.937 73.662 117.07 73.5627 117.173C73.4634 117.275 73.3231 117.339 73.172 117.349C72.3989 117.349 71.6374 117.453 70.8643 117.515L70.8413 117.525ZM82.3797 117.339C81.6182 117.339 80.8451 117.277 80.072 117.256C79.9963 117.255 79.9215 117.24 79.8521 117.213C79.7827 117.186 79.7199 117.146 79.6674 117.097C79.6149 117.048 79.5737 116.991 79.5461 116.927C79.5185 116.864 79.5051 116.797 79.5066 116.729C79.5179 116.594 79.5842 116.468 79.6928 116.375C79.8014 116.281 79.9446 116.227 80.0951 116.222C80.8797 116.222 81.6528 116.222 82.4028 116.305C82.5569 116.313 82.7013 116.375 82.8049 116.477C82.9084 116.58 82.9629 116.715 82.9566 116.853C82.937 116.977 82.8677 117.091 82.7616 117.172C82.6554 117.254 82.5197 117.299 82.3797 117.297V117.339ZM75.4566 117.256C75.3036 117.256 75.1569 117.202 75.0487 117.105C74.9405 117.008 74.8797 116.876 74.8797 116.739C74.8797 116.602 74.9405 116.47 75.0487 116.373C75.1569 116.277 75.3036 116.222 75.4566 116.222H77.7643C77.9173 116.222 78.0641 116.277 78.1723 116.373C78.2805 116.47 78.3413 116.602 78.3413 116.739C78.3428 116.807 78.3293 116.873 78.3016 116.936C78.2739 116.999 78.2325 117.056 78.1798 117.104C78.1271 117.152 78.0643 117.19 77.9949 117.217C77.9256 117.243 77.8511 117.256 77.7759 117.256C77.0028 117.256 76.2413 117.256 75.4682 117.256H75.4566Z" fill="#D5E6FB"/>
<path d="M15.3067 156.179H15.122C14.9789 156.135 14.8611 156.041 14.7941 155.919C14.7272 155.798 14.7165 155.657 14.7644 155.528C14.8913 155.197 15.0182 154.866 15.1567 154.494C15.211 154.367 15.319 154.264 15.4572 154.208C15.5954 154.152 15.7528 154.147 15.8951 154.194C16.0389 154.241 16.1561 154.337 16.2211 154.461C16.286 154.585 16.2932 154.727 16.2413 154.856C16.1028 155.18 15.9759 155.5 15.8605 155.818C15.8235 155.923 15.7497 156.015 15.6501 156.08C15.5504 156.145 15.43 156.18 15.3067 156.179V156.179Z" fill="#D5E6FB"/>
<path d="M80.4068 103.234C80.2728 103.231 80.1437 103.188 80.0408 103.111C79.938 103.034 79.8677 102.928 79.8414 102.81C79.8144 102.675 79.8478 102.537 79.9343 102.425C80.0207 102.312 80.1533 102.235 80.3029 102.21C80.6583 102.142 81.0059 102.045 81.3414 101.92C81.4119 101.895 81.4872 101.883 81.563 101.884C81.6388 101.885 81.7137 101.899 81.7834 101.926C81.8531 101.953 81.9161 101.992 81.969 102.04C82.0218 102.089 82.0634 102.147 82.0914 102.21C82.1451 102.338 82.1414 102.479 82.0811 102.604C82.0209 102.73 81.9088 102.829 81.7683 102.882C81.3753 103.017 80.9699 103.121 80.5568 103.192L80.4068 103.234Z" fill="#D5E6FB"/>
<path d="M78.1454 103.306C77.365 103.23 76.593 103.095 75.8377 102.903C75.7619 102.885 75.6908 102.854 75.6284 102.812C75.5659 102.77 75.5133 102.717 75.4737 102.656C75.4341 102.596 75.4081 102.529 75.3973 102.46C75.3865 102.39 75.3911 102.319 75.4108 102.251C75.4305 102.184 75.4649 102.12 75.5121 102.064C75.5593 102.008 75.6183 101.961 75.6858 101.925C75.7533 101.89 75.828 101.866 75.9055 101.857C75.983 101.847 76.062 101.851 76.1377 101.869C76.8408 102.042 77.5586 102.163 78.2839 102.231C78.3598 102.237 78.4335 102.257 78.5008 102.289C78.5681 102.321 78.6276 102.365 78.6758 102.418C78.7241 102.471 78.7602 102.532 78.7821 102.597C78.8039 102.663 78.8111 102.732 78.8031 102.799C78.8042 102.874 78.7872 102.947 78.7532 103.015C78.7192 103.082 78.669 103.142 78.6063 103.191C78.5436 103.239 78.4698 103.274 78.3902 103.294C78.3106 103.314 78.227 103.318 78.1454 103.306V103.306ZM73.7262 102.272C73.6612 102.282 73.5949 102.282 73.53 102.272L71.3839 101.579C71.3106 101.558 71.243 101.523 71.1849 101.477C71.1268 101.432 71.0795 101.376 71.0458 101.314C71.0121 101.252 70.9926 101.185 70.9885 101.115C70.9845 101.046 70.9959 100.977 71.0222 100.912C71.0484 100.847 71.0889 100.788 71.1413 100.737C71.1937 100.686 71.2569 100.645 71.3272 100.617C71.3975 100.589 71.4735 100.573 71.5506 100.571C71.6277 100.57 71.7044 100.582 71.7762 100.607L73.9223 101.3C73.9981 101.312 74.0706 101.336 74.1356 101.373C74.2007 101.41 74.2571 101.457 74.3015 101.514C74.346 101.57 74.3777 101.633 74.3948 101.7C74.4119 101.768 74.4141 101.837 74.4012 101.905C74.3883 101.973 74.3606 102.038 74.3197 102.096C74.2788 102.154 74.2255 102.205 74.1628 102.245C74.1002 102.285 74.0293 102.313 73.9544 102.328C73.8795 102.344 73.8019 102.346 73.7262 102.334V102.272ZM69.4339 100.886C69.3689 100.896 69.3026 100.896 69.2377 100.886L67.0916 100.163C67.0204 100.14 66.9552 100.104 66.8997 100.058C66.8441 100.012 66.7995 99.9567 66.7683 99.895C66.7371 99.8333 66.72 99.7666 66.7181 99.6989C66.7161 99.6312 66.7293 99.5638 66.7569 99.5007C66.7838 99.4366 66.8246 99.3779 66.877 99.3281C66.9293 99.2782 66.9922 99.2382 67.062 99.2103C67.1318 99.1824 67.207 99.1672 67.2834 99.1655C67.3598 99.1639 67.4358 99.1759 67.5069 99.2008L69.6416 99.9144C69.7832 99.9631 69.8978 100.06 69.9604 100.184C70.0231 100.308 70.0287 100.449 69.9762 100.576C69.9331 100.672 69.8577 100.753 69.7604 100.809C69.6632 100.865 69.549 100.892 69.4339 100.886V100.886ZM65.1877 99.449C65.1156 99.4644 65.0405 99.4644 64.9685 99.449C64.2646 99.2008 63.5493 98.9423 62.8454 98.6734C62.7071 98.6187 62.5975 98.5184 62.5395 98.3932C62.4815 98.2681 62.4795 98.1277 62.5339 98.0013C62.5972 97.8765 62.7113 97.7782 62.8528 97.7263C62.9944 97.6744 63.1527 97.6729 63.2954 97.7221C63.9877 97.9909 64.6916 98.2391 65.3954 98.4873C65.4659 98.5124 65.5302 98.5497 65.5846 98.597C65.639 98.6444 65.6825 98.7009 65.7125 98.7633C65.7425 98.8258 65.7585 98.8929 65.7595 98.9609C65.7605 99.0288 65.7466 99.0963 65.7185 99.1595C65.6712 99.2489 65.5958 99.324 65.5015 99.3754C65.4071 99.4269 65.2981 99.4525 65.1877 99.449ZM60.9762 97.8669C60.9002 97.8824 60.8213 97.8824 60.7454 97.8669L58.6569 97.0086C58.5877 96.9797 58.5255 96.9388 58.474 96.8883C58.4225 96.8377 58.3827 96.7785 58.3569 96.714C58.3311 96.6495 58.3199 96.5811 58.3239 96.5128C58.3278 96.4444 58.3469 96.3774 58.38 96.3157C58.4474 96.1922 58.5659 96.0971 58.7103 96.0508C58.8547 96.0044 59.0136 96.0104 59.1531 96.0675C59.8339 96.3674 60.5146 96.6466 61.2069 96.9155C61.36 96.9429 61.4945 97.0237 61.5811 97.14C61.6677 97.2564 61.6991 97.3988 61.6685 97.5359C61.6379 97.6731 61.5478 97.7937 61.4179 97.8713C61.2881 97.9488 61.1292 97.977 60.9762 97.9496V97.8669ZM56.8569 96.1089C56.7639 96.1094 56.6724 96.088 56.5916 96.0468C55.9108 95.7366 55.23 95.416 54.5608 95.0748C54.4938 95.0425 54.4348 94.9984 54.3873 94.9452C54.3398 94.8919 54.3047 94.8306 54.2843 94.765C54.2638 94.6993 54.2583 94.6307 54.2682 94.5631C54.278 94.4955 54.303 94.4304 54.3416 94.3716C54.4167 94.2525 54.5415 94.1649 54.6886 94.128C54.8356 94.0912 54.993 94.1081 55.1262 94.1751C55.7839 94.506 56.4531 94.8266 57.1223 95.1368C57.1897 95.1674 57.2496 95.2097 57.2984 95.2614C57.3472 95.313 57.384 95.3729 57.4066 95.4374C57.4292 95.502 57.4371 95.57 57.4299 95.6374C57.4227 95.7047 57.4005 95.7701 57.3646 95.8297C57.3155 95.9148 57.2409 95.9859 57.1492 96.0352C57.0575 96.0845 56.9523 96.11 56.8454 96.1089H56.8569ZM52.8762 94.1131C52.7713 94.11 52.6686 94.0852 52.5762 94.0407C51.9185 93.6788 51.2723 93.3065 50.6262 92.9239C50.5629 92.8855 50.5087 92.8362 50.4668 92.7789C50.425 92.7216 50.3962 92.6574 50.3823 92.5901C50.3683 92.5227 50.3694 92.4535 50.3855 92.3866C50.4017 92.3196 50.4325 92.2562 50.4762 92.2C50.5179 92.1436 50.5719 92.0953 50.6348 92.0579C50.6977 92.0205 50.7684 91.9948 50.8426 91.9822C50.9168 91.9697 50.9931 91.9706 51.0669 91.9849C51.1407 91.9992 51.2105 92.0267 51.2723 92.0656C51.8954 92.4378 52.53 92.7825 53.1762 93.0997C53.2853 93.1577 53.3701 93.2464 53.4173 93.3519C53.4645 93.4575 53.4716 93.574 53.4374 93.6836C53.4033 93.7931 53.3298 93.8895 53.2283 93.9578C53.1268 94.0261 53.0031 94.0625 52.8762 94.0614V94.1131ZM49.0339 91.8277C48.9086 91.8301 48.7863 91.7936 48.6877 91.7243L47.9954 91.2486C47.6146 90.9901 47.2339 90.7213 46.8416 90.442C46.7832 90.3986 46.735 90.3453 46.6997 90.2851C46.6643 90.225 46.6426 90.1591 46.6356 90.0914C46.6286 90.0237 46.6366 89.9555 46.6591 89.8906C46.6815 89.8256 46.7181 89.7653 46.7666 89.713C46.8151 89.6607 46.8746 89.6175 46.9417 89.5858C47.0088 89.5542 47.0822 89.5346 47.1578 89.5284C47.2333 89.5222 47.3095 89.5293 47.3819 89.5495C47.4544 89.5696 47.5217 89.6023 47.58 89.6458C47.9492 89.9147 48.3069 90.1835 48.7339 90.4317L49.4146 90.897C49.5115 90.9622 49.5831 91.0529 49.6192 91.1565C49.6553 91.2601 49.6541 91.3712 49.6158 91.4742C49.5775 91.5771 49.504 91.6667 49.4058 91.7301C49.3076 91.7936 49.1896 91.8277 49.0685 91.8277H49.0339ZM45.5723 89.2115C45.426 89.2086 45.2862 89.157 45.18 89.0667C44.6146 88.591 44.0262 88.105 43.5416 87.5983C43.4878 87.5511 43.4451 87.4948 43.416 87.4326C43.3869 87.3705 43.3719 87.3038 43.3719 87.2364C43.3719 87.1689 43.3869 87.1022 43.416 87.0401C43.4451 86.9779 43.4878 86.9216 43.5416 86.8744C43.5952 86.8259 43.659 86.7875 43.7293 86.7612C43.7996 86.735 43.875 86.7215 43.9512 86.7215C44.0273 86.7215 44.1027 86.735 44.173 86.7612C44.2433 86.7875 44.3072 86.8259 44.3608 86.8744C44.8685 87.3604 45.3993 87.8361 45.9531 88.2911C46.0072 88.3392 46.0501 88.3964 46.0794 88.4594C46.1087 88.5224 46.1237 88.59 46.1237 88.6582C46.1237 88.7265 46.1087 88.7941 46.0794 88.8571C46.0501 88.9201 46.0072 88.9773 45.9531 89.0253C45.9064 89.0773 45.8488 89.1205 45.7834 89.1524C45.7181 89.1844 45.6463 89.2044 45.5723 89.2115V89.2115ZM42.4454 86.2333C42.3614 86.2341 42.2782 86.2178 42.2022 86.1855C42.1263 86.1533 42.0595 86.106 42.0069 86.0471C41.5108 85.5197 41.0262 85.013 40.5762 84.4133C40.4885 84.3014 40.4528 84.1634 40.4765 84.0284C40.5001 83.8933 40.5814 83.7718 40.7031 83.6894C40.7644 83.6492 40.834 83.6202 40.9078 83.6042C40.9816 83.5882 41.0583 83.5853 41.1333 83.5959C41.2084 83.6065 41.2803 83.6302 41.3451 83.6658C41.4099 83.7014 41.4662 83.748 41.5108 83.8032C41.9493 84.3409 42.4108 84.8372 42.8839 85.3853C42.9815 85.4916 43.029 85.6279 43.016 85.765C43.0031 85.9022 42.9308 86.0295 42.8146 86.1195C42.7083 86.1919 42.5789 86.2318 42.4454 86.2333V86.2333ZM39.7685 82.9242C39.6702 82.9248 39.5733 82.9034 39.4866 82.8618C39.4 82.8203 39.3263 82.76 39.2723 82.6863C38.8569 82.0969 38.4646 81.4868 38.1185 80.8767C38.0481 80.7546 38.0347 80.6125 38.0812 80.4816C38.1277 80.3507 38.2304 80.2417 38.3666 80.1786C38.5027 80.1156 38.6613 80.1036 38.8074 80.1452C38.9534 80.1869 39.075 80.2789 39.1454 80.401C39.4916 80.9801 39.8608 81.5592 40.2993 82.1383C40.3395 82.1959 40.3667 82.2602 40.3792 82.3273C40.3918 82.3944 40.3894 82.4631 40.3722 82.5294C40.3551 82.5957 40.3235 82.6583 40.2793 82.7136C40.2351 82.7689 40.1791 82.8159 40.1146 82.8518C40.0211 82.903 39.9126 82.9282 39.8031 82.9242H39.7685ZM37.6339 79.3152C37.5213 79.3155 37.411 79.2863 37.3167 79.2312C37.2224 79.1761 37.1481 79.0974 37.1031 79.0049C36.7877 78.35 36.5108 77.6985 36.2723 77.0505C36.2371 76.9846 36.2179 76.9128 36.2159 76.8397C36.2139 76.7667 36.2292 76.6941 36.2608 76.6267C36.2924 76.5594 36.3396 76.4988 36.3992 76.449C36.4588 76.3992 36.5295 76.3612 36.6067 76.3377C36.6839 76.3141 36.7658 76.3055 36.8469 76.3124C36.9281 76.3193 37.0067 76.3415 37.0776 76.3776C37.1485 76.4136 37.21 76.4628 37.2582 76.5217C37.3063 76.5807 37.34 76.6481 37.3569 76.7196C37.5877 77.34 37.8646 77.9709 38.1646 78.5913C38.2232 78.7177 38.2247 78.8596 38.1687 78.987C38.1127 79.1143 38.0037 79.2172 37.8646 79.2738C37.7903 79.2975 37.7126 79.3114 37.6339 79.3152V79.3152ZM36.18 75.4373C36.0516 75.4379 35.9269 75.3993 35.8262 75.3279C35.7255 75.2565 35.655 75.1565 35.6262 75.0444C35.4408 74.3621 35.2944 73.6718 35.1877 72.9762C35.1764 72.9088 35.1803 72.84 35.1993 72.774C35.2184 72.708 35.252 72.6461 35.2983 72.592C35.3447 72.538 35.4027 72.4928 35.4689 72.4593C35.5352 72.4258 35.6083 72.4047 35.6839 72.3971C35.8336 72.3793 35.9851 72.4148 36.1059 72.496C36.2267 72.5772 36.3072 72.6976 36.33 72.8314C36.4339 73.4829 36.5723 74.1447 36.7454 74.7962C36.777 74.929 36.7503 75.0676 36.6708 75.1831C36.5913 75.2987 36.4651 75.3824 36.3185 75.4166L36.18 75.4373Z" fill="#D5E6FB"/>
<path d="M35.5567 71.3733C35.4076 71.3734 35.2643 71.3218 35.1567 71.2292C35.0492 71.1367 34.9858 71.0104 34.9798 70.8769C34.9798 70.5253 34.9798 70.1737 34.9798 69.8428C34.9764 69.7746 34.9891 69.7065 35.017 69.6429C35.045 69.5794 35.0875 69.5218 35.142 69.474C35.1964 69.4262 35.2615 69.3892 35.3329 69.3654C35.4044 69.3417 35.4807 69.3317 35.5567 69.3361C35.7097 69.3361 35.8565 69.3906 35.9647 69.4875C36.0729 69.5845 36.1336 69.716 36.1336 69.8532C36.1336 70.1944 36.1336 70.5253 36.1336 70.8872C36.1367 70.9552 36.1248 71.023 36.0987 71.0868C36.0725 71.1505 36.0326 71.2091 35.9811 71.259C35.9297 71.309 35.8678 71.3493 35.7989 71.3778C35.73 71.4063 35.6556 71.4223 35.5798 71.425L35.5567 71.3733Z" fill="#D5E6FB"/>
<path d="M36.8722 57.1855C40.3144 54.4495 42.7254 50.8243 43.7731 46.8092C44.8208 42.7941 44.4537 38.5866 42.7222 34.7663C42.7222 34.7663 34.6453 34.9524 32.003 43.401C29.3607 51.8496 36.8722 57.1855 36.8722 57.1855Z" fill="white"/>
<path d="M36.8723 57.7026C36.7413 57.7064 36.6135 57.6658 36.5146 57.5888C36.4338 57.5888 28.7723 51.953 31.4376 43.2666C34.103 34.5802 42.6184 34.2493 42.7107 34.2493C42.8305 34.2501 42.9473 34.283 43.046 34.3439C43.1447 34.4047 43.2208 34.4906 43.2646 34.5905C45.0127 38.5158 45.3713 42.8279 44.2918 46.9421C43.2123 51.0562 40.7468 54.7732 37.2299 57.5888C37.131 57.6658 37.0032 57.7064 36.8723 57.7026V57.7026ZM42.3299 35.3144C40.6915 35.4798 34.703 36.545 32.5569 43.5871C30.4107 50.6293 35.4646 55.3655 36.8723 56.5444C40.0731 53.9169 42.3086 50.4805 43.2831 46.6897C44.2576 42.8989 43.9253 38.9322 42.3299 35.3144V35.3144Z" fill="#D5E6FB"/>
<path d="M37.899 62.5525C37.7822 62.5518 37.6682 62.52 37.5716 62.461C37.4751 62.4021 37.4002 62.3187 37.3567 62.2216C32.7413 51.074 41.8221 35.2006 42.2029 34.5285C42.2763 34.4078 42.3994 34.3175 42.5459 34.277C42.6925 34.2364 42.8509 34.2487 42.9875 34.3113C43.1213 34.3751 43.2218 34.4835 43.2672 34.6132C43.3125 34.7429 43.2991 34.8833 43.2298 35.0042C43.1375 35.1696 33.999 51.1464 38.4413 61.8906C38.4689 61.9537 38.4822 62.0211 38.4802 62.0888C38.4783 62.1565 38.4612 62.2232 38.43 62.2849C38.3988 62.3466 38.3541 62.4021 38.2986 62.448C38.2431 62.494 38.1778 62.5295 38.1067 62.5525C38.0379 62.5623 37.9678 62.5623 37.899 62.5525V62.5525Z" fill="#D5E6FB"/>
<path d="M22.7145 162.343C26.1553 165.08 28.5653 168.705 29.6129 172.719C30.6605 176.734 30.2942 180.941 28.5645 184.762C28.5645 184.762 20.4876 184.586 17.8453 176.127C15.203 167.668 22.7145 162.343 22.7145 162.343Z" fill="white"/>
<path d="M28.5647 185.279C28.4839 185.279 19.9801 184.989 17.3031 176.262C14.6262 167.534 22.2877 161.991 22.3685 161.939C22.4713 161.865 22.5996 161.824 22.732 161.824C22.8643 161.824 22.9927 161.865 23.0954 161.939C26.6099 164.759 29.0726 168.478 30.15 172.594C31.2273 176.709 30.8672 181.022 29.1185 184.948C29.0756 185.048 28.9994 185.133 28.9002 185.192C28.801 185.251 28.6838 185.282 28.5647 185.279ZM22.7147 163.025C20.7275 164.615 19.2719 166.668 18.5099 168.956C17.748 171.244 17.7097 173.676 18.3993 175.982C20.557 182.983 26.5454 184.059 28.1724 184.255C29.7229 180.631 30.0318 176.675 29.0595 172.894C28.0873 169.112 25.8781 165.676 22.7147 163.025V163.025Z" fill="#D5E6FB"/>
<path d="M28.5645 185.279C28.4596 185.278 28.3568 185.252 28.2674 185.203C28.1779 185.153 28.1051 185.083 28.0568 185C27.6645 184.328 18.6299 168.454 23.2107 157.307C23.265 157.18 23.373 157.077 23.5112 157.021C23.6495 156.965 23.8068 156.96 23.9492 157.007C24.0929 157.053 24.2102 157.149 24.2751 157.273C24.34 157.398 24.3473 157.54 24.2953 157.669C19.8876 168.392 28.9915 184.369 29.0838 184.555C29.1522 184.677 29.1639 184.819 29.1164 184.948C29.0688 185.078 28.9658 185.186 28.8299 185.248C28.7459 185.278 28.6545 185.289 28.5645 185.279Z" fill="#D5E6FB"/>
<path d="M27.2722 100.028C23.6166 102.532 19.1853 103.958 14.5878 104.112C9.99031 104.266 5.45265 103.139 1.59912 100.886C1.59912 100.886 3.34143 93.7822 13.1376 93.11C22.9337 92.4379 27.2722 100.028 27.2722 100.028Z" fill="white"/>
<path d="M13.7145 104.651C9.307 104.609 5.00114 103.459 1.28757 101.331C1.18634 101.275 1.10733 101.192 1.06176 101.094C1.01618 100.995 1.00637 100.887 1.03372 100.783C1.03372 100.7 2.98372 93.2858 13.0568 92.593C23.1299 91.9001 27.7337 99.7075 27.7799 99.8316C27.8418 99.9349 27.8618 100.054 27.8366 100.169C27.8113 100.284 27.7423 100.388 27.6414 100.462C23.6157 103.153 18.7362 104.62 13.7145 104.651V104.651ZM2.26833 100.649C5.91979 102.731 10.1891 103.773 14.5143 103.638C18.8395 103.503 23.0178 102.198 26.4991 99.8937C25.1348 97.849 23.1652 96.1829 20.8087 95.0804C18.4522 93.9779 15.8009 93.482 13.1491 93.6477C5.07218 94.1751 2.75295 99.2422 2.26833 100.649Z" fill="#D5E6FB"/>
<path d="M32.3837 102.375C32.2781 102.378 32.174 102.352 32.0837 102.303C21.1914 96.3777 1.9568 101.331 1.76065 101.383C1.60764 101.421 1.44388 101.404 1.3054 101.334C1.16691 101.264 1.06503 101.148 1.02219 101.01C0.979346 100.873 0.999045 100.727 1.07694 100.602C1.15484 100.478 1.28456 100.387 1.43757 100.349C2.24527 100.142 21.3414 95.1782 32.6837 101.383C32.7875 101.443 32.867 101.531 32.9106 101.634C32.9542 101.738 32.9597 101.851 32.9261 101.958C32.8925 102.064 32.8217 102.158 32.7241 102.226C32.6265 102.294 32.5072 102.332 32.3837 102.334V102.375Z" fill="#D5E6FB"/>
<path d="M6.504 11.392V16H5.192V11.376L0.712 4.608H2.248L5.864 10.208L9.48 4.608H10.984L6.504 11.392ZM14.2104 16.112C13.453 16.112 12.7864 15.9413 12.2104 15.6C11.6344 15.2587 11.1864 14.7733 10.8664 14.144C10.557 13.5147 10.4024 12.7787 10.4024 11.936C10.4024 11.0933 10.557 10.3573 10.8664 9.728C11.1864 9.09867 11.6344 8.61333 12.2104 8.272C12.7864 7.93067 13.453 7.76 14.2104 7.76C14.9677 7.76 15.6344 7.93067 16.2104 8.272C16.7864 8.61333 17.229 9.09867 17.5384 9.728C17.8584 10.3573 18.0184 11.0933 18.0184 11.936C18.0184 12.7787 17.8584 13.5147 17.5384 14.144C17.229 14.7733 16.7864 15.2587 16.2104 15.6C15.6344 15.9413 14.9677 16.112 14.2104 16.112ZM14.2104 15.04C15.0104 15.04 15.6237 14.7787 16.0504 14.256C16.477 13.7227 16.6904 12.9493 16.6904 11.936C16.6904 10.9547 16.4717 10.1973 16.0344 9.664C15.597 9.12 14.989 8.848 14.2104 8.848C13.421 8.848 12.8077 9.12 12.3704 9.664C11.933 10.1973 11.7144 10.9547 11.7144 11.936C11.7144 12.9493 11.9277 13.7227 12.3544 14.256C12.7917 14.7787 13.4104 15.04 14.2104 15.04ZM26.9246 7.952V16H25.6606V14.608C25.4046 15.0987 25.0473 15.472 24.5886 15.728C24.13 15.984 23.6126 16.112 23.0366 16.112C22.0873 16.112 21.3673 15.8453 20.8766 15.312C20.386 14.7787 20.1406 13.9893 20.1406 12.944V7.952H21.4366V12.912C21.4366 13.6373 21.586 14.1707 21.8846 14.512C22.1833 14.8533 22.6366 15.024 23.2446 15.024C23.9593 15.024 24.5353 14.7947 24.9726 14.336C25.41 13.8667 25.6286 13.2533 25.6286 12.496V7.952H26.9246ZM40.9829 4.224V16H39.7029V14.544C39.4682 15.0453 39.1109 15.4347 38.6309 15.712C38.1615 15.9787 37.6122 16.112 36.9829 16.112C36.2789 16.112 35.6549 15.936 35.1109 15.584C34.5775 15.232 34.1615 14.7413 33.8629 14.112C33.5642 13.472 33.4149 12.736 33.4149 11.904C33.4149 11.072 33.5589 10.3467 33.8469 9.728C34.1455 9.09867 34.5669 8.61333 35.1109 8.272C35.6549 7.93067 36.2789 7.76 36.9829 7.76C37.6122 7.76 38.1615 7.89867 38.6309 8.176C39.1002 8.44267 39.4522 8.82133 39.6869 9.312V4.224H40.9829ZM37.2389 15.04C38.0282 15.04 38.6362 14.7733 39.0629 14.24C39.4895 13.696 39.7029 12.928 39.7029 11.936C39.7029 10.9547 39.4895 10.1973 39.0629 9.664C38.6362 9.12 38.0282 8.848 37.2389 8.848C36.4495 8.848 35.8309 9.11467 35.3829 9.648C34.9455 10.1813 34.7269 10.9333 34.7269 11.904C34.7269 12.896 34.9455 13.6693 35.3829 14.224C35.8309 14.768 36.4495 15.04 37.2389 15.04ZM46.9666 16.112C46.2093 16.112 45.5426 15.9413 44.9666 15.6C44.3906 15.2587 43.9426 14.7733 43.6226 14.144C43.3133 13.5147 43.1586 12.7787 43.1586 11.936C43.1586 11.0933 43.3133 10.3573 43.6226 9.728C43.9426 9.09867 44.3906 8.61333 44.9666 8.272C45.5426 7.93067 46.2093 7.76 46.9666 7.76C47.724 7.76 48.3906 7.93067 48.9666 8.272C49.5426 8.61333 49.9853 9.09867 50.2946 9.728C50.6146 10.3573 50.7746 11.0933 50.7746 11.936C50.7746 12.7787 50.6146 13.5147 50.2946 14.144C49.9853 14.7733 49.5426 15.2587 48.9666 15.6C48.3906 15.9413 47.724 16.112 46.9666 16.112ZM46.9666 15.04C47.7666 15.04 48.38 14.7787 48.8066 14.256C49.2333 13.7227 49.4466 12.9493 49.4466 11.936C49.4466 10.9547 49.228 10.1973 48.7906 9.664C48.3533 9.12 47.7453 8.848 46.9666 8.848C46.1773 8.848 45.564 9.12 45.1266 9.664C44.6893 10.1973 44.4706 10.9547 44.4706 11.936C44.4706 12.9493 44.684 13.7227 45.1106 14.256C45.548 14.7787 46.1666 15.04 46.9666 15.04ZM56.9609 7.76C58.8915 7.76 59.8569 8.82133 59.8569 10.944V16H58.5609V11.008C58.5609 10.2613 58.4115 9.71733 58.1129 9.376C57.8142 9.024 57.3449 8.848 56.7049 8.848C55.9582 8.848 55.3609 9.07733 54.9129 9.536C54.4649 9.99467 54.2409 10.6133 54.2409 11.392V16H52.9449V10.208C52.9449 9.376 52.9022 8.624 52.8169 7.952H54.0489L54.1769 9.392C54.4222 8.86933 54.7902 8.46933 55.2809 8.192C55.7715 7.904 56.3315 7.76 56.9609 7.76ZM63.5814 4.608V5.776C63.5814 6.224 63.5067 6.63467 63.3574 7.008C63.208 7.38133 62.9574 7.74933 62.6054 8.112L61.9974 7.632C62.4134 7.152 62.648 6.69333 62.7014 6.256H61.9334V4.608H63.5814ZM67.7854 8.976V13.376C67.7854 13.9733 67.908 14.3947 68.1534 14.64C68.3987 14.8747 68.7454 14.992 69.1934 14.992C69.492 14.992 69.78 14.944 70.0574 14.848V15.952C69.7267 16.0587 69.3534 16.112 68.9374 16.112C68.1694 16.112 67.5667 15.8987 67.1294 15.472C66.7027 15.0347 66.4894 14.3947 66.4894 13.552V8.976H64.9214V7.952H66.4894V5.888L67.7854 5.424V7.952H70.0894V8.976H67.7854ZM80.139 7.76C82.0697 7.76 83.035 8.82133 83.035 10.944V16H81.739V11.008C81.739 10.2613 81.5897 9.71733 81.291 9.376C80.9923 9.024 80.523 8.848 79.883 8.848C79.1363 8.848 78.539 9.07733 78.091 9.536C77.643 9.99467 77.419 10.6133 77.419 11.392V16H76.123V4.224H77.419V9.264C77.675 8.77333 78.0377 8.4 78.507 8.144C78.987 7.888 79.531 7.76 80.139 7.76ZM92.7204 7.952V16H91.4404V14.544C91.2057 15.0453 90.8484 15.4347 90.3684 15.712C89.899 15.9787 89.3497 16.112 88.7204 16.112C88.0057 16.112 87.3764 15.9413 86.8324 15.6C86.299 15.2587 85.883 14.7787 85.5844 14.16C85.2964 13.5307 85.1524 12.8 85.1524 11.968C85.1524 11.136 85.3017 10.4053 85.6004 9.776C85.899 9.136 86.315 8.64 86.8484 8.288C87.3924 7.936 88.0164 7.76 88.7204 7.76C89.3497 7.76 89.899 7.89867 90.3684 8.176C90.8377 8.45333 91.195 8.84267 91.4404 9.344V7.952H92.7204ZM88.9764 15.04C89.7657 15.04 90.3737 14.7733 90.8004 14.24C91.227 13.696 91.4404 12.928 91.4404 11.936C91.4404 10.944 91.227 10.1813 90.8004 9.648C90.3737 9.11467 89.7657 8.848 88.9764 8.848C88.187 8.848 87.5684 9.12533 87.1204 9.68C86.683 10.224 86.4644 10.9867 86.4644 11.968C86.4644 12.9493 86.683 13.7067 87.1204 14.24C87.5577 14.7733 88.1764 15.04 88.9764 15.04ZM102.448 7.968L98.9761 16H97.7441L94.3201 7.968H95.6801L98.4001 14.592L101.152 7.968H102.448ZM110.668 11.936H104.764C104.775 12.96 105.01 13.7333 105.468 14.256C105.938 14.7787 106.615 15.04 107.5 15.04C108.439 15.04 109.303 14.7253 110.092 14.096L110.524 15.04C110.172 15.3707 109.719 15.632 109.164 15.824C108.62 16.016 108.06 16.112 107.484 16.112C106.226 16.112 105.239 15.744 104.524 15.008C103.81 14.2613 103.452 13.2427 103.452 11.952C103.452 11.1307 103.612 10.4053 103.932 9.776C104.252 9.136 104.7 8.64 105.276 8.288C105.852 7.936 106.508 7.76 107.244 7.76C108.311 7.76 109.148 8.112 109.756 8.816C110.364 9.50933 110.668 10.4693 110.668 11.696V11.936ZM107.26 8.768C106.588 8.768 106.039 8.97067 105.612 9.376C105.196 9.78133 104.93 10.352 104.812 11.088H109.5C109.436 10.3307 109.212 9.75467 108.828 9.36C108.455 8.96533 107.932 8.768 107.26 8.768ZM124.195 7.952V16H122.915V14.544C122.681 15.0453 122.323 15.4347 121.843 15.712C121.374 15.9787 120.825 16.112 120.195 16.112C119.481 16.112 118.851 15.9413 118.307 15.6C117.774 15.2587 117.358 14.7787 117.059 14.16C116.771 13.5307 116.627 12.8 116.627 11.968C116.627 11.136 116.777 10.4053 117.075 9.776C117.374 9.136 117.79 8.64 118.323 8.288C118.867 7.936 119.491 7.76 120.195 7.76C120.825 7.76 121.374 7.89867 121.843 8.176C122.313 8.45333 122.67 8.84267 122.915 9.344V7.952H124.195ZM120.451 15.04C121.241 15.04 121.849 14.7733 122.275 14.24C122.702 13.696 122.915 12.928 122.915 11.936C122.915 10.944 122.702 10.1813 122.275 9.648C121.849 9.11467 121.241 8.848 120.451 8.848C119.662 8.848 119.043 9.12533 118.595 9.68C118.158 10.224 117.939 10.9867 117.939 11.968C117.939 12.9493 118.158 13.7067 118.595 14.24C119.033 14.7733 119.651 15.04 120.451 15.04ZM130.867 7.76C132.798 7.76 133.763 8.82133 133.763 10.944V16H132.467V11.008C132.467 10.2613 132.318 9.71733 132.019 9.376C131.72 9.024 131.251 8.848 130.611 8.848C129.864 8.848 129.267 9.07733 128.819 9.536C128.371 9.99467 128.147 10.6133 128.147 11.392V16H126.851V10.208C126.851 9.376 126.808 8.624 126.723 7.952H127.955L128.083 9.392C128.328 8.86933 128.696 8.46933 129.187 8.192C129.678 7.904 130.238 7.76 130.867 7.76ZM143.433 7.952L139.673 16.736C139.278 17.6533 138.782 18.3253 138.185 18.752C137.587 19.1787 136.851 19.472 135.977 19.632L135.705 18.624C136.462 18.4533 137.033 18.224 137.417 17.936C137.811 17.6587 138.137 17.2267 138.393 16.64L138.713 15.92L135.305 7.952H136.665L139.385 14.592L142.137 7.952H143.433ZM152.708 16.112C151.93 16.112 151.247 15.9413 150.66 15.6C150.084 15.2587 149.636 14.7787 149.316 14.16C149.007 13.5307 148.852 12.8 148.852 11.968C148.852 11.136 149.012 10.4053 149.332 9.776C149.652 9.136 150.106 8.64 150.692 8.288C151.29 7.936 151.983 7.76 152.772 7.76C153.316 7.76 153.839 7.856 154.34 8.048C154.852 8.22933 155.274 8.48533 155.604 8.816L155.172 9.776C154.767 9.456 154.372 9.22133 153.988 9.072C153.615 8.92267 153.231 8.848 152.836 8.848C152.015 8.848 151.37 9.12533 150.9 9.68C150.431 10.224 150.196 10.9867 150.196 11.968C150.196 12.9387 150.426 13.696 150.884 14.24C151.354 14.7733 152.004 15.04 152.836 15.04C153.231 15.04 153.615 14.9653 153.988 14.816C154.372 14.6667 154.767 14.432 155.172 14.112L155.604 15.072C155.263 15.392 154.831 15.648 154.308 15.84C153.796 16.0213 153.263 16.112 152.708 16.112ZM164.14 7.952V16H162.876V14.608C162.62 15.0987 162.263 15.472 161.804 15.728C161.346 15.984 160.828 16.112 160.252 16.112C159.303 16.112 158.583 15.8453 158.092 15.312C157.602 14.7787 157.356 13.9893 157.356 12.944V7.952H158.652V12.912C158.652 13.6373 158.802 14.1707 159.1 14.512C159.399 14.8533 159.852 15.024 160.46 15.024C161.175 15.024 161.751 14.7947 162.188 14.336C162.626 13.8667 162.844 13.2533 162.844 12.496V7.952H164.14ZM170.533 7.76C170.799 7.76 171.045 7.792 171.269 7.856L171.237 9.04C170.991 8.95467 170.709 8.912 170.389 8.912C169.61 8.912 169.029 9.15733 168.645 9.648C168.271 10.128 168.085 10.7147 168.085 11.408V16H166.789V10.208C166.789 9.376 166.746 8.624 166.661 7.952H167.893L168.021 9.44C168.223 8.896 168.549 8.48 168.997 8.192C169.445 7.904 169.957 7.76 170.533 7.76ZM176.48 7.76C176.746 7.76 176.992 7.792 177.216 7.856L177.184 9.04C176.938 8.95467 176.656 8.912 176.336 8.912C175.557 8.912 174.976 9.15733 174.592 9.648C174.218 10.128 174.032 10.7147 174.032 11.408V16H172.736V10.208C172.736 9.376 172.693 8.624 172.608 7.952H173.84L173.968 9.44C174.17 8.896 174.496 8.48 174.944 8.192C175.392 7.904 175.904 7.76 176.48 7.76ZM185.262 11.936H179.358C179.369 12.96 179.603 13.7333 180.062 14.256C180.531 14.7787 181.209 15.04 182.094 15.04C183.033 15.04 183.897 14.7253 184.686 14.096L185.118 15.04C184.766 15.3707 184.313 15.632 183.758 15.824C183.214 16.016 182.654 16.112 182.078 16.112C180.819 16.112 179.833 15.744 179.118 15.008C178.403 14.2613 178.046 13.2427 178.046 11.952C178.046 11.1307 178.206 10.4053 178.526 9.776C178.846 9.136 179.294 8.64 179.87 8.288C180.446 7.936 181.102 7.76 181.838 7.76C182.905 7.76 183.742 8.112 184.35 8.816C184.958 9.50933 185.262 10.4693 185.262 11.696V11.936ZM181.854 8.768C181.182 8.768 180.633 8.97067 180.206 9.376C179.79 9.78133 179.523 10.352 179.406 11.088H184.094C184.03 10.3307 183.806 9.75467 183.422 9.36C183.049 8.96533 182.526 8.768 181.854 8.768ZM191.395 7.76C193.326 7.76 194.291 8.82133 194.291 10.944V16H192.995V11.008C192.995 10.2613 192.846 9.71733 192.547 9.376C192.249 9.024 191.779 8.848 191.139 8.848C190.393 8.848 189.795 9.07733 189.347 9.536C188.899 9.99467 188.675 10.6133 188.675 11.392V16H187.379V10.208C187.379 9.376 187.337 8.624 187.251 7.952H188.483L188.611 9.392C188.857 8.86933 189.225 8.46933 189.715 8.192C190.206 7.904 190.766 7.76 191.395 7.76ZM198.617 8.976V13.376C198.617 13.9733 198.739 14.3947 198.985 14.64C199.23 14.8747 199.577 14.992 200.025 14.992C200.323 14.992 200.611 14.944 200.889 14.848V15.952C200.558 16.0587 200.185 16.112 199.769 16.112C199.001 16.112 198.398 15.8987 197.961 15.472C197.534 15.0347 197.321 14.3947 197.321 13.552V8.976H195.753V7.952H197.321V5.888L198.617 5.424V7.952H200.921V8.976H198.617ZM210.698 7.76C210.965 7.76 211.21 7.792 211.434 7.856L211.402 9.04C211.157 8.95467 210.874 8.912 210.554 8.912C209.776 8.912 209.194 9.15733 208.81 9.648C208.437 10.128 208.25 10.7147 208.25 11.408V16H206.954V10.208C206.954 9.376 206.912 8.624 206.826 7.952H208.058L208.186 9.44C208.389 8.896 208.714 8.48 209.162 8.192C209.61 7.904 210.122 7.76 210.698 7.76ZM219.637 7.952V16H218.373V14.608C218.117 15.0987 217.76 15.472 217.301 15.728C216.842 15.984 216.325 16.112 215.749 16.112C214.8 16.112 214.08 15.8453 213.589 15.312C213.098 14.7787 212.853 13.9893 212.853 12.944V7.952H214.149V12.912C214.149 13.6373 214.298 14.1707 214.597 14.512C214.896 14.8533 215.349 15.024 215.957 15.024C216.672 15.024 217.248 14.7947 217.685 14.336C218.122 13.8667 218.341 13.2533 218.341 12.496V7.952H219.637ZM231.214 7.76C232.995 7.76 233.886 8.82133 233.886 10.944V16H232.59V11.008C232.59 10.2507 232.456 9.70133 232.19 9.36C231.934 9.01867 231.512 8.848 230.926 8.848C230.243 8.848 229.71 9.07733 229.326 9.536C228.942 9.99467 228.75 10.6187 228.75 11.408V16H227.454V11.008C227.454 10.2613 227.32 9.71733 227.054 9.376C226.787 9.024 226.36 8.848 225.774 8.848C225.091 8.848 224.552 9.07733 224.158 9.536C223.774 9.99467 223.582 10.6187 223.582 11.408V16H222.286V10.208C222.286 9.376 222.243 8.624 222.158 7.952H223.39L223.518 9.36C223.742 8.848 224.072 8.45333 224.51 8.176C224.958 7.89867 225.475 7.76 226.062 7.76C226.702 7.76 227.224 7.888 227.63 8.144C228.035 8.4 228.334 8.79467 228.526 9.328C228.771 8.848 229.128 8.46933 229.598 8.192C230.078 7.904 230.616 7.76 231.214 7.76ZM240.514 7.76C241.218 7.76 241.842 7.93067 242.386 8.272C242.93 8.61333 243.351 9.09867 243.65 9.728C243.949 10.3467 244.098 11.072 244.098 11.904C244.098 12.736 243.949 13.472 243.65 14.112C243.351 14.7413 242.93 15.232 242.386 15.584C241.842 15.936 241.218 16.112 240.514 16.112C239.885 16.112 239.335 15.9733 238.866 15.696C238.397 15.4187 238.039 15.024 237.794 14.512V16H236.498V4.224H237.794V9.376C238.029 8.85333 238.381 8.45333 238.85 8.176C239.33 7.89867 239.885 7.76 240.514 7.76ZM240.274 15.04C241.053 15.04 241.661 14.768 242.098 14.224C242.535 13.6693 242.754 12.896 242.754 11.904C242.754 10.9333 242.535 10.1813 242.098 9.648C241.671 9.11467 241.063 8.848 240.274 8.848C239.474 8.848 238.861 9.11467 238.434 9.648C238.007 10.1813 237.794 10.944 237.794 11.936C237.794 12.928 238.007 13.696 238.434 14.24C238.861 14.7733 239.474 15.04 240.274 15.04ZM246.242 4.224H247.538V16H246.242V4.224ZM256.94 11.936H251.036C251.047 12.96 251.282 13.7333 251.74 14.256C252.21 14.7787 252.887 15.04 253.772 15.04C254.711 15.04 255.575 14.7253 256.364 14.096L256.796 15.04C256.444 15.3707 255.991 15.632 255.436 15.824C254.892 16.016 254.332 16.112 253.756 16.112C252.498 16.112 251.511 15.744 250.796 15.008C250.082 14.2613 249.724 13.2427 249.724 11.952C249.724 11.1307 249.884 10.4053 250.204 9.776C250.524 9.136 250.972 8.64 251.548 8.288C252.124 7.936 252.78 7.76 253.516 7.76C254.583 7.76 255.42 8.112 256.028 8.816C256.636 9.50933 256.94 10.4693 256.94 11.696V11.936ZM253.532 8.768C252.86 8.768 252.311 8.97067 251.884 9.376C251.468 9.78133 251.202 10.352 251.084 11.088H255.772C255.708 10.3307 255.484 9.75467 255.1 9.36C254.727 8.96533 254.204 8.768 253.532 8.768ZM261.777 16.112C260.423 16.112 259.351 15.7653 258.561 15.072L258.993 14.112C259.431 14.4533 259.873 14.6987 260.321 14.848C260.769 14.9973 261.271 15.072 261.825 15.072C262.433 15.072 262.892 14.9707 263.201 14.768C263.521 14.5547 263.681 14.2507 263.681 13.856C263.681 13.536 263.575 13.28 263.361 13.088C263.148 12.896 262.796 12.7467 262.305 12.64L260.945 12.32C260.273 12.1707 259.751 11.904 259.377 11.52C259.015 11.136 258.833 10.6773 258.833 10.144C258.833 9.44 259.116 8.86933 259.681 8.432C260.247 7.984 260.993 7.76 261.921 7.76C262.487 7.76 263.02 7.85067 263.521 8.032C264.023 8.21333 264.444 8.47467 264.785 8.816L264.353 9.76C263.596 9.13067 262.785 8.816 261.921 8.816C261.345 8.816 260.897 8.928 260.577 9.152C260.268 9.36533 260.113 9.66933 260.113 10.064C260.113 10.3947 260.209 10.656 260.401 10.848C260.604 11.04 260.924 11.1893 261.361 11.296L262.721 11.632C263.468 11.8027 264.023 12.0693 264.385 12.432C264.748 12.784 264.929 13.248 264.929 13.824C264.929 14.5173 264.647 15.072 264.081 15.488C263.516 15.904 262.748 16.112 261.777 16.112ZM268.491 14.352V16H266.843V14.352H268.491Z" fill="#323F4B"/>
</svg>
