<svg width="400" height="300" viewBox="0 0 400 300" fill="none" xmlns="http://www.w3.org/2000/svg">
<path d="M206.79 274.49C234.592 274.49 257.13 273.192 257.13 271.59C257.13 269.988 234.592 268.69 206.79 268.69C178.988 268.69 156.45 269.988 156.45 271.59C156.45 273.192 178.988 274.49 206.79 274.49Z" fill="#D5E6FB"/>
<path d="M150.65 144.35C150.37 144.71 149.43 164.79 148.4 165.82C145.6 168.62 145.96 162.82 145.96 162.82C145.96 162.82 140.59 174.53 137.47 173.64C131.79 172.02 137.69 158.46 139.14 155.71C140.52 150.35 140.7 139.64 140.7 139.64" fill="white"/>
<path d="M137.8 174.18C137.641 174.18 137.484 174.16 137.33 174.12C136.811 173.977 136.332 173.716 135.932 173.357C135.531 172.998 135.219 172.55 135.02 172.05C133.16 167.69 137.38 158 138.67 155.53C140 150.27 140.2 139.74 140.2 139.63C140.205 139.498 140.261 139.374 140.356 139.282C140.451 139.191 140.578 139.14 140.71 139.14C140.776 139.14 140.841 139.153 140.902 139.179C140.963 139.205 141.018 139.243 141.064 139.291C141.11 139.338 141.145 139.395 141.169 139.456C141.192 139.518 141.203 139.584 141.2 139.65C141.2 140.09 141 150.48 139.62 155.83C139.626 155.867 139.626 155.904 139.62 155.94C138.49 158.1 134.28 167.67 135.98 171.66C136.122 172.023 136.347 172.348 136.637 172.608C136.927 172.869 137.274 173.058 137.65 173.16C139.51 173.69 143.39 167.31 145.54 162.61C145.588 162.503 145.673 162.416 145.779 162.364C145.885 162.313 146.006 162.301 146.12 162.33C146.233 162.362 146.331 162.43 146.4 162.524C146.469 162.619 146.504 162.733 146.5 162.85C146.41 164.21 146.63 165.85 147.07 166.07C147.2 166.13 147.54 166.01 148.07 165.47C148.64 164.6 149.32 155.11 149.69 150.01C150.1 144.28 150.12 144.24 150.29 144.01C150.371 143.906 150.49 143.837 150.621 143.821C150.753 143.804 150.885 143.839 150.99 143.92C151.076 143.988 151.138 144.083 151.165 144.19C151.192 144.296 151.183 144.409 151.14 144.51C151.05 144.91 150.87 147.41 150.68 150.05C149.95 160.41 149.47 165.46 148.78 166.15C148.09 166.84 147.25 167.23 146.65 166.95C146.312 166.714 146.036 166.399 145.845 166.034C145.653 165.669 145.552 165.263 145.55 164.85C143.85 168.22 140.47 174.18 137.8 174.18Z" fill="#093269"/>
<path d="M223.64 99.4702L235.64 94.2602C235.64 94.2602 238.04 88.4902 240.43 87.7802C243.257 87.2082 246.121 86.8339 249 86.6602C249.782 87.2212 250.375 88.0061 250.702 88.9112C251.028 89.8163 251.073 90.7991 250.83 91.7302C250.12 95.2402 245.48 100.88 239 102.28L227.16 112.7" fill="white"/>
<path d="M227.16 113.2C227.088 113.199 227.018 113.184 226.952 113.154C226.887 113.125 226.828 113.083 226.78 113.03C226.737 112.981 226.703 112.924 226.682 112.862C226.661 112.8 226.653 112.734 226.657 112.669C226.662 112.604 226.68 112.54 226.709 112.482C226.739 112.424 226.78 112.372 226.83 112.33L238.65 101.91C238.715 101.851 238.794 101.809 238.88 101.79C245.21 100.42 249.66 94.9097 250.32 91.6297C250.531 90.8228 250.504 89.972 250.241 89.1803C249.979 88.3886 249.492 87.6902 248.84 87.1697C246.048 87.3341 243.27 87.6984 240.53 88.2597C238.76 88.7897 236.71 92.9097 236.07 94.4497C236.018 94.5713 235.922 94.6681 235.8 94.7197L223.8 99.9297C223.678 99.9828 223.54 99.9852 223.416 99.9364C223.292 99.8877 223.193 99.7917 223.14 99.6697C223.087 99.5477 223.085 99.4097 223.133 99.2859C223.182 99.1621 223.278 99.0628 223.4 99.0097L235.18 93.8797C235.67 92.7497 237.83 87.9997 240.18 87.2997C243.046 86.7134 245.95 86.3324 248.87 86.1597C248.975 86.1516 249.08 86.176 249.17 86.2297C250.043 86.8401 250.708 87.7028 251.076 88.702C251.444 89.7012 251.498 90.7891 251.23 91.8197C250.51 95.4397 245.91 101.21 239.15 102.74L227.42 113.08C227.346 113.143 227.256 113.185 227.16 113.2Z" fill="#093269"/>
<path d="M247.99 79.48L233.12 98.44L241.8 99.47L255.59 81.03L247.99 79.48Z" fill="#093269"/>
<path d="M241.8 100H241.74L233.06 99C232.973 98.9895 232.89 98.9563 232.82 98.9036C232.75 98.8509 232.694 98.7807 232.66 98.7C232.624 98.6184 232.612 98.5284 232.624 98.4401C232.636 98.3518 232.673 98.2686 232.73 98.2L247.6 79.2C247.656 79.1269 247.732 79.0712 247.819 79.0393C247.906 79.0075 248 79.0008 248.09 79.02L255.7 80.57C255.781 80.5869 255.857 80.6242 255.92 80.6785C255.983 80.7327 256.031 80.8021 256.06 80.88C256.091 80.9575 256.101 81.0419 256.089 81.1245C256.076 81.2071 256.042 81.285 255.99 81.35L242.2 99.77C242.156 99.8365 242.096 99.8919 242.027 99.9318C241.958 99.9717 241.88 99.995 241.8 100ZM234.06 98.08L241.57 98.97L254.73 81.39L248.2 80L234.06 98.08Z" fill="#093269"/>
<path d="M248.46 79.8501L235.39 96.5001L241.17 97.3501L254.05 81.0301L248.46 79.8501Z" fill="white"/>
<path d="M233.12 110L227.23 96.3398L197.7 110L200.7 133.57C200.7 133.57 227.25 117.73 233.12 110Z" fill="#5872FF"/>
<path d="M231 240.43C231 240.43 237.29 255.95 236.72 255.94C236.15 255.93 222.58 258.09 222.58 258.09C222.58 258.09 216.39 245.36 216.58 245.09C216.77 244.82 231 240.43 231 240.43Z" fill="white"/>
<path d="M222.58 258.59C222.486 258.59 222.394 258.564 222.315 258.515C222.235 258.465 222.171 258.394 222.13 258.31C215.83 245.31 215.95 245.13 216.13 244.84C216.31 244.55 216.37 244.38 230.88 239.95C231 239.916 231.128 239.926 231.24 239.98C231.352 240.033 231.441 240.126 231.49 240.24C237.67 255.5 237.37 255.94 237.18 256.24C237.133 256.313 237.068 256.373 236.991 256.414C236.913 256.454 236.827 256.473 236.74 256.47C236.21 256.47 228.04 257.76 222.69 258.61L222.58 258.59ZM217.15 245.35C217.78 246.94 220.82 253.35 222.87 257.54C225.46 257.12 233.87 255.78 236.18 255.49C235.69 253.61 232.72 246.04 230.7 241.04C225.92 242.5 218.8 244.73 217.15 245.35Z" fill="#093269"/>
<path d="M236.72 255.94C236.72 255.94 259.03 257.6 259.63 261.68C260.23 265.76 226.23 271.59 226.23 271.59L222.58 258.09L236.72 255.94Z" fill="#093269"/>
<path d="M226.23 272.08C226.121 272.082 226.015 272.047 225.928 271.982C225.842 271.917 225.779 271.825 225.75 271.72L222.1 258.22C222.08 258.153 222.074 258.082 222.085 258.013C222.095 257.944 222.121 257.878 222.16 257.82C222.198 257.761 222.248 257.711 222.306 257.673C222.365 257.635 222.431 257.61 222.5 257.6L236.64 255.44H236.76C240.55 255.72 259.5 257.35 260.12 261.61C260.74 265.87 234.4 270.69 226.32 272.08H226.23ZM223.23 258.5L226.59 271C242.59 268.23 259.46 263.94 259.13 261.73C258.93 260.31 252.66 257.61 236.74 256.42L223.23 258.5Z" fill="#093269"/>
<path d="M184.24 237.08L177.79 242.6L168.96 230.51L178.29 222.97L184.24 237.08Z" fill="white"/>
<path d="M177.79 243.1C177.721 243.094 177.654 243.072 177.593 243.038C177.533 243.003 177.481 242.956 177.44 242.9L168.61 230.82C168.532 230.716 168.498 230.586 168.515 230.457C168.532 230.328 168.598 230.211 168.7 230.13L178.03 222.59C178.09 222.539 178.161 222.504 178.238 222.488C178.315 222.472 178.395 222.476 178.47 222.5C178.546 222.518 178.616 222.554 178.675 222.604C178.734 222.655 178.78 222.718 178.81 222.79L184.81 236.9C184.848 236.998 184.855 237.105 184.83 237.207C184.805 237.309 184.749 237.401 184.67 237.47L178.12 243C178.025 243.072 177.908 243.107 177.79 243.1ZM169.65 230.6L177.88 241.87L183.64 236.94L178.09 223.78L169.65 230.6Z" fill="#093269"/>
<path d="M177.79 242.6C177.79 242.6 182.3 265.85 178.46 265.05C174.62 264.25 159.25 238.65 159.25 238.65L168.96 230.51L177.79 242.6Z" fill="#093269"/>
<path d="M178.66 265.56C178.56 265.57 178.46 265.57 178.36 265.56C174.43 264.74 160.36 241.56 158.82 238.93C158.761 238.827 158.74 238.707 158.76 238.59C158.78 238.473 158.84 238.367 158.93 238.29L168.64 230.16C168.686 230.11 168.741 230.07 168.803 230.042C168.865 230.015 168.932 230 169 230C169.068 230.007 169.133 230.028 169.192 230.063C169.251 230.097 169.301 230.144 169.34 230.2L178.18 242.28C178.221 242.34 178.248 242.408 178.26 242.48C178.26 242.53 179.26 247.48 179.88 252.73C181.23 263.49 179.95 264.73 179.53 265.16C179.42 265.283 179.286 265.382 179.137 265.451C178.987 265.519 178.825 265.557 178.66 265.56ZM159.9 238.75C166.05 248.97 175.9 264.01 178.57 264.56C178.62 264.574 178.672 264.573 178.721 264.559C178.771 264.545 178.815 264.518 178.85 264.48C180.48 262.87 178.79 250.38 177.33 242.8L168.87 231.24L159.9 238.75Z" fill="#093269"/>
<path d="M204.36 131.87C204.36 131.87 242.79 186.03 242.87 190.87C243.05 200.29 184.58 240.93 184.58 240.93L174.73 223L210.56 190.74L176.89 129.49L204.36 131.87Z" fill="#093269"/>
<path d="M184.58 241.44H184.47C184.401 241.426 184.336 241.397 184.28 241.353C184.225 241.31 184.18 241.254 184.15 241.19L174.29 223.28C174.235 223.181 174.216 223.067 174.236 222.956C174.256 222.844 174.314 222.744 174.4 222.67L209.93 190.67L176.45 129.77C176.405 129.692 176.383 129.602 176.386 129.512C176.389 129.421 176.416 129.333 176.466 129.258C176.516 129.182 176.585 129.122 176.667 129.084C176.749 129.045 176.84 129.03 176.93 129.04L204.4 131.38C204.471 131.388 204.54 131.411 204.602 131.448C204.664 131.484 204.718 131.532 204.76 131.59C208.76 137.15 243.28 186.02 243.37 190.88C243.55 200.46 187.26 239.7 184.87 241.36C184.783 241.415 184.682 241.443 184.58 241.44ZM175.35 223.14L184.75 240.22C187.33 238.41 200.5 229.14 213.49 219.05C238.71 199.45 242.42 193 242.38 190.89C242.31 187.06 214.84 147.52 204.08 132.35L177.77 130.1L211 190.53C211.054 190.628 211.074 190.742 211.056 190.852C211.037 190.963 210.983 191.064 210.9 191.14L175.35 223.14Z" fill="#093269"/>
<path d="M166.14 137.83L217.72 253.1L237.45 244.91L197.06 131.7L166.14 137.83Z" fill="#093269"/>
<path d="M217.72 253.6C217.624 253.599 217.53 253.571 217.45 253.517C217.37 253.464 217.307 253.388 217.27 253.3L165.69 138C165.656 137.932 165.638 137.856 165.638 137.78C165.638 137.703 165.656 137.628 165.69 137.56C165.724 137.494 165.772 137.437 165.831 137.392C165.89 137.347 165.958 137.315 166.03 137.3L197 131.21C197.117 131.188 197.239 131.208 197.343 131.266C197.447 131.325 197.528 131.418 197.57 131.53L237.96 244.74C238.003 244.861 237.998 244.993 237.946 245.111C237.894 245.228 237.799 245.321 237.68 245.37L217.95 253.56C217.879 253.595 217.799 253.609 217.72 253.6ZM166.85 138.2L218 252.45L236.85 244.63L196.75 132.27L166.85 138.2Z" fill="#093269"/>
<path d="M224.89 208.18C224.787 208.18 224.687 208.148 224.603 208.089C224.519 208.03 224.455 207.947 224.42 207.85L201.28 145.18C201.251 145.102 201.242 145.018 201.254 144.936C201.266 144.854 201.299 144.776 201.35 144.71L205.35 139.3C205.431 139.196 205.549 139.128 205.68 139.109C205.81 139.09 205.943 139.123 206.05 139.2C206.103 139.239 206.148 139.288 206.183 139.344C206.217 139.4 206.24 139.462 206.25 139.527C206.261 139.592 206.258 139.659 206.242 139.723C206.227 139.787 206.199 139.847 206.16 139.9L202.32 145.08L225.32 207.5C225.344 207.561 225.355 207.626 225.354 207.692C225.352 207.757 225.337 207.822 225.31 207.881C225.283 207.941 225.244 207.995 225.196 208.039C225.148 208.084 225.092 208.118 225.03 208.14C224.986 208.162 224.939 208.176 224.89 208.18Z" fill="white"/>
<path d="M181.75 57.9999C181.463 58.0581 181.167 58.0489 180.884 57.9731C180.602 57.8972 180.341 57.7569 180.122 57.563C179.903 57.3691 179.732 57.127 179.622 56.8558C179.512 56.5845 179.467 56.2916 179.49 55.9999L178.9 45.9999C178.58 42.9765 178.688 39.9232 179.22 36.9299C179.86 34.0699 181.67 31.1199 184.54 30.5699C185.54 30.3899 186.54 30.4999 187.54 30.2499C189.37 29.7799 190.61 28.1399 192.16 27.0599C193.389 26.2182 194.816 25.7094 196.3 25.5832C197.785 25.457 199.276 25.7177 200.63 26.3399C201.336 26.731 202.071 27.0654 202.83 27.3399C205.25 28.0299 207.68 26.3399 210.18 26.1399C213.96 25.7999 217.3 28.8799 218.84 32.3399C220.93 37.0399 220 43.5699 215.4 45.8499C211.78 47.6399 207.98 46.5499 204.24 46.7199C200.31 46.8899 198.55 49.8399 195.67 52.1199C192.946 54.3212 189.721 55.8154 186.28 56.4699C185 56.6899 184.59 57.2499 183.44 57.6299C182.897 57.8328 182.328 57.9573 181.75 57.9999Z" fill="white"/>
<path d="M181.57 58.47C181.239 58.4997 180.905 58.459 180.59 58.3506C180.276 58.2422 179.988 58.0685 179.745 57.8409C179.502 57.6133 179.31 57.337 179.182 57.0301C179.054 56.7231 178.992 56.3925 179 56.06L178.4 46C178.075 42.9298 178.186 39.8291 178.73 36.79C179.38 33.93 181.22 30.66 184.45 30.05C184.917 29.9746 185.388 29.9278 185.86 29.91C186.371 29.9062 186.881 29.8492 187.38 29.74C188.515 29.3458 189.543 28.6917 190.38 27.83C190.86 27.42 191.38 26.99 191.87 26.62C193.173 25.7172 194.689 25.1718 196.269 25.0385C197.848 24.9051 199.434 25.1884 200.87 25.86L201.59 26.23C202.036 26.4925 202.509 26.707 203 26.87C204.424 27.1112 205.887 26.9304 207.21 26.35C208.165 26.0112 209.154 25.7765 210.16 25.65C214.33 25.28 217.77 28.65 219.33 32.15C221.5 37.03 220.54 43.89 215.65 46.31C213.02 47.62 210.29 47.46 207.65 47.31C206.532 47.2235 205.411 47.1968 204.29 47.23C201.58 47.35 199.99 48.86 198.14 50.61C197.47 51.25 196.78 51.91 196 52.52C193.198 54.7918 189.875 56.3313 186.33 57C185.796 57.1011 185.284 57.2976 184.82 57.58C184.421 57.8043 184.003 57.9917 183.57 58.14C182.994 58.3452 182.391 58.4664 181.78 58.5L181.57 58.47ZM197 26C195.358 25.9868 193.752 26.4791 192.4 27.41C191.911 27.7719 191.443 28.1626 191 28.58C190.055 29.5421 188.897 30.2684 187.62 30.7C187.054 30.8196 186.478 30.8866 185.9 30.9C185.475 30.9182 185.051 30.9583 184.63 31.02C181.87 31.54 180.27 34.45 179.69 37.02C179.17 39.9677 179.069 42.974 179.39 45.95L180 56C180.06 57.07 180.59 57.52 181.74 57.46C182.262 57.4274 182.777 57.3231 183.27 57.15C183.648 57.0224 184.013 56.8583 184.36 56.66C184.916 56.3217 185.53 56.0879 186.17 55.97C189.531 55.3393 192.682 53.8822 195.34 51.73C196.09 51.14 196.76 50.5 197.42 49.88C199.32 48.07 201.12 46.36 204.2 46.22C205.357 46.1864 206.516 46.2131 207.67 46.3C210.29 46.45 212.76 46.59 215.16 45.4C219.53 43.24 220.35 37.01 218.37 32.55C217 29.47 213.86 26.31 210.2 26.64C209.265 26.76 208.347 26.9813 207.46 27.3C205.953 27.9435 204.29 28.1245 202.68 27.82C202.119 27.6391 201.579 27.3977 201.07 27.1C200.84 26.98 200.62 26.86 200.39 26.76C199.332 26.254 198.173 25.9942 197 26Z" fill="#093269"/>
<path d="M204.9 48.5498C204.9 48.5498 207.61 55.2798 206.54 56.3398C205.47 57.3998 203 55.9998 203 55.9998" fill="white"/>
<path d="M205.39 57.2501C204.454 57.1928 203.543 56.9299 202.72 56.4801C202.605 56.4148 202.52 56.3074 202.483 56.1806C202.445 56.0537 202.459 55.9173 202.52 55.8001C202.55 55.7426 202.592 55.6917 202.642 55.6504C202.693 55.6091 202.751 55.5782 202.813 55.5596C202.875 55.541 202.941 55.535 203.006 55.5419C203.07 55.5489 203.133 55.5687 203.19 55.6001C203.76 55.9101 205.54 56.6001 206.19 55.9901C206.63 55.5501 205.81 52.1601 204.44 48.7401C204.391 48.6168 204.393 48.479 204.445 48.3571C204.498 48.2352 204.597 48.1392 204.72 48.0901C204.843 48.0411 204.981 48.043 205.103 48.0955C205.225 48.148 205.321 48.2468 205.37 48.3701C206.22 50.4801 208.07 55.5301 206.9 56.7001C206.698 56.8888 206.461 57.0348 206.201 57.1293C205.942 57.2238 205.666 57.2649 205.39 57.2501Z" fill="#093269"/>
<path d="M205.67 40.5497C207.75 43.0997 206.14 47.2497 205.55 50.0497C204.71 53.9697 203.783 57.8764 202.77 61.7697C202.12 64.2297 195.66 62.9597 194.67 61.9797L193.58 70.3497C193.58 70.3497 191.13 74.5997 186.41 71.1197C181.69 67.6397 181.16 64.0597 181.16 64.0597L183.92 52.7697C183.92 52.7697 188.18 53.6797 191.75 49.1097C195.32 44.5397 196.81 36.7197 196.81 36.7197C196.81 36.7197 203.65 38.0697 205.67 40.5497Z" fill="white"/>
<path d="M189.94 73.0002C188.539 72.9343 187.196 72.4189 186.11 71.5302C181.29 67.9702 180.69 64.3002 180.67 64.1402C180.66 64.0772 180.66 64.0131 180.67 63.9502L183.44 52.6602C183.469 52.5347 183.546 52.4255 183.654 52.3563C183.763 52.287 183.894 52.2633 184.02 52.2902C184.19 52.2902 188.02 53.0602 191.35 48.8202C194.8 44.4002 196.35 36.7102 196.35 36.6302C196.382 36.5003 196.46 36.3865 196.57 36.3102C196.624 36.2742 196.684 36.2494 196.748 36.2374C196.811 36.2253 196.877 36.2263 196.94 36.2402C197.23 36.2902 203.94 37.6502 206.1 40.2402C207.98 42.5502 207.1 45.9302 206.44 48.6502C206.31 49.1802 206.18 49.6502 206.08 50.1502C205.24 54.0702 204.3 58.0302 203.29 61.9002C203.161 62.3082 202.922 62.6726 202.599 62.9532C202.276 63.2338 201.882 63.4196 201.46 63.4902C199.322 63.8782 197.117 63.6421 195.11 62.8102L194.11 70.4202C194.101 70.4832 194.08 70.5441 194.05 70.6002C193.336 71.7529 192.197 72.5789 190.88 72.9002C190.571 72.9669 190.256 73.0005 189.94 73.0002ZM181.67 64.0802C181.79 64.6302 182.67 67.7302 186.67 70.7302C187.201 71.1958 187.826 71.5435 188.501 71.7504C189.177 71.9572 189.889 72.0185 190.59 71.9302C191.6 71.6807 192.478 71.0593 193.05 70.1902L194.13 61.9302C194.143 61.8371 194.182 61.7496 194.242 61.6773C194.302 61.6049 194.381 61.5505 194.47 61.5202C194.558 61.491 194.652 61.4868 194.742 61.508C194.832 61.5292 194.914 61.5749 194.98 61.6402C196.873 62.5932 199.024 62.9055 201.11 62.5302C201.76 62.3602 202.11 62.0602 202.25 61.6502C203.25 57.8002 204.19 53.8602 205.02 49.9502C205.12 49.4702 205.25 48.9502 205.39 48.4102C206.02 45.9102 206.81 42.8002 205.25 40.8802C203.69 38.9602 198.72 37.6802 197.15 37.3202C196.76 39.1502 195.21 45.4402 192.1 49.4302C188.99 53.4202 185.53 53.4302 184.26 53.3402L181.67 64.0802Z" fill="#093269"/>
<path d="M203.28 58.8201C203.28 58.8201 199.84 60.0701 198.86 56.5801L203.28 58.8201Z" fill="white"/>
<path d="M201.91 59.5298C201.318 59.538 200.733 59.4079 200.2 59.1498C199.742 58.8965 199.343 58.5489 199.029 58.1301C198.716 57.7112 198.494 57.2305 198.38 56.7198C198.344 56.5872 198.363 56.4458 198.431 56.3267C198.499 56.2076 198.612 56.1206 198.745 56.0848C198.878 56.049 199.019 56.0673 199.138 56.1358C199.257 56.2042 199.344 56.3172 199.38 56.4498C199.458 56.8271 199.615 57.1835 199.841 57.4955C200.066 57.8076 200.356 58.0681 200.69 58.2598C201.466 58.5817 202.332 58.6137 203.13 58.3498C203.192 58.3268 203.257 58.3162 203.323 58.3186C203.389 58.321 203.454 58.3363 203.514 58.3637C203.573 58.3911 203.627 58.43 203.672 58.4783C203.717 58.5265 203.752 58.5831 203.775 58.6448C203.798 58.7065 203.809 58.7722 203.806 58.838C203.804 58.9038 203.788 58.9685 203.761 59.0284C203.734 59.0883 203.695 59.1422 203.647 59.1871C203.598 59.2319 203.542 59.2668 203.48 59.2898C202.972 59.4479 202.442 59.5288 201.91 59.5298Z" fill="#093269"/>
<path d="M196.84 49.5302C196.935 48.5213 196.745 47.5059 196.29 46.6002C196.044 45.8602 195.687 45.1621 195.23 44.5302C195.001 44.21 194.701 43.9462 194.355 43.7591C194.008 43.5719 193.624 43.4663 193.23 43.4502C192.884 43.4655 192.544 43.5535 192.234 43.7086C191.924 43.8636 191.65 44.0822 191.43 44.3502C190.998 44.8921 190.694 45.5245 190.54 46.2002C190.172 47.6676 190.197 49.2059 190.611 50.6609C191.025 52.1159 191.815 53.4365 192.9 54.4902L192.73 54.2102" fill="white"/>
<path d="M192.92 55C192.793 54.9992 192.671 54.949 192.58 54.86C191.433 53.7423 190.598 52.3436 190.16 50.8032C189.721 49.2628 189.694 47.6344 190.08 46.08C190.263 45.3483 190.604 44.6656 191.08 44.08C191.344 43.7556 191.674 43.4914 192.048 43.3051C192.422 43.1188 192.832 43.0148 193.25 43C193.714 43.0251 194.168 43.1508 194.579 43.3684C194.989 43.5859 195.348 43.8901 195.63 44.26C196.112 44.9379 196.493 45.6824 196.76 46.47C197.244 47.4628 197.442 48.5711 197.33 49.67C197.319 49.7348 197.295 49.7969 197.26 49.8524C197.225 49.9078 197.179 49.9557 197.125 49.993C197.071 50.0303 197.01 50.0564 196.945 50.0696C196.881 50.0828 196.814 50.083 196.75 50.07C196.62 50.0457 196.505 49.9711 196.43 49.8624C196.356 49.7538 196.327 49.6199 196.35 49.49C196.419 48.5759 196.24 47.6601 195.83 46.84C195.599 46.1425 195.261 45.4848 194.83 44.89C194.641 44.6399 194.402 44.4316 194.128 44.2785C193.855 44.1253 193.552 44.0305 193.24 44C192.965 44.0133 192.696 44.0854 192.451 44.2113C192.206 44.3372 191.991 44.5141 191.82 44.73C191.436 45.2125 191.169 45.7772 191.04 46.38C190.72 47.667 190.719 49.0125 191.036 50.3002C191.353 51.5878 191.979 52.7788 192.86 53.77C192.925 53.7848 192.986 53.8129 193.039 53.8525C193.093 53.8921 193.137 53.9423 193.17 54L193.34 54.28C193.402 54.3838 193.424 54.5061 193.404 54.6252C193.384 54.7442 193.322 54.8522 193.23 54.93C193.136 54.9839 193.028 55.0083 192.92 55Z" fill="#093269"/>
<path d="M194.67 62.0002C194.67 62.0002 191.53 60.2802 190.45 57.6602C190.45 57.6602 189.45 63.6602 194.22 66.4902L194.67 62.0002Z" fill="#093269"/>
<path d="M194.22 66.9999C194.132 66.9981 194.046 66.974 193.97 66.9299C188.97 63.9999 189.97 57.6599 189.97 57.5899C189.989 57.4831 190.042 57.3853 190.121 57.3114C190.201 57.2374 190.302 57.1913 190.41 57.1799C190.517 57.1669 190.626 57.1891 190.72 57.2432C190.814 57.2973 190.887 57.3803 190.93 57.4799C191.93 59.8999 194.93 61.5599 194.93 61.5799C195.016 61.6278 195.086 61.6995 195.132 61.7865C195.179 61.8734 195.199 61.9718 195.19 62.0699L194.73 66.5499C194.723 66.6327 194.694 66.7122 194.647 66.7806C194.599 66.849 194.535 66.9039 194.46 66.9399C194.387 66.9814 194.304 67.0022 194.22 66.9999ZM190.85 59.3699C190.84 60.5716 191.105 61.7597 191.625 62.843C192.145 63.9264 192.906 64.8763 193.85 65.6199L194.19 62.2799C192.908 61.5098 191.776 60.5137 190.85 59.3399V59.3699Z" fill="#093269"/>
<path d="M203.751 45.5822C204.038 44.8407 204.038 44.149 203.749 44.0372C203.461 43.9254 202.994 44.4359 202.707 45.1774C202.419 45.9189 202.42 46.6106 202.708 46.7224C202.997 46.8342 203.463 46.3237 203.751 45.5822Z" fill="#093269"/>
<path d="M174.44 64.7999C174.44 64.7999 191.84 65.4999 196.3 74.9199C200.76 84.3399 199.3 116.64 201.88 119.36C204.46 122.08 210.6 135.36 210.4 135.91C210.2 136.46 163.87 141.49 163.87 141.49C163.87 141.49 163.35 130.93 161.2 116.95C159.05 102.97 161.58 63.1399 174.44 64.7999Z" fill="#5872FF"/>
<path d="M182.13 157.81C182.016 157.814 181.906 157.775 181.82 157.7C181.715 157.619 181.647 157.5 181.63 157.369C181.614 157.237 181.649 157.105 181.73 157C188.02 149.06 184.79 144.84 184.65 144.66C184.608 144.61 184.576 144.552 184.556 144.489C184.537 144.426 184.53 144.361 184.537 144.295C184.543 144.23 184.563 144.167 184.594 144.109C184.626 144.051 184.669 144.001 184.72 143.96C184.822 143.877 184.953 143.838 185.084 143.851C185.215 143.864 185.336 143.929 185.42 144.03C185.58 144.23 189.33 149.03 182.52 157.62C182.474 157.68 182.415 157.728 182.347 157.761C182.28 157.794 182.205 157.81 182.13 157.81Z" fill="white"/>
<path d="M168.65 64.75C168.65 64.75 142 93.7 137.47 147.9L152.47 147.59C152.47 147.59 159.13 119.73 177.72 89.14L168.65 64.75Z" fill="#5872FF"/>
<path d="M208.8 131.75H208.7C208.596 131.726 208.502 131.672 208.431 131.593C208.359 131.514 208.314 131.416 208.3 131.31C208.13 130.83 206.54 128.08 205.14 125.66C203.14 122.21 201.08 118.66 200.68 117.57C200.23 116.33 199.68 107.57 198.92 96.1701C198.6 91.1701 198.32 86.8701 198.16 85.2501C197.679 81.8015 196.896 78.4018 195.82 75.0901C195.779 74.9575 195.792 74.814 195.857 74.6911C195.922 74.5683 196.032 74.4762 196.165 74.4351C196.298 74.394 196.441 74.4072 196.564 74.4719C196.687 74.5366 196.779 74.6475 196.82 74.7801C197.922 78.1585 198.719 81.6291 199.2 85.1501C199.37 86.7901 199.65 91.1501 199.96 96.1501C200.5 104.56 201.23 116.07 201.67 117.27C202.04 118.27 204.17 121.95 206.06 125.21C209.42 131.02 209.41 131.1 209.34 131.41C209.304 131.521 209.23 131.615 209.131 131.677C209.033 131.74 208.916 131.765 208.8 131.75Z" fill="#093269"/>
<path d="M154.68 138.7C154.627 138.709 154.573 138.709 154.52 138.7C154.395 138.654 154.293 138.562 154.235 138.443C154.177 138.323 154.168 138.186 154.21 138.06C154.34 137.7 167.21 101.5 180.64 84.2898C180.68 84.2376 180.73 84.1941 180.787 84.1617C180.845 84.1293 180.908 84.1088 180.973 84.1013C181.038 84.0938 181.104 84.0996 181.168 84.1182C181.231 84.1369 181.289 84.168 181.34 84.2098C181.392 84.2498 181.436 84.2999 181.468 84.3571C181.5 84.4143 181.521 84.4775 181.528 84.5428C181.536 84.6081 181.53 84.6743 181.512 84.7373C181.493 84.8003 181.462 84.859 181.42 84.9098C168.06 102 155.28 138 155.16 138.37C155.122 138.466 155.056 138.549 154.971 138.608C154.885 138.667 154.784 138.699 154.68 138.7Z" fill="#093269"/>
<path d="M243.91 97.3502C243.99 93.7502 244.66 89.9802 246.91 87.1902C247.49 86.4902 248.4 85.8102 249.22 86.1902C249.495 86.359 249.725 86.5917 249.89 86.8686C250.056 87.1454 250.152 87.4582 250.17 87.7802C250.192 88.4212 250.324 89.0537 250.56 89.6502" fill="white"/>
<path d="M243.91 97.8498C243.844 97.8485 243.78 97.8343 243.719 97.808C243.659 97.7816 243.605 97.7437 243.559 97.6963C243.514 97.649 243.478 97.5931 243.454 97.5319C243.43 97.4708 243.419 97.4055 243.42 97.3398C243.52 92.7698 244.54 89.3398 246.55 86.8798C247.47 85.7498 248.55 85.3198 249.46 85.7298C249.822 85.9269 250.126 86.2151 250.341 86.566C250.557 86.9169 250.677 87.3181 250.69 87.7298C250.72 87.8952 250.74 88.0621 250.75 88.2298C250.769 88.6501 250.863 89.0635 251.03 89.4498C251.09 89.5667 251.102 89.7025 251.062 89.8279C251.023 89.9533 250.936 90.0581 250.82 90.1198C250.762 90.1511 250.698 90.1705 250.632 90.1769C250.566 90.1833 250.499 90.1765 250.436 90.157C250.373 90.1374 250.314 90.1055 250.263 90.0631C250.212 90.0207 250.171 89.9686 250.14 89.9098C249.919 89.414 249.79 88.8819 249.76 88.3398C249.76 88.1898 249.76 88.0298 249.7 87.8798C249.65 87.5198 249.49 86.8798 249.05 86.6798C248.61 86.4798 247.78 86.9898 247.33 87.5498C245.46 89.8398 244.51 93.0598 244.42 97.3998C244.405 97.5244 244.345 97.6392 244.251 97.7223C244.157 97.8053 244.035 97.8507 243.91 97.8498Z" fill="#093269"/>
<path d="M171.69 54.2998C170.367 53.3345 168.859 52.6535 167.26 52.2998C165.088 52.1279 162.919 52.6571 161.07 53.8098C158.483 55.0782 156.289 57.0238 154.72 59.4398C153.95 60.6518 153.497 62.0373 153.401 63.4698C153.305 64.9023 153.569 66.336 154.17 67.6398C154.868 68.8099 155.813 69.8134 156.939 70.5802C158.066 71.3471 159.346 71.8589 160.69 72.0798C163.379 72.5115 166.115 72.5688 168.82 72.2498C171.415 72.0399 174.021 72.0098 176.62 72.1598C181.95 72.5598 187.08 74.3098 192.32 75.3198C195.63 75.9498 194.32 72.4498 193.07 71.1498C190.95 69.0098 188.737 66.9698 186.43 65.0298C181.771 61.1167 176.845 57.5315 171.69 54.2998Z" fill="#5872FF"/>
<path d="M184.1 73.0001C184.005 72.9969 183.912 72.9694 183.83 72.9201C180.948 71.0679 177.625 70.015 174.202 69.8691C170.779 69.7233 167.379 70.4898 164.35 72.0901C164.239 72.1382 164.114 72.1443 163.998 72.1072C163.883 72.0701 163.785 71.9924 163.723 71.8884C163.66 71.7845 163.638 71.6615 163.66 71.5423C163.681 71.423 163.745 71.3156 163.84 71.2401C167.029 69.5402 170.613 68.7218 174.224 68.8695C177.835 69.0172 181.341 70.1255 184.38 72.0801C184.49 72.1534 184.566 72.2671 184.592 72.3963C184.618 72.5255 184.592 72.6599 184.52 72.7701C184.476 72.8419 184.414 72.9009 184.341 72.9412C184.267 72.9816 184.184 73.0019 184.1 73.0001Z" fill="#093269"/>
<path d="M280.47 36.1799H237.63C236.441 36.1825 235.301 36.6567 234.462 37.4985C233.622 38.3402 233.15 39.4808 233.15 40.6699V63.5299C233.155 64.7155 233.629 65.8509 234.469 66.6883C235.308 67.5258 236.444 67.9972 237.63 67.9999H242.81V76.9999L248 67.9999H280.44C281.034 68.0091 281.624 67.9005 282.175 67.6803C282.727 67.46 283.229 67.1325 283.653 66.7168C284.077 66.3011 284.415 65.8053 284.646 65.2583C284.877 64.7112 284.997 64.1238 285 63.5299V40.6699C285 40.0768 284.883 39.4897 284.654 38.9423C284.426 38.395 284.092 37.8982 283.671 37.4807C283.25 37.0633 282.75 36.7334 282.201 36.5101C281.651 36.2868 281.063 36.1746 280.47 36.1799Z" fill="white"/>
<path d="M242.81 77.4799C242.767 77.4894 242.723 77.4894 242.68 77.4799C242.573 77.4547 242.477 77.3931 242.41 77.3057C242.342 77.2183 242.307 77.1103 242.31 76.9999V68.5199H237.63C236.304 68.5199 235.032 67.9931 234.094 67.0555C233.157 66.1178 232.63 64.846 232.63 63.5199V40.6699C232.63 39.3438 233.157 38.0721 234.094 37.1344C235.032 36.1967 236.304 35.6699 237.63 35.6699H280.47C281.796 35.6699 283.068 36.1967 284.006 37.1344C284.943 38.0721 285.47 39.3438 285.47 40.6699V63.5299C285.47 64.856 284.943 66.1278 284.006 67.0655C283.068 68.0031 281.796 68.5299 280.47 68.5299H248.31L243.24 77.2399C243.197 77.315 243.134 77.377 243.058 77.4193C242.982 77.4615 242.897 77.4825 242.81 77.4799ZM237.63 36.6799C236.569 36.6799 235.552 37.1014 234.802 37.8515C234.051 38.6016 233.63 39.6191 233.63 40.6799V63.5299C233.63 64.5908 234.051 65.6082 234.802 66.3584C235.552 67.1085 236.569 67.5299 237.63 67.5299H242.81C242.943 67.5299 243.07 67.5826 243.164 67.6764C243.257 67.7701 243.31 67.8973 243.31 68.0299V75.1399L247.59 67.7799C247.636 67.7042 247.701 67.6415 247.778 67.5978C247.855 67.554 247.941 67.5307 248.03 67.5299H280.47C281.531 67.5299 282.548 67.1085 283.298 66.3584C284.049 65.6082 284.47 64.5908 284.47 63.5299V40.6699C284.47 39.6091 284.049 38.5916 283.298 37.8415C282.548 37.0914 281.531 36.6699 280.47 36.6699L237.63 36.6799Z" fill="#D5E6FB"/>
<path d="M259 59.64H251.12C250.98 59.6487 250.843 59.6039 250.735 59.5147C250.627 59.4256 250.558 59.2987 250.54 59.16C250.528 59.0884 250.531 59.0152 250.548 58.9448C250.565 58.8743 250.597 58.8081 250.64 58.75C250.96 58.28 251.28 57.81 251.58 57.33C252.157 56.4642 252.555 55.4918 252.75 54.47C252.77 54.2504 252.77 54.0295 252.75 53.81V49.55C252.742 48.736 252.878 47.927 253.15 47.16C253.446 46.2833 253.958 45.4955 254.64 44.87C255.352 44.2073 256.218 43.7329 257.16 43.49C257.25 43.49 257.28 43.44 257.28 43.35C257.28 43.26 257.28 42.9 257.28 42.68C257.282 42.255 257.445 41.8465 257.735 41.5359C258.024 41.2252 258.421 41.0352 258.845 41.0037C259.268 40.9722 259.688 41.1014 260.021 41.3657C260.354 41.6301 260.575 42.01 260.64 42.43C260.66 42.7296 260.66 43.0303 260.64 43.33C260.64 43.43 260.64 43.47 260.77 43.5C261.63 43.7187 262.427 44.1355 263.097 44.7172C263.768 45.2988 264.292 46.0292 264.63 46.85C264.944 47.5669 265.117 48.3376 265.14 49.12C265.14 49.94 265.14 50.77 265.14 51.59C265.14 52.41 265.14 53.04 265.14 53.77C265.14 54.5379 265.311 55.2962 265.64 55.99C266.046 56.8448 266.528 57.6614 267.08 58.43L267.3 58.75C267.358 58.8392 267.389 58.9434 267.389 59.05C267.389 59.1565 267.358 59.2607 267.3 59.35C267.252 59.4423 267.178 59.5188 267.088 59.5703C266.997 59.6217 266.894 59.6459 266.79 59.64H259ZM259.58 43.27C259.58 43.08 259.58 42.88 259.58 42.68C259.58 42.5365 259.525 42.3984 259.427 42.2942C259.328 42.19 259.193 42.1276 259.05 42.12C258.913 42.1107 258.778 42.1527 258.671 42.2378C258.564 42.3228 258.492 42.4449 258.47 42.58C258.455 42.8097 258.455 43.0402 258.47 43.27H259.58Z" fill="#D5E6FB"/>
<path d="M261.61 60.7798C261.395 61.282 261.037 61.7101 260.581 62.0109C260.126 62.3118 259.591 62.4721 259.045 62.4721C258.499 62.4721 257.964 62.3118 257.509 62.0109C257.053 61.7101 256.695 61.282 256.48 60.7798H261.61Z" fill="#D5E6FB"/>
<path d="M280.68 73.0098C284.54 73.0098 287.67 69.8803 287.67 66.0198C287.67 62.1593 284.54 59.0298 280.68 59.0298C276.82 59.0298 273.69 62.1593 273.69 66.0198C273.69 69.8803 276.82 73.0098 280.68 73.0098Z" fill="white"/>
<path d="M280.68 73.5098C279.199 73.5098 277.752 73.071 276.521 72.2489C275.29 71.4267 274.33 70.2581 273.762 68.8907C273.195 67.5232 273.045 66.0183 273.332 64.5659C273.62 63.1135 274.331 61.7789 275.377 60.7306C276.422 59.6823 277.755 58.9674 279.207 58.6762C280.658 58.3849 282.164 58.5304 283.532 59.0942C284.901 59.658 286.073 60.6149 286.898 61.844C287.723 63.0731 288.166 64.5193 288.17 65.9998C288.171 66.9847 287.979 67.9602 287.603 68.8707C287.227 69.7811 286.676 70.6087 285.98 71.306C285.285 72.0034 284.459 72.5569 283.549 72.9351C282.64 73.3132 281.665 73.5085 280.68 73.5098ZM280.68 59.5098C279.396 59.5098 278.142 59.8904 277.074 60.6036C276.007 61.3167 275.175 62.3303 274.684 63.5162C274.193 64.7021 274.064 66.007 274.315 67.2659C274.565 68.5249 275.183 69.6813 276.091 70.5889C276.999 71.4966 278.155 72.1147 279.414 72.3651C280.673 72.6155 281.978 72.487 283.164 71.9958C284.35 71.5046 285.363 70.6727 286.076 69.6054C286.789 68.5382 287.17 67.2834 287.17 65.9998C287.162 64.2828 286.475 62.6387 285.259 61.4265C284.043 60.2143 282.397 59.5324 280.68 59.5298V59.5098Z" fill="#D5E6FB"/>
<path d="M280.24 63.3098L278.56 64.6898L277.72 63.6898L280.37 61.5498H281.68V70.0498H280.24V63.3098Z" fill="#D5E6FB"/>
</svg>
