<svg width="300" height="278" viewBox="0 0 300 278" fill="none" xmlns="http://www.w3.org/2000/svg">
<path d="M30.3993 177.616C36.9258 177.616 42.2166 172.33 42.2166 165.81C42.2166 159.29 36.9258 154.004 30.3993 154.004C23.8728 154.004 18.582 159.29 18.582 165.81C18.582 172.33 23.8728 177.616 30.3993 177.616Z" fill="white"/>
<path d="M30.3997 177.915C28.003 177.916 25.6598 177.207 23.6665 175.878C21.6731 174.548 20.1192 172.658 19.2012 170.446C18.2832 168.235 18.0424 165.8 18.5092 163.452C18.9761 161.103 20.1296 158.946 21.8239 157.252C23.5182 155.558 25.6772 154.405 28.0277 153.937C30.3783 153.47 32.8148 153.709 35.0292 154.625C37.2436 155.541 39.1363 157.093 40.4679 159.084C41.7996 161.075 42.5104 163.415 42.5104 165.81C42.5072 169.018 41.2304 172.095 38.9601 174.364C36.6898 176.633 33.6113 177.91 30.3997 177.915ZM30.3997 154.308C28.1212 154.307 25.8935 154.981 23.9984 156.245C22.1034 157.509 20.6262 159.306 19.7537 161.409C18.8812 163.512 18.6526 165.826 19.0968 168.059C19.541 170.292 20.6381 172.343 22.2493 173.953C23.8605 175.562 25.9133 176.658 28.1482 177.102C30.383 177.546 32.6994 177.318 34.8043 176.446C36.9091 175.574 38.7079 174.098 39.9731 172.205C41.2382 170.312 41.9129 168.086 41.9117 165.81C41.907 162.761 40.6926 159.838 38.5347 157.682C36.3768 155.526 33.4514 154.313 30.3997 154.308Z" fill="#ACCCF8"/>
<path d="M113.156 190.248L152.314 203.95L131.75 209.22L107.661 197.323L113.156 190.248Z" fill="#093269"/>
<path d="M131.768 209.483C131.731 209.492 131.692 209.492 131.655 209.483L107.565 197.587C107.529 197.569 107.498 197.544 107.473 197.513C107.448 197.482 107.43 197.446 107.421 197.407C107.413 197.369 107.413 197.329 107.421 197.291C107.429 197.253 107.446 197.217 107.469 197.186L112.947 190.081C112.982 190.037 113.029 190.005 113.082 189.989C113.136 189.973 113.193 189.974 113.246 189.991L152.404 203.693C152.457 203.712 152.503 203.748 152.534 203.796C152.566 203.843 152.581 203.9 152.577 203.956C152.575 204.012 152.554 204.066 152.519 204.109C152.483 204.152 152.434 204.183 152.38 204.196L131.816 209.471L131.768 209.483ZM108.068 197.258L131.768 208.938L151.392 203.908L113.252 190.559L108.068 197.258Z" fill="#093269"/>
<path d="M67.2823 235.834C67.2823 235.834 46.5212 242.12 36.1826 235.834C36.1826 235.834 44.0847 245.691 54.8364 244.591C65.5882 243.49 67.2823 235.834 67.2823 235.834Z" fill="#ACCCF8"/>
<path d="M74.5197 230.386C74.5197 230.386 58.6974 245.703 40.732 241.672C15.7864 236.11 -3.4302 206.474 13.2721 169.303C13.2721 169.303 -4.08871 194.494 4.891 222.593C17.1992 261.056 46.928 259.465 77.1956 251.612" fill="#ACCCF8"/>
<path d="M117.539 161.187C117.539 161.187 113.019 181.743 113.157 190.248C113.157 190.667 114.504 191.713 114.534 192.042C115.186 199.632 90.6834 193.239 90.6834 193.239C90.6834 193.239 89.7735 177.144 91.5994 171.384C93.4252 165.625 95.3828 164.363 95.3828 164.363C95.3828 164.363 111.774 157.927 114.653 158.83C117.533 159.733 117.539 161.187 117.539 161.187Z" fill="#5872FF"/>
<path d="M108.744 169.961L139.916 153.627L137.432 145.624L104.099 162.502L108.744 169.961Z" fill="#5872FF"/>
<path d="M64.319 236.068C64.319 236.068 63.858 239.399 66.528 246.092C69.198 252.785 71.826 254.878 71.826 254.878L81.3206 253.682L72.0116 230.356L64.319 236.068Z" fill="#093269"/>
<path d="M71.8258 255.141C71.7674 255.141 71.7106 255.123 71.6642 255.087C71.5564 254.997 68.9463 252.868 66.2764 246.188C63.6064 239.507 64.0314 236.17 64.0494 236.02C64.0545 235.985 64.0668 235.952 64.0853 235.922C64.1038 235.892 64.1283 235.867 64.1571 235.847L71.8498 230.165C71.8818 230.14 71.919 230.124 71.9585 230.117C71.998 230.11 72.0387 230.112 72.0772 230.123C72.1166 230.133 72.1529 230.152 72.1832 230.179C72.2134 230.206 72.2366 230.24 72.2509 230.278L81.5598 253.604C81.5773 253.64 81.5864 253.68 81.5864 253.721C81.5864 253.761 81.5773 253.801 81.5598 253.837C81.5394 253.871 81.5116 253.9 81.4784 253.922C81.4452 253.944 81.4076 253.958 81.3682 253.963L71.8737 255.129L71.8258 255.141ZM64.5702 236.211C64.5223 236.81 64.4205 240.111 66.7732 245.99C69.1259 251.869 71.4546 254.19 71.9096 254.603L80.9492 253.496L71.9036 230.799L64.5702 236.211Z" fill="#093269"/>
<path d="M111.57 251.612C111.57 251.612 108.924 259.226 100.459 266.367C91.9942 273.508 70.6764 277.731 70.6764 277.731L82.362 253.323L111.57 251.612Z" fill="white"/>
<path d="M70.7064 278C70.6614 278 70.6169 277.99 70.5764 277.97C70.5359 277.95 70.5005 277.922 70.473 277.886C70.4383 277.842 70.4165 277.789 70.4102 277.733C70.4039 277.677 70.4132 277.62 70.437 277.569L82.0807 253.167C82.104 253.119 82.1396 253.079 82.1837 253.049C82.2279 253.02 82.2791 253.003 82.3322 253L111.54 251.313C111.59 251.309 111.64 251.318 111.685 251.339C111.73 251.36 111.769 251.392 111.798 251.433C111.827 251.471 111.847 251.516 111.855 251.564C111.863 251.612 111.86 251.661 111.845 251.708C111.816 251.785 109.074 259.483 100.639 266.594C92.2039 273.706 70.9399 277.958 70.7064 278ZM82.5896 253.58L71.2153 277.288C74.7054 276.546 92.7666 272.503 100.274 266.134C107.457 260.081 110.451 253.622 111.127 251.929L82.5896 253.58Z" fill="#093269"/>
<path d="M95.4067 211.115C95.4067 211.115 88.2589 208.58 77.1959 209.22C66.1329 209.859 47.7604 220.296 47.7604 220.296L73.0533 229.973L95.4067 211.115Z" fill="white"/>
<path d="M73.053 230.272C73.0173 230.278 72.9809 230.278 72.9452 230.272L47.6524 220.583C47.6001 220.561 47.5546 220.526 47.5209 220.481C47.4871 220.436 47.4664 220.382 47.4608 220.326C47.4567 220.27 47.4686 220.213 47.4951 220.164C47.5216 220.114 47.5616 220.073 47.6105 220.045C47.796 219.937 66.1685 209.56 77.1777 208.926C88.1868 208.292 95.4364 210.81 95.5023 210.834C95.553 210.851 95.5982 210.881 95.6333 210.921C95.6684 210.962 95.6921 211.01 95.7018 211.063C95.7116 211.115 95.7071 211.17 95.6889 211.22C95.6706 211.27 95.6393 211.314 95.598 211.348L73.2446 230.206C73.1892 230.248 73.1222 230.271 73.053 230.272ZM48.4665 220.248L73.0111 229.626L94.8138 211.235C93.0179 210.69 86.4328 208.98 77.2315 209.518C67.4137 210.086 51.6214 218.513 48.4665 220.248Z" fill="#093269"/>
<path d="M67.3002 228.042C76.5972 218.939 91.5933 209.566 109.583 202.395C136.845 191.534 157.037 200.906 163.724 204.853C164.451 205.283 165.015 205.94 165.328 206.724C165.641 207.507 165.686 208.372 165.454 209.184C163.323 216.648 155.122 237.324 127.859 248.185C109.87 255.362 92.5392 258.867 79.5246 258.652C79.5246 258.652 75.3341 254.95 71.0657 244.298C66.7973 233.646 67.3002 228.042 67.3002 228.042Z" fill="white"/>
<path d="M80.6438 258.963H79.5183C79.446 258.964 79.3758 258.938 79.3208 258.891C79.1472 258.736 75.0225 255.015 70.79 244.405C66.5576 233.795 66.9827 228.257 67.0006 228.024C67.0081 227.953 67.0399 227.888 67.0904 227.838C76.7406 218.388 92.1857 209.016 109.475 202.12C136.539 191.355 156.534 200.26 163.88 204.596C164.662 205.06 165.269 205.768 165.606 206.612C165.942 207.456 165.99 208.388 165.742 209.261C163.401 217.461 155.038 237.683 127.973 248.466C111.163 255.165 93.9996 258.963 80.6438 258.963ZM79.644 258.365C93.0418 258.544 110.588 254.776 127.751 247.916C154.571 237.228 162.85 217.216 165.167 209.106C165.379 208.359 165.337 207.562 165.049 206.841C164.761 206.119 164.243 205.513 163.574 205.117C156.307 200.828 136.51 191.995 109.696 202.682C92.5329 209.519 77.1956 218.831 67.5933 228.179C67.5574 228.998 67.4855 234.507 71.3468 244.178C75.2081 253.849 79.0514 257.785 79.644 258.359V258.365Z" fill="#093269"/>
<path d="M165.454 209.184C162.661 218.412 157.578 226.785 150.68 233.526C150.68 233.526 144.867 229.555 139.814 216.887C134.762 204.219 136.222 197.347 136.222 197.347C145.871 197.492 155.326 200.074 163.706 204.853C164.436 205.28 165.004 205.937 165.321 206.72C165.637 207.504 165.684 208.37 165.454 209.184Z" fill="white"/>
<path d="M150.68 233.825C150.62 233.824 150.562 233.805 150.512 233.771C150.273 233.604 144.568 229.585 139.533 217.025C134.499 204.465 135.887 197.593 135.941 197.288C135.956 197.221 135.993 197.16 136.046 197.117C136.1 197.074 136.166 197.049 136.235 197.048C145.937 197.184 155.446 199.781 163.868 204.596C164.65 205.059 165.257 205.768 165.594 206.612C165.931 207.456 165.979 208.388 165.73 209.261C162.949 218.542 157.855 226.965 150.925 233.741C150.893 233.772 150.854 233.796 150.812 233.81C150.77 233.825 150.725 233.83 150.68 233.825ZM136.492 197.652C136.3 198.974 135.654 205.661 140.084 216.791C144.514 227.922 149.596 232.342 150.65 233.143C157.428 226.476 162.418 218.212 165.161 209.112C165.373 208.365 165.332 207.568 165.044 206.847C164.756 206.125 164.237 205.519 163.569 205.123C155.315 200.399 146.003 197.829 136.492 197.652Z" fill="#093269"/>
<path d="M71.4606 226.762C71.4177 226.761 71.3754 226.752 71.3362 226.734C71.2971 226.717 71.262 226.692 71.2331 226.66C71.2074 226.63 71.188 226.596 71.1759 226.559C71.1637 226.521 71.1592 226.482 71.1626 226.443C71.1659 226.404 71.1771 226.366 71.1953 226.331C71.2136 226.297 71.2387 226.266 71.269 226.241C77.9975 220.742 85.0546 215.657 92.4013 211.014C92.4691 210.973 92.5501 210.96 92.6272 210.978C92.7042 210.996 92.7713 211.043 92.8144 211.11C92.8351 211.142 92.8491 211.179 92.8555 211.217C92.8619 211.256 92.8607 211.295 92.8517 211.333C92.8428 211.371 92.8265 211.406 92.8036 211.438C92.7807 211.469 92.7518 211.496 92.7186 211.516C85.3984 216.146 78.3636 221.211 71.6522 226.684C71.5999 226.732 71.5318 226.76 71.4606 226.762Z" fill="white"/>
<path d="M94.4249 257.838C94.3497 257.839 94.277 257.811 94.2214 257.76C94.1376 257.683 86.0498 249.985 82.0329 239.913C78.016 229.842 78.5787 218.693 78.5847 218.585C78.5854 218.545 78.5943 218.506 78.6109 218.469C78.6275 218.433 78.6513 218.4 78.6811 218.373C78.7108 218.346 78.7458 218.326 78.7838 218.313C78.8218 218.3 78.862 218.295 78.902 218.298C78.9809 218.304 79.0543 218.341 79.1067 218.4C79.1592 218.459 79.1867 218.536 79.1834 218.615C79.1834 218.723 78.6266 229.758 82.5897 239.692C86.5527 249.626 94.5626 257.246 94.6344 257.324C94.6625 257.352 94.6848 257.385 94.7 257.421C94.7152 257.458 94.723 257.497 94.723 257.536C94.723 257.576 94.7152 257.615 94.7 257.651C94.6848 257.688 94.6625 257.721 94.6344 257.748C94.5788 257.804 94.5037 257.836 94.4249 257.838Z" fill="#093269"/>
<path d="M162.898 204.112C162.898 204.112 174.404 201.121 175.087 202.832C175.769 204.542 165.365 210.284 165.365 210.284" fill="#093269"/>
<path d="M165.365 210.547C165.308 210.546 165.252 210.526 165.207 210.49C165.163 210.454 165.131 210.405 165.117 210.35C165.102 210.294 165.107 210.235 165.129 210.183C165.151 210.13 165.19 210.086 165.239 210.057C170.148 207.342 175.219 203.849 174.817 202.928C174.416 202.007 168.364 202.958 162.94 204.369C162.906 204.378 162.871 204.38 162.837 204.375C162.802 204.37 162.769 204.358 162.739 204.34C162.709 204.322 162.683 204.299 162.662 204.271C162.641 204.243 162.626 204.211 162.617 204.178C162.608 204.144 162.606 204.109 162.611 204.074C162.616 204.04 162.628 204.006 162.646 203.976C162.664 203.947 162.687 203.92 162.715 203.899C162.743 203.879 162.775 203.863 162.809 203.855C165.562 203.143 174.596 200.954 175.308 202.736C176.021 204.519 167.957 209.142 165.467 210.511C165.435 210.529 165.4 210.541 165.365 210.547Z" fill="#093269"/>
<path d="M163.922 211.366C162.346 209.325 161.372 206.885 161.108 204.321C161.092 203.917 161.228 203.522 161.49 203.214C161.751 202.906 162.12 202.707 162.521 202.658C162.692 202.619 162.87 202.615 163.043 202.646C163.216 202.678 163.38 202.744 163.527 202.84C163.674 202.937 163.799 203.062 163.896 203.209C163.992 203.356 164.058 203.52 164.09 203.693C164.312 205.901 165.143 208.005 166.49 209.77C166.588 209.916 166.655 210.08 166.686 210.253C166.718 210.426 166.714 210.603 166.675 210.775C166.636 210.946 166.562 211.108 166.458 211.249C166.354 211.391 166.223 211.511 166.071 211.6C165.748 211.835 165.349 211.942 164.951 211.899C164.554 211.856 164.187 211.666 163.922 211.366Z" fill="white"/>
<path d="M165.113 212.21C164.839 212.215 164.568 212.157 164.32 212.041C164.072 211.925 163.854 211.753 163.682 211.54C162.081 209.458 161.086 206.974 160.808 204.363C160.781 203.88 160.939 203.405 161.251 203.034C161.562 202.664 162.004 202.427 162.485 202.371C162.722 202.334 162.965 202.345 163.199 202.404C163.432 202.462 163.651 202.567 163.844 202.712C163.995 202.827 164.122 202.972 164.216 203.137C164.309 203.303 164.368 203.486 164.388 203.675C164.615 205.831 165.433 207.882 166.753 209.602C166.869 209.753 166.953 209.925 166.999 210.11C167.045 210.294 167.053 210.485 167.022 210.673C166.984 210.913 166.898 211.143 166.768 211.348C166.638 211.554 166.468 211.731 166.268 211.869C165.929 212.101 165.524 212.221 165.113 212.21ZM162.76 202.933H162.562C162.237 202.972 161.938 203.131 161.724 203.379C161.51 203.627 161.397 203.946 161.407 204.273C161.671 206.78 162.622 209.166 164.155 211.169C164.374 211.412 164.676 211.565 165.001 211.597C165.327 211.629 165.653 211.538 165.915 211.343C166.049 211.253 166.164 211.138 166.252 211.003C166.341 210.869 166.401 210.718 166.43 210.559C166.446 210.455 166.44 210.348 166.415 210.245C166.389 210.143 166.343 210.046 166.28 209.961C164.892 208.152 164.03 205.996 163.79 203.729C163.777 203.62 163.743 203.515 163.69 203.42C163.636 203.324 163.565 203.24 163.478 203.173C163.272 203.017 163.019 202.935 162.76 202.939V202.933Z" fill="#093269"/>
<path d="M96.8011 252.767C96.7218 252.771 96.6437 252.744 96.5842 252.692C96.5247 252.639 96.4886 252.565 96.4839 252.485C96.4791 252.406 96.5061 252.328 96.5588 252.269C96.6116 252.209 96.6858 252.173 96.7652 252.168C97.0346 252.139 123.734 248.939 144.992 231.732C145.054 231.682 145.132 231.659 145.21 231.667C145.289 231.674 145.361 231.713 145.411 231.774C145.46 231.836 145.483 231.915 145.475 231.994C145.467 232.073 145.429 232.146 145.369 232.198C123.974 249.543 97.1065 252.731 96.8371 252.761L96.8011 252.767Z" fill="#ACCCF8"/>
<path d="M109.212 157.473C109.743 157.248 110.17 156.831 110.409 156.306C111.397 154.786 111.932 153.017 111.953 151.205C111.901 148.55 110.815 146.02 108.926 144.152C107.037 142.284 104.494 141.224 101.836 141.198L103.955 142.921C102.139 142.85 100.333 143.225 98.6966 144.015C97.0598 144.804 95.6423 145.983 94.5686 147.449C95.2861 147.239 96.0529 147.275 96.7477 147.55C95.6646 147.832 94.5991 148.177 93.5569 148.585C93.3916 148.63 93.2448 148.726 93.1379 148.86C93.0507 149.048 93.0379 149.261 93.1019 149.458C93.8682 153.017 96.5382 156.3 100.1 157.054C100.699 157.179 101.297 157.233 101.938 157.311C103.297 157.485 104.638 157.772 106.009 157.843C106.869 157.904 107.734 157.842 108.577 157.658C108.792 157.609 109.004 157.547 109.212 157.473Z" fill="white"/>
<path d="M106.626 158.148H105.955C105.06 158.085 104.169 157.975 103.285 157.819C102.812 157.748 102.339 157.676 101.866 157.616L101.423 157.562C100.956 157.502 100.477 157.448 100.004 157.347C96.5383 156.617 93.6469 153.483 92.8207 149.572C92.7756 149.437 92.7587 149.295 92.7711 149.154C92.7835 149.013 92.8248 148.877 92.8926 148.752C93.0283 148.571 93.2195 148.438 93.4373 148.375C94.1437 148.094 94.8621 147.849 95.5865 147.628C95.2625 147.619 94.9392 147.661 94.6286 147.753C94.5743 147.769 94.5165 147.768 94.4629 147.75C94.4094 147.732 94.3627 147.697 94.3293 147.652C94.2969 147.604 94.2795 147.548 94.2795 147.49C94.2795 147.433 94.2969 147.376 94.3293 147.329C95.3541 145.938 96.681 144.797 98.2104 143.992C99.7397 143.188 101.432 142.739 103.159 142.682L101.645 141.45C101.602 141.413 101.571 141.364 101.556 141.31C101.541 141.256 101.543 141.198 101.561 141.145C101.582 141.092 101.618 141.046 101.665 141.014C101.712 140.982 101.767 140.965 101.824 140.965C104.549 140.992 107.156 142.075 109.097 143.985C111.038 145.895 112.161 148.483 112.229 151.204C112.215 153.076 111.665 154.905 110.642 156.474C110.374 157.05 109.9 157.507 109.313 157.754C109.093 157.843 108.864 157.913 108.631 157.963C107.972 158.103 107.299 158.165 106.626 158.148ZM95.5027 147.018C95.9598 147.019 96.4127 147.106 96.8376 147.275C96.891 147.298 96.9362 147.336 96.9672 147.386C96.9982 147.435 97.0136 147.492 97.0113 147.55C97.0061 147.607 96.9839 147.66 96.9476 147.704C96.9113 147.748 96.8625 147.78 96.8077 147.795C95.7318 148.072 94.6741 148.416 93.6409 148.824C93.5724 148.826 93.5059 148.847 93.4487 148.885C93.3915 148.922 93.3458 148.975 93.3167 149.037C93.2876 149.099 93.2762 149.168 93.2837 149.236C93.2913 149.304 93.3175 149.368 93.3595 149.422C94.1617 153.154 96.8855 156.121 100.142 156.809C100.591 156.904 101.058 156.958 101.507 157.012L101.962 157.066C102.435 157.126 102.914 157.203 103.393 157.275C104.259 157.428 105.132 157.536 106.009 157.598C106.844 157.661 107.683 157.598 108.499 157.413C108.704 157.367 108.904 157.305 109.098 157.227C109.575 157.028 109.957 156.654 110.164 156.181C111.131 154.699 111.659 152.973 111.684 151.204C111.633 148.763 110.683 146.425 109.017 144.638C107.351 142.851 105.085 141.74 102.651 141.515L104.117 142.712C104.161 142.749 104.193 142.798 104.208 142.854C104.223 142.909 104.221 142.968 104.201 143.023C104.183 143.078 104.147 143.126 104.098 143.158C104.048 143.189 103.99 143.203 103.932 143.196C102.28 143.139 100.638 143.456 99.1271 144.124C97.6164 144.792 96.2769 145.794 95.2093 147.054L95.5027 147.018Z" fill="#093269"/>
<path d="M101.914 162.843C101.914 162.843 102.022 169.099 104.967 169.297C107.913 169.494 107.96 163.764 107.96 163.764" fill="#093269"/>
<path d="M105.111 169.566H104.949C101.794 169.357 101.651 163.118 101.645 162.855C101.639 162.817 101.641 162.778 101.652 162.741C101.663 162.703 101.681 162.669 101.707 162.64C101.732 162.61 101.763 162.587 101.799 162.571C101.834 162.554 101.872 162.546 101.911 162.546C101.95 162.546 101.988 162.554 102.023 162.571C102.058 162.587 102.09 162.61 102.115 162.64C102.14 162.669 102.159 162.703 102.17 162.741C102.181 162.778 102.183 162.817 102.177 162.855C102.177 162.915 102.315 168.866 104.985 169.046C105.217 169.067 105.451 169.037 105.67 168.959C105.889 168.88 106.088 168.755 106.254 168.591C107.655 167.299 107.721 163.806 107.721 163.77C107.725 163.703 107.755 163.639 107.803 163.591C107.852 163.544 107.916 163.516 107.984 163.513C108.054 163.513 108.121 163.541 108.17 163.59C108.22 163.64 108.248 163.707 108.248 163.776C108.248 163.932 108.182 167.532 106.613 168.98C106.207 169.361 105.668 169.571 105.111 169.566Z" fill="#093269"/>
<path d="M107.709 159.817L107.985 163.764C107.985 163.764 107.727 165.989 105.279 165.469C104.558 165.308 103.882 164.99 103.3 164.535C102.718 164.081 102.245 163.503 101.914 162.843C101.914 162.843 101.316 153.393 101.094 150.881C102.853 150.672 104.548 150.095 106.069 149.189C106.295 149.016 106.542 148.873 106.805 148.764C107.296 148.692 107.236 148.967 107.452 149.362C107.845 150.118 108.476 150.723 109.248 151.085C109.346 151.117 109.434 151.178 109.499 151.258C109.536 151.324 109.557 151.398 109.559 151.473C109.81 153.728 110.271 155.971 109.948 158.238C109.685 160.176 107.709 159.817 107.709 159.817Z" fill="white"/>
<path d="M105.979 165.822C105.725 165.822 105.472 165.794 105.225 165.738C104.46 165.573 103.742 165.236 103.125 164.755C102.508 164.273 102.009 163.659 101.663 162.957C101.657 162.925 101.657 162.893 101.663 162.861C101.663 162.766 101.064 153.388 100.849 150.9C100.844 150.826 100.867 150.753 100.915 150.696C100.937 150.669 100.966 150.647 100.998 150.631C101.03 150.616 101.065 150.607 101.1 150.606C102.819 150.399 104.475 149.832 105.961 148.944L106.165 148.812C106.339 148.663 106.543 148.553 106.763 148.489C106.851 148.466 106.943 148.461 107.033 148.475C107.124 148.489 107.21 148.521 107.287 148.569C107.364 148.617 107.431 148.68 107.483 148.755C107.535 148.83 107.571 148.914 107.589 149.004C107.618 149.09 107.654 149.174 107.697 149.255C108.057 149.958 108.643 150.521 109.361 150.852C109.511 150.906 109.64 151.004 109.733 151.133C109.79 151.233 109.823 151.346 109.828 151.462C109.882 151.946 109.948 152.431 110.008 152.909C110.327 154.685 110.397 156.497 110.218 158.292C110.193 158.566 110.111 158.832 109.978 159.072C109.845 159.313 109.664 159.524 109.445 159.691C109.018 159.972 108.514 160.114 108.003 160.098L108.254 163.723C108.216 164.052 108.112 164.371 107.95 164.66C107.788 164.95 107.569 165.204 107.308 165.409C106.921 165.685 106.455 165.83 105.979 165.822ZM102.184 162.778C102.502 163.387 102.948 163.92 103.493 164.339C104.038 164.759 104.668 165.054 105.339 165.206C105.593 165.298 105.865 165.331 106.134 165.303C106.403 165.276 106.663 165.187 106.893 165.045C107.123 164.903 107.319 164.711 107.464 164.483C107.609 164.255 107.701 163.997 107.733 163.729L107.458 159.841C107.454 159.8 107.46 159.759 107.475 159.721C107.489 159.683 107.512 159.648 107.542 159.62C107.573 159.591 107.61 159.57 107.65 159.557C107.691 159.545 107.733 159.542 107.775 159.548C108.249 159.618 108.732 159.519 109.14 159.267C109.298 159.141 109.429 158.984 109.525 158.807C109.62 158.629 109.679 158.433 109.697 158.232C109.861 156.486 109.79 154.726 109.487 152.999C109.421 152.514 109.361 152.03 109.308 151.539C109.308 151.539 109.308 151.456 109.308 151.438L109.182 151.372C108.34 150.993 107.65 150.342 107.224 149.524C107.173 149.425 107.127 149.323 107.087 149.219C107.066 149.157 107.04 149.097 107.009 149.039C106.959 149.034 106.909 149.034 106.859 149.039C106.717 149.098 106.584 149.176 106.464 149.273C106.368 149.333 106.284 149.398 106.213 149.434C104.742 150.307 103.115 150.884 101.423 151.133C101.603 153.848 102.136 162.036 102.184 162.778Z" fill="#093269"/>
<path d="M107.823 161.761C106.851 161.838 105.887 161.54 105.129 160.929C104.818 160.676 104.566 160.358 104.39 159.997C104.215 159.637 104.119 159.243 104.111 158.842C105.21 159.457 106.444 159.792 107.703 159.817L107.823 161.761Z" fill="#093269"/>
<path d="M107.523 162.036C106.579 162.055 105.659 161.729 104.937 161.121C104.597 160.841 104.323 160.49 104.133 160.094C103.942 159.697 103.841 159.264 103.836 158.824C103.84 158.779 103.856 158.736 103.881 158.699C103.906 158.661 103.94 158.631 103.979 158.609C104.019 158.587 104.063 158.575 104.108 158.575C104.153 158.575 104.197 158.587 104.237 158.609C105.293 159.21 106.481 159.543 107.697 159.578C107.766 159.577 107.833 159.603 107.884 159.65C107.935 159.696 107.966 159.76 107.972 159.829L108.074 161.767C108.079 161.834 108.057 161.901 108.014 161.952C107.97 162.003 107.908 162.036 107.84 162.042C107.735 162.049 107.629 162.047 107.523 162.036ZM104.41 159.297C104.55 159.854 104.857 160.355 105.29 160.732C105.921 161.251 106.718 161.525 107.535 161.504L107.457 160.086C106.398 160.036 105.361 159.767 104.41 159.297Z" fill="#093269"/>
<path d="M107.104 152.813C107.104 152.813 108.493 154.608 108.212 154.978C107.93 155.349 107.074 155.164 107.074 155.164" fill="white"/>
<path d="M107.511 155.469C107.348 155.47 107.186 155.454 107.026 155.421C106.992 155.415 106.959 155.402 106.93 155.383C106.901 155.364 106.876 155.339 106.856 155.311C106.836 155.282 106.822 155.25 106.815 155.216C106.808 155.182 106.807 155.147 106.814 155.113C106.82 155.079 106.833 155.046 106.852 155.017C106.871 154.988 106.895 154.963 106.924 154.943C106.952 154.923 106.985 154.909 107.019 154.902C107.053 154.895 107.088 154.894 107.122 154.901C107.415 154.96 107.888 154.96 108.008 154.811C107.73 154.154 107.355 153.543 106.894 152.999C106.873 152.971 106.857 152.94 106.848 152.906C106.839 152.873 106.837 152.838 106.841 152.803C106.845 152.769 106.857 152.736 106.874 152.705C106.891 152.675 106.915 152.649 106.942 152.628C106.97 152.607 107.002 152.591 107.036 152.583C107.069 152.574 107.105 152.572 107.139 152.577C107.174 152.582 107.207 152.594 107.237 152.612C107.267 152.63 107.293 152.654 107.313 152.682C108.319 153.991 108.69 154.829 108.421 155.17C108.298 155.279 108.154 155.363 107.997 155.414C107.841 155.466 107.675 155.484 107.511 155.469Z" fill="#093269"/>
<path d="M106.931 157.52H106.823C105.5 157.449 104.506 156.169 104.464 156.115C104.443 156.087 104.427 156.056 104.418 156.022C104.409 155.989 104.407 155.954 104.411 155.92C104.416 155.885 104.427 155.852 104.444 155.822C104.462 155.792 104.485 155.765 104.512 155.744C104.54 155.723 104.571 155.707 104.605 155.698C104.638 155.689 104.673 155.687 104.708 155.691C104.742 155.696 104.775 155.707 104.806 155.724C104.836 155.741 104.862 155.764 104.883 155.792C104.883 155.792 105.775 156.934 106.847 156.988C107.13 156.992 107.409 156.93 107.665 156.809C107.92 156.688 108.144 156.51 108.32 156.288C108.37 156.241 108.436 156.214 108.505 156.214C108.574 156.214 108.641 156.241 108.691 156.288C108.716 156.313 108.736 156.342 108.75 156.374C108.763 156.407 108.77 156.442 108.77 156.477C108.77 156.512 108.763 156.547 108.75 156.579C108.736 156.611 108.716 156.641 108.691 156.665C108.474 156.923 108.205 157.133 107.902 157.281C107.599 157.428 107.268 157.51 106.931 157.52Z" fill="#093269"/>
<path d="M108.894 213.137L104.518 230.924C104.518 230.924 126.315 223.633 127.099 221.253C127.883 218.873 115.827 221.612 115.827 221.612L116.683 216.528L108.894 213.137Z" fill="white"/>
<path d="M104.518 231.223C104.473 231.223 104.429 231.212 104.388 231.192C104.348 231.172 104.312 231.143 104.285 231.107C104.257 231.071 104.238 231.03 104.228 230.986C104.219 230.942 104.22 230.896 104.231 230.852L108.601 213.065C108.611 213.022 108.631 212.982 108.658 212.948C108.686 212.914 108.72 212.886 108.76 212.866C108.799 212.847 108.842 212.837 108.886 212.836C108.93 212.835 108.974 212.844 109.014 212.862L116.796 216.253C116.857 216.28 116.907 216.327 116.939 216.385C116.972 216.443 116.985 216.51 116.976 216.576L116.204 221.223C118.598 220.697 126.034 219.189 127.237 220.517C127.339 220.626 127.407 220.761 127.434 220.908C127.46 221.054 127.444 221.205 127.386 221.343C126.578 223.801 106.865 230.458 104.638 231.205C104.6 231.221 104.559 231.227 104.518 231.223ZM109.098 213.555L104.943 230.463C113.324 227.635 126.285 222.754 126.818 221.157C126.86 221.014 126.818 220.96 126.788 220.918C125.968 220.015 119.67 221.044 115.892 221.905C115.845 221.915 115.795 221.913 115.748 221.899C115.701 221.886 115.658 221.861 115.623 221.827C115.587 221.793 115.56 221.751 115.544 221.704C115.528 221.657 115.525 221.607 115.533 221.558L116.353 216.707L109.098 213.555Z" fill="#093269"/>
<path d="M90.6836 193.244C90.6836 193.244 87.6604 205.804 93.6289 207.509C99.5974 209.213 109.583 202.395 109.583 202.395L106.35 214.064C106.35 214.064 104.183 219.333 107.326 219.1C110.158 215.434 114.025 214.465 116.683 216.528C120.843 211.917 128.147 197.431 123.43 192.461C118.712 187.491 90.6836 193.244 90.6836 193.244Z" fill="#093269"/>
<path d="M107.128 219.387C106.863 219.405 106.597 219.357 106.354 219.248C106.112 219.138 105.901 218.97 105.739 218.759C104.727 217.372 106.05 214.124 106.104 213.974L109.139 203.017C106.883 204.459 98.8008 209.273 93.5746 207.802C87.4325 206.05 90.318 193.741 90.4437 193.221C90.4553 193.172 90.4806 193.127 90.5166 193.092C90.5527 193.057 90.598 193.033 90.6473 193.023C91.8026 192.784 118.879 187.294 123.639 192.317C128.398 197.341 121.244 211.941 116.898 216.738C116.854 216.788 116.792 216.82 116.725 216.827C116.659 216.833 116.592 216.814 116.539 216.773C116.035 216.381 115.458 216.093 114.841 215.926C114.224 215.76 113.58 215.718 112.947 215.805C111.031 216.05 109.127 217.288 107.559 219.297C107.537 219.327 107.51 219.351 107.477 219.369C107.445 219.386 107.41 219.397 107.373 219.399L107.128 219.387ZM109.582 202.15C109.639 202.151 109.694 202.169 109.738 202.204C109.782 202.234 109.816 202.278 109.834 202.328C109.852 202.379 109.854 202.433 109.84 202.485L106.625 214.136C106.266 215.027 105.494 217.473 106.194 218.436C106.315 218.585 106.472 218.701 106.65 218.772C106.828 218.844 107.022 218.868 107.212 218.843C108.84 216.779 110.84 215.506 112.863 215.254C114.203 215.063 115.566 215.393 116.67 216.175C120.801 211.433 127.715 197.347 123.256 192.646C118.796 187.945 93.2454 193.011 90.9286 193.478C90.6054 194.943 88.4263 205.751 93.7243 207.234C99.4953 208.879 109.361 202.222 109.457 202.156C109.496 202.138 109.539 202.13 109.582 202.132V202.15Z" fill="#093269"/>
<path d="M104.518 230.924C104.518 230.924 106.913 233.269 113.737 230.924C120.562 228.58 129.182 222.294 127.099 221.253C125.016 220.212 106.829 227.641 104.518 230.924Z" fill="#093269"/>
<path d="M108.308 232.234C105.536 232.234 104.405 231.175 104.339 231.11C104.293 231.066 104.264 231.008 104.258 230.946C104.251 230.883 104.267 230.82 104.303 230.769C106.578 227.545 124.783 219.794 127.219 221.014C127.367 221.081 127.491 221.192 127.574 221.333C127.656 221.473 127.693 221.635 127.68 221.797C127.536 223.867 119.772 229.124 113.827 231.175C112.058 231.829 110.193 232.186 108.308 232.234ZM104.896 230.876C105.572 231.325 108.128 232.575 113.654 230.673C119.64 228.61 127.04 223.448 127.153 221.761C127.159 221.703 127.146 221.644 127.114 221.594C127.083 221.544 127.035 221.506 126.98 221.486C125.184 220.583 107.739 227.545 104.896 230.876Z" fill="#093269"/>
<path d="M116.802 220.482C115.227 221.066 113.7 221.772 112.235 222.593L112.48 219.842C112.48 219.842 116.018 218.125 116.802 218.227V220.482Z" fill="white"/>
<path d="M112.247 222.892C112.194 222.892 112.142 222.878 112.097 222.85C112.048 222.821 112.008 222.779 111.982 222.728C111.957 222.677 111.947 222.619 111.953 222.563L112.199 219.818C112.202 219.767 112.219 219.718 112.247 219.676C112.276 219.634 112.315 219.6 112.361 219.578C112.959 219.285 116.03 217.832 116.856 217.928C116.929 217.937 116.995 217.972 117.043 218.027C117.091 218.083 117.116 218.154 117.114 218.227V220.481C117.113 220.542 117.095 220.601 117.061 220.651C117.027 220.701 116.978 220.74 116.922 220.763C115.369 221.34 113.861 222.036 112.414 222.844C112.364 222.875 112.306 222.891 112.247 222.892ZM112.78 220.039L112.6 222.031C113.871 221.373 115.178 220.788 116.515 220.278V218.544C115.229 218.933 113.979 219.433 112.78 220.039Z" fill="#093269"/>
<path d="M98.0226 163.37C98.0226 163.37 76.4055 172.138 74.5736 174.602C72.7418 177.066 69.5989 192.007 69.5989 192.007L76.1301 191.068C76.1301 191.068 82.0388 181.797 83.8706 179.835C85.7025 177.874 96.0531 175.128 96.0531 175.128L98.0226 163.37Z" fill="#5872FF"/>
<path d="M79.6862 186.839L75.2921 194.351C75.2921 194.351 79.0277 197.341 78.1177 197.832C77.2078 198.322 76.3218 198.711 76.3218 198.711C76.3218 198.711 76.226 201.169 75.1245 201.462C74.023 201.755 67.8749 201.211 68.1503 199.106C69.1081 191.845 70.2994 183.585 70.2216 184.53L79.6862 186.839Z" fill="white"/>
<path d="M74.2626 201.833C72.6163 201.833 69.659 201.42 68.4557 200.368C68.2559 200.218 68.0987 200.02 68 199.791C67.9012 199.562 67.8643 199.311 67.893 199.064C68.2941 195.984 68.7909 192.371 69.2459 189.159C69.647 186.354 69.8446 185.11 69.9583 184.566C69.9553 184.544 69.9553 184.522 69.9583 184.5C69.955 184.514 69.955 184.528 69.9583 184.542C70.0601 184.135 70.1379 184.141 70.2816 184.159C70.324 184.162 70.3653 184.175 70.4025 184.195C70.4397 184.216 70.472 184.245 70.4971 184.279L79.7462 186.546C79.7909 186.558 79.8323 186.579 79.8675 186.609C79.9028 186.639 79.9308 186.677 79.9497 186.719C79.9703 186.761 79.981 186.807 79.981 186.854C79.981 186.9 79.9703 186.946 79.9497 186.988L75.6754 194.267C76.5734 195.003 78.6267 196.779 78.5489 197.634C78.5406 197.728 78.5089 197.818 78.4565 197.897C78.4042 197.975 78.3331 198.039 78.2496 198.083C77.5791 198.442 76.9266 198.759 76.6272 198.896C76.5793 199.536 76.3459 201.438 75.2444 201.737C74.9219 201.807 74.5924 201.839 74.2626 201.833ZM70.4791 184.895C70.2277 186.468 69.2818 192.933 68.4856 199.141C68.4737 199.292 68.5011 199.442 68.5651 199.579C68.6291 199.715 68.7276 199.832 68.8508 199.919C70.1798 201.079 74.2386 201.396 75.0827 201.169C75.7951 200.978 76.0166 199.279 76.0406 198.699C76.0432 198.644 76.0608 198.591 76.0914 198.546C76.122 198.501 76.1644 198.465 76.2142 198.442C76.2142 198.442 77.0762 198.047 77.9682 197.568C78.0041 197.251 76.6691 195.84 75.1007 194.578C75.0439 194.534 75.0052 194.471 74.9919 194.4C74.9787 194.33 74.9918 194.257 75.0288 194.195L79.2194 187.018L70.4791 184.895Z" fill="#093269"/>
<path d="M137.94 155.954C137.94 155.655 134.989 145.625 134.989 145.625L141.377 143.388C141.377 143.388 141.281 141.031 142.652 140.146C144.023 139.261 145.896 140.146 145.896 140.146C145.896 140.146 151.494 135.439 152.182 136.42C152.871 137.401 150.805 139.56 147.662 141.803C147.662 141.803 149.333 146.516 147.465 147.987C146.372 148.862 145.046 149.396 143.652 149.524L137.94 155.954Z" fill="white"/>
<path d="M137.941 156.252C137.905 156.258 137.869 156.258 137.833 156.252C137.778 156.232 137.731 156.197 137.697 156.15C137.663 156.103 137.644 156.047 137.641 155.989C137.575 155.571 135.845 149.632 134.702 145.726C134.682 145.651 134.691 145.572 134.726 145.504C134.762 145.435 134.821 145.382 134.893 145.355L141.077 143.19C141.077 142.55 141.239 140.72 142.49 139.913C143.741 139.105 145.316 139.608 145.843 139.817C146.914 138.926 150.71 135.834 151.985 136.007C152.073 136.016 152.157 136.044 152.234 136.088C152.31 136.133 152.376 136.193 152.428 136.264C153.422 137.682 150.177 140.379 148.016 141.946C148.327 142.921 149.447 146.838 147.651 148.25C146.541 149.134 145.205 149.687 143.795 149.847L138.162 156.169C138.133 156.197 138.098 156.219 138.06 156.233C138.022 156.248 137.981 156.254 137.941 156.252ZM135.36 145.822C136.276 148.956 137.647 153.651 138.09 155.343L143.43 149.362C143.485 149.303 143.559 149.267 143.64 149.261C144.97 149.133 146.234 148.622 147.279 147.789C148.674 146.689 147.824 143.196 147.381 141.94C147.36 141.879 147.359 141.813 147.379 141.752C147.398 141.69 147.437 141.637 147.489 141.599C151.141 138.98 152.35 137.203 151.937 136.611C151.512 136.354 148.788 138.13 146.088 140.403C146.044 140.439 145.991 140.461 145.935 140.468C145.879 140.474 145.822 140.464 145.771 140.439C145.771 140.439 144.029 139.643 142.814 140.439C141.598 141.234 141.676 143.393 141.676 143.429C141.678 143.494 141.66 143.557 141.623 143.61C141.586 143.662 141.534 143.702 141.473 143.722L135.36 145.822Z" fill="#093269"/>
<path d="M113.42 185.571H113.366C113.295 185.556 113.232 185.514 113.192 185.454C113.151 185.393 113.137 185.319 113.151 185.248C114.905 176.623 116.569 161.115 116.485 160.361C116.476 160.327 116.474 160.292 116.479 160.258C116.484 160.223 116.495 160.19 116.513 160.16C116.531 160.13 116.555 160.103 116.583 160.082C116.611 160.062 116.643 160.047 116.677 160.038C116.749 160.02 116.825 160.031 116.889 160.069C116.953 160.108 117 160.169 117.018 160.242C117.168 160.798 115.444 176.725 113.689 185.361C113.674 185.421 113.639 185.474 113.59 185.512C113.542 185.549 113.482 185.57 113.42 185.571Z" fill="#093269"/>
<path d="M85.8161 178.418C85.7524 178.416 85.6912 178.392 85.6431 178.35C85.595 178.308 85.5629 178.251 85.5523 178.188C85.5417 178.126 85.5533 178.061 85.585 178.006C85.6167 177.95 85.6667 177.908 85.7263 177.885L97.9328 173.878C98 173.862 98.071 173.871 98.1316 173.904C98.1922 173.938 98.238 173.993 98.2599 174.058C98.2818 174.124 98.2782 174.195 98.2497 174.258C98.2213 174.321 98.1701 174.371 98.1064 174.398L85.8999 178.406C85.8731 178.415 85.8446 178.419 85.8161 178.418Z" fill="#093269"/>
<path d="M146.01 146.42C145.958 146.425 145.906 146.425 145.854 146.42C145.391 146.319 144.962 146.102 144.607 145.787C144.253 145.473 143.986 145.073 143.831 144.625C143.788 145.019 143.633 145.392 143.383 145.7C143.134 146.008 142.801 146.237 142.424 146.36C142.39 146.371 142.354 146.375 142.318 146.372C142.282 146.369 142.247 146.358 142.215 146.341C142.184 146.324 142.156 146.3 142.133 146.272C142.111 146.244 142.095 146.211 142.086 146.176C142.077 146.141 142.075 146.105 142.081 146.069C142.087 146.034 142.099 145.999 142.119 145.969C142.138 145.939 142.164 145.912 142.193 145.892C142.223 145.872 142.257 145.858 142.292 145.852C143.627 145.505 143.394 143.178 143.388 143.154C143.381 143.085 143.402 143.015 143.445 142.96C143.489 142.906 143.552 142.87 143.621 142.861C143.69 142.856 143.758 142.876 143.812 142.918C143.866 142.96 143.903 143.021 143.915 143.088C143.915 143.088 144.286 145.6 145.932 145.846C145.987 145.86 146.045 145.859 146.099 145.842C146.153 145.825 146.201 145.793 146.238 145.75C146.836 145.092 146.178 142 145.639 140.211C145.618 140.145 145.625 140.073 145.658 140.011C145.69 139.949 145.746 139.903 145.812 139.883C145.846 139.872 145.881 139.869 145.916 139.873C145.95 139.876 145.984 139.887 146.015 139.903C146.045 139.92 146.072 139.943 146.094 139.97C146.116 139.997 146.132 140.028 146.142 140.062C146.291 140.564 147.578 145.002 146.627 146.097C146.555 146.194 146.462 146.273 146.356 146.329C146.249 146.385 146.131 146.416 146.01 146.42Z" fill="#093269"/>
<path d="M11.0094 227.993C10.1114 226.199 1.34718 211.133 0.000227549 201.48C0.000227549 201.48 -0.155421 220.29 7.67489 229.973C15.5052 239.656 11.0094 227.993 11.0094 227.993Z" fill="#ACCCF8"/>
<path d="M102.938 152.054L99.9206 153.352V154.009L103.997 152.813L102.938 152.054Z" fill="#093269"/>
<path d="M99.9203 154.273C99.8619 154.273 99.8051 154.254 99.7587 154.219C99.7264 154.194 99.7004 154.163 99.6827 154.126C99.665 154.09 99.6562 154.05 99.6569 154.009V153.352C99.6559 153.3 99.6701 153.249 99.6978 153.206C99.7255 153.162 99.7654 153.127 99.8125 153.106L102.806 151.808C102.848 151.791 102.893 151.784 102.938 151.79C102.984 151.795 103.027 151.812 103.063 151.838L104.123 152.604C104.162 152.633 104.192 152.673 104.21 152.718C104.228 152.764 104.233 152.813 104.225 152.861C104.217 152.91 104.196 152.956 104.163 152.993C104.13 153.03 104.087 153.057 104.039 153.07L99.9622 154.267L99.9203 154.273ZM100.184 153.525V153.657L103.404 152.712L102.908 152.353L100.184 153.525Z" fill="#093269"/>
<path d="M101.95 154.56C101.495 153.998 100.753 152.969 99.9204 153.364C99.6935 153.47 99.4992 153.635 99.3577 153.842C99.078 154.266 98.9329 154.765 98.9414 155.273C98.95 155.781 99.1117 156.274 99.4056 156.689C99.8546 157.455 101.202 158.567 101.98 157.52" fill="white"/>
<path d="M101.183 158.208H101.106C100.702 158.128 100.321 157.962 99.9863 157.723C99.6519 157.484 99.3722 157.176 99.1661 156.821C98.8479 156.355 98.6777 155.805 98.6777 155.242C98.6777 154.678 98.8479 154.128 99.1661 153.663C99.336 153.419 99.5673 153.225 99.8365 153.1C100.818 152.664 101.632 153.657 102.081 154.249L102.189 154.386C102.235 154.443 102.257 154.515 102.25 154.588C102.243 154.66 102.209 154.728 102.153 154.775C102.125 154.798 102.093 154.815 102.058 154.825C102.023 154.836 101.986 154.839 101.95 154.835C101.914 154.831 101.879 154.82 101.847 154.803C101.815 154.785 101.787 154.762 101.764 154.733L101.65 154.59C101.124 153.926 100.603 153.358 100.058 153.597C99.8752 153.688 99.7186 153.823 99.6031 153.992C99.3571 154.374 99.2319 154.821 99.2436 155.276C99.2554 155.73 99.4035 156.17 99.6689 156.539C99.827 156.819 100.042 157.064 100.299 157.256C100.557 157.449 100.852 157.586 101.166 157.658C101.284 157.658 101.4 157.63 101.505 157.574C101.609 157.519 101.698 157.439 101.764 157.341C101.809 157.284 101.874 157.248 101.946 157.239C102.018 157.23 102.09 157.249 102.147 157.293C102.176 157.315 102.2 157.342 102.218 157.373C102.236 157.404 102.248 157.439 102.252 157.474C102.257 157.51 102.254 157.546 102.244 157.581C102.234 157.615 102.218 157.648 102.195 157.676C102.081 157.838 101.93 157.972 101.754 158.064C101.578 158.157 101.382 158.206 101.183 158.208Z" fill="#093269"/>
<path d="M104.909 153.264C105.915 153.157 106.664 152.445 106.582 151.673C106.5 150.901 105.618 150.362 104.612 150.469C103.606 150.576 102.857 151.288 102.939 152.06C103.021 152.832 103.903 153.371 104.909 153.264Z" fill="white"/>
<path d="M104.661 153.549C104.208 153.589 103.755 153.462 103.388 153.192C103.021 152.922 102.765 152.528 102.668 152.084C102.566 151.163 103.428 150.289 104.584 150.188C105.105 150.128 105.632 150.237 106.086 150.499C106.294 150.615 106.472 150.778 106.606 150.975C106.739 151.173 106.823 151.399 106.853 151.635C106.954 152.556 106.092 153.429 104.937 153.531C104.846 153.543 104.754 153.549 104.661 153.549ZM104.865 150.72H104.638C103.787 150.81 103.147 151.39 103.213 152.012C103.279 152.634 104.021 153.065 104.883 152.975C105.745 152.885 106.38 152.305 106.314 151.683C106.289 151.53 106.23 151.385 106.141 151.259C106.052 151.132 105.935 151.028 105.799 150.953C105.515 150.792 105.192 150.712 104.865 150.72Z" fill="#093269"/>
<path d="M108.659 153.085C109.665 152.978 110.414 152.265 110.331 151.493C110.249 150.722 109.367 150.183 108.361 150.289C107.355 150.396 106.606 151.109 106.688 151.881C106.77 152.652 107.652 153.192 108.659 153.085Z" fill="white"/>
<path d="M108.421 153.37C107.967 153.409 107.515 153.282 107.148 153.013C106.781 152.743 106.525 152.349 106.428 151.904C106.332 150.983 107.194 150.11 108.343 150.008C109.493 149.907 110.522 150.535 110.618 151.456C110.714 152.377 109.858 153.25 108.702 153.346L108.421 153.37ZM108.631 150.541H108.403C107.547 150.63 106.907 151.211 106.972 151.833C107.038 152.455 107.793 152.885 108.643 152.795C109.493 152.706 110.139 152.126 110.073 151.504C109.988 151.195 109.794 150.927 109.526 150.75C109.259 150.573 108.937 150.499 108.619 150.541H108.631Z" fill="#093269"/>
<path d="M33.4226 216.791C34.9468 216.791 36.1824 215.557 36.1824 214.034C36.1824 212.511 34.9468 211.277 33.4226 211.277C31.8984 211.277 30.6628 212.511 30.6628 214.034C30.6628 215.557 31.8984 216.791 33.4226 216.791Z" fill="white"/>
<path d="M33.4225 217.09C32.8161 217.091 32.2229 216.913 31.7181 216.577C31.2132 216.241 30.8194 215.763 30.5865 215.204C30.3536 214.645 30.2921 214.029 30.4097 213.434C30.5272 212.84 30.8187 212.294 31.2471 211.865C31.6755 211.436 32.2217 211.144 32.8164 211.025C33.4111 210.906 34.0277 210.967 34.5881 211.198C35.1485 211.43 35.6276 211.822 35.9647 212.326C36.3017 212.83 36.4816 213.422 36.4816 214.028C36.4816 214.839 36.1595 215.617 35.586 216.191C35.0125 216.765 34.2344 217.089 33.4225 217.09ZM33.4225 211.57C32.9342 211.569 32.4565 211.712 32.05 211.983C31.6435 212.253 31.3264 212.638 31.139 213.088C30.9516 213.539 30.9023 214.035 30.9972 214.513C31.0922 214.992 31.3272 215.431 31.6725 215.776C32.0178 216.121 32.4579 216.356 32.9369 216.451C33.4159 216.546 33.9123 216.497 34.3632 216.309C34.8141 216.122 35.1993 215.805 35.4698 215.399C35.7404 214.993 35.8842 214.516 35.883 214.028C35.8814 213.377 35.6217 212.752 35.1606 212.292C34.6995 211.831 34.0746 211.571 33.4225 211.57Z" fill="#ACCCF8"/>
<path d="M137.426 181.486C138.19 181.486 138.809 180.867 138.809 180.104C138.809 179.341 138.19 178.723 137.426 178.723C136.662 178.723 136.043 179.341 136.043 180.104C136.043 180.867 136.662 181.486 137.426 181.486Z" fill="white"/>
<path d="M137.426 181.785C137.093 181.786 136.767 181.688 136.49 181.505C136.212 181.321 135.996 181.059 135.867 180.752C135.739 180.445 135.705 180.106 135.769 179.78C135.833 179.454 135.993 179.154 136.228 178.918C136.463 178.682 136.763 178.522 137.089 178.456C137.416 178.391 137.754 178.424 138.062 178.551C138.37 178.678 138.633 178.893 138.818 179.17C139.003 179.446 139.102 179.772 139.102 180.104C139.102 180.549 138.926 180.975 138.611 181.29C138.297 181.605 137.871 181.783 137.426 181.785ZM137.426 179.022C137.211 179.02 137.001 179.083 136.822 179.201C136.643 179.319 136.503 179.488 136.42 179.686C136.338 179.883 136.315 180.101 136.356 180.312C136.397 180.522 136.5 180.716 136.651 180.868C136.803 181.02 136.996 181.123 137.206 181.165C137.417 181.208 137.635 181.187 137.833 181.105C138.031 181.023 138.201 180.884 138.32 180.706C138.44 180.528 138.503 180.319 138.503 180.104C138.503 179.818 138.39 179.544 138.188 179.341C137.986 179.138 137.712 179.023 137.426 179.022Z" fill="#ACCCF8"/>
<path d="M156.996 176.899C158.52 176.899 159.756 175.664 159.756 174.141C159.756 172.619 158.52 171.384 156.996 171.384C155.472 171.384 154.236 172.619 154.236 174.141C154.236 175.664 155.472 176.899 156.996 176.899Z" fill="#ACCCF8"/>
<path d="M161.569 276.559C170.156 276.559 177.116 269.604 177.116 261.026C177.116 252.448 170.156 245.494 161.569 245.494C152.983 245.494 146.022 252.448 146.022 261.026C146.022 269.604 152.983 276.559 161.569 276.559Z" fill="white"/>
<path d="M161.575 276.858C158.622 276.857 155.728 276.033 153.219 274.477C150.71 272.922 148.686 270.696 147.376 268.053C146.065 265.409 145.52 262.452 145.802 259.516C146.084 256.579 147.181 253.779 148.97 251.432C150.76 249.086 153.17 247.285 155.929 246.234C158.688 245.183 161.686 244.922 164.585 245.483C167.485 246.043 170.169 247.402 172.337 249.405C174.504 251.409 176.069 253.977 176.853 256.821C177.5 259.172 177.595 261.639 177.131 264.032C176.667 266.425 175.656 268.679 174.178 270.617C172.699 272.556 170.793 274.128 168.607 275.21C166.421 276.293 164.015 276.856 161.575 276.858ZM161.575 245.787C158.384 245.786 155.272 246.785 152.679 248.644C150.086 250.503 148.141 253.128 147.12 256.149C146.098 259.17 146.051 262.435 146.985 265.484C147.919 268.533 149.786 271.213 152.325 273.146C154.863 275.079 157.944 276.168 161.135 276.259C164.325 276.35 167.464 275.44 170.109 273.655C172.754 271.87 174.771 269.302 175.878 266.311C176.985 263.32 177.125 260.057 176.278 256.983C175.388 253.767 173.468 250.931 170.812 248.909C168.155 246.887 164.909 245.79 161.569 245.787H161.575Z" fill="#ACCCF8"/>
<path d="M142.849 269.525C140.072 269.525 137.557 269.124 137.174 267.731C136.558 265.44 142.37 262.45 145.908 260.859C145.981 260.827 146.064 260.826 146.138 260.855C146.212 260.884 146.272 260.941 146.304 261.014C146.335 261.087 146.337 261.17 146.308 261.244C146.278 261.318 146.221 261.377 146.148 261.409C139.515 264.358 137.462 266.523 137.767 267.569C138.072 268.616 140.934 269.435 148.135 268.574C158.067 267.237 167.774 264.574 176.996 260.655C183.623 257.719 185.677 255.548 185.377 254.495C185.078 253.442 182.216 252.635 175.009 253.496C174.929 253.506 174.849 253.483 174.787 253.434C174.724 253.385 174.683 253.312 174.673 253.233C174.664 253.154 174.686 253.074 174.736 253.011C174.785 252.948 174.857 252.908 174.937 252.898C178.78 252.438 185.317 252.019 185.952 254.334C186.587 256.648 180.762 259.633 177.23 261.194C167.95 265.152 158.177 267.839 148.177 269.184C146.409 269.4 144.63 269.514 142.849 269.525Z" fill="#ACCCF8"/>
<path d="M129.973 256.941C129.893 256.941 129.817 256.91 129.761 256.854C129.705 256.797 129.673 256.721 129.673 256.642V253.119C129.673 253.04 129.705 252.964 129.761 252.908C129.817 252.852 129.893 252.82 129.973 252.82C130.052 252.82 130.128 252.852 130.184 252.908C130.24 252.964 130.272 253.04 130.272 253.119V256.642C130.272 256.721 130.24 256.797 130.184 256.854C130.128 256.91 130.052 256.941 129.973 256.941Z" fill="#ACCCF8"/>
<path d="M131.768 255.177H128.242C128.163 255.177 128.087 255.146 128.031 255.09C127.975 255.033 127.943 254.957 127.943 254.878C127.945 254.799 127.977 254.724 128.032 254.668C128.088 254.612 128.164 254.58 128.242 254.579H131.768C131.848 254.579 131.924 254.61 131.98 254.666C132.036 254.722 132.068 254.799 132.068 254.878C132.068 254.957 132.036 255.033 131.98 255.09C131.924 255.146 131.848 255.177 131.768 255.177Z" fill="#ACCCF8"/>
<path d="M170.777 185.595C170.697 185.595 170.621 185.563 170.565 185.507C170.509 185.451 170.477 185.375 170.477 185.296V181.773C170.477 181.694 170.509 181.618 170.565 181.561C170.621 181.505 170.697 181.474 170.777 181.474C170.856 181.474 170.932 181.505 170.988 181.561C171.044 181.618 171.076 181.694 171.076 181.773V185.296C171.076 185.375 171.044 185.451 170.988 185.507C170.932 185.563 170.856 185.595 170.777 185.595Z" fill="#ACCCF8"/>
<path d="M172.543 183.837H169.016C168.937 183.837 168.861 183.805 168.805 183.749C168.749 183.693 168.717 183.617 168.717 183.538C168.717 183.458 168.749 183.382 168.805 183.326C168.861 183.27 168.937 183.238 169.016 183.238H172.543C172.622 183.238 172.698 183.27 172.754 183.326C172.81 183.382 172.842 183.458 172.842 183.538C172.84 183.617 172.808 183.692 172.752 183.748C172.697 183.803 172.621 183.835 172.543 183.837Z" fill="#ACCCF8"/>
<path d="M22.102 262.814C22.0226 262.814 21.9465 262.783 21.8904 262.727C21.8342 262.671 21.8027 262.595 21.8027 262.515V258.993C21.8027 258.913 21.8342 258.837 21.8904 258.781C21.9465 258.725 22.0226 258.694 22.102 258.694C22.1814 258.694 22.2575 258.725 22.3137 258.781C22.3698 258.837 22.4014 258.913 22.4014 258.993V262.515C22.4014 262.595 22.3698 262.671 22.3137 262.727C22.2575 262.783 22.1814 262.814 22.102 262.814Z" fill="#ACCCF8"/>
<path d="M23.8621 261.057H20.3361C20.2572 261.055 20.182 261.023 20.1262 260.967C20.0704 260.911 20.0383 260.836 20.0368 260.757C20.0368 260.678 20.0683 260.602 20.1245 260.546C20.1806 260.49 20.2567 260.458 20.3361 260.458H23.8621C23.9415 260.458 24.0177 260.49 24.0738 260.546C24.1299 260.602 24.1615 260.678 24.1615 260.757C24.1615 260.837 24.1299 260.913 24.0738 260.969C24.0177 261.025 23.9415 261.057 23.8621 261.057Z" fill="#ACCCF8"/>
<path d="M57.644 187.359C57.5646 187.359 57.4885 187.328 57.4324 187.272C57.3762 187.215 57.3447 187.139 57.3447 187.06V183.537C57.3447 183.458 57.3762 183.382 57.4324 183.326C57.4885 183.27 57.5646 183.238 57.644 183.238C57.7234 183.238 57.7995 183.27 57.8557 183.326C57.9118 183.382 57.9433 183.458 57.9433 183.537V187.09C57.9359 187.164 57.9011 187.233 57.8458 187.282C57.7904 187.332 57.7185 187.36 57.644 187.359Z" fill="#ACCCF8"/>
<path d="M59.4037 185.595H55.8777C55.7983 185.595 55.7222 185.564 55.666 185.508C55.6099 185.451 55.5784 185.375 55.5784 185.296C55.5784 185.217 55.6099 185.14 55.666 185.084C55.7222 185.028 55.7983 184.997 55.8777 184.997H59.4037C59.4831 184.997 59.5592 185.028 59.6154 185.084C59.6715 185.14 59.703 185.217 59.703 185.296C59.703 185.375 59.6715 185.451 59.6154 185.508C59.5592 185.564 59.4831 185.595 59.4037 185.595Z" fill="#ACCCF8"/>
<path d="M85.1499 113.599H85.1495C76.9216 113.599 70.25 106.877 70.25 98.5661V15.2932C70.25 6.99198 76.9219 0.25 85.1495 0.25H284.788C293.016 0.25 299.699 6.99225 299.75 15.2947V98.5661C299.75 106.877 293.068 113.599 284.84 113.599L284.838 113.599L189.498 114.25L189.452 114.25L189.409 114.267L145.597 131.305L163.672 114.181L164.126 113.751L163.5 113.75L85.1499 113.599Z" fill="white" stroke="#093269" stroke-width="0.5"/>
<path d="M91.4766 31.2891L94.5234 25.5781H95.9609L92.1484 32.5703V37H90.8047V32.6328L87 25.5781H88.4531L91.4766 31.2891ZM104.734 32.7109C104.734 34.1068 104.383 35.1979 103.68 35.9844C102.977 36.7656 102.005 37.1562 100.766 37.1562C100 37.1562 99.3203 36.9766 98.7266 36.6172C98.1328 36.2578 97.6745 35.7422 97.3516 35.0703C97.0286 34.3984 96.8672 33.612 96.8672 32.7109C96.8672 31.3151 97.2161 30.2292 97.9141 29.4531C98.612 28.6719 99.5807 28.2812 100.82 28.2812C102.018 28.2812 102.969 28.6797 103.672 29.4766C104.38 30.2734 104.734 31.3516 104.734 32.7109ZM98.2109 32.7109C98.2109 33.8047 98.4297 34.638 98.8672 35.2109C99.3047 35.7839 99.9479 36.0703 100.797 36.0703C101.646 36.0703 102.289 35.7865 102.727 35.2188C103.169 34.6458 103.391 33.8099 103.391 32.7109C103.391 31.6224 103.169 30.7969 102.727 30.2344C102.289 29.6667 101.641 29.3828 100.781 29.3828C99.9323 29.3828 99.2917 29.6615 98.8594 30.2188C98.4271 30.776 98.2109 31.6068 98.2109 32.7109ZM108.234 28.4375V33.9922C108.234 34.6901 108.393 35.2109 108.711 35.5547C109.029 35.8984 109.526 36.0703 110.203 36.0703C111.099 36.0703 111.753 35.8255 112.164 35.3359C112.581 34.8464 112.789 34.0469 112.789 32.9375V28.4375H114.086V37H113.016L112.828 35.8516H112.758C112.492 36.2734 112.122 36.5964 111.648 36.8203C111.18 37.0443 110.643 37.1562 110.039 37.1562C108.997 37.1562 108.216 36.9089 107.695 36.4141C107.18 35.9193 106.922 35.1276 106.922 34.0391V28.4375H108.234ZM126.828 35.8516H126.758C126.159 36.7214 125.263 37.1562 124.07 37.1562C122.951 37.1562 122.078 36.7734 121.453 36.0078C120.833 35.2422 120.523 34.1536 120.523 32.7422C120.523 31.3307 120.836 30.2344 121.461 29.4531C122.086 28.6719 122.956 28.2812 124.07 28.2812C125.232 28.2812 126.122 28.7031 126.742 29.5469H126.844L126.789 28.9297L126.758 28.3281V24.8438H128.055V37H127L126.828 35.8516ZM124.234 36.0703C125.12 36.0703 125.76 35.8307 126.156 35.3516C126.557 34.8672 126.758 34.0885 126.758 33.0156V32.7422C126.758 31.5286 126.555 30.6641 126.148 30.1484C125.747 29.6276 125.104 29.3672 124.219 29.3672C123.458 29.3672 122.875 29.6641 122.469 30.2578C122.068 30.8464 121.867 31.6797 121.867 32.7578C121.867 33.8516 122.068 34.6771 122.469 35.2344C122.87 35.7917 123.458 36.0703 124.234 36.0703ZM138.203 32.7109C138.203 34.1068 137.852 35.1979 137.148 35.9844C136.445 36.7656 135.474 37.1562 134.234 37.1562C133.469 37.1562 132.789 36.9766 132.195 36.6172C131.602 36.2578 131.143 35.7422 130.82 35.0703C130.497 34.3984 130.336 33.612 130.336 32.7109C130.336 31.3151 130.685 30.2292 131.383 29.4531C132.081 28.6719 133.049 28.2812 134.289 28.2812C135.487 28.2812 136.438 28.6797 137.141 29.4766C137.849 30.2734 138.203 31.3516 138.203 32.7109ZM131.68 32.7109C131.68 33.8047 131.898 34.638 132.336 35.2109C132.773 35.7839 133.417 36.0703 134.266 36.0703C135.115 36.0703 135.758 35.7865 136.195 35.2188C136.638 34.6458 136.859 33.8099 136.859 32.7109C136.859 31.6224 136.638 30.7969 136.195 30.2344C135.758 29.6667 135.109 29.3828 134.25 29.3828C133.401 29.3828 132.76 29.6615 132.328 30.2188C131.896 30.776 131.68 31.6068 131.68 32.7109ZM146.344 37V31.4609C146.344 30.763 146.185 30.2422 145.867 29.8984C145.549 29.5547 145.052 29.3828 144.375 29.3828C143.479 29.3828 142.823 29.625 142.406 30.1094C141.99 30.5938 141.781 31.3932 141.781 32.5078V37H140.484V28.4375H141.539L141.75 29.6094H141.812C142.078 29.1875 142.451 28.862 142.93 28.6328C143.409 28.3984 143.943 28.2812 144.531 28.2812C145.562 28.2812 146.339 28.5312 146.859 29.0312C147.38 29.526 147.641 30.3203 147.641 31.4141V37H146.344ZM151.352 25.5781L151.469 25.75C151.333 26.2708 151.138 26.8776 150.883 27.5703C150.628 28.2578 150.362 28.8984 150.086 29.4922H149.133C149.497 28.0078 149.763 26.7031 149.93 25.5781H151.352ZM155.797 36.0859C156.026 36.0859 156.247 36.0703 156.461 36.0391C156.674 36.0026 156.844 35.9661 156.969 35.9297V36.9219C156.828 36.9896 156.62 37.0443 156.344 37.0859C156.073 37.1328 155.828 37.1562 155.609 37.1562C153.953 37.1562 153.125 36.2839 153.125 34.5391V29.4453H151.898V28.8203L153.125 28.2812L153.672 26.4531H154.422V28.4375H156.906V29.4453H154.422V34.4844C154.422 35 154.544 35.3958 154.789 35.6719C155.034 35.9479 155.37 36.0859 155.797 36.0859ZM168.703 37V31.4609C168.703 30.763 168.544 30.2422 168.227 29.8984C167.909 29.5547 167.411 29.3828 166.734 29.3828C165.833 29.3828 165.174 29.6276 164.758 30.1172C164.346 30.6068 164.141 31.4089 164.141 32.5234V37H162.844V24.8438H164.141V28.5234C164.141 28.9661 164.12 29.3333 164.078 29.625H164.156C164.411 29.2135 164.773 28.8906 165.242 28.6562C165.716 28.4167 166.255 28.2969 166.859 28.2969C167.906 28.2969 168.69 28.5469 169.211 29.0469C169.737 29.5417 170 30.3307 170 31.4141V37H168.703ZM177.938 37L177.68 35.7812H177.617C177.19 36.3177 176.763 36.6823 176.336 36.875C175.914 37.0625 175.385 37.1562 174.75 37.1562C173.901 37.1562 173.234 36.9375 172.75 36.5C172.271 36.0625 172.031 35.4401 172.031 34.6328C172.031 32.9036 173.414 31.9974 176.18 31.9141L177.633 31.8672V31.3359C177.633 30.6641 177.487 30.1693 177.195 29.8516C176.909 29.5286 176.448 29.3672 175.812 29.3672C175.099 29.3672 174.292 29.5859 173.391 30.0234L172.992 29.0312C173.414 28.8021 173.875 28.6224 174.375 28.4922C174.88 28.362 175.385 28.2969 175.891 28.2969C176.911 28.2969 177.667 28.5234 178.156 28.9766C178.651 29.4297 178.898 30.1562 178.898 31.1562V37H177.938ZM175.008 36.0859C175.815 36.0859 176.448 35.8646 176.906 35.4219C177.37 34.9792 177.602 34.3594 177.602 33.5625V32.7891L176.305 32.8438C175.273 32.8802 174.529 33.0417 174.07 33.3281C173.617 33.6094 173.391 34.0495 173.391 34.6484C173.391 35.1172 173.531 35.474 173.812 35.7188C174.099 35.9635 174.497 36.0859 175.008 36.0859ZM183.453 37L180.203 28.4375H181.594L183.438 33.5156C183.854 34.7031 184.099 35.474 184.172 35.8281H184.234C184.292 35.5521 184.471 34.9818 184.773 34.1172C185.081 33.2474 185.766 31.3542 186.828 28.4375H188.219L184.969 37H183.453ZM193.211 37.1562C191.945 37.1562 190.945 36.7708 190.211 36C189.482 35.2292 189.117 34.1589 189.117 32.7891C189.117 31.4089 189.456 30.3125 190.133 29.5C190.815 28.6875 191.729 28.2812 192.875 28.2812C193.948 28.2812 194.797 28.6354 195.422 29.3438C196.047 30.0469 196.359 30.9766 196.359 32.1328V32.9531H190.461C190.487 33.9583 190.74 34.7214 191.219 35.2422C191.703 35.763 192.383 36.0234 193.258 36.0234C194.18 36.0234 195.091 35.8307 195.992 35.4453V36.6016C195.534 36.7995 195.099 36.9401 194.688 37.0234C194.281 37.112 193.789 37.1562 193.211 37.1562ZM192.859 29.3672C192.172 29.3672 191.622 29.5911 191.211 30.0391C190.805 30.487 190.565 31.1068 190.492 31.8984H194.969C194.969 31.0807 194.786 30.4557 194.422 30.0234C194.057 29.5859 193.536 29.3672 192.859 29.3672ZM208 37L207.742 35.7812H207.68C207.253 36.3177 206.826 36.6823 206.398 36.875C205.977 37.0625 205.448 37.1562 204.812 37.1562C203.964 37.1562 203.297 36.9375 202.812 36.5C202.333 36.0625 202.094 35.4401 202.094 34.6328C202.094 32.9036 203.477 31.9974 206.242 31.9141L207.695 31.8672V31.3359C207.695 30.6641 207.549 30.1693 207.258 29.8516C206.971 29.5286 206.51 29.3672 205.875 29.3672C205.161 29.3672 204.354 29.5859 203.453 30.0234L203.055 29.0312C203.477 28.8021 203.938 28.6224 204.438 28.4922C204.943 28.362 205.448 28.2969 205.953 28.2969C206.974 28.2969 207.729 28.5234 208.219 28.9766C208.714 29.4297 208.961 30.1562 208.961 31.1562V37H208ZM205.07 36.0859C205.878 36.0859 206.51 35.8646 206.969 35.4219C207.432 34.9792 207.664 34.3594 207.664 33.5625V32.7891L206.367 32.8438C205.336 32.8802 204.591 33.0417 204.133 33.3281C203.68 33.6094 203.453 34.0495 203.453 34.6484C203.453 35.1172 203.594 35.474 203.875 35.7188C204.161 35.9635 204.56 36.0859 205.07 36.0859ZM217.5 37V31.4609C217.5 30.763 217.341 30.2422 217.023 29.8984C216.706 29.5547 216.208 29.3828 215.531 29.3828C214.635 29.3828 213.979 29.625 213.562 30.1094C213.146 30.5938 212.938 31.3932 212.938 32.5078V37H211.641V28.4375H212.695L212.906 29.6094H212.969C213.234 29.1875 213.607 28.862 214.086 28.6328C214.565 28.3984 215.099 28.2812 215.688 28.2812C216.719 28.2812 217.495 28.5312 218.016 29.0312C218.536 29.526 218.797 30.3203 218.797 31.4141V37H217.5ZM220.109 28.4375H221.5L223.375 33.3203C223.786 34.4349 224.042 35.2396 224.141 35.7344H224.203C224.271 35.4688 224.411 35.0156 224.625 34.375C224.844 33.7292 225.552 31.75 226.75 28.4375H228.141L224.461 38.1875C224.096 39.151 223.669 39.8333 223.18 40.2344C222.695 40.6406 222.099 40.8438 221.391 40.8438C220.995 40.8438 220.604 40.7995 220.219 40.7109V39.6719C220.505 39.7344 220.826 39.7656 221.18 39.7656C222.07 39.7656 222.706 39.2656 223.086 38.2656L223.562 37.0469L220.109 28.4375ZM237.109 37.1562C235.87 37.1562 234.909 36.776 234.227 36.0156C233.549 35.25 233.211 34.1693 233.211 32.7734C233.211 31.3411 233.555 30.2344 234.242 29.4531C234.935 28.6719 235.919 28.2812 237.195 28.2812C237.607 28.2812 238.018 28.3255 238.43 28.4141C238.841 28.5026 239.164 28.6068 239.398 28.7266L239 29.8281C238.714 29.7135 238.401 29.6198 238.062 29.5469C237.724 29.4688 237.424 29.4297 237.164 29.4297C235.424 29.4297 234.555 30.5391 234.555 32.7578C234.555 33.8099 234.766 34.6172 235.188 35.1797C235.615 35.7422 236.245 36.0234 237.078 36.0234C237.792 36.0234 238.523 35.8698 239.273 35.5625V36.7109C238.701 37.0078 237.979 37.1562 237.109 37.1562ZM242.609 37H241.312V24.8438H242.609V37ZM250.625 37L250.367 35.7812H250.305C249.878 36.3177 249.451 36.6823 249.023 36.875C248.602 37.0625 248.073 37.1562 247.438 37.1562C246.589 37.1562 245.922 36.9375 245.438 36.5C244.958 36.0625 244.719 35.4401 244.719 34.6328C244.719 32.9036 246.102 31.9974 248.867 31.9141L250.32 31.8672V31.3359C250.32 30.6641 250.174 30.1693 249.883 29.8516C249.596 29.5286 249.135 29.3672 248.5 29.3672C247.786 29.3672 246.979 29.5859 246.078 30.0234L245.68 29.0312C246.102 28.8021 246.562 28.6224 247.062 28.4922C247.568 28.362 248.073 28.2969 248.578 28.2969C249.599 28.2969 250.354 28.5234 250.844 28.9766C251.339 29.4297 251.586 30.1562 251.586 31.1562V37H250.625ZM247.695 36.0859C248.503 36.0859 249.135 35.8646 249.594 35.4219C250.057 34.9792 250.289 34.3594 250.289 33.5625V32.7891L248.992 32.8438C247.961 32.8802 247.216 33.0417 246.758 33.3281C246.305 33.6094 246.078 34.0495 246.078 34.6484C246.078 35.1172 246.219 35.474 246.5 35.7188C246.786 35.9635 247.185 36.0859 247.695 36.0859ZM259.789 34.6641C259.789 35.4609 259.492 36.0755 258.898 36.5078C258.305 36.9401 257.471 37.1562 256.398 37.1562C255.263 37.1562 254.378 36.9766 253.742 36.6172V35.4141C254.154 35.6224 254.594 35.7865 255.062 35.9062C255.536 36.026 255.992 36.0859 256.43 36.0859C257.107 36.0859 257.628 35.9792 257.992 35.7656C258.357 35.5469 258.539 35.2161 258.539 34.7734C258.539 34.4401 258.393 34.1562 258.102 33.9219C257.815 33.6823 257.253 33.401 256.414 33.0781C255.617 32.7812 255.049 32.5234 254.711 32.3047C254.378 32.0807 254.128 31.8281 253.961 31.5469C253.799 31.2656 253.719 30.9297 253.719 30.5391C253.719 29.8411 254.003 29.2917 254.57 28.8906C255.138 28.4844 255.917 28.2812 256.906 28.2812C257.828 28.2812 258.729 28.4688 259.609 28.8438L259.148 29.8984C258.289 29.5443 257.51 29.3672 256.812 29.3672C256.198 29.3672 255.734 29.4635 255.422 29.6562C255.109 29.849 254.953 30.1146 254.953 30.4531C254.953 30.6823 255.01 30.8776 255.125 31.0391C255.245 31.2005 255.435 31.3542 255.695 31.5C255.956 31.6458 256.456 31.8568 257.195 32.1328C258.211 32.5026 258.896 32.875 259.25 33.25C259.609 33.625 259.789 34.0964 259.789 34.6641ZM267.43 34.6641C267.43 35.4609 267.133 36.0755 266.539 36.5078C265.945 36.9401 265.112 37.1562 264.039 37.1562C262.904 37.1562 262.018 36.9766 261.383 36.6172V35.4141C261.794 35.6224 262.234 35.7865 262.703 35.9062C263.177 36.026 263.633 36.0859 264.07 36.0859C264.747 36.0859 265.268 35.9792 265.633 35.7656C265.997 35.5469 266.18 35.2161 266.18 34.7734C266.18 34.4401 266.034 34.1562 265.742 33.9219C265.456 33.6823 264.893 33.401 264.055 33.0781C263.258 32.7812 262.69 32.5234 262.352 32.3047C262.018 32.0807 261.768 31.8281 261.602 31.5469C261.44 31.2656 261.359 30.9297 261.359 30.5391C261.359 29.8411 261.643 29.2917 262.211 28.8906C262.779 28.4844 263.557 28.2812 264.547 28.2812C265.469 28.2812 266.37 28.4688 267.25 28.8438L266.789 29.8984C265.93 29.5443 265.151 29.3672 264.453 29.3672C263.839 29.3672 263.375 29.4635 263.062 29.6562C262.75 29.849 262.594 30.1146 262.594 30.4531C262.594 30.6823 262.651 30.8776 262.766 31.0391C262.885 31.2005 263.076 31.3542 263.336 31.5C263.596 31.6458 264.096 31.8568 264.836 32.1328C265.852 32.5026 266.536 32.875 266.891 33.25C267.25 33.625 267.43 34.0964 267.43 34.6641ZM273.164 37.1562C271.898 37.1562 270.898 36.7708 270.164 36C269.435 35.2292 269.07 34.1589 269.07 32.7891C269.07 31.4089 269.409 30.3125 270.086 29.5C270.768 28.6875 271.682 28.2812 272.828 28.2812C273.901 28.2812 274.75 28.6354 275.375 29.3438C276 30.0469 276.312 30.9766 276.312 32.1328V32.9531H270.414C270.44 33.9583 270.693 34.7214 271.172 35.2422C271.656 35.763 272.336 36.0234 273.211 36.0234C274.133 36.0234 275.044 35.8307 275.945 35.4453V36.6016C275.487 36.7995 275.052 36.9401 274.641 37.0234C274.234 37.112 273.742 37.1562 273.164 37.1562ZM272.812 29.3672C272.125 29.3672 271.576 29.5911 271.164 30.0391C270.758 30.487 270.518 31.1068 270.445 31.8984H274.922C274.922 31.0807 274.74 30.4557 274.375 30.0234C274.01 29.5859 273.49 29.3672 272.812 29.3672ZM284.055 34.6641C284.055 35.4609 283.758 36.0755 283.164 36.5078C282.57 36.9401 281.737 37.1562 280.664 37.1562C279.529 37.1562 278.643 36.9766 278.008 36.6172V35.4141C278.419 35.6224 278.859 35.7865 279.328 35.9062C279.802 36.026 280.258 36.0859 280.695 36.0859C281.372 36.0859 281.893 35.9792 282.258 35.7656C282.622 35.5469 282.805 35.2161 282.805 34.7734C282.805 34.4401 282.659 34.1562 282.367 33.9219C282.081 33.6823 281.518 33.401 280.68 33.0781C279.883 32.7812 279.315 32.5234 278.977 32.3047C278.643 32.0807 278.393 31.8281 278.227 31.5469C278.065 31.2656 277.984 30.9297 277.984 30.5391C277.984 29.8411 278.268 29.2917 278.836 28.8906C279.404 28.4844 280.182 28.2812 281.172 28.2812C282.094 28.2812 282.995 28.4688 283.875 28.8438L283.414 29.8984C282.555 29.5443 281.776 29.3672 281.078 29.3672C280.464 29.3672 280 29.4635 279.688 29.6562C279.375 29.849 279.219 30.1146 279.219 30.4531C279.219 30.6823 279.276 30.8776 279.391 31.0391C279.51 31.2005 279.701 31.3542 279.961 31.5C280.221 31.6458 280.721 31.8568 281.461 32.1328C282.477 32.5026 283.161 32.875 283.516 33.25C283.875 33.625 284.055 34.0964 284.055 34.6641ZM87.0156 50.4375H88.4062L90.2812 55.3203C90.6927 56.4349 90.9479 57.2396 91.0469 57.7344H91.1094C91.1771 57.4688 91.3177 57.0156 91.5312 56.375C91.75 55.7292 92.4583 53.75 93.6562 50.4375H95.0469L91.3672 60.1875C91.0026 61.151 90.5755 61.8333 90.0859 62.2344C89.6016 62.6406 89.0052 62.8438 88.2969 62.8438C87.901 62.8438 87.5104 62.7995 87.125 62.7109V61.6719C87.4115 61.7344 87.7318 61.7656 88.0859 61.7656C88.9766 61.7656 89.612 61.2656 89.9922 60.2656L90.4688 59.0469L87.0156 50.4375ZM100.055 59.1562C98.7891 59.1562 97.7891 58.7708 97.0547 58C96.3255 57.2292 95.9609 56.1589 95.9609 54.7891C95.9609 53.4089 96.2995 52.3125 96.9766 51.5C97.6589 50.6875 98.5729 50.2812 99.7188 50.2812C100.792 50.2812 101.641 50.6354 102.266 51.3438C102.891 52.0469 103.203 52.9766 103.203 54.1328V54.9531H97.3047C97.3307 55.9583 97.5833 56.7214 98.0625 57.2422C98.5469 57.763 99.2266 58.0234 100.102 58.0234C101.023 58.0234 101.935 57.8307 102.836 57.4453V58.6016C102.378 58.7995 101.943 58.9401 101.531 59.0234C101.125 59.112 100.633 59.1562 100.055 59.1562ZM99.7031 51.3672C99.0156 51.3672 98.4661 51.5911 98.0547 52.0391C97.6484 52.487 97.4089 53.1068 97.3359 53.8984H101.812C101.812 53.0807 101.63 52.4557 101.266 52.0234C100.901 51.5859 100.38 51.3672 99.7031 51.3672ZM108.188 58.0859C108.417 58.0859 108.638 58.0703 108.852 58.0391C109.065 58.0026 109.234 57.9661 109.359 57.9297V58.9219C109.219 58.9896 109.01 59.0443 108.734 59.0859C108.464 59.1328 108.219 59.1562 108 59.1562C106.344 59.1562 105.516 58.2839 105.516 56.5391V51.4453H104.289V50.8203L105.516 50.2812L106.062 48.4531H106.812V50.4375H109.297V51.4453H106.812V56.4844C106.812 57 106.935 57.3958 107.18 57.6719C107.424 57.9479 107.76 58.0859 108.188 58.0859ZM110.891 58.1719C110.891 57.8229 110.969 57.5599 111.125 57.3828C111.286 57.2005 111.516 57.1094 111.812 57.1094C112.115 57.1094 112.349 57.2005 112.516 57.3828C112.688 57.5599 112.773 57.8229 112.773 58.1719C112.773 58.5104 112.688 58.7708 112.516 58.9531C112.344 59.1354 112.109 59.2266 111.812 59.2266C111.547 59.2266 111.326 59.1458 111.148 58.9844C110.977 58.8177 110.891 58.5469 110.891 58.1719ZM119.695 59V47.5781H121.023V57.7969H126.062V59H119.695ZM131.43 59.1562C130.164 59.1562 129.164 58.7708 128.43 58C127.701 57.2292 127.336 56.1589 127.336 54.7891C127.336 53.4089 127.674 52.3125 128.352 51.5C129.034 50.6875 129.948 50.2812 131.094 50.2812C132.167 50.2812 133.016 50.6354 133.641 51.3438C134.266 52.0469 134.578 52.9766 134.578 54.1328V54.9531H128.68C128.706 55.9583 128.958 56.7214 129.438 57.2422C129.922 57.763 130.602 58.0234 131.477 58.0234C132.398 58.0234 133.31 57.8307 134.211 57.4453V58.6016C133.753 58.7995 133.318 58.9401 132.906 59.0234C132.5 59.112 132.008 59.1562 131.43 59.1562ZM131.078 51.3672C130.391 51.3672 129.841 51.5911 129.43 52.0391C129.023 52.487 128.784 53.1068 128.711 53.8984H133.188C133.188 53.0807 133.005 52.4557 132.641 52.0234C132.276 51.5859 131.755 51.3672 131.078 51.3672ZM139.562 58.0859C139.792 58.0859 140.013 58.0703 140.227 58.0391C140.44 58.0026 140.609 57.9661 140.734 57.9297V58.9219C140.594 58.9896 140.385 59.0443 140.109 59.0859C139.839 59.1328 139.594 59.1562 139.375 59.1562C137.719 59.1562 136.891 58.2839 136.891 56.5391V51.4453H135.664V50.8203L136.891 50.2812L137.438 48.4531H138.188V50.4375H140.672V51.4453H138.188V56.4844C138.188 57 138.31 57.3958 138.555 57.6719C138.799 57.9479 139.135 58.0859 139.562 58.0859ZM143.492 47.5781L143.609 47.75C143.474 48.2708 143.279 48.8776 143.023 49.5703C142.768 50.2578 142.503 50.8984 142.227 51.4922H141.273C141.638 50.0078 141.904 48.7031 142.07 47.5781H143.492ZM150.695 56.6641C150.695 57.4609 150.398 58.0755 149.805 58.5078C149.211 58.9401 148.378 59.1562 147.305 59.1562C146.169 59.1562 145.284 58.9766 144.648 58.6172V57.4141C145.06 57.6224 145.5 57.7865 145.969 57.9062C146.443 58.026 146.898 58.0859 147.336 58.0859C148.013 58.0859 148.534 57.9792 148.898 57.7656C149.263 57.5469 149.445 57.2161 149.445 56.7734C149.445 56.4401 149.299 56.1562 149.008 55.9219C148.721 55.6823 148.159 55.401 147.32 55.0781C146.523 54.7812 145.956 54.5234 145.617 54.3047C145.284 54.0807 145.034 53.8281 144.867 53.5469C144.706 53.2656 144.625 52.9297 144.625 52.5391C144.625 51.8411 144.909 51.2917 145.477 50.8906C146.044 50.4844 146.823 50.2812 147.812 50.2812C148.734 50.2812 149.635 50.4688 150.516 50.8438L150.055 51.8984C149.195 51.5443 148.417 51.3672 147.719 51.3672C147.104 51.3672 146.641 51.4635 146.328 51.6562C146.016 51.849 145.859 52.1146 145.859 52.4531C145.859 52.6823 145.917 52.8776 146.031 53.0391C146.151 53.2005 146.341 53.3542 146.602 53.5C146.862 53.6458 147.362 53.8568 148.102 54.1328C149.117 54.5026 149.802 54.875 150.156 55.25C150.516 55.625 150.695 56.0964 150.695 56.6641ZM163.977 50.4375V51.2578L162.391 51.4453C162.536 51.6276 162.667 51.8672 162.781 52.1641C162.896 52.4557 162.953 52.7865 162.953 53.1562C162.953 53.9948 162.667 54.6641 162.094 55.1641C161.521 55.6641 160.734 55.9141 159.734 55.9141C159.479 55.9141 159.24 55.8932 159.016 55.8516C158.464 56.1432 158.188 56.5104 158.188 56.9531C158.188 57.1875 158.284 57.362 158.477 57.4766C158.669 57.5859 159 57.6406 159.469 57.6406H160.984C161.911 57.6406 162.622 57.8359 163.117 58.2266C163.617 58.6172 163.867 59.1849 163.867 59.9297C163.867 60.8776 163.487 61.599 162.727 62.0938C161.966 62.5938 160.857 62.8438 159.398 62.8438C158.279 62.8438 157.414 62.6354 156.805 62.2188C156.201 61.8021 155.898 61.2135 155.898 60.4531C155.898 59.9323 156.065 59.4818 156.398 59.1016C156.732 58.7214 157.201 58.4635 157.805 58.3281C157.586 58.2292 157.401 58.0755 157.25 57.8672C157.104 57.6589 157.031 57.4167 157.031 57.1406C157.031 56.8281 157.115 56.5547 157.281 56.3203C157.448 56.0859 157.711 55.8594 158.07 55.6406C157.628 55.4583 157.266 55.1484 156.984 54.7109C156.708 54.2734 156.57 53.7734 156.57 53.2109C156.57 52.2734 156.852 51.5521 157.414 51.0469C157.977 50.5365 158.773 50.2812 159.805 50.2812C160.253 50.2812 160.656 50.3333 161.016 50.4375H163.977ZM157.148 60.4375C157.148 60.901 157.344 61.2526 157.734 61.4922C158.125 61.7318 158.685 61.8516 159.414 61.8516C160.503 61.8516 161.307 61.6875 161.828 61.3594C162.354 61.0365 162.617 60.5964 162.617 60.0391C162.617 59.5755 162.474 59.2526 162.188 59.0703C161.901 58.8932 161.362 58.8047 160.57 58.8047H159.016C158.427 58.8047 157.969 58.9453 157.641 59.2266C157.312 59.5078 157.148 59.9115 157.148 60.4375ZM157.852 53.1797C157.852 53.7786 158.021 54.2318 158.359 54.5391C158.698 54.8464 159.169 55 159.773 55C161.039 55 161.672 54.3854 161.672 53.1562C161.672 51.8698 161.031 51.2266 159.75 51.2266C159.141 51.2266 158.672 51.3906 158.344 51.7188C158.016 52.0469 157.852 52.5339 157.852 53.1797ZM169.352 59.1562C168.086 59.1562 167.086 58.7708 166.352 58C165.622 57.2292 165.258 56.1589 165.258 54.7891C165.258 53.4089 165.596 52.3125 166.273 51.5C166.956 50.6875 167.87 50.2812 169.016 50.2812C170.089 50.2812 170.938 50.6354 171.562 51.3438C172.188 52.0469 172.5 52.9766 172.5 54.1328V54.9531H166.602C166.628 55.9583 166.88 56.7214 167.359 57.2422C167.844 57.763 168.523 58.0234 169.398 58.0234C170.32 58.0234 171.232 57.8307 172.133 57.4453V58.6016C171.674 58.7995 171.24 58.9401 170.828 59.0234C170.422 59.112 169.93 59.1562 169.352 59.1562ZM169 51.3672C168.312 51.3672 167.763 51.5911 167.352 52.0391C166.945 52.487 166.706 53.1068 166.633 53.8984H171.109C171.109 53.0807 170.927 52.4557 170.562 52.0234C170.198 51.5859 169.677 51.3672 169 51.3672ZM177.484 58.0859C177.714 58.0859 177.935 58.0703 178.148 58.0391C178.362 58.0026 178.531 57.9661 178.656 57.9297V58.9219C178.516 58.9896 178.307 59.0443 178.031 59.0859C177.76 59.1328 177.516 59.1562 177.297 59.1562C175.641 59.1562 174.812 58.2839 174.812 56.5391V51.4453H173.586V50.8203L174.812 50.2812L175.359 48.4531H176.109V50.4375H178.594V51.4453H176.109V56.4844C176.109 57 176.232 57.3958 176.477 57.6719C176.721 57.9479 177.057 58.0859 177.484 58.0859ZM190.055 56.6641C190.055 57.4609 189.758 58.0755 189.164 58.5078C188.57 58.9401 187.737 59.1562 186.664 59.1562C185.529 59.1562 184.643 58.9766 184.008 58.6172V57.4141C184.419 57.6224 184.859 57.7865 185.328 57.9062C185.802 58.026 186.258 58.0859 186.695 58.0859C187.372 58.0859 187.893 57.9792 188.258 57.7656C188.622 57.5469 188.805 57.2161 188.805 56.7734C188.805 56.4401 188.659 56.1562 188.367 55.9219C188.081 55.6823 187.518 55.401 186.68 55.0781C185.883 54.7812 185.315 54.5234 184.977 54.3047C184.643 54.0807 184.393 53.8281 184.227 53.5469C184.065 53.2656 183.984 52.9297 183.984 52.5391C183.984 51.8411 184.268 51.2917 184.836 50.8906C185.404 50.4844 186.182 50.2812 187.172 50.2812C188.094 50.2812 188.995 50.4688 189.875 50.8438L189.414 51.8984C188.555 51.5443 187.776 51.3672 187.078 51.3672C186.464 51.3672 186 51.4635 185.688 51.6562C185.375 51.849 185.219 52.1146 185.219 52.4531C185.219 52.6823 185.276 52.8776 185.391 53.0391C185.51 53.2005 185.701 53.3542 185.961 53.5C186.221 53.6458 186.721 53.8568 187.461 54.1328C188.477 54.5026 189.161 54.875 189.516 55.25C189.875 55.625 190.055 56.0964 190.055 56.6641ZM194.938 58.0859C195.167 58.0859 195.388 58.0703 195.602 58.0391C195.815 58.0026 195.984 57.9661 196.109 57.9297V58.9219C195.969 58.9896 195.76 59.0443 195.484 59.0859C195.214 59.1328 194.969 59.1562 194.75 59.1562C193.094 59.1562 192.266 58.2839 192.266 56.5391V51.4453H191.039V50.8203L192.266 50.2812L192.812 48.4531H193.562V50.4375H196.047V51.4453H193.562V56.4844C193.562 57 193.685 57.3958 193.93 57.6719C194.174 57.9479 194.51 58.0859 194.938 58.0859ZM203.094 59L202.836 57.7812H202.773C202.346 58.3177 201.919 58.6823 201.492 58.875C201.07 59.0625 200.542 59.1562 199.906 59.1562C199.057 59.1562 198.391 58.9375 197.906 58.5C197.427 58.0625 197.188 57.4401 197.188 56.6328C197.188 54.9036 198.57 53.9974 201.336 53.9141L202.789 53.8672V53.3359C202.789 52.6641 202.643 52.1693 202.352 51.8516C202.065 51.5286 201.604 51.3672 200.969 51.3672C200.255 51.3672 199.448 51.5859 198.547 52.0234L198.148 51.0312C198.57 50.8021 199.031 50.6224 199.531 50.4922C200.036 50.362 200.542 50.2969 201.047 50.2969C202.068 50.2969 202.823 50.5234 203.312 50.9766C203.807 51.4297 204.055 52.1562 204.055 53.1562V59H203.094ZM200.164 58.0859C200.971 58.0859 201.604 57.8646 202.062 57.4219C202.526 56.9792 202.758 56.3594 202.758 55.5625V54.7891L201.461 54.8438C200.43 54.8802 199.685 55.0417 199.227 55.3281C198.773 55.6094 198.547 56.0495 198.547 56.6484C198.547 57.1172 198.688 57.474 198.969 57.7188C199.255 57.9635 199.654 58.0859 200.164 58.0859ZM210.641 50.2812C211.021 50.2812 211.362 50.3125 211.664 50.375L211.484 51.5781C211.13 51.5 210.818 51.4609 210.547 51.4609C209.854 51.4609 209.26 51.7422 208.766 52.3047C208.276 52.8672 208.031 53.5677 208.031 54.4062V59H206.734V50.4375H207.805L207.953 52.0234H208.016C208.333 51.4661 208.716 51.0365 209.164 50.7344C209.612 50.4323 210.104 50.2812 210.641 50.2812ZM216.031 58.0859C216.26 58.0859 216.482 58.0703 216.695 58.0391C216.909 58.0026 217.078 57.9661 217.203 57.9297V58.9219C217.062 58.9896 216.854 59.0443 216.578 59.0859C216.307 59.1328 216.062 59.1562 215.844 59.1562C214.188 59.1562 213.359 58.2839 213.359 56.5391V51.4453H212.133V50.8203L213.359 50.2812L213.906 48.4531H214.656V50.4375H217.141V51.4453H214.656V56.4844C214.656 57 214.779 57.3958 215.023 57.6719C215.268 57.9479 215.604 58.0859 216.031 58.0859ZM222.539 59.1562C221.273 59.1562 220.273 58.7708 219.539 58C218.81 57.2292 218.445 56.1589 218.445 54.7891C218.445 53.4089 218.784 52.3125 219.461 51.5C220.143 50.6875 221.057 50.2812 222.203 50.2812C223.276 50.2812 224.125 50.6354 224.75 51.3438C225.375 52.0469 225.688 52.9766 225.688 54.1328V54.9531H219.789C219.815 55.9583 220.068 56.7214 220.547 57.2422C221.031 57.763 221.711 58.0234 222.586 58.0234C223.508 58.0234 224.419 57.8307 225.32 57.4453V58.6016C224.862 58.7995 224.427 58.9401 224.016 59.0234C223.609 59.112 223.117 59.1562 222.539 59.1562ZM222.188 51.3672C221.5 51.3672 220.951 51.5911 220.539 52.0391C220.133 52.487 219.893 53.1068 219.82 53.8984H224.297C224.297 53.0807 224.115 52.4557 223.75 52.0234C223.385 51.5859 222.865 51.3672 222.188 51.3672ZM233.734 57.8516H233.664C233.065 58.7214 232.169 59.1562 230.977 59.1562C229.857 59.1562 228.984 58.7734 228.359 58.0078C227.74 57.2422 227.43 56.1536 227.43 54.7422C227.43 53.3307 227.742 52.2344 228.367 51.4531C228.992 50.6719 229.862 50.2812 230.977 50.2812C232.138 50.2812 233.029 50.7031 233.648 51.5469H233.75L233.695 50.9297L233.664 50.3281V46.8438H234.961V59H233.906L233.734 57.8516ZM231.141 58.0703C232.026 58.0703 232.667 57.8307 233.062 57.3516C233.464 56.8672 233.664 56.0885 233.664 55.0156V54.7422C233.664 53.5286 233.461 52.6641 233.055 52.1484C232.654 51.6276 232.01 51.3672 231.125 51.3672C230.365 51.3672 229.781 51.6641 229.375 52.2578C228.974 52.8464 228.773 53.6797 228.773 54.7578C228.773 55.8516 228.974 56.6771 229.375 57.2344C229.776 57.7917 230.365 58.0703 231.141 58.0703ZM238.891 55.8516H238.07L237.672 47.5781H239.289L238.891 55.8516ZM237.531 58.1719C237.531 57.4635 237.844 57.1094 238.469 57.1094C238.771 57.1094 239.003 57.2005 239.164 57.3828C239.331 57.5651 239.414 57.8281 239.414 58.1719C239.414 58.5052 239.331 58.7656 239.164 58.9531C238.997 59.1354 238.766 59.2266 238.469 59.2266C238.198 59.2266 237.974 59.1458 237.797 58.9844C237.62 58.8177 237.531 58.5469 237.531 58.1719Z" fill="black"/>
<path d="M93.602 84.996H89.426L88.562 87H87.002L90.866 78.456H92.126L96.002 87H94.454L93.602 84.996ZM93.086 83.796L91.514 80.136L89.942 83.796H93.086ZM97.426 78.456H100.57C101.97 78.456 103.054 78.828 103.822 79.572C104.598 80.316 104.986 81.364 104.986 82.716C104.986 84.076 104.598 85.132 103.822 85.884C103.054 86.628 101.97 87 100.57 87H97.426V78.456ZM100.474 85.74C102.442 85.74 103.426 84.732 103.426 82.716C103.426 80.716 102.442 79.716 100.474 79.716H98.974V85.74H100.474ZM107.067 78.456H110.211C111.611 78.456 112.695 78.828 113.463 79.572C114.239 80.316 114.627 81.364 114.627 82.716C114.627 84.076 114.239 85.132 113.463 85.884C112.695 86.628 111.611 87 110.211 87H107.067V78.456ZM110.115 85.74C112.083 85.74 113.067 84.732 113.067 82.716C113.067 80.716 112.083 79.716 110.115 79.716H108.615V85.74H110.115ZM126.176 84.996H122L121.136 87H119.576L123.44 78.456H124.7L128.576 87H127.028L126.176 84.996ZM125.66 83.796L124.088 80.136L122.516 83.796H125.66ZM140.993 78.456V87H139.841L135.233 81.012V87H133.793V78.456H134.945L139.541 84.432V78.456H140.993ZM143.352 78.456H149.064V79.68H144.864V82.044H148.812V83.268H144.864V85.776H149.064V87H143.352V78.456ZM163.228 78.456L160.204 87H158.944L156.796 80.856L154.624 87H153.364L150.352 78.456H151.924L154.06 84.828L156.28 78.456H157.384L159.556 84.876L161.74 78.456H163.228ZM172.599 87.108C171.759 87.108 171.023 86.928 170.391 86.568C169.767 86.208 169.287 85.7 168.951 85.044C168.615 84.38 168.447 83.604 168.447 82.716C168.447 81.836 168.615 81.068 168.951 80.412C169.287 79.748 169.767 79.24 170.391 78.888C171.023 78.528 171.759 78.348 172.599 78.348C173.175 78.348 173.715 78.44 174.219 78.624C174.731 78.8 175.155 79.048 175.491 79.368L174.987 80.496C174.603 80.184 174.219 79.96 173.835 79.824C173.459 79.68 173.055 79.608 172.623 79.608C171.799 79.608 171.159 79.876 170.703 80.412C170.255 80.948 170.031 81.716 170.031 82.716C170.031 83.724 170.255 84.5 170.703 85.044C171.151 85.58 171.791 85.848 172.623 85.848C173.055 85.848 173.459 85.78 173.835 85.644C174.219 85.5 174.603 85.272 174.987 84.96L175.491 86.088C175.155 86.408 174.731 86.66 174.219 86.844C173.715 87.02 173.175 87.108 172.599 87.108ZM177.438 78.456H178.986V85.728H182.982V87H177.438V78.456ZM190.258 84.996H186.082L185.218 87H183.658L187.522 78.456H188.782L192.658 87H191.11L190.258 84.996ZM189.742 83.796L188.17 80.136L186.598 83.796H189.742ZM196.869 87.108C196.213 87.108 195.597 87.02 195.021 86.844C194.453 86.668 193.969 86.416 193.569 86.088L194.097 84.96C194.513 85.272 194.945 85.504 195.393 85.656C195.849 85.8 196.345 85.872 196.881 85.872C197.473 85.872 197.929 85.768 198.249 85.56C198.577 85.352 198.741 85.06 198.741 84.684C198.741 84.364 198.589 84.12 198.285 83.952C197.989 83.776 197.497 83.612 196.809 83.46C195.737 83.228 194.957 82.928 194.469 82.56C193.981 82.192 193.737 81.656 193.737 80.952C193.737 80.448 193.873 80 194.145 79.608C194.417 79.216 194.801 78.908 195.297 78.684C195.801 78.46 196.381 78.348 197.037 78.348C197.637 78.348 198.205 78.44 198.741 78.624C199.285 78.8 199.729 79.048 200.073 79.368L199.557 80.496C198.797 79.888 197.957 79.584 197.037 79.584C196.485 79.584 196.049 79.7 195.729 79.932C195.409 80.156 195.249 80.464 195.249 80.856C195.249 81.192 195.389 81.448 195.669 81.624C195.957 81.8 196.445 81.964 197.133 82.116C197.845 82.284 198.425 82.468 198.873 82.668C199.321 82.86 199.665 83.112 199.905 83.424C200.145 83.728 200.265 84.112 200.265 84.576C200.265 85.088 200.129 85.536 199.857 85.92C199.585 86.296 199.193 86.588 198.681 86.796C198.169 87.004 197.565 87.108 196.869 87.108ZM205.091 87.108C204.435 87.108 203.819 87.02 203.243 86.844C202.675 86.668 202.191 86.416 201.791 86.088L202.319 84.96C202.735 85.272 203.167 85.504 203.615 85.656C204.071 85.8 204.567 85.872 205.103 85.872C205.695 85.872 206.151 85.768 206.471 85.56C206.799 85.352 206.963 85.06 206.963 84.684C206.963 84.364 206.811 84.12 206.507 83.952C206.211 83.776 205.719 83.612 205.031 83.46C203.959 83.228 203.179 82.928 202.691 82.56C202.203 82.192 201.959 81.656 201.959 80.952C201.959 80.448 202.095 80 202.367 79.608C202.639 79.216 203.023 78.908 203.519 78.684C204.023 78.46 204.603 78.348 205.259 78.348C205.859 78.348 206.427 78.44 206.963 78.624C207.507 78.8 207.951 79.048 208.295 79.368L207.779 80.496C207.019 79.888 206.179 79.584 205.259 79.584C204.707 79.584 204.271 79.7 203.951 79.932C203.631 80.156 203.471 80.464 203.471 80.856C203.471 81.192 203.611 81.448 203.891 81.624C204.179 81.8 204.667 81.964 205.355 82.116C206.067 82.284 206.647 82.468 207.095 82.668C207.543 82.86 207.887 83.112 208.127 83.424C208.367 83.728 208.487 84.112 208.487 84.576C208.487 85.088 208.351 85.536 208.079 85.92C207.807 86.296 207.415 86.588 206.903 86.796C206.391 87.004 205.787 87.108 205.091 87.108Z" fill="#5872FF"/>
</svg>
