<svg width="186" height="142" viewBox="0 0 186 142" fill="none" xmlns="http://www.w3.org/2000/svg">
<path d="M30.3993 41.6163C36.9258 41.6163 42.2166 36.3305 42.2166 29.81C42.2166 23.2895 36.9258 18.0037 30.3993 18.0037C23.8728 18.0037 18.582 23.2895 18.582 29.81C18.582 36.3305 23.8728 41.6163 30.3993 41.6163Z" fill="white"/>
<path d="M30.3997 41.9151C28.003 41.9163 25.6598 41.2073 23.6665 39.8779C21.6731 38.5484 20.1192 36.6583 19.2012 34.4464C18.2832 32.2345 18.0424 29.8004 18.5092 27.4518C18.9761 25.1031 20.1296 22.9456 21.8239 21.252C23.5182 19.5585 25.6772 18.405 28.0277 17.9374C30.3783 17.4698 32.8148 17.7092 35.0292 18.6252C37.2436 19.5413 39.1363 21.0929 40.4679 23.0837C41.7996 25.0746 42.5104 27.4153 42.5104 29.8097C42.5072 33.0183 41.2304 36.0946 38.9601 38.3639C36.6898 40.6332 33.6113 41.9104 30.3997 41.9151ZM30.3997 18.3084C28.1212 18.3072 25.8935 18.9813 23.9984 20.2453C22.1034 21.5092 20.6262 23.3064 19.7537 25.4093C18.8812 27.5122 18.6526 29.8264 19.0968 32.0592C19.541 34.2919 20.6381 36.3429 22.2493 37.9526C23.8605 39.5623 25.9133 40.6583 28.1482 41.1022C30.383 41.546 32.6994 41.3176 34.8043 40.4459C36.9091 39.5742 38.7079 38.0984 39.9731 36.2051C41.2382 34.3118 41.9129 32.0862 41.9117 29.8097C41.907 26.7608 40.6926 23.8382 38.5347 21.6823C36.3768 19.5264 33.4514 18.3132 30.3997 18.3084Z" fill="#ACCCF8"/>
<path d="M113.156 54.248L152.314 67.9503L131.75 73.2195L107.661 61.3235L113.156 54.248Z" fill="#093269"/>
<path d="M131.768 73.4826C131.731 73.4915 131.692 73.4915 131.655 73.4826L107.565 61.5866C107.529 61.5691 107.498 61.544 107.473 61.513C107.448 61.4819 107.43 61.4458 107.421 61.4072C107.413 61.369 107.413 61.3294 107.421 61.2912C107.429 61.253 107.446 61.2171 107.469 61.1859L112.947 54.0805C112.982 54.037 113.029 54.0052 113.082 53.9891C113.136 53.9731 113.193 53.9737 113.246 53.9908L152.404 67.6931C152.457 67.7124 152.503 67.7484 152.534 67.7958C152.566 67.8433 152.581 67.8996 152.577 67.9563C152.575 68.0122 152.554 68.0658 152.519 68.109C152.483 68.1522 152.434 68.1825 152.38 68.1955L131.816 73.4707L131.768 73.4826ZM108.068 61.2576L131.768 72.9384L151.392 67.9084L113.252 54.559L108.068 61.2576Z" fill="#093269"/>
<path d="M67.2823 99.8345C67.2823 99.8345 46.5212 106.12 36.1826 99.8345C36.1826 99.8345 44.0847 109.691 54.8364 108.591C65.5882 107.49 67.2823 99.8345 67.2823 99.8345Z" fill="#ACCCF8"/>
<path d="M74.5197 94.3858C74.5197 94.3858 58.6974 109.703 40.732 105.672C15.7864 100.11 -3.4302 70.4741 13.2721 33.3027C13.2721 33.3027 -4.08871 58.4944 4.891 86.5927C17.1992 125.056 46.928 123.465 77.1956 115.612" fill="#ACCCF8"/>
<path d="M117.539 25.1868C117.539 25.1868 113.019 45.7432 113.157 54.2481C113.157 54.6667 114.504 55.7134 114.534 56.0423C115.186 63.6321 90.6834 57.2385 90.6834 57.2385C90.6834 57.2385 89.7735 41.1439 91.5994 35.3842C93.4252 29.6246 95.3828 28.3626 95.3828 28.3626C95.3828 28.3626 111.774 21.9272 114.653 22.8303C117.533 23.7334 117.539 25.1868 117.539 25.1868Z" fill="#5872FF"/>
<path d="M108.744 33.9606L139.916 17.6267L137.432 9.62427L104.099 26.5024L108.744 33.9606Z" fill="#5872FF"/>
<path d="M64.319 100.068C64.319 100.068 63.858 103.399 66.528 110.092C69.198 116.785 71.826 118.878 71.826 118.878L81.3206 117.682L72.0116 94.3562L64.319 100.068Z" fill="#093269"/>
<path d="M71.8258 119.141C71.7674 119.141 71.7106 119.123 71.6642 119.087C71.5564 118.997 68.9463 116.868 66.2764 110.188C63.6064 103.507 64.0314 100.17 64.0494 100.02C64.0545 99.9853 64.0668 99.952 64.0853 99.9222C64.1038 99.8923 64.1283 99.8666 64.1571 99.8466L71.8498 94.1647C71.8818 94.1405 71.919 94.1241 71.9585 94.1168C71.998 94.1095 72.0387 94.1116 72.0772 94.1228C72.1166 94.1328 72.1529 94.1522 72.1832 94.1793C72.2134 94.2064 72.2366 94.2403 72.2509 94.2783L81.5598 117.604C81.5773 117.64 81.5864 117.68 81.5864 117.721C81.5864 117.761 81.5773 117.801 81.5598 117.837C81.5394 117.871 81.5116 117.9 81.4784 117.922C81.4452 117.944 81.4076 117.958 81.3682 117.963L71.8737 119.129L71.8258 119.141ZM64.5702 100.211C64.5223 100.81 64.4205 104.111 66.7732 109.99C69.1259 115.869 71.4546 118.19 71.9096 118.603L80.9492 117.496L71.9036 94.7987L64.5702 100.211Z" fill="#093269"/>
<path d="M111.57 115.612C111.57 115.612 108.924 123.226 100.459 130.367C91.9942 137.508 70.6764 141.731 70.6764 141.731L82.362 117.323L111.57 115.612Z" fill="white"/>
<path d="M70.7064 142C70.6614 142 70.6169 141.99 70.5764 141.97C70.5359 141.95 70.5005 141.922 70.473 141.886C70.4383 141.842 70.4165 141.789 70.4102 141.733C70.4039 141.677 70.4132 141.62 70.437 141.569L82.0807 117.167C82.104 117.119 82.1396 117.079 82.1837 117.049C82.2279 117.02 82.2791 117.003 82.3322 117L111.54 115.313C111.59 115.309 111.64 115.318 111.685 115.339C111.73 115.36 111.769 115.392 111.798 115.433C111.827 115.471 111.847 115.516 111.855 115.564C111.863 115.612 111.86 115.661 111.845 115.708C111.816 115.785 109.074 123.483 100.639 130.594C92.2039 137.706 70.9399 141.958 70.7064 142ZM82.5896 117.58L71.2153 141.288C74.7054 140.546 92.7666 136.503 100.274 130.134C107.457 124.081 110.451 117.622 111.127 115.929L82.5896 117.58Z" fill="#093269"/>
<path d="M95.4067 75.1155C95.4067 75.1155 88.2589 72.5795 77.1959 73.2195C66.1329 73.8595 47.7604 84.2962 47.7604 84.2962L73.0533 93.9733L95.4067 75.1155Z" fill="white"/>
<path d="M73.053 94.272C73.0173 94.2776 72.9809 94.2776 72.9452 94.272L47.6524 84.5829C47.6001 84.5614 47.5546 84.5262 47.5209 84.4809C47.4871 84.4355 47.4664 84.3819 47.4608 84.3257C47.4567 84.2695 47.4686 84.2133 47.4951 84.1636C47.5216 84.1139 47.5616 84.0726 47.6105 84.0446C47.796 83.9369 66.1685 73.56 77.1777 72.9261C88.1868 72.2921 95.4364 74.8101 95.5023 74.834C95.553 74.8509 95.5982 74.881 95.6333 74.9213C95.6684 74.9616 95.6921 75.0105 95.7018 75.063C95.7116 75.1155 95.7071 75.1696 95.6889 75.2198C95.6706 75.27 95.6393 75.3144 95.598 75.3483L73.2446 94.2062C73.1892 94.2477 73.1222 94.2707 73.053 94.272ZM48.4665 84.248L73.0111 93.626L94.8138 75.2347C93.0179 74.6904 86.4328 72.9799 77.2315 73.5182C67.4137 74.0864 51.6214 82.5135 48.4665 84.248Z" fill="#093269"/>
<path d="M67.3002 92.0415C76.5972 82.9386 91.5933 73.5665 109.583 66.3953C136.845 55.534 157.037 64.9061 163.724 68.8535C164.451 69.2827 165.015 69.9404 165.328 70.7239C165.641 71.5074 165.686 72.3724 165.454 73.1837C163.323 80.6479 155.122 101.324 127.859 112.185C109.87 119.362 92.5392 122.867 79.5246 122.652C79.5246 122.652 75.3341 118.95 71.0657 108.298C66.7973 97.6456 67.3002 92.0415 67.3002 92.0415Z" fill="white"/>
<path d="M80.6438 122.963H79.5183C79.446 122.964 79.3758 122.938 79.3208 122.891C79.1472 122.736 75.0225 119.015 70.79 108.405C66.5576 97.7952 66.9827 92.2569 67.0006 92.0236C67.0081 91.9533 67.0399 91.8877 67.0904 91.8382C76.7406 82.3883 92.1857 73.0163 109.475 66.1203C136.539 55.3546 156.534 64.2602 163.88 68.5964C164.662 69.0595 165.269 69.7684 165.606 70.6122C165.942 71.4561 165.99 72.3876 165.742 73.2615C163.401 81.4613 155.038 101.683 127.973 112.466C111.163 119.165 93.9996 122.963 80.6438 122.963ZM79.644 122.365C93.0418 122.544 110.588 118.776 127.751 111.916C154.571 101.228 162.85 81.2161 165.167 73.106C165.379 72.3586 165.337 71.5623 165.049 70.8408C164.761 70.1194 164.243 69.5132 163.574 69.1167C156.307 64.8284 136.51 55.9946 109.696 66.6825C92.5329 73.5187 77.1956 82.8309 67.5933 92.1791C67.5574 92.9985 67.4855 98.5069 71.3468 108.178C75.2081 117.849 79.0514 121.785 79.644 122.359V122.365Z" fill="#093269"/>
<path d="M165.454 73.1837C162.661 82.4116 157.578 90.7848 150.68 97.526C150.68 97.526 144.867 93.5547 139.814 80.8871C134.762 68.2195 136.222 61.3474 136.222 61.3474C145.871 61.492 155.326 64.0742 163.706 68.8535C164.436 69.28 165.004 69.9366 165.321 70.7203C165.637 71.5039 165.684 72.3704 165.454 73.1837Z" fill="white"/>
<path d="M150.68 97.825C150.62 97.8239 150.562 97.8052 150.512 97.7712C150.273 97.6037 144.568 93.5845 139.533 81.0246C134.499 68.4647 135.887 61.5926 135.941 61.2876C135.956 61.2205 135.993 61.1605 136.046 61.117C136.1 61.0736 136.166 61.0494 136.235 61.0483C145.937 61.1842 155.446 63.7814 163.868 68.5963C164.65 69.0594 165.257 69.7683 165.594 70.6121C165.931 71.456 165.979 72.3875 165.73 73.2614C162.949 82.5417 157.855 90.9648 150.925 97.7413C150.893 97.7724 150.854 97.796 150.812 97.8105C150.77 97.8249 150.725 97.8299 150.68 97.825ZM136.492 61.6524C136.3 62.9742 135.654 69.6609 140.084 80.7914C144.514 91.9218 149.596 96.3417 150.65 97.1432C157.428 90.4757 162.418 82.2116 165.161 73.1119C165.373 72.3645 165.332 71.5682 165.044 70.8467C164.756 70.1253 164.237 69.5191 163.569 69.1226C155.315 64.3985 146.003 61.8293 136.492 61.6524Z" fill="#093269"/>
<path d="M71.4606 90.7616C71.4177 90.7612 71.3754 90.752 71.3362 90.7345C71.2971 90.717 71.262 90.6916 71.2331 90.6599C71.2074 90.6303 71.188 90.5958 71.1759 90.5586C71.1637 90.5213 71.1592 90.482 71.1626 90.443C71.1659 90.404 71.1771 90.366 71.1953 90.3314C71.2136 90.2967 71.2387 90.2661 71.269 90.2412C77.9975 84.742 85.0546 79.6567 92.4013 75.0138C92.4691 74.9732 92.5501 74.9605 92.6272 74.9783C92.7042 74.9962 92.7713 75.0432 92.8144 75.1095C92.8351 75.1424 92.8491 75.1791 92.8555 75.2175C92.8619 75.2558 92.8607 75.2951 92.8517 75.3329C92.8428 75.3708 92.8265 75.4065 92.8036 75.4379C92.7807 75.4694 92.7518 75.496 92.7186 75.5162C85.3984 80.1456 78.3636 85.2106 71.6522 90.6838C71.5999 90.7321 71.5318 90.7598 71.4606 90.7616Z" fill="white"/>
<path d="M94.4249 121.838C94.3497 121.839 94.277 121.811 94.2214 121.76C94.1376 121.683 86.0498 113.985 82.0329 103.913C78.016 93.8415 78.5787 82.6931 78.5847 82.5854C78.5854 82.5454 78.5943 82.5058 78.6109 82.4693C78.6275 82.4328 78.6513 82.4001 78.6811 82.3732C78.7108 82.3463 78.7458 82.3258 78.7838 82.3129C78.8218 82.3 78.862 82.2951 78.902 82.2983C78.9809 82.3045 79.0543 82.3409 79.1067 82.4001C79.1592 82.4592 79.1867 82.5364 79.1834 82.6153C79.1834 82.723 78.6266 93.7578 82.5897 103.692C86.5527 113.626 94.5626 121.246 94.6344 121.324C94.6625 121.352 94.6848 121.385 94.7 121.421C94.7152 121.458 94.723 121.497 94.723 121.536C94.723 121.576 94.7152 121.615 94.7 121.651C94.6848 121.688 94.6625 121.721 94.6344 121.748C94.5788 121.804 94.5037 121.836 94.4249 121.838Z" fill="#093269"/>
<path d="M162.898 68.1117C162.898 68.1117 174.404 65.1212 175.087 66.8318C175.769 68.5423 165.365 74.284 165.365 74.284" fill="#093269"/>
<path d="M165.365 74.5473C165.308 74.5458 165.252 74.5257 165.207 74.49C165.163 74.4543 165.131 74.405 165.117 74.3495C165.102 74.2941 165.107 74.2355 165.129 74.1827C165.151 74.1299 165.19 74.0857 165.239 74.0569C170.148 71.3415 175.219 67.8487 174.817 66.9276C174.416 66.0065 168.364 66.9575 162.94 68.369C162.906 68.3777 162.871 68.3796 162.837 68.3746C162.802 68.3697 162.769 68.358 162.739 68.3402C162.709 68.3224 162.683 68.2989 162.662 68.271C162.641 68.2431 162.626 68.2114 162.617 68.1776C162.608 68.1439 162.606 68.1087 162.611 68.0742C162.616 68.0397 162.628 68.0065 162.646 67.9765C162.664 67.9465 162.687 67.9203 162.715 67.8994C162.743 67.8785 162.775 67.8633 162.809 67.8547C165.562 67.1429 174.596 64.9539 175.308 66.7362C176.021 68.5185 167.957 73.1418 165.467 74.5114C165.435 74.529 165.4 74.5411 165.365 74.5473Z" fill="#093269"/>
<path d="M163.922 75.3665C162.346 73.3253 161.372 70.8853 161.108 68.3209C161.092 67.9172 161.228 67.522 161.49 67.2139C161.751 66.9059 162.12 66.7075 162.521 66.6582C162.692 66.6191 162.87 66.615 163.043 66.6463C163.216 66.6776 163.38 66.7436 163.527 66.8403C163.674 66.937 163.799 67.0625 163.896 67.209C163.992 67.3556 164.058 67.5202 164.09 67.6929C164.312 69.9012 165.143 72.0045 166.49 73.7696C166.588 73.9157 166.655 74.0803 166.686 74.2531C166.718 74.426 166.714 74.6035 166.675 74.7748C166.636 74.9461 166.562 75.1077 166.458 75.2495C166.354 75.3913 166.223 75.5105 166.071 75.5997C165.748 75.8354 165.349 75.9422 164.951 75.899C164.554 75.8559 164.187 75.6659 163.922 75.3665Z" fill="white"/>
<path d="M165.113 76.2099C164.839 76.2146 164.568 76.1567 164.32 76.0406C164.072 75.9245 163.854 75.7533 163.682 75.54C162.081 73.4578 161.086 70.9741 160.808 68.3629C160.781 67.88 160.939 67.4047 161.251 67.0345C161.562 66.6642 162.004 66.427 162.485 66.3713C162.722 66.3342 162.965 66.3453 163.199 66.4039C163.432 66.4624 163.651 66.5673 163.844 66.7122C163.995 66.827 164.122 66.9717 164.216 67.1373C164.309 67.3029 164.368 67.486 164.388 67.6751C164.615 69.8308 165.433 71.882 166.753 73.6022C166.869 73.7527 166.953 73.9254 166.999 74.1096C167.045 74.2937 167.053 74.4854 167.022 74.6728C166.984 74.9128 166.898 75.1426 166.768 75.3482C166.638 75.5539 166.468 75.731 166.268 75.869C165.929 76.1015 165.524 76.2208 165.113 76.2099ZM162.76 66.9335H162.562C162.237 66.9722 161.938 67.1312 161.724 67.3791C161.51 67.6271 161.397 67.9461 161.407 68.2732C161.671 70.7804 162.622 73.1664 164.155 75.1692C164.374 75.4124 164.676 75.565 165.001 75.5971C165.327 75.6292 165.653 75.5384 165.915 75.3427C166.049 75.2534 166.164 75.138 166.252 75.0034C166.341 74.8687 166.401 74.7177 166.43 74.5592C166.446 74.4545 166.44 74.3478 166.415 74.2452C166.389 74.1425 166.343 74.046 166.28 73.9611C164.892 72.1522 164.03 69.9957 163.79 67.729C163.777 67.6203 163.743 67.5151 163.69 67.4196C163.636 67.3241 163.565 67.2402 163.478 67.1727C163.272 67.0168 163.019 66.9346 162.76 66.9395V66.9335Z" fill="#093269"/>
<path d="M96.8011 116.767C96.7218 116.771 96.6437 116.744 96.5842 116.692C96.5247 116.639 96.4886 116.565 96.4839 116.485C96.4791 116.406 96.5061 116.328 96.5588 116.269C96.6116 116.209 96.6858 116.173 96.7652 116.168C97.0346 116.139 123.734 112.939 144.992 95.7317C145.054 95.6821 145.132 95.6587 145.21 95.6665C145.289 95.6744 145.361 95.7128 145.411 95.7735C145.46 95.8363 145.483 95.9152 145.475 95.9942C145.467 96.0731 145.429 96.1461 145.369 96.1982C123.974 113.543 97.1065 116.731 96.8371 116.761L96.8011 116.767Z" fill="#ACCCF8"/>
<path d="M109.212 21.4726C109.743 21.2478 110.17 20.8314 110.409 20.3063C111.397 18.7862 111.932 17.017 111.953 15.2046C111.901 12.5498 110.815 10.02 108.926 8.15187C107.037 6.28378 104.494 5.22441 101.836 5.19849L103.955 6.92099C102.139 6.84962 100.333 7.22519 98.6966 8.01466C97.0598 8.80414 95.6423 9.98334 94.5686 11.4485C95.2861 11.2392 96.0529 11.275 96.7477 11.5502C95.6646 11.8319 94.5991 12.1774 93.5569 12.5849C93.3916 12.6299 93.2448 12.7263 93.1379 12.86C93.0507 13.0477 93.0379 13.2614 93.1019 13.4581C93.8682 17.0168 96.5382 20.3003 100.1 21.0539C100.699 21.1795 101.297 21.2333 101.938 21.3111C103.297 21.4845 104.638 21.7716 106.009 21.8434C106.869 21.9045 107.734 21.8421 108.577 21.658C108.792 21.6094 109.004 21.5474 109.212 21.4726Z" fill="white"/>
<path d="M106.626 22.1483H105.955C105.06 22.0847 104.169 21.9749 103.285 21.8193C102.812 21.7475 102.339 21.6758 101.866 21.616L101.423 21.5621C100.956 21.5023 100.477 21.4485 100.004 21.3468C96.5383 20.6172 93.6469 17.4832 92.8207 13.5716C92.7756 13.4375 92.7587 13.2954 92.7711 13.1545C92.7835 13.0135 92.8248 12.8765 92.8926 12.7522C93.0283 12.5708 93.2195 12.4385 93.4373 12.3754C94.1437 12.0943 94.8621 11.8491 95.5865 11.6278C95.2625 11.6186 94.9392 11.661 94.6286 11.7534C94.5743 11.7692 94.5165 11.768 94.4629 11.7498C94.4094 11.7316 94.3627 11.6974 94.3293 11.6518C94.2969 11.6041 94.2795 11.5479 94.2795 11.4903C94.2795 11.4327 94.2969 11.3764 94.3293 11.3288C95.3541 9.93803 96.681 8.79736 98.2104 7.99248C99.7397 7.18759 101.432 6.73941 103.159 6.68161L101.645 5.44954C101.602 5.41297 101.571 5.36432 101.556 5.30993C101.541 5.25553 101.543 5.19789 101.561 5.14452C101.582 5.0915 101.618 5.04597 101.665 5.01394C101.712 4.9819 101.767 4.96487 101.824 4.96509C104.549 4.99214 107.156 6.07481 109.097 7.98492C111.038 9.89504 112.161 12.4834 112.229 15.2044C112.215 17.0763 111.665 18.905 110.642 20.4736C110.374 21.0504 109.9 21.5067 109.313 21.7535C109.093 21.8431 108.864 21.9131 108.631 21.9629C107.972 22.103 107.299 22.1652 106.626 22.1483ZM95.5027 11.0178C95.9598 11.0193 96.4127 11.1065 96.8376 11.275C96.891 11.2979 96.9362 11.3365 96.9672 11.3856C96.9982 11.4347 97.0136 11.4921 97.0113 11.5501C97.0061 11.6067 96.9839 11.6605 96.9476 11.7043C96.9113 11.7481 96.8625 11.7798 96.8077 11.7953C95.7318 12.0722 94.6741 12.4158 93.6409 12.824C93.5724 12.8262 93.5059 12.8472 93.4487 12.8848C93.3915 12.9224 93.3458 12.975 93.3167 13.0369C93.2876 13.0988 93.2762 13.1676 93.2837 13.2355C93.2913 13.3035 93.3175 13.3681 93.3595 13.4221C94.1617 17.1542 96.8855 20.1207 100.142 20.8085C100.591 20.9042 101.058 20.9581 101.507 21.0119L101.962 21.0657C102.435 21.1255 102.914 21.2033 103.393 21.2751C104.259 21.4279 105.132 21.5357 106.009 21.598C106.844 21.6608 107.683 21.5983 108.499 21.4126C108.704 21.3674 108.904 21.3054 109.098 21.2272C109.575 21.0285 109.957 20.6536 110.164 20.1805C111.131 18.699 111.659 16.9735 111.684 15.2044C111.633 12.7627 110.683 10.4254 109.017 8.63838C107.351 6.85133 105.085 5.73962 102.651 5.51533L104.117 6.71152C104.161 6.74853 104.193 6.79821 104.208 6.85384C104.223 6.90947 104.221 6.96835 104.201 7.02253C104.183 7.07823 104.147 7.12603 104.098 7.15769C104.048 7.18935 103.99 7.20289 103.932 7.19597C102.28 7.13866 100.638 7.45601 99.1271 8.12417C97.6164 8.79234 96.2769 9.79393 95.2093 11.0537L95.5027 11.0178Z" fill="#093269"/>
<path d="M101.914 26.8433C101.914 26.8433 102.022 33.0993 104.967 33.2967C107.913 33.494 107.96 27.7643 107.96 27.7643" fill="#093269"/>
<path d="M105.111 33.5659H104.949C101.794 33.3566 101.651 27.1185 101.645 26.8553C101.639 26.817 101.641 26.7779 101.652 26.7407C101.663 26.7035 101.681 26.669 101.707 26.6397C101.732 26.6103 101.763 26.5868 101.799 26.5706C101.834 26.5545 101.872 26.5461 101.911 26.5461C101.95 26.5461 101.988 26.5545 102.023 26.5706C102.058 26.5868 102.09 26.6103 102.115 26.6397C102.14 26.669 102.159 26.7035 102.17 26.7407C102.181 26.7779 102.183 26.817 102.177 26.8553C102.177 26.9151 102.315 32.8661 104.985 33.0455C105.217 33.0667 105.451 33.037 105.67 32.9585C105.889 32.88 106.088 32.7546 106.254 32.591C107.655 31.2991 107.721 27.8063 107.721 27.7704C107.725 27.7026 107.755 27.6388 107.803 27.5913C107.852 27.5438 107.916 27.516 107.984 27.5132C108.054 27.5132 108.121 27.5409 108.17 27.5903C108.22 27.6396 108.248 27.7066 108.248 27.7764C108.248 27.9319 108.182 31.5324 106.613 32.9798C106.207 33.361 105.668 33.571 105.111 33.5659Z" fill="#093269"/>
<path d="M107.709 23.8168L107.985 27.7642C107.985 27.7642 107.727 29.9891 105.279 29.4688C104.558 29.3084 103.882 28.9896 103.3 28.5354C102.718 28.0812 102.245 27.5031 101.914 26.8432C101.914 26.8432 101.316 17.3933 101.094 14.8813C102.853 14.6716 104.548 14.095 106.069 13.1887C106.295 13.0157 106.542 12.8729 106.805 12.7641C107.296 12.6923 107.236 12.9674 107.452 13.3622C107.845 14.1176 108.476 14.7229 109.248 15.0847C109.346 15.1174 109.434 15.1775 109.499 15.2581C109.536 15.324 109.557 15.3979 109.559 15.4734C109.81 17.7282 110.271 19.9711 109.948 22.2379C109.685 24.1757 107.709 23.8168 107.709 23.8168Z" fill="white"/>
<path d="M105.979 29.8219C105.725 29.8223 105.472 29.7943 105.225 29.7382C104.46 29.5726 103.742 29.2365 103.125 28.7549C102.508 28.2733 102.009 27.6587 101.663 26.957C101.657 26.9254 101.657 26.893 101.663 26.8613C101.663 26.7656 101.064 17.3876 100.849 14.8995C100.844 14.8258 100.867 14.7529 100.915 14.6962C100.937 14.669 100.966 14.6469 100.998 14.6314C101.03 14.616 101.065 14.6074 101.1 14.6064C102.819 14.3988 104.475 13.8323 105.961 12.9438L106.165 12.8122C106.339 12.6628 106.543 12.5527 106.763 12.4892C106.851 12.4662 106.943 12.4615 107.033 12.4752C107.124 12.4889 107.21 12.5208 107.287 12.5689C107.364 12.617 107.431 12.6804 107.483 12.7551C107.535 12.8299 107.571 12.9144 107.589 13.0036C107.618 13.0901 107.654 13.1741 107.697 13.2548C108.057 13.9582 108.643 14.5205 109.361 14.8517C109.511 14.9057 109.64 15.0037 109.733 15.1328C109.79 15.2334 109.823 15.3461 109.828 15.4617C109.882 15.9462 109.948 16.4306 110.008 16.9091C110.327 18.685 110.397 20.4966 110.218 22.2919C110.193 22.5658 110.111 22.8316 109.978 23.0725C109.845 23.3133 109.664 23.5241 109.445 23.6915C109.018 23.9718 108.514 24.1139 108.003 24.0982L108.254 27.7226C108.216 28.0522 108.112 28.371 107.95 28.6605C107.788 28.95 107.569 29.2044 107.308 29.4092C106.921 29.6855 106.455 29.8301 105.979 29.8219ZM102.184 26.7776C102.502 27.387 102.948 27.9199 103.493 28.3392C104.038 28.7586 104.668 29.0543 105.339 29.2059C105.593 29.2979 105.865 29.3312 106.134 29.3034C106.403 29.2756 106.663 29.1873 106.893 29.0453C107.123 28.9032 107.319 28.711 107.464 28.483C107.609 28.255 107.701 27.9971 107.733 27.7286L107.458 23.841C107.454 23.8002 107.46 23.7592 107.475 23.7209C107.489 23.6826 107.512 23.648 107.542 23.6197C107.573 23.591 107.61 23.5696 107.65 23.5572C107.691 23.5447 107.733 23.5416 107.775 23.5479C108.249 23.6181 108.732 23.5185 109.14 23.2668C109.298 23.1411 109.429 22.9845 109.525 22.8066C109.62 22.6287 109.679 22.4333 109.697 22.2321C109.861 20.4861 109.79 18.7261 109.487 16.9988C109.421 16.5144 109.361 16.0299 109.308 15.5395C109.308 15.5395 109.308 15.4557 109.308 15.4378L109.182 15.372C108.34 14.9933 107.65 14.3423 107.224 13.5239C107.173 13.4248 107.127 13.3229 107.087 13.2189C107.066 13.1569 107.04 13.0969 107.009 13.0394C106.959 13.0342 106.909 13.0342 106.859 13.0394C106.717 13.0975 106.584 13.1761 106.464 13.2727C106.368 13.3325 106.284 13.3983 106.213 13.4342C104.742 14.3066 103.115 14.8836 101.423 15.1328C101.603 17.8481 102.136 26.036 102.184 26.7776Z" fill="#093269"/>
<path d="M107.823 25.7607C106.851 25.8376 105.887 25.5402 105.129 24.9294C104.818 24.6758 104.566 24.3578 104.39 23.9974C104.215 23.637 104.119 23.2428 104.111 22.842C105.21 23.457 106.444 23.7918 107.703 23.8169L107.823 25.7607Z" fill="#093269"/>
<path d="M107.523 26.0358C106.579 26.0546 105.659 25.7293 104.937 25.1207C104.597 24.8409 104.323 24.4904 104.133 24.0938C103.942 23.6972 103.841 23.2639 103.836 22.8241C103.84 22.7793 103.856 22.7364 103.881 22.6989C103.906 22.6614 103.94 22.6305 103.979 22.6088C104.019 22.5867 104.063 22.5752 104.108 22.5752C104.153 22.5752 104.197 22.5867 104.237 22.6088C105.293 23.2104 106.481 23.5432 107.697 23.5777C107.766 23.5774 107.833 23.6031 107.884 23.6496C107.935 23.6961 107.966 23.7601 107.972 23.8289L108.074 25.7667C108.079 25.834 108.057 25.9005 108.014 25.952C107.97 26.0035 107.908 26.0357 107.84 26.0418C107.735 26.0489 107.629 26.0469 107.523 26.0358ZM104.41 23.2966C104.55 23.8536 104.857 24.3545 105.29 24.732C105.921 25.2507 106.718 25.5247 107.535 25.5035L107.457 24.086C106.398 24.0355 105.361 23.7667 104.41 23.2966Z" fill="#093269"/>
<path d="M107.104 16.8132C107.104 16.8132 108.493 18.6075 108.212 18.9783C107.93 19.3491 107.074 19.1637 107.074 19.1637" fill="white"/>
<path d="M107.511 19.4688C107.348 19.4703 107.186 19.4542 107.026 19.4209C106.992 19.4146 106.959 19.4017 106.93 19.3828C106.901 19.3639 106.876 19.3395 106.856 19.3109C106.836 19.2823 106.822 19.2501 106.815 19.2161C106.808 19.1821 106.807 19.1471 106.814 19.1129C106.82 19.0787 106.833 19.0461 106.852 19.017C106.871 18.9878 106.895 18.9627 106.924 18.9429C106.952 18.9232 106.985 18.9093 107.019 18.9021C107.053 18.8948 107.088 18.8943 107.122 18.9006C107.415 18.9604 107.888 18.9604 108.008 18.8109C107.73 18.1543 107.355 17.5433 106.894 16.9986C106.873 16.9712 106.857 16.9398 106.848 16.9063C106.839 16.8728 106.837 16.8377 106.841 16.8033C106.845 16.7688 106.857 16.7355 106.874 16.7054C106.891 16.6753 106.915 16.6489 106.942 16.6278C106.97 16.6068 107.002 16.5915 107.036 16.5828C107.069 16.5741 107.105 16.5722 107.139 16.5772C107.174 16.5822 107.207 16.594 107.237 16.6119C107.267 16.6299 107.293 16.6536 107.313 16.6817C108.319 17.9915 108.69 18.8288 108.421 19.1697C108.298 19.2795 108.154 19.3627 107.997 19.4141C107.841 19.4656 107.675 19.4842 107.511 19.4688Z" fill="#093269"/>
<path d="M106.931 21.5203H106.823C105.5 21.4486 104.506 20.1687 104.464 20.1148C104.443 20.0873 104.427 20.0559 104.418 20.0224C104.409 19.9889 104.407 19.9539 104.411 19.9195C104.416 19.8851 104.427 19.8519 104.444 19.8217C104.462 19.7916 104.485 19.7652 104.512 19.744C104.54 19.7228 104.571 19.7072 104.605 19.6981C104.638 19.6891 104.673 19.6867 104.708 19.6911C104.742 19.6956 104.775 19.7068 104.806 19.724C104.836 19.7413 104.862 19.7644 104.883 19.7919C104.883 19.7919 105.775 20.9342 106.847 20.988C107.13 20.9916 107.409 20.9303 107.665 20.809C107.92 20.6877 108.144 20.5096 108.32 20.2883C108.37 20.2407 108.436 20.2142 108.505 20.2142C108.574 20.2142 108.641 20.2407 108.691 20.2883C108.716 20.3128 108.736 20.3421 108.75 20.3744C108.763 20.4068 108.77 20.4416 108.77 20.4767C108.77 20.5118 108.763 20.5465 108.75 20.5789C108.736 20.6113 108.716 20.6406 108.691 20.6651C108.474 20.9234 108.205 21.1332 107.902 21.2806C107.599 21.4279 107.268 21.5097 106.931 21.5203Z" fill="#093269"/>
<path d="M108.894 77.137L104.518 94.9242C104.518 94.9242 126.315 87.6335 127.099 85.2531C127.883 82.8727 115.827 85.6119 115.827 85.6119L116.683 80.5281L108.894 77.137Z" fill="white"/>
<path d="M104.518 95.2231C104.473 95.2226 104.429 95.2119 104.388 95.1918C104.348 95.1717 104.312 95.1428 104.285 95.1071C104.257 95.0714 104.238 95.03 104.228 94.9859C104.219 94.9417 104.22 94.896 104.231 94.8523L108.601 77.065C108.611 77.0223 108.631 76.9824 108.658 76.9481C108.686 76.9138 108.72 76.8859 108.76 76.8665C108.799 76.8471 108.842 76.8366 108.886 76.8357C108.93 76.8349 108.974 76.8438 109.014 76.8617L116.796 80.2528C116.857 80.2804 116.907 80.3267 116.939 80.3848C116.972 80.4429 116.985 80.5099 116.976 80.5758L116.204 85.223C118.598 84.6967 126.034 83.1895 127.237 84.5172C127.339 84.6257 127.407 84.7614 127.434 84.9078C127.46 85.0543 127.444 85.2053 127.386 85.3426C126.578 87.8008 106.865 94.4575 104.638 95.2051C104.6 95.221 104.559 95.2272 104.518 95.2231ZM109.098 77.5554L104.943 94.4635C113.324 91.6345 126.285 86.7541 126.818 85.1572C126.86 85.0137 126.818 84.9598 126.788 84.918C125.968 84.0148 119.67 85.0436 115.892 85.9048C115.845 85.9148 115.795 85.913 115.748 85.8994C115.701 85.8858 115.658 85.861 115.623 85.8271C115.587 85.7931 115.56 85.7508 115.544 85.7038C115.528 85.6568 115.525 85.6067 115.533 85.5579L116.353 80.7074L109.098 77.5554Z" fill="#093269"/>
<path d="M90.6836 57.2444C90.6836 57.2444 87.6604 69.8043 93.6289 71.5089C99.5974 73.2134 109.583 66.3952 109.583 66.3952L106.35 78.064C106.35 78.064 104.183 83.3331 107.326 83.0999C110.158 79.4336 114.025 78.4647 116.683 80.5281C120.843 75.9168 128.147 61.431 123.43 56.4609C118.712 51.4907 90.6836 57.2444 90.6836 57.2444Z" fill="#093269"/>
<path d="M107.128 83.3871C106.863 83.4052 106.597 83.3573 106.354 83.2477C106.112 83.1381 105.901 82.9703 105.739 82.7591C104.727 81.3715 106.05 78.1239 106.104 77.9744L109.139 67.0174C106.883 68.4588 98.8008 73.2734 93.5746 71.8021C87.4325 70.0497 90.318 57.741 90.4437 57.2206C90.4553 57.1717 90.4806 57.1272 90.5166 57.0922C90.5527 57.0572 90.598 57.0333 90.6473 57.0232C91.8026 56.784 118.879 51.2935 123.639 56.3175C128.398 61.3415 121.244 75.9409 116.898 80.7376C116.854 80.7881 116.792 80.82 116.725 80.8267C116.659 80.8333 116.592 80.8143 116.539 80.7735C116.035 80.3807 115.458 80.0927 114.841 79.9263C114.224 79.7599 113.58 79.7185 112.947 79.8045C111.031 80.0498 109.127 81.2878 107.559 83.2974C107.537 83.3268 107.51 83.3511 107.477 83.3687C107.445 83.3863 107.41 83.3966 107.373 83.3991L107.128 83.3871ZM109.582 66.1501C109.639 66.1505 109.694 66.1695 109.738 66.2039C109.782 66.2344 109.816 66.2778 109.834 66.3282C109.852 66.3786 109.854 66.4334 109.84 66.4851L106.625 78.1359C106.266 79.027 105.494 81.4732 106.194 82.4362C106.315 82.5854 106.472 82.7012 106.65 82.7725C106.828 82.8437 107.022 82.8679 107.212 82.8429C108.84 80.7794 110.84 79.5055 112.863 79.2543C114.203 79.0634 115.566 79.3931 116.67 80.1754C120.801 75.4325 127.715 61.3474 123.256 56.6464C118.796 51.9454 93.2454 57.0113 90.9286 57.4778C90.6054 58.9431 88.4263 69.7506 93.7243 71.2339C99.4953 72.8786 109.361 66.2219 109.457 66.1561C109.496 66.1384 109.539 66.1302 109.582 66.1322V66.1501Z" fill="#093269"/>
<path d="M104.518 94.9243C104.518 94.9243 106.913 97.2688 113.737 94.9243C120.562 92.5797 129.182 86.2938 127.099 85.2531C125.016 84.2124 106.829 91.6407 104.518 94.9243Z" fill="#093269"/>
<path d="M108.308 96.234C105.536 96.234 104.405 95.1754 104.339 95.1096C104.293 95.0664 104.264 95.0083 104.258 94.9458C104.251 94.8833 104.267 94.8204 104.303 94.7687C106.578 91.545 124.783 83.7937 127.219 85.0138C127.367 85.0811 127.491 85.1924 127.574 85.3327C127.656 85.4729 127.693 85.6352 127.68 85.7973C127.536 87.8667 119.772 93.1239 113.827 95.1754C112.058 95.8288 110.193 96.1864 108.308 96.234ZM104.896 94.8764C105.572 95.3249 108.128 96.5749 113.654 94.673C119.64 92.6096 127.04 87.4481 127.153 85.7614C127.159 85.7028 127.146 85.6438 127.114 85.5939C127.083 85.544 127.035 85.5061 126.98 85.4863C125.184 84.5832 107.739 91.545 104.896 94.8764Z" fill="#093269"/>
<path d="M116.802 84.4816C115.227 85.0662 113.7 85.772 112.235 86.5928L112.48 83.8416C112.48 83.8416 116.018 82.1251 116.802 82.2268V84.4816Z" fill="white"/>
<path d="M112.247 86.8918C112.194 86.8921 112.142 86.8776 112.097 86.8499C112.048 86.8212 112.008 86.7788 111.982 86.7278C111.957 86.6768 111.947 86.6195 111.953 86.5628L112.199 83.8176C112.202 83.767 112.219 83.7182 112.247 83.6762C112.276 83.6342 112.315 83.6004 112.361 83.5784C112.959 83.2853 116.03 81.8319 116.856 81.9276C116.929 81.9365 116.995 81.9721 117.043 82.0274C117.091 82.0827 117.116 82.1537 117.114 82.2267V84.4815C117.113 84.542 117.095 84.6011 117.061 84.6512C117.027 84.7012 116.978 84.74 116.922 84.7626C115.369 85.3401 113.861 86.0359 112.414 86.8439C112.364 86.8749 112.306 86.8915 112.247 86.8918ZM112.78 84.0389L112.6 86.0305C113.871 85.3728 115.178 84.7877 116.515 84.2781V82.5436C115.229 82.9331 113.979 83.4334 112.78 84.0389Z" fill="#093269"/>
<path d="M98.0226 27.3699C98.0226 27.3699 76.4055 36.1379 74.5736 38.602C72.7418 41.0662 69.5989 56.0065 69.5989 56.0065L76.1301 55.0675C76.1301 55.0675 82.0388 45.7971 83.8706 43.8353C85.7025 41.8736 96.0531 39.1284 96.0531 39.1284L98.0226 27.3699Z" fill="#5872FF"/>
<path d="M79.6862 50.8389L75.2921 58.3509C75.2921 58.3509 79.0277 61.3414 78.1177 61.8318C77.2078 62.3223 76.3218 62.711 76.3218 62.711C76.3218 62.711 76.226 65.1692 75.1245 65.4622C74.023 65.7553 67.8749 65.211 68.1503 63.1058C69.1081 55.8449 70.2994 47.5853 70.2216 48.5303L79.6862 50.8389Z" fill="white"/>
<path d="M74.2626 65.8329C72.6163 65.8329 69.659 65.4202 68.4557 64.3676C68.2559 64.2184 68.0987 64.0195 68 63.7907C67.9012 63.5619 67.8643 63.3112 67.893 63.0637C68.2941 59.9835 68.7909 56.3711 69.2459 53.1593C69.647 50.3543 69.8446 49.1102 69.9583 48.566C69.9553 48.5441 69.9553 48.522 69.9583 48.5002C69.955 48.5139 69.955 48.5283 69.9583 48.542C70.0601 48.1353 70.1379 48.1413 70.2816 48.1593C70.324 48.1624 70.3653 48.1747 70.4025 48.1954C70.4397 48.216 70.472 48.2445 70.4971 48.2789L79.7462 50.5457C79.7909 50.5576 79.8323 50.5794 79.8675 50.6094C79.9028 50.6394 79.9308 50.6769 79.9497 50.7191C79.9703 50.761 79.981 50.807 79.981 50.8537C79.981 50.9003 79.9703 50.9464 79.9497 50.9882L75.6754 58.267C76.5734 59.0027 78.6267 60.779 78.5489 61.6343C78.5406 61.7281 78.5089 61.8184 78.4565 61.8967C78.4042 61.9751 78.3331 62.0391 78.2496 62.0828C77.5791 62.4417 76.9266 62.7587 76.6272 62.8963C76.5793 63.5362 76.3459 65.4381 75.2444 65.7372C74.9219 65.8071 74.5924 65.8392 74.2626 65.8329ZM70.4791 48.8949C70.2277 50.4679 69.2818 56.9333 68.4856 63.1415C68.4737 63.2916 68.5011 63.4422 68.5651 63.5786C68.6291 63.7149 68.7276 63.8322 68.8508 63.919C70.1798 65.0793 74.2386 65.3963 75.0827 65.169C75.7951 64.9776 76.0166 63.279 76.0406 62.6989C76.0432 62.6443 76.0608 62.5914 76.0914 62.546C76.122 62.5007 76.1644 62.4646 76.2142 62.4417C76.2142 62.4417 77.0762 62.047 77.9682 61.5685C78.0041 61.2515 76.6691 59.84 75.1007 58.578C75.0439 58.5341 75.0052 58.4708 74.9919 58.4003C74.9787 58.3297 74.9918 58.2568 75.0288 58.1952L79.2194 51.0181L70.4791 48.8949Z" fill="#093269"/>
<path d="M137.94 19.9538C137.94 19.6547 134.989 9.62474 134.989 9.62474L141.377 7.38788C141.377 7.38788 141.281 5.0314 142.652 4.14622C144.023 3.26105 145.896 4.14622 145.896 4.14622C145.896 4.14622 151.494 -0.560758 152.182 0.420112C152.871 1.40098 150.805 3.56009 147.662 5.80294C147.662 5.80294 149.333 10.5159 147.465 11.9872C146.372 12.8617 145.046 13.3962 143.652 13.5243L137.94 19.9538Z" fill="white"/>
<path d="M137.941 20.2524C137.905 20.2581 137.869 20.2581 137.833 20.2524C137.778 20.2324 137.731 20.1967 137.697 20.1498C137.663 20.103 137.644 20.0471 137.641 19.9893C137.575 19.5706 135.845 13.6315 134.702 9.72601C134.682 9.65147 134.691 9.57225 134.726 9.50373C134.762 9.43521 134.821 9.38228 134.893 9.35519L141.077 7.1901C141.077 6.55014 141.239 4.71998 142.49 3.91255C143.741 3.10513 145.316 3.60753 145.843 3.81686C146.914 2.9257 150.71 -0.166431 151.985 0.00701523C152.073 0.0164008 152.157 0.0441527 152.234 0.0884639C152.31 0.132775 152.376 0.192652 152.428 0.264195C153.422 1.68167 150.177 4.37907 148.016 5.94607C148.327 6.92096 149.447 10.8385 147.651 12.25C146.541 13.1336 145.205 13.6871 143.795 13.8469L138.162 20.1687C138.133 20.197 138.098 20.219 138.06 20.2334C138.022 20.2478 137.981 20.2542 137.941 20.2524ZM135.36 9.8217C136.276 12.9557 137.647 17.6507 138.09 19.3433L143.43 13.3624C143.485 13.3032 143.559 13.2669 143.64 13.2607C144.97 13.1327 146.234 12.6215 147.279 11.7894C148.674 10.6889 147.824 7.19608 147.381 5.94008C147.36 5.87924 147.359 5.8132 147.379 5.75177C147.398 5.69034 147.437 5.63682 147.489 5.59917C151.141 2.97953 152.35 1.2032 151.937 0.611088C151.512 0.353909 148.788 2.13024 146.088 4.40299C146.044 4.43895 145.991 4.46147 145.935 4.46784C145.879 4.47421 145.822 4.46415 145.771 4.43887C145.771 4.43887 144.029 3.64341 142.814 4.43887C141.598 5.23434 141.676 7.39345 141.676 7.42933C141.678 7.49355 141.66 7.55672 141.623 7.6095C141.586 7.66229 141.534 7.70187 141.473 7.7224L135.36 9.8217Z" fill="#093269"/>
<path d="M113.42 49.5708H113.366C113.295 49.5564 113.232 49.5143 113.192 49.4537C113.151 49.3932 113.137 49.3192 113.151 49.2478C114.905 40.6233 116.569 25.1148 116.485 24.3612C116.476 24.3274 116.474 24.2922 116.479 24.2576C116.484 24.223 116.495 24.1897 116.513 24.1596C116.531 24.1295 116.555 24.1033 116.583 24.0825C116.611 24.0617 116.643 24.0466 116.677 24.0383C116.749 24.0201 116.825 24.0314 116.889 24.0695C116.953 24.1076 117 24.1695 117.018 24.2416C117.168 24.7978 115.444 40.725 113.689 49.3615C113.674 49.421 113.639 49.4738 113.59 49.5116C113.542 49.5494 113.482 49.5702 113.42 49.5708Z" fill="#093269"/>
<path d="M85.8161 42.4176C85.7524 42.4159 85.6912 42.392 85.6431 42.3502C85.595 42.3084 85.5629 42.2512 85.5523 42.1884C85.5417 42.1255 85.5533 42.061 85.585 42.0057C85.6167 41.9504 85.6667 41.9079 85.7263 41.8853L97.9328 37.8781C98 37.8616 98.071 37.8709 98.1316 37.9043C98.1922 37.9377 98.238 37.9926 98.2599 38.0582C98.2818 38.1238 98.2782 38.1953 98.2497 38.2583C98.2213 38.3214 98.1701 38.3714 98.1064 38.3985L85.8999 42.4057C85.8731 42.4152 85.8446 42.4192 85.8161 42.4176Z" fill="#093269"/>
<path d="M146.01 10.4197C145.958 10.4254 145.906 10.4254 145.854 10.4197C145.391 10.3193 144.962 10.1015 144.607 9.78727C144.253 9.47301 143.986 9.07288 143.831 8.62541C143.788 9.01912 143.633 9.39219 143.383 9.69985C143.134 10.0075 142.801 10.2367 142.424 10.3599C142.39 10.3712 142.354 10.3754 142.318 10.3722C142.282 10.369 142.247 10.3585 142.215 10.3413C142.184 10.324 142.156 10.3005 142.133 10.2721C142.111 10.2436 142.095 10.211 142.086 10.1761C142.077 10.1412 142.075 10.1048 142.081 10.0692C142.087 10.0336 142.099 9.99948 142.119 9.96905C142.138 9.93862 142.164 9.91248 142.193 9.89226C142.223 9.87204 142.257 9.85817 142.292 9.8515C143.627 9.50461 143.394 7.17803 143.388 7.15411C143.381 7.08453 143.402 7.01504 143.445 6.96034C143.489 6.90564 143.552 6.87003 143.621 6.86104C143.69 6.85556 143.758 6.87583 143.812 6.91788C143.866 6.95992 143.903 7.02071 143.915 7.08832C143.915 7.08832 144.286 9.6003 145.932 9.84552C145.987 9.86006 146.045 9.85879 146.099 9.84185C146.153 9.82491 146.201 9.793 146.238 9.74983C146.836 9.09193 146.178 5.99979 145.639 4.2115C145.618 4.14487 145.625 4.07281 145.658 4.01114C145.69 3.94946 145.746 3.90321 145.812 3.88254C145.846 3.87248 145.881 3.86915 145.916 3.87274C145.95 3.87633 145.984 3.88678 146.015 3.90347C146.045 3.92016 146.072 3.94277 146.094 3.96998C146.116 3.99719 146.132 4.02846 146.142 4.06197C146.291 4.56437 147.578 9.00221 146.627 10.0967C146.555 10.1937 146.462 10.2732 146.356 10.3291C146.249 10.3851 146.131 10.416 146.01 10.4197Z" fill="#093269"/>
<path d="M11.0094 91.9934C10.1114 90.1991 1.34718 75.1332 0.000227549 65.48C0.000227549 65.48 -0.155421 84.29 7.67489 93.9731C15.5052 103.656 11.0094 91.9934 11.0094 91.9934Z" fill="#ACCCF8"/>
<path d="M102.938 16.0537L99.9206 17.3516V18.0095L103.997 16.8133L102.938 16.0537Z" fill="#093269"/>
<path d="M99.9203 18.2726C99.8619 18.273 99.8051 18.2541 99.7587 18.2188C99.7264 18.1943 99.7004 18.1626 99.6827 18.1263C99.665 18.0899 99.6562 18.0499 99.6569 18.0094V17.3515C99.6559 17.2999 99.6701 17.2491 99.6978 17.2055C99.7255 17.1619 99.7654 17.1274 99.8125 17.1063L102.806 15.8085C102.848 15.7909 102.893 15.7844 102.938 15.7896C102.984 15.7948 103.027 15.8116 103.063 15.8384L104.123 16.6039C104.162 16.6331 104.192 16.6727 104.21 16.7181C104.228 16.7635 104.233 16.813 104.225 16.8611C104.217 16.9102 104.196 16.956 104.163 16.9932C104.13 17.0303 104.087 17.0571 104.039 17.0704L99.9622 18.2666L99.9203 18.2726ZM100.184 17.525V17.6566L103.404 16.7116L102.908 16.3527L100.184 17.525Z" fill="#093269"/>
<path d="M101.95 18.5598C101.495 17.9976 100.753 16.9689 99.9204 17.3636C99.6935 17.4702 99.4992 17.6354 99.3577 17.8421C99.078 18.2663 98.9329 18.765 98.9414 19.273C98.95 19.7809 99.1117 20.2744 99.4056 20.689C99.8546 21.4546 101.202 22.567 101.98 21.5204" fill="white"/>
<path d="M101.183 22.2081H101.106C100.702 22.1276 100.321 21.9623 99.9863 21.723C99.6519 21.4838 99.3722 21.1761 99.1661 20.8205C98.8479 20.3553 98.6777 19.805 98.6777 19.2416C98.6777 18.6782 98.8479 18.1278 99.1661 17.6626C99.336 17.4194 99.5673 17.2254 99.8365 17.1004C100.818 16.6638 101.632 17.6566 102.081 18.2487L102.189 18.3863C102.235 18.4431 102.257 18.5154 102.25 18.5879C102.243 18.6605 102.209 18.7275 102.153 18.7751C102.125 18.798 102.093 18.8152 102.058 18.8255C102.023 18.8358 101.986 18.8391 101.95 18.8352C101.914 18.8313 101.879 18.8203 101.847 18.8028C101.815 18.7853 101.787 18.7616 101.764 18.7332L101.65 18.5897C101.124 17.9258 100.603 17.3576 100.058 17.5968C99.8752 17.6875 99.7186 17.8234 99.6031 17.9916C99.3571 18.3739 99.2319 18.8213 99.2436 19.2756C99.2554 19.73 99.4035 20.1703 99.6689 20.5394C99.827 20.8195 100.042 21.0636 100.299 21.2561C100.557 21.4487 100.852 21.5855 101.166 21.6579C101.284 21.6583 101.4 21.6296 101.505 21.5743C101.609 21.519 101.698 21.4388 101.764 21.3409C101.809 21.2843 101.874 21.2476 101.946 21.2386C102.018 21.2297 102.09 21.2492 102.147 21.293C102.176 21.3147 102.2 21.3419 102.218 21.3731C102.236 21.4042 102.248 21.4386 102.252 21.4743C102.257 21.51 102.254 21.5462 102.244 21.5808C102.234 21.6154 102.218 21.6477 102.195 21.6758C102.081 21.8385 101.93 21.9716 101.754 22.0642C101.578 22.1568 101.382 22.2061 101.183 22.2081Z" fill="#093269"/>
<path d="M104.909 17.2643C105.915 17.1575 106.664 16.4451 106.582 15.6732C106.5 14.9013 105.618 14.3622 104.612 14.4691C103.606 14.576 102.857 15.2883 102.939 16.0602C103.021 16.8321 103.903 17.3712 104.909 17.2643Z" fill="white"/>
<path d="M104.661 17.5491C104.208 17.5887 103.755 17.4617 103.388 17.192C103.021 16.9224 102.765 16.5284 102.668 16.0838C102.566 15.1627 103.428 14.2895 104.584 14.1878C105.105 14.1275 105.632 14.2366 106.086 14.4988C106.294 14.6147 106.472 14.7779 106.606 14.9754C106.739 15.1729 106.823 15.3989 106.853 15.6352C106.954 16.5563 106.092 17.4295 104.937 17.5312C104.846 17.5431 104.754 17.5491 104.661 17.5491ZM104.865 14.7201H104.638C103.787 14.8098 103.147 15.39 103.213 16.012C103.279 16.634 104.021 17.0646 104.883 16.9749C105.745 16.8852 106.38 16.3051 106.314 15.6831C106.289 15.5303 106.23 15.3852 106.141 15.2587C106.052 15.1323 105.935 15.0279 105.799 14.9534C105.515 14.7922 105.192 14.7115 104.865 14.7201Z" fill="#093269"/>
<path d="M108.659 17.0847C109.665 16.9778 110.414 16.2654 110.331 15.4935C110.249 14.7216 109.367 14.1825 108.361 14.2894C107.355 14.3963 106.606 15.1087 106.688 15.8805C106.77 16.6524 107.652 17.1915 108.659 17.0847Z" fill="white"/>
<path d="M108.421 17.3696C107.967 17.4092 107.515 17.2823 107.148 17.0126C106.781 16.7429 106.525 16.3489 106.428 15.9043C106.332 14.9832 107.194 14.11 108.343 14.0083C109.493 13.9067 110.522 14.5347 110.618 15.4557C110.714 16.3768 109.858 17.25 108.702 17.3457L108.421 17.3696ZM108.631 14.5406H108.403C107.547 14.6304 106.907 15.2105 106.972 15.8325C107.038 16.4545 107.793 16.8852 108.643 16.7954C109.493 16.7057 110.139 16.1256 110.073 15.5036C109.988 15.1947 109.794 14.9271 109.526 14.7502C109.259 14.5732 108.937 14.4988 108.619 14.5406H108.631Z" fill="#093269"/>
<path d="M33.4226 80.7913C34.9468 80.7913 36.1824 79.5568 36.1824 78.0341C36.1824 76.5113 34.9468 75.2769 33.4226 75.2769C31.8984 75.2769 30.6628 76.5113 30.6628 78.0341C30.6628 79.5568 31.8984 80.7913 33.4226 80.7913Z" fill="white"/>
<path d="M33.4225 81.0903C32.8161 81.0915 32.2229 80.9129 31.7181 80.5771C31.2132 80.2413 30.8194 79.7635 30.5865 79.2041C30.3536 78.6446 30.2921 78.0287 30.4097 77.4343C30.5272 76.8399 30.8187 76.2937 31.2471 75.8648C31.6755 75.436 32.2217 75.1437 32.8164 75.0251C33.4111 74.9065 34.0277 74.9668 34.5881 75.1984C35.1485 75.4299 35.6276 75.8224 35.9647 76.3261C36.3017 76.8299 36.4816 77.4221 36.4816 78.028C36.4816 78.8392 36.1595 79.6172 35.586 80.1913C35.0125 80.7654 34.2344 81.0887 33.4225 81.0903ZM33.4225 75.5699C32.9342 75.5687 32.4565 75.7124 32.05 75.9827C31.6435 76.253 31.3264 76.6378 31.139 77.0883C30.9516 77.5388 30.9023 78.0347 30.9972 78.5133C31.0922 78.9918 31.3272 79.4315 31.6725 79.7764C32.0178 80.1214 32.4579 80.3562 32.9369 80.4511C33.4159 80.546 33.9123 80.4967 34.3632 80.3094C34.8141 80.1222 35.1993 79.8054 35.4698 79.3993C35.7404 78.9931 35.8842 78.5159 35.883 78.028C35.8814 77.3766 35.6217 76.7523 35.1606 76.2916C34.6995 75.831 34.0746 75.5715 33.4225 75.5699Z" fill="#ACCCF8"/>
<path d="M137.426 45.4858C138.19 45.4858 138.809 44.8673 138.809 44.1042C138.809 43.3412 138.19 42.7227 137.426 42.7227C136.662 42.7227 136.043 43.3412 136.043 44.1042C136.043 44.8673 136.662 45.4858 137.426 45.4858Z" fill="white"/>
<path d="M137.426 45.7848C137.093 45.786 136.767 45.6885 136.49 45.5045C136.212 45.3206 135.996 45.0585 135.867 44.7515C135.739 44.4445 135.705 44.1064 135.769 43.78C135.833 43.4536 135.993 43.1536 136.228 42.918C136.463 42.6823 136.763 42.5217 137.089 42.4563C137.416 42.391 137.754 42.4239 138.062 42.5509C138.37 42.678 138.633 42.8934 138.818 43.1699C139.003 43.4464 139.102 43.7716 139.102 44.1042C139.102 44.5489 138.926 44.9755 138.611 45.2905C138.297 45.6055 137.871 45.7833 137.426 45.7848ZM137.426 43.0217C137.211 43.0205 137.001 43.083 136.822 43.2012C136.643 43.3194 136.503 43.4881 136.42 43.6858C136.338 43.8835 136.315 44.1013 136.356 44.3117C136.397 44.5221 136.5 44.7155 136.651 44.8675C136.803 45.0195 136.996 45.1232 137.206 45.1655C137.417 45.2078 137.635 45.1867 137.833 45.1049C138.031 45.0232 138.201 44.8844 138.32 44.7063C138.44 44.5281 138.503 44.3186 138.503 44.1042C138.503 43.8181 138.39 43.5437 138.188 43.3408C137.986 43.138 137.712 43.0232 137.426 43.0217Z" fill="#ACCCF8"/>
<path d="M156.996 40.8987C158.52 40.8987 159.756 39.6642 159.756 38.1415C159.756 36.6187 158.52 35.3843 156.996 35.3843C155.472 35.3843 154.236 36.6187 154.236 38.1415C154.236 39.6642 155.472 40.8987 156.996 40.8987Z" fill="#ACCCF8"/>
<path d="M161.569 140.559C170.156 140.559 177.116 133.604 177.116 125.026C177.116 116.448 170.156 109.494 161.569 109.494C152.983 109.494 146.022 116.448 146.022 125.026C146.022 133.604 152.983 140.559 161.569 140.559Z" fill="white"/>
<path d="M161.575 140.858C158.622 140.857 155.728 140.033 153.219 138.477C150.71 136.922 148.686 134.696 147.376 132.053C146.065 129.409 145.52 126.452 145.802 123.516C146.084 120.579 147.181 117.779 148.97 115.432C150.76 113.086 153.17 111.285 155.929 110.234C158.688 109.183 161.686 108.922 164.585 109.483C167.485 110.043 170.169 111.402 172.337 113.405C174.504 115.409 176.069 117.977 176.853 120.821C177.5 123.172 177.595 125.639 177.131 128.032C176.667 130.425 175.656 132.679 174.178 134.617C172.699 136.556 170.793 138.128 168.607 139.21C166.421 140.293 164.015 140.856 161.575 140.858ZM161.575 109.787C158.384 109.786 155.272 110.785 152.679 112.644C150.086 114.503 148.141 117.128 147.12 120.149C146.098 123.17 146.051 126.435 146.985 129.484C147.919 132.533 149.786 135.213 152.325 137.146C154.863 139.079 157.944 140.168 161.135 140.259C164.325 140.35 167.464 139.44 170.109 137.655C172.754 135.87 174.771 133.302 175.878 130.311C176.985 127.32 177.125 124.057 176.278 120.983C175.388 117.767 173.468 114.931 170.812 112.909C168.155 110.887 164.909 109.79 161.569 109.787H161.575Z" fill="#ACCCF8"/>
<path d="M142.849 133.525C140.072 133.525 137.557 133.124 137.174 131.731C136.558 129.44 142.37 126.45 145.908 124.859C145.981 124.827 146.064 124.826 146.138 124.855C146.212 124.884 146.272 124.941 146.304 125.014C146.335 125.087 146.337 125.17 146.308 125.244C146.278 125.318 146.221 125.377 146.148 125.409C139.515 128.358 137.462 130.523 137.767 131.569C138.072 132.616 140.934 133.435 148.135 132.574C158.067 131.237 167.774 128.574 176.996 124.655C183.623 121.719 185.677 119.548 185.377 118.495C185.078 117.442 182.216 116.635 175.009 117.496C174.929 117.506 174.849 117.483 174.787 117.434C174.724 117.385 174.683 117.312 174.673 117.233C174.664 117.154 174.686 117.074 174.736 117.011C174.785 116.948 174.857 116.908 174.937 116.898C178.78 116.438 185.317 116.019 185.952 118.334C186.587 120.648 180.762 123.633 177.23 125.194C167.95 129.152 158.177 131.839 148.177 133.184C146.409 133.4 144.63 133.514 142.849 133.525Z" fill="#ACCCF8"/>
<path d="M129.973 120.941C129.893 120.941 129.817 120.91 129.761 120.854C129.705 120.797 129.673 120.721 129.673 120.642V117.119C129.673 117.04 129.705 116.964 129.761 116.908C129.817 116.852 129.893 116.82 129.973 116.82C130.052 116.82 130.128 116.852 130.184 116.908C130.24 116.964 130.272 117.04 130.272 117.119V120.642C130.272 120.721 130.24 120.797 130.184 120.854C130.128 120.91 130.052 120.941 129.973 120.941Z" fill="#ACCCF8"/>
<path d="M131.768 119.177H128.242C128.163 119.177 128.087 119.146 128.031 119.09C127.975 119.033 127.943 118.957 127.943 118.878C127.945 118.799 127.977 118.724 128.032 118.668C128.088 118.612 128.164 118.58 128.242 118.579H131.768C131.848 118.579 131.924 118.61 131.98 118.666C132.036 118.722 132.068 118.799 132.068 118.878C132.068 118.957 132.036 119.033 131.98 119.09C131.924 119.146 131.848 119.177 131.768 119.177Z" fill="#ACCCF8"/>
<path d="M170.777 49.5947C170.697 49.5947 170.621 49.5632 170.565 49.5071C170.509 49.4511 170.477 49.375 170.477 49.2957V45.7729C170.477 45.6936 170.509 45.6175 170.565 45.5615C170.621 45.5054 170.697 45.4739 170.777 45.4739C170.856 45.4739 170.932 45.5054 170.988 45.5615C171.044 45.6175 171.076 45.6936 171.076 45.7729V49.2957C171.076 49.375 171.044 49.4511 170.988 49.5071C170.932 49.5632 170.856 49.5947 170.777 49.5947Z" fill="#ACCCF8"/>
<path d="M172.543 47.8369H169.016C168.937 47.8369 168.861 47.8054 168.805 47.7493C168.749 47.6931 168.717 47.617 168.717 47.5376C168.717 47.4582 168.749 47.3821 168.805 47.326C168.861 47.2698 168.937 47.2383 169.016 47.2383H172.543C172.622 47.2383 172.698 47.2698 172.754 47.326C172.81 47.3821 172.842 47.4582 172.842 47.5376C172.84 47.6165 172.808 47.6918 172.752 47.7476C172.697 47.8034 172.621 47.8354 172.543 47.8369Z" fill="#ACCCF8"/>
<path d="M22.102 126.814C22.0226 126.814 21.9465 126.783 21.8904 126.727C21.8342 126.671 21.8027 126.595 21.8027 126.515V122.993C21.8027 122.913 21.8342 122.837 21.8904 122.781C21.9465 122.725 22.0226 122.694 22.102 122.694C22.1814 122.694 22.2575 122.725 22.3137 122.781C22.3698 122.837 22.4014 122.913 22.4014 122.993V126.515C22.4014 126.595 22.3698 126.671 22.3137 126.727C22.2575 126.783 22.1814 126.814 22.102 126.814Z" fill="#ACCCF8"/>
<path d="M23.8621 125.057H20.3361C20.2572 125.055 20.182 125.023 20.1262 124.967C20.0704 124.911 20.0383 124.836 20.0368 124.757C20.0368 124.678 20.0683 124.602 20.1245 124.546C20.1806 124.49 20.2567 124.458 20.3361 124.458H23.8621C23.9415 124.458 24.0177 124.49 24.0738 124.546C24.1299 124.602 24.1615 124.678 24.1615 124.757C24.1615 124.837 24.1299 124.913 24.0738 124.969C24.0177 125.025 23.9415 125.057 23.8621 125.057Z" fill="#ACCCF8"/>
<path d="M57.644 51.3591C57.5646 51.3591 57.4885 51.3276 57.4324 51.2716C57.3762 51.2155 57.3447 51.1394 57.3447 51.0601V47.5373C57.3447 47.458 57.3762 47.382 57.4324 47.3259C57.4885 47.2698 57.5646 47.2383 57.644 47.2383C57.7234 47.2383 57.7995 47.2698 57.8557 47.3259C57.9118 47.382 57.9433 47.458 57.9433 47.5373V51.09C57.9359 51.164 57.9011 51.2326 57.8458 51.2824C57.7904 51.3321 57.7185 51.3595 57.644 51.3591Z" fill="#ACCCF8"/>
<path d="M59.4037 49.5952H55.8777C55.7983 49.5952 55.7222 49.5637 55.666 49.5076C55.6099 49.4514 55.5784 49.3753 55.5784 49.2959C55.5784 49.2165 55.6099 49.1404 55.666 49.0843C55.7222 49.0281 55.7983 48.9966 55.8777 48.9966H59.4037C59.4831 48.9966 59.5592 49.0281 59.6154 49.0843C59.6715 49.1404 59.703 49.2165 59.703 49.2959C59.703 49.3753 59.6715 49.4514 59.6154 49.5076C59.5592 49.5637 59.4831 49.5952 59.4037 49.5952Z" fill="#ACCCF8"/>
</svg>
