<svg width="557" height="419" viewBox="0 0 557 419" fill="none" xmlns="http://www.w3.org/2000/svg">
<path d="M101.305 98.3532C101.305 98.3532 97.8797 89.6101 98.005 87.4453C98.1303 85.2804 100.108 77.1099 98.1721 76.1742C96.986 75.621 95.6663 75.4222 94.3706 75.6015C94.3706 75.6015 89.1208 60.7131 87.7283 60.8527C86.3358 60.9924 88.6474 69.7774 90.0817 74.3306C90.0817 74.3306 80.1392 77.7943 81.2393 80.5038C82.0748 82.5569 90.388 99.4985 93.6604 104.89" fill="white"/>
<path d="M93.632 105.588C93.5121 105.587 93.3943 105.556 93.2896 105.498C93.1849 105.439 93.0967 105.355 93.0333 105.253C89.733 99.8057 81.4059 82.9061 80.5008 80.7692C80.3914 80.5206 80.335 80.2518 80.335 79.9801C80.335 79.7083 80.3914 79.4396 80.5008 79.1909C81.5451 76.8725 87.0734 74.6378 89.0646 73.8976C87.6721 69.3305 85.6948 62.1795 86.7113 60.6432C86.7992 60.5078 86.916 60.3937 87.0533 60.3091C87.1906 60.2246 87.3449 60.1717 87.505 60.1544C88.0481 60.1544 89.4963 59.9868 94.7182 74.8613C95.9676 74.7812 97.2172 75.0165 98.3526 75.5456C100.135 76.4116 99.7451 80.1965 98.9096 85.0709C98.7425 86.1044 98.6033 86.9843 98.5754 87.4871C98.4919 88.9676 100.469 94.652 101.82 98.1018C101.854 98.1871 101.871 98.2782 101.869 98.37C101.868 98.4618 101.849 98.5525 101.813 98.6368C101.776 98.7211 101.724 98.7975 101.658 98.8615C101.593 98.9254 101.515 98.9758 101.43 99.0096C101.258 99.0746 101.068 99.0701 100.899 98.9972C100.73 98.9243 100.596 98.7886 100.525 98.6186C100.177 97.7107 97.0576 89.6659 97.1829 87.4452C97.1829 86.8866 97.3639 86.0486 97.531 84.8893C97.8374 83.0178 98.7425 77.3194 97.7538 76.8585C96.6991 76.3626 95.5254 76.1785 94.3701 76.3278C94.2082 76.3606 94.0399 76.3333 93.8965 76.2511C93.7531 76.169 93.6443 76.0374 93.5903 75.8808C91.5433 70.0148 88.995 63.6879 87.7835 61.9142C87.7835 63.4784 88.6747 68.0176 90.5685 74.1071C90.5989 74.1923 90.6117 74.2827 90.6063 74.373C90.6009 74.4633 90.5773 74.5515 90.5369 74.6324C90.4966 74.7133 90.4404 74.7852 90.3716 74.8438C90.3029 74.9023 90.223 74.9462 90.1369 74.973C87.3519 75.9646 82.4781 78.1434 81.7819 79.7636C81.7492 79.836 81.7323 79.9145 81.7323 79.994C81.7323 80.0735 81.7492 80.1521 81.7819 80.2245C82.6174 82.2776 90.8749 99.1074 94.1612 104.513C94.2538 104.67 94.2808 104.858 94.2365 105.036C94.1923 105.214 94.0802 105.367 93.9245 105.462C93.838 105.526 93.7379 105.569 93.632 105.588Z" fill="#093269"/>
<path d="M89.6083 88.395C89.4516 88.3965 89.299 88.3449 89.1752 88.2486C89.0514 88.1523 88.9636 88.0169 88.926 87.8643C88.3272 85.4062 89.845 82.8503 91.2236 81.1324C89.3616 81.6758 87.3929 81.7383 85.5004 81.3139C84.6092 81.0486 84.47 80.5039 84.4561 80.2106C84.4561 78.9396 87.7006 77.1658 94.2035 74.9451C94.3882 74.884 94.5895 74.899 94.7632 74.9867C94.9368 75.0745 95.0686 75.2278 95.1296 75.413C95.1905 75.5982 95.1756 75.8001 95.0881 75.9743C95.0006 76.1485 94.8477 76.2807 94.6631 76.3418C91.6883 77.2627 88.8289 78.5233 86.141 80.0988C89.0513 80.8391 93.3123 79.0932 93.3541 79.0653C93.5071 79.0007 93.678 78.993 93.8361 79.0436C93.9942 79.0942 94.1291 79.1997 94.2165 79.3413C94.3038 79.4828 94.3379 79.651 94.3125 79.8155C94.2872 79.98 94.2041 80.13 94.0782 80.2385C94.0782 80.2385 89.5248 84.3028 90.3324 87.5989C90.3573 87.687 90.3639 87.7793 90.3519 87.8701C90.3399 87.9608 90.3095 88.0482 90.2625 88.1267C90.2155 88.2052 90.153 88.2733 90.0788 88.3266C90.0046 88.38 89.9203 88.4175 89.8311 88.4369L89.6083 88.395Z" fill="#093269"/>
<path d="M203.779 252.713C208.67 254.157 213.695 255.093 218.776 255.506C218.776 255.506 205.548 279.585 202.874 304.501L212.329 311.331C212.329 311.331 245.861 259.864 244.524 252.238C243.187 244.612 217.231 232.992 217.231 232.992L203.779 252.713Z" fill="white"/>
<path d="M212.329 312.015C212.178 312.019 212.03 311.969 211.911 311.876L202.47 305.046C202.369 304.978 202.288 304.883 202.237 304.773C202.185 304.662 202.165 304.539 202.178 304.417C204.545 282.448 215.184 260.897 217.662 256.135C213.418 255.759 209.221 254.968 205.13 253.774C204.503 253.607 203.876 253.425 203.737 253.411C203.615 253.399 203.499 253.355 203.399 253.284C203.299 253.213 203.219 253.117 203.166 253.006C203.105 252.903 203.073 252.784 203.073 252.664C203.073 252.544 203.105 252.425 203.166 252.322L216.618 232.601C216.709 232.467 216.844 232.37 216.999 232.326C217.155 232.283 217.321 232.296 217.467 232.363C218.54 232.838 243.799 244.193 245.192 252.098C246.584 260.003 214.251 309.585 212.872 311.694C212.825 311.775 212.761 311.845 212.684 311.898C212.607 311.952 212.519 311.987 212.426 312.001L212.329 312.015ZM203.612 304.152L212.134 310.325C221.687 295.618 244.886 258.3 243.841 252.336C242.797 246.372 224.945 237.266 217.467 233.872L204.935 252.266L205.506 252.42C209.845 253.708 214.315 254.505 218.832 254.794C218.95 254.801 219.064 254.838 219.164 254.901C219.264 254.965 219.346 255.053 219.403 255.157C219.462 255.259 219.492 255.375 219.492 255.492C219.492 255.61 219.462 255.726 219.403 255.827C219.264 256.065 206.341 279.808 203.612 304.152Z" fill="#093269"/>
<path d="M155.348 275.283L153.788 279.333C153.788 279.333 130.116 285.981 108.964 289.864C108.964 289.864 104.661 295.954 108.281 301.331C108.281 301.331 153.398 301.89 161.962 298.929C170.526 295.968 177.28 284.208 176.333 274.864L155.348 275.283Z" fill="white"/>
<path d="M117.096 302.113C112.18 302.113 108.741 302.113 108.267 302.113C108.157 302.107 108.05 302.076 107.954 302.023C107.858 301.969 107.774 301.895 107.71 301.806C103.853 296.093 108.212 289.808 108.393 289.543C108.501 289.397 108.66 289.298 108.838 289.264C128.333 285.688 150.293 279.669 153.259 278.845L154.651 275.074C154.7 274.942 154.787 274.829 154.902 274.749C155.016 274.669 155.152 274.626 155.292 274.627L176.277 274.25C176.447 274.256 176.61 274.32 176.739 274.432C176.868 274.544 176.956 274.696 176.987 274.864C178.045 284.641 170.832 296.68 162.143 299.669C155.877 301.806 130.714 302.113 117.096 302.113ZM108.657 300.716C113.016 300.716 153.788 301.093 161.739 298.356C169.69 295.619 176.333 284.711 175.664 275.646L155.779 276.009L154.387 279.669C154.345 279.772 154.281 279.864 154.199 279.939C154.117 280.014 154.02 280.07 153.913 280.102C153.691 280.102 130.241 286.736 109.353 290.591C108.699 291.638 106.053 296.415 108.615 300.674L108.657 300.716Z" fill="#093269"/>
<path d="M202.874 304.473C202.874 304.473 197.471 312.532 197.179 315.074C196.886 317.616 219.459 337.938 220.545 334.711C221.631 331.485 212.329 311.303 212.329 311.303L202.874 304.473Z" fill="#093269"/>
<path d="M220.016 335.689C219.844 335.707 219.672 335.707 219.5 335.689C214.905 334.669 196.287 317.923 196.608 315.088C196.886 312.476 201.829 305.046 202.386 304.208C202.433 304.141 202.493 304.084 202.562 304.04C202.632 303.997 202.709 303.969 202.79 303.957C202.869 303.936 202.952 303.935 203.031 303.951C203.111 303.968 203.186 304.004 203.25 304.054L212.705 310.884C212.792 310.946 212.863 311.027 212.914 311.121C213.875 313.216 222.285 331.625 221.157 334.991C221.068 335.215 220.908 335.405 220.703 335.531C220.497 335.657 220.256 335.712 220.016 335.689ZM203.027 305.353C201.37 307.895 198 313.328 197.791 315.13C197.93 316.834 209.196 327.7 216.298 332.56C219.333 334.627 220.016 334.432 220.043 334.432C220.698 332.337 215.392 319.446 211.828 311.708L203.027 305.353Z" fill="#093269"/>
<path d="M108.963 289.906C108.963 289.906 95.9295 290.968 94.7877 290.688C93.6458 290.409 94.4813 320.493 96.4447 320.647C98.4082 320.8 108.281 301.373 108.281 301.373L108.963 289.906Z" fill="#093269"/>
<path d="M96.4307 321.233C95.8458 321.233 95.5812 320.563 95.4977 320.353C94.0077 316.806 92.9912 291.819 94.2723 290.311C94.3626 290.222 94.4728 290.155 94.5938 290.116C94.7147 290.077 94.8431 290.067 94.9685 290.088C95.7901 290.269 103.978 289.683 108.894 289.278C108.983 289.271 109.073 289.284 109.157 289.315C109.241 289.347 109.317 289.396 109.381 289.459C109.444 289.52 109.493 289.594 109.524 289.676C109.555 289.758 109.568 289.846 109.562 289.934L108.88 301.387C108.898 301.469 108.898 301.555 108.88 301.638C105.092 308.985 98.5194 321.233 96.4307 321.233ZM95.0382 291.317C93.952 295.074 95.5673 317.588 96.5421 319.92C97.9346 318.943 103.198 309.809 107.599 301.177L108.239 290.548C105.371 290.814 97.3358 291.442 95.1078 291.345L95.0382 291.317Z" fill="#093269"/>
<path d="M240.332 199.849C240.332 199.849 254.689 206.19 259.312 212.126C263.935 218.062 266.469 224.165 263.698 224.011C260.927 223.858 253.449 216.106 253.449 216.106C253.449 216.106 258.309 226.023 254.842 224.305C251.374 222.587 250.511 216.204 249.481 215.115C248.45 214.025 237.812 208.522 237.812 208.522" fill="white"/>
<path d="M255.566 225.199C255.22 225.188 254.882 225.097 254.577 224.933C252.001 223.634 250.803 220.226 249.912 217.726C249.699 216.986 249.399 216.274 249.021 215.603C245.312 213.24 241.477 211.081 237.533 209.137C237.45 209.097 237.377 209.041 237.316 208.971C237.256 208.902 237.21 208.822 237.182 208.734C237.153 208.647 237.142 208.555 237.15 208.463C237.158 208.372 237.184 208.282 237.226 208.201C237.268 208.118 237.325 208.044 237.395 207.983C237.466 207.922 237.547 207.876 237.635 207.848C237.724 207.819 237.817 207.809 237.909 207.816C238.001 207.824 238.091 207.851 238.173 207.894C239.956 208.83 248.965 213.481 250.024 214.64C250.578 215.437 250.988 216.326 251.235 217.266C252.029 219.528 253.129 222.643 255.204 223.676C255.272 223.721 255.347 223.754 255.426 223.774C255.538 222.866 254.41 219.584 252.836 216.428C252.763 216.278 252.745 216.108 252.786 215.946C252.827 215.785 252.924 215.644 253.059 215.548C253.193 215.451 253.357 215.407 253.52 215.422C253.684 215.438 253.837 215.512 253.95 215.631C256.735 218.55 261.929 223.229 263.698 223.327C263.976 223.327 264.004 223.257 264.032 223.215C264.519 222.28 262.904 217.95 258.713 212.559C254.271 206.818 240.151 200.547 240.011 200.492C239.927 200.455 239.851 200.402 239.787 200.336C239.723 200.27 239.673 200.192 239.639 200.106C239.606 200.021 239.589 199.929 239.591 199.837C239.593 199.745 239.613 199.654 239.649 199.57C239.726 199.401 239.864 199.269 240.036 199.202C240.207 199.134 240.398 199.136 240.568 199.207C241.167 199.472 255.148 205.687 259.813 211.693C263.21 216.078 266.371 221.749 265.271 223.858C265.119 224.153 264.879 224.393 264.585 224.546C264.291 224.698 263.956 224.756 263.628 224.71C261.707 224.612 258.058 221.553 255.566 219.207C256.568 221.721 257.167 224.053 256.359 224.863C256.149 225.076 255.864 225.197 255.566 225.199Z" fill="#093269"/>
<path d="M145.183 219.277L148.121 279.333C148.121 279.333 172.949 278.803 181.276 273.747L182.084 241.903C182.084 241.903 204.949 257.713 212.162 260.059C212.162 260.059 227.953 242.601 230.376 234.752L190.522 206.12L145.183 219.277Z" fill="#093269"/>
<path d="M148.121 279.976C147.965 279.976 147.815 279.917 147.702 279.811C147.588 279.705 147.519 279.559 147.508 279.403L144.57 219.346C144.565 219.209 144.606 219.073 144.687 218.962C144.767 218.85 144.883 218.769 145.015 218.732L190.355 205.533C190.445 205.511 190.539 205.508 190.63 205.525C190.721 205.542 190.808 205.578 190.884 205.631L230.738 234.263C230.842 234.339 230.919 234.446 230.959 234.569C230.999 234.692 231 234.824 230.96 234.947C228.524 242.838 213.276 259.766 212.621 260.478C212.542 260.566 212.44 260.629 212.327 260.661C212.214 260.694 212.094 260.693 211.981 260.66C205.506 258.551 187.097 246.093 182.738 243.062L181.958 273.789C181.957 273.892 181.93 273.994 181.879 274.085C181.827 274.175 181.754 274.251 181.666 274.305C173.311 279.403 149.221 279.99 148.246 280.004L148.121 279.976ZM145.823 219.765L148.705 278.733C152.479 278.607 173.046 277.741 180.733 273.384L181.541 241.889C181.545 241.777 181.579 241.668 181.637 241.573C181.696 241.477 181.777 241.399 181.875 241.344C181.97 241.289 182.078 241.26 182.188 241.26C182.298 241.26 182.406 241.289 182.501 241.344C182.738 241.512 204.614 256.61 212.05 259.291C214.097 257.001 227.159 242.196 229.721 234.947L190.48 206.749L145.823 219.765Z" fill="#093269"/>
<path d="M170.581 149.066C170.581 149.066 154.679 149.583 146.644 144.876C138.609 140.169 103.226 92.7526 103.226 92.7526L87.7275 101.314L135.17 180.352C135.17 180.352 144.11 205.1 143.525 222.894C143.525 222.894 181.345 221.665 199.448 210.98L192.068 182.907C192.068 182.907 205.686 198.187 215.141 201.888C224.596 205.589 245.526 213.061 245.526 213.061L247.002 198.648C247.002 198.648 206.8 176.301 196.872 156.329C189.84 142.25 170.581 149.066 170.581 149.066Z" fill="#5872FF"/>
<path d="M176.207 132.208C176.778 130.607 176.94 128.888 176.68 127.207C176.42 125.527 175.745 123.938 174.717 122.585C173.464 121.189 171.556 119.988 171.334 118.088C171.311 117.297 171.372 116.506 171.515 115.728C171.525 114.757 171.314 113.797 170.898 112.921C170.482 112.044 169.872 111.275 169.115 110.671C168.357 110.068 167.472 109.646 166.526 109.437C165.581 109.229 164.601 109.241 163.661 109.471C162.533 110.018 161.353 110.448 160.138 110.756C158.007 110.979 156.044 109.359 153.899 109.457C152.994 109.61 152.132 109.959 151.375 110.48C150.617 111.001 149.982 111.681 149.513 112.474C148.598 114.071 147.49 115.549 146.213 116.873C142.885 119.764 138.443 121.37 141.2 126.859C142.202 128.556 143.477 130.076 144.974 131.357C145.188 131.537 145.347 131.774 145.433 132.041C145.433 132.249 145.391 132.456 145.31 132.648C145.229 132.84 145.109 133.013 144.96 133.158C144.407 133.85 144.017 134.657 143.817 135.52C143.617 136.382 143.612 137.279 143.804 138.144C144.417 140.449 145.99 140.295 147.55 141.385C149.109 142.474 149.736 144.178 150.85 145.575C153.37 148.661 158.077 149.15 161.795 147.781C165.165 146.366 168.195 144.245 170.681 141.559C173.167 138.873 175.051 135.685 176.207 132.208Z" fill="white"/>
<path d="M157.714 149.164C156.323 149.224 154.935 148.969 153.655 148.418C152.375 147.867 151.235 147.033 150.32 145.98C149.923 145.481 149.555 144.958 149.22 144.415C148.7 143.469 148 142.634 147.159 141.957C146.753 141.691 146.325 141.462 145.878 141.273C145.197 141.07 144.581 140.69 144.092 140.173C143.604 139.656 143.259 139.019 143.093 138.326C142.873 137.359 142.872 136.355 143.091 135.388C143.311 134.42 143.744 133.515 144.36 132.739C144.486 132.572 144.722 132.264 144.708 132.167C144.694 132.069 144.5 131.929 144.444 131.859L144.165 131.594C142.72 130.337 141.496 128.845 140.545 127.18C138.024 122.18 140.99 119.974 143.845 117.823C144.472 117.348 145.112 116.873 145.725 116.342C146.617 115.485 147.386 114.507 148.009 113.437C148.301 112.976 148.593 112.515 148.914 112.041C149.433 111.158 150.143 110.402 150.991 109.83C151.839 109.257 152.804 108.881 153.815 108.731C154.961 108.725 156.096 108.963 157.143 109.429C157.889 109.851 158.733 110.068 159.59 110.055C160.446 110.043 161.284 109.803 162.017 109.359C162.47 109.142 162.935 108.951 163.41 108.786C164.459 108.519 165.556 108.499 166.615 108.727C167.674 108.956 168.666 109.426 169.514 110.102C170.361 110.778 171.042 111.641 171.503 112.624C171.963 113.607 172.191 114.684 172.169 115.77C172.169 116.049 172.169 116.314 172.071 116.594C171.853 117.433 171.932 118.322 172.296 119.11C172.659 119.897 173.283 120.533 174.062 120.909C174.48 121.314 174.898 121.706 175.26 122.125C176.358 123.572 177.079 125.272 177.356 127.069C177.633 128.867 177.458 130.705 176.847 132.418C175.648 135.986 173.706 139.258 171.149 142.015C168.592 144.772 165.479 146.952 162.017 148.41C160.636 148.905 159.181 149.16 157.714 149.164ZM154.163 110.141H153.941C153.137 110.306 152.378 110.641 151.713 111.122C151.048 111.604 150.493 112.222 150.083 112.934C149.777 113.353 149.499 113.786 149.22 114.233C148.524 115.418 147.666 116.499 146.672 117.446C146.045 117.99 145.377 118.493 144.722 118.982C141.937 121.105 139.835 122.641 141.826 126.594C142.714 128.117 143.848 129.481 145.182 130.63L145.46 130.91C145.787 131.184 146.016 131.556 146.115 131.971C146.138 132.266 146.1 132.563 146.001 132.842C145.903 133.121 145.747 133.376 145.544 133.591C145.047 134.202 144.693 134.917 144.507 135.683C144.322 136.449 144.309 137.247 144.472 138.019C144.82 139.304 145.46 139.597 146.449 140.044C146.974 140.268 147.477 140.539 147.953 140.854C148.943 141.613 149.771 142.563 150.39 143.647C150.7 144.13 151.034 144.596 151.392 145.044C153.857 148.075 158.355 148.2 161.558 147.041C164.814 145.66 167.74 143.599 170.141 140.996C172.542 138.393 174.363 135.307 175.483 131.943C176.29 129.303 176.374 125.56 174.09 122.99C173.756 122.599 173.366 122.236 172.99 121.873C171.747 120.959 170.877 119.624 170.539 118.116C170.494 117.523 170.527 116.927 170.637 116.342C170.637 116.105 170.637 115.867 170.72 115.616C170.734 114.753 170.55 113.898 170.183 113.117C169.817 112.337 169.276 111.65 168.604 111.111C167.932 110.572 167.146 110.194 166.306 110.006C165.466 109.819 164.594 109.827 163.758 110.029C163.335 110.178 162.921 110.35 162.518 110.546C161.623 111.061 160.613 111.341 159.581 111.361C158.549 111.38 157.528 111.138 156.614 110.658C155.83 110.356 155.003 110.182 154.163 110.141Z" fill="#093269"/>
<path d="M169.259 142.893L171.78 150.742C171.78 150.742 171.919 154.667 166.293 155.142C160.667 155.617 158.746 152.237 158.746 152.237L154.568 137.418C154.568 137.418 157.103 134.094 153.176 126.063C158.797 125.821 164.326 124.538 169.482 122.278C171.062 126.786 172.392 131.379 173.465 136.035C174.063 140.323 169.259 142.893 169.259 142.893Z" fill="white"/>
<path d="M165.206 155.882C160.068 155.882 158.244 152.767 158.091 152.628C158.085 152.572 158.085 152.516 158.091 152.46L153.913 137.642C153.886 137.537 153.882 137.428 153.901 137.322C153.92 137.216 153.962 137.115 154.025 137.027C154.025 137.027 156.211 133.857 152.632 126.398C152.581 126.294 152.554 126.179 152.554 126.063C152.554 125.947 152.581 125.832 152.632 125.728C152.692 125.626 152.778 125.542 152.88 125.483C152.983 125.424 153.099 125.393 153.217 125.393C158.735 125.138 164.161 123.879 169.231 121.678C169.321 121.64 169.418 121.62 169.516 121.62C169.614 121.62 169.711 121.64 169.802 121.678C169.981 121.762 170.12 121.912 170.192 122.097C171.745 126.637 173.037 131.263 174.063 135.952C174.717 139.82 171.389 142.362 170.066 143.2L172.433 150.533C172.44 150.593 172.44 150.654 172.433 150.714C172.433 150.714 172.531 155.309 166.306 155.826C165.941 155.863 165.574 155.882 165.206 155.882ZM159.33 151.971C159.622 152.418 161.502 154.765 166.293 154.443C171.083 154.122 171.138 151.385 171.152 150.854L168.66 143.102C168.611 142.948 168.618 142.781 168.679 142.63C168.74 142.48 168.851 142.355 168.994 142.278C168.994 142.278 173.394 139.89 172.782 136.175C171.79 131.805 170.549 127.496 169.064 123.27C164.352 125.245 159.344 126.415 154.247 126.734C157.116 133.158 155.863 136.51 155.32 137.558L159.33 151.971Z" fill="#093269"/>
<path d="M156.824 136.203C156.4 135.564 155.786 135.075 155.069 134.806C154.376 134.585 153.652 134.481 152.925 134.499C152.532 134.472 152.138 134.529 151.769 134.667C151.522 134.798 151.3 134.973 151.115 135.183C150.643 135.649 150.351 136.268 150.293 136.929C150.311 137.46 150.46 137.978 150.725 138.438C150.968 138.945 151.282 139.415 151.658 139.834C152.443 140.68 153.528 141.181 154.679 141.231C155.84 141.28 156.973 140.874 157.84 140.1" fill="white"/>
<path d="M154.902 142.027H154.638C153.29 141.942 152.03 141.33 151.128 140.323C150.714 139.837 150.368 139.296 150.098 138.717C149.792 138.149 149.62 137.518 149.597 136.873C149.655 136.041 150.011 135.257 150.599 134.667C150.845 134.393 151.137 134.166 151.463 133.996C151.928 133.797 152.435 133.715 152.939 133.759C153.743 133.742 154.544 133.865 155.306 134.122C156.157 134.455 156.876 135.058 157.353 135.84C157.452 135.995 157.486 136.184 157.447 136.365C157.408 136.546 157.299 136.703 157.144 136.803C157.067 136.854 156.98 136.889 156.89 136.905C156.799 136.921 156.706 136.919 156.616 136.898C156.526 136.877 156.442 136.838 156.367 136.783C156.293 136.729 156.23 136.659 156.183 136.58C155.854 136.054 155.366 135.648 154.791 135.421C154.179 135.223 153.539 135.134 152.897 135.155C152.605 135.126 152.311 135.159 152.034 135.253C151.87 135.348 151.723 135.471 151.602 135.616C151.25 135.96 151.024 136.413 150.961 136.901C150.985 137.32 151.109 137.728 151.323 138.088C151.537 138.561 151.814 139.003 152.145 139.401C152.801 140.122 153.708 140.562 154.679 140.63C155.66 140.662 156.616 140.317 157.353 139.667C157.418 139.601 157.495 139.549 157.579 139.514C157.664 139.478 157.755 139.46 157.847 139.46C157.939 139.46 158.03 139.478 158.115 139.514C158.2 139.549 158.277 139.601 158.342 139.667C158.47 139.799 158.542 139.977 158.542 140.162C158.542 140.348 158.47 140.525 158.342 140.658C157.404 141.527 156.178 142.015 154.902 142.027Z" fill="#093269"/>
<path d="M167.519 129.89C167.519 129.89 171.696 132.921 171.348 133.87C171 134.82 168.995 135.016 168.995 135.016" fill="white"/>
<path d="M168.994 135.658C168.81 135.658 168.633 135.585 168.502 135.454C168.371 135.323 168.298 135.145 168.298 134.96C168.298 134.775 168.371 134.597 168.502 134.466C168.633 134.335 168.81 134.261 168.994 134.261C169.618 134.222 170.217 134.004 170.721 133.633C169.692 132.373 168.47 131.284 167.1 130.407C166.954 130.295 166.856 130.131 166.827 129.949C166.798 129.766 166.842 129.58 166.947 129.429C167 129.355 167.067 129.292 167.144 129.244C167.22 129.197 167.306 129.165 167.396 129.15C167.485 129.136 167.576 129.14 167.664 129.161C167.752 129.183 167.835 129.221 167.908 129.275C172.559 132.627 172.086 133.717 171.974 134.08C171.459 135.337 169.454 135.616 169.05 135.658H168.994Z" fill="#093269"/>
<path d="M161.099 129.122C161.178 128.814 161.333 128.532 161.551 128.301C161.768 128.069 162.04 127.897 162.341 127.8C162.643 127.702 162.964 127.682 163.275 127.743C163.586 127.803 163.877 127.941 164.12 128.144" fill="white"/>
<path d="M161.098 129.89C161.02 129.904 160.94 129.904 160.861 129.89C160.688 129.827 160.545 129.698 160.465 129.531C160.384 129.364 160.371 129.172 160.43 128.996C160.561 128.574 160.781 128.185 161.077 127.857C161.373 127.529 161.737 127.27 162.142 127.097C162.547 126.981 162.974 126.966 163.386 127.051C163.798 127.136 164.183 127.319 164.51 127.586C164.586 127.636 164.651 127.701 164.701 127.778C164.751 127.854 164.786 127.939 164.803 128.029C164.82 128.119 164.819 128.211 164.799 128.301C164.78 128.39 164.743 128.474 164.691 128.549C164.639 128.626 164.573 128.691 164.496 128.742C164.418 128.793 164.332 128.828 164.241 128.844C164.151 128.861 164.057 128.86 163.967 128.84C163.877 128.821 163.792 128.784 163.716 128.731C163.561 128.601 163.38 128.506 163.186 128.453C162.991 128.4 162.787 128.39 162.588 128.424C162.391 128.515 162.215 128.647 162.071 128.811C161.927 128.974 161.819 129.166 161.753 129.373C161.71 129.516 161.624 129.643 161.507 129.735C161.39 129.828 161.247 129.882 161.098 129.89Z" fill="#093269"/>
<path d="M166.738 127.376C166.738 127.376 167.003 125.84 169.356 126.915L166.738 127.376Z" fill="white"/>
<path d="M166.738 128.06H166.585C166.41 128.023 166.257 127.919 166.159 127.77C166.06 127.622 166.023 127.44 166.056 127.264C166.107 127.012 166.214 126.775 166.368 126.57C166.522 126.365 166.72 126.196 166.947 126.077C167.383 125.902 167.854 125.83 168.322 125.866C168.79 125.902 169.244 126.046 169.648 126.287C169.814 126.366 169.942 126.506 170.007 126.677C170.072 126.849 170.068 127.039 169.997 127.208C169.96 127.293 169.908 127.369 169.841 127.433C169.775 127.497 169.697 127.546 169.611 127.579C169.525 127.612 169.434 127.626 169.342 127.623C169.25 127.619 169.16 127.597 169.077 127.558C168.144 127.139 167.685 127.25 167.685 127.306C167.638 127.327 167.596 127.357 167.563 127.396C167.529 127.435 167.504 127.48 167.49 127.53C167.445 127.692 167.346 127.833 167.209 127.93C167.072 128.027 166.905 128.073 166.738 128.06Z" fill="#093269"/>
<path d="M169.259 142.893C169.259 142.893 165.165 144.122 162.923 143.563C162.923 143.563 165.903 147.753 170.693 147.642L169.259 142.893Z" fill="#093269"/>
<path d="M170.456 148.34C168.868 148.256 167.317 147.821 165.916 147.065C164.514 146.309 163.297 145.252 162.352 143.968C162.272 143.852 162.229 143.714 162.229 143.572C162.228 143.43 162.271 143.292 162.351 143.175C162.431 143.059 162.545 142.969 162.677 142.919C162.809 142.868 162.953 142.859 163.09 142.893C165.109 143.396 169.008 142.237 169.05 142.223C169.225 142.17 169.414 142.189 169.576 142.275C169.737 142.362 169.859 142.508 169.913 142.683L171.306 147.432C171.335 147.535 171.341 147.644 171.325 147.75C171.308 147.856 171.268 147.957 171.208 148.047C171.143 148.131 171.061 148.2 170.968 148.251C170.874 148.301 170.771 148.331 170.665 148.34H170.456ZM164.608 144.401C166.003 145.777 167.806 146.66 169.746 146.915L168.785 143.745C167.417 144.098 166.018 144.318 164.608 144.401Z" fill="#093269"/>
<path d="M167.712 138.954C165.805 138.954 163.242 138.102 160.652 134.764C160.583 134.694 160.53 134.609 160.496 134.516C160.462 134.423 160.448 134.323 160.455 134.225C160.462 134.126 160.49 134.029 160.537 133.942C160.584 133.855 160.65 133.779 160.728 133.719C160.807 133.659 160.898 133.617 160.994 133.595C161.09 133.572 161.19 133.571 161.287 133.591C161.384 133.61 161.476 133.65 161.556 133.708C161.636 133.766 161.703 133.84 161.753 133.926C166.097 139.639 170.108 137.055 170.108 137.027C170.263 136.925 170.452 136.889 170.635 136.925C170.817 136.962 170.978 137.068 171.082 137.222C171.183 137.376 171.219 137.564 171.183 137.745C171.146 137.925 171.04 138.084 170.887 138.186C169.919 138.729 168.821 138.995 167.712 138.954Z" fill="#093269"/>
<path d="M197.917 207.922C197.779 207.92 197.645 207.872 197.537 207.786C197.429 207.7 197.352 207.581 197.318 207.447C196.315 203.257 191.65 185.631 188.239 172.754C185.774 163.424 184.841 159.89 184.799 159.681C184.785 159.601 184.787 159.519 184.805 159.44C184.823 159.361 184.856 159.286 184.902 159.22C184.949 159.154 185.008 159.098 185.076 159.054C185.145 159.011 185.221 158.982 185.301 158.969C185.379 158.952 185.461 158.952 185.539 158.968C185.618 158.984 185.693 159.016 185.759 159.062C185.825 159.107 185.882 159.166 185.925 159.234C185.968 159.302 185.997 159.378 186.011 159.457C186.011 159.793 187.64 165.659 189.422 172.432C192.834 185.324 197.513 202.978 198.515 207.168C198.553 207.325 198.528 207.491 198.444 207.63C198.361 207.768 198.226 207.868 198.07 207.908L197.917 207.922Z" fill="#093269"/>
<path d="M149.319 234.5C149.209 234.501 149.101 234.475 149.004 234.423C148.907 234.372 148.823 234.298 148.762 234.207C148.656 234.056 148.613 233.87 148.641 233.687C148.67 233.505 148.768 233.341 148.915 233.229C149.942 232.393 150.788 231.354 151.398 230.177C152.009 229 152.373 227.709 152.466 226.386C152.486 226.05 152.561 225.719 152.689 225.408C152.731 225.326 152.789 225.253 152.86 225.194C152.931 225.135 153.013 225.09 153.101 225.063C153.189 225.036 153.282 225.026 153.373 225.035C153.465 225.044 153.554 225.071 153.636 225.115C153.788 225.203 153.902 225.345 153.956 225.512C154.01 225.68 154 225.862 153.928 226.023C153.928 226.148 153.928 226.344 153.83 226.595C153.706 228.111 153.271 229.584 152.552 230.923C151.833 232.261 150.846 233.437 149.653 234.375C149.554 234.445 149.439 234.488 149.319 234.5Z" fill="white"/>
<path d="M182.084 242.601C181.993 242.594 181.903 242.569 181.822 242.527C181.74 242.485 181.667 242.428 181.607 242.357C181.548 242.287 181.503 242.206 181.475 242.119C181.447 242.031 181.436 241.938 181.444 241.847C181.847 236.065 177.767 225.38 177.726 225.268C177.684 225.182 177.662 225.087 177.659 224.991C177.655 224.895 177.672 224.8 177.708 224.71C177.743 224.621 177.796 224.54 177.865 224.472C177.933 224.405 178.014 224.352 178.103 224.317C178.192 224.283 178.288 224.267 178.384 224.271C178.479 224.275 178.573 224.299 178.659 224.341C178.745 224.383 178.822 224.442 178.884 224.515C178.946 224.588 178.993 224.674 179.021 224.765C179.188 225.212 183.198 235.855 182.822 241.944C182.817 242.036 182.793 242.126 182.753 242.209C182.713 242.291 182.658 242.365 182.589 242.426C182.52 242.487 182.441 242.534 182.354 242.564C182.267 242.594 182.176 242.607 182.084 242.601Z" fill="white"/>
<path d="M201.355 220.101C199.019 219.908 196.798 219.001 194.992 217.503C194.91 217.448 194.841 217.377 194.788 217.294C194.736 217.211 194.702 217.118 194.688 217.02C194.674 216.923 194.681 216.824 194.708 216.729C194.735 216.634 194.781 216.547 194.844 216.471C194.908 216.396 194.986 216.335 195.074 216.292C195.162 216.25 195.259 216.226 195.357 216.223C195.455 216.22 195.552 216.238 195.643 216.276C195.734 216.314 195.815 216.37 195.883 216.441C195.883 216.441 199.796 219.682 202.957 218.411C203.128 218.342 203.32 218.345 203.49 218.418C203.66 218.492 203.793 218.63 203.862 218.802C203.93 218.974 203.927 219.166 203.854 219.337C203.781 219.507 203.644 219.641 203.472 219.71C202.798 219.977 202.079 220.11 201.355 220.101Z" fill="white"/>
<path d="M345.076 74.0233C345.076 74.0233 334.214 54.7214 332.432 52.7521C330.649 50.7828 325.831 40.6849 324.94 40.8664C324.049 41.048 325.302 45.7827 327.976 51.8582C327.976 51.8582 322.099 55.4756 322.28 58.1572C322.461 60.8388 325.609 66.9143 330.427 65.1405L338.127 82.4033" fill="white"/>
<path d="M338.127 83.1156C337.993 83.1151 337.863 83.0752 337.751 83.0007C337.64 82.9262 337.553 82.8204 337.501 82.6966L330.037 65.9366C329.308 66.1262 328.546 66.157 327.804 66.0269C327.062 65.8969 326.356 65.6089 325.734 65.1824C324.598 64.367 323.642 63.3265 322.923 62.1253C322.205 60.9241 321.739 59.5878 321.557 58.1991C321.375 55.6013 325.525 52.6124 327.127 51.5928C326.11 49.2045 323.311 42.3609 324.16 40.6988C324.228 40.5664 324.324 40.451 324.442 40.3614C324.56 40.2719 324.697 40.2105 324.843 40.1821C325.678 40.0005 326.235 40.8245 329.41 46.4252C330.46 48.4574 331.651 50.413 332.975 52.2772C334.785 54.2884 345.271 72.878 345.716 73.6741C345.795 73.8343 345.81 74.0187 345.757 74.1893C345.705 74.3599 345.589 74.5038 345.434 74.5915C345.279 74.6791 345.096 74.7038 344.923 74.6605C344.75 74.6171 344.601 74.5091 344.505 74.3585C341.497 69.0093 333.365 54.8052 331.972 53.213C330.563 51.2821 329.311 49.2411 328.227 47.1095C327.349 45.5313 326.235 43.5341 325.442 42.3888C326.179 45.5561 327.248 48.6365 328.63 51.5789C328.695 51.7328 328.702 51.9047 328.651 52.0636C328.6 52.2224 328.494 52.3577 328.352 52.4448C326.221 53.8415 322.879 56.4672 322.977 58.1153C323.145 59.2887 323.543 60.4173 324.148 61.4359C324.752 62.4546 325.552 63.3434 326.5 64.0511C327.036 64.4187 327.654 64.6491 328.3 64.7221C328.946 64.7951 329.599 64.7086 330.204 64.4701C330.371 64.4124 330.553 64.4191 330.715 64.4888C330.877 64.5585 331.008 64.6863 331.081 64.8472L338.782 82.1379C338.853 82.307 338.857 82.4972 338.792 82.669C338.727 82.8408 338.599 82.9807 338.434 83.0597C338.337 83.1004 338.232 83.1195 338.127 83.1156Z" fill="#093269"/>
<path d="M448.386 192.321C448.386 192.321 458.37 197.153 461.113 198.913C463.856 200.673 471.585 199.318 472.323 197.977C473.061 196.637 465.959 195.785 465.959 195.785C465.959 195.785 480.72 189.625 479.564 188.117C478.408 186.609 465.639 189.514 465.639 189.514L453.58 182.949" fill="white"/>
<path d="M465.179 200.436C463.647 200.519 462.119 200.197 460.751 199.5C458.077 197.796 448.219 193.005 448.093 192.949C447.94 192.862 447.826 192.72 447.773 192.551C447.72 192.383 447.733 192.201 447.809 192.041C447.885 191.882 448.018 191.757 448.182 191.693C448.346 191.628 448.528 191.628 448.692 191.692C449.11 191.888 458.746 196.567 461.503 198.313C463.87 199.821 470.304 198.662 471.557 197.796C469.747 197.081 467.842 196.639 465.903 196.483C465.75 196.463 465.607 196.394 465.497 196.286C465.386 196.177 465.314 196.036 465.291 195.882C465.269 195.73 465.299 195.575 465.374 195.441C465.45 195.307 465.567 195.202 465.708 195.142C471.362 192.782 477.67 189.681 478.812 188.438C477.419 188.033 471.153 188.983 465.82 190.198C465.654 190.231 465.482 190.207 465.332 190.128L453.287 183.564C453.205 183.521 453.133 183.463 453.074 183.392C453.015 183.321 452.97 183.239 452.943 183.15C452.916 183.062 452.906 182.969 452.915 182.877C452.924 182.785 452.951 182.696 452.995 182.614C453.086 182.454 453.235 182.335 453.412 182.282C453.589 182.23 453.779 182.249 453.942 182.335L465.764 188.773C470.721 187.656 478.909 186.092 480.135 187.698C480.233 187.822 480.299 187.969 480.328 188.124C480.357 188.28 480.348 188.44 480.302 188.592C479.856 190.282 473.075 193.48 468.521 195.463C470.485 195.827 472.504 196.399 472.949 197.279C473.039 197.434 473.086 197.61 473.086 197.789C473.086 197.968 473.039 198.144 472.949 198.299C472.838 198.522 472.462 199.207 470.095 199.821C468.487 200.226 466.837 200.432 465.179 200.436Z" fill="#093269"/>
<path d="M366.98 212.517C366.98 212.517 359.851 249.682 360.213 254.333C360.575 258.984 398.339 320.465 398.339 320.465L410.454 309.376L385.319 248.257L397.629 212.517H366.98Z" fill="white"/>
<path d="M398.339 321.233H398.256C398.155 321.222 398.058 321.187 397.974 321.132C397.889 321.076 397.819 321 397.768 320.912C393.883 314.599 359.893 259.151 359.53 254.473C359.168 249.794 366.019 213.969 366.312 212.461C366.342 212.302 366.426 212.159 366.551 212.056C366.676 211.954 366.833 211.899 366.994 211.902H397.629C397.74 211.904 397.85 211.931 397.949 211.982C398.048 212.033 398.134 212.106 398.2 212.195C398.262 212.287 398.301 212.391 398.316 212.5C398.33 212.609 398.319 212.72 398.284 212.824L386.071 248.327L411.136 309.194C411.192 309.326 411.205 309.472 411.176 309.611C411.146 309.751 411.074 309.879 410.969 309.976L398.855 321.066C398.712 321.188 398.526 321.248 398.339 321.233ZM367.621 213.215C366.73 217.908 360.658 250.087 360.979 254.277C361.215 257.531 383.426 294.711 398.576 319.376L409.716 309.194L384.763 248.523C384.707 248.365 384.707 248.192 384.763 248.034L396.752 213.215H367.621Z" fill="#093269"/>
<path d="M410.454 309.376C410.454 309.376 416.163 314.027 415.453 317.602C414.743 321.177 403.324 351.555 401.193 347.63C399.063 343.706 398.339 320.465 398.339 320.465L410.454 309.376Z" fill="#093269"/>
<path d="M401.681 348.594C401.464 348.591 401.252 348.526 401.07 348.407C400.888 348.289 400.742 348.121 400.651 347.924C398.465 343.901 397.754 321.387 397.727 320.479C397.726 320.391 397.743 320.304 397.777 320.222C397.81 320.141 397.86 320.067 397.922 320.004L410.05 308.929C410.161 308.834 410.302 308.782 410.447 308.782C410.593 308.782 410.733 308.834 410.844 308.929C411.095 309.138 416.818 313.859 416.052 317.756C415.551 320.242 405.664 348.021 401.848 348.608L401.681 348.594ZM398.966 320.661C399.217 328.733 400.108 344.292 401.751 347.267C404.035 346.876 413.949 322.001 414.854 317.406C415.342 314.99 412.167 311.61 410.482 310.13L398.966 320.661Z" fill="#093269"/>
<path d="M388.507 211.846C388.507 211.846 384.957 249.556 385.722 254.123C386.488 258.691 429.99 316.289 429.99 316.289L440.991 304.096L410.147 245.66L418.975 208.899L388.507 211.846Z" fill="white"/>
<path d="M430.06 317.043C429.959 317.036 429.861 317.008 429.772 316.959C429.683 316.911 429.606 316.845 429.545 316.764C425.075 310.856 385.945 258.928 385.152 254.305C384.358 249.682 387.742 213.383 387.937 211.832C387.949 211.67 388.019 211.517 388.134 211.402C388.249 211.287 388.401 211.217 388.563 211.204L419.059 208.271C419.169 208.259 419.281 208.274 419.384 208.314C419.488 208.355 419.58 208.419 419.654 208.502C419.728 208.586 419.78 208.686 419.808 208.794C419.835 208.901 419.836 209.014 419.811 209.123L411.038 245.632L441.757 303.817C441.824 303.944 441.851 304.088 441.833 304.23C441.816 304.373 441.755 304.506 441.659 304.613L430.658 316.806C430.585 316.891 430.492 316.957 430.388 316.998C430.284 317.04 430.171 317.055 430.06 317.043ZM389.176 212.545C388.744 217.293 385.75 249.919 386.475 254.054C387.032 257.28 412.681 292.155 430.101 315.256L440.211 304.082L409.576 246.093C409.515 245.935 409.515 245.761 409.576 245.604L418.182 209.793L389.176 212.545Z" fill="#093269"/>
<path d="M441.06 304.096C441.06 304.096 447.173 308.174 446.811 311.806C446.449 315.437 437.983 346.722 435.476 343.049C432.97 339.376 430.06 316.289 430.06 316.289L441.06 304.096Z" fill="#093269"/>
<path d="M435.951 343.971C435.753 343.966 435.56 343.911 435.39 343.811C435.219 343.71 435.077 343.569 434.976 343.398C432.414 339.613 429.559 317.309 429.406 316.359C429.393 316.271 429.4 316.182 429.426 316.097C429.453 316.012 429.498 315.935 429.559 315.87L440.56 303.677C440.658 303.568 440.793 303.498 440.938 303.481C441.084 303.463 441.231 303.498 441.353 303.579C441.618 303.761 447.773 307.909 447.383 311.862C447.118 314.39 439.933 342.993 436.243 343.985L435.951 343.971ZM430.701 316.485C431.731 324.502 434.099 339.907 435.992 342.714C438.234 342.113 445.74 316.387 446.199 311.736C446.45 309.278 442.969 306.219 441.158 304.906L430.701 316.485Z" fill="#093269"/>
<path d="M372.522 177.055L357.553 263.104C357.553 263.104 390.847 257.517 451.282 257.517C451.282 257.517 429.434 207.475 414.757 181.385L372.522 177.055Z" fill="#093269"/>
<path d="M357.553 263.719C357.39 263.718 357.235 263.652 357.121 263.537C357.05 263.467 356.998 263.381 356.969 263.286C356.94 263.191 356.935 263.09 356.954 262.992L371.923 176.944C371.944 176.79 372.024 176.651 372.147 176.557C372.27 176.463 372.424 176.421 372.578 176.441L414.812 180.729C414.91 180.738 415.004 180.771 415.086 180.824C415.169 180.878 415.237 180.95 415.286 181.036C429.823 206.86 451.63 256.721 451.839 257.224C451.881 257.317 451.898 257.42 451.891 257.522C451.883 257.624 451.85 257.723 451.795 257.809C451.739 257.895 451.663 257.965 451.574 258.015C451.484 258.064 451.384 258.09 451.282 258.09C391.599 258.16 357.984 263.677 357.65 263.677L357.553 263.719ZM373.023 177.726L358.305 262.364C363.875 261.526 396.362 256.987 450.335 256.861C447.383 250.143 427.818 205.883 414.38 181.916L373.023 177.726Z" fill="#093269"/>
<path d="M386.74 111.063C385.125 106.482 385.319 101.454 387.283 97.0124C388.735 93.9064 391.301 91.4629 394.468 90.1687C398.033 88.5765 401.431 90.3782 404.633 92.138C407.231 93.3662 409.589 95.05 411.596 97.1102C412.988 98.7163 413.921 100.658 415.216 102.334C417.142 104.593 419.458 106.486 422.054 107.92C426.68 110.728 431.62 112.978 436.772 114.624C441.131 116.021 445.782 117.055 449.305 119.974C455.32 124.932 456.267 134.457 452.508 141.301C448.748 148.144 441.284 152.334 433.611 153.605C425.939 154.876 418.071 153.605 410.552 151.552C404.369 149.89 398.019 147.6 393.605 142.977C390.171 139.296 388.161 134.506 387.937 129.471C387.742 125.281 391.154 118.968 389.72 115.029C389.33 113.786 387.45 112.487 386.74 111.063Z" fill="white"/>
<path d="M427.387 154.82C421.65 154.698 415.954 153.83 410.44 152.237C404.536 150.658 397.907 148.382 393.159 143.466C389.607 139.66 387.528 134.707 387.296 129.499C387.356 127.345 387.717 125.211 388.369 123.158C389.107 120.281 389.873 117.32 389.121 115.253C388.763 114.589 388.291 113.994 387.728 113.493C387.077 112.86 386.515 112.142 386.057 111.356C386.063 111.329 386.063 111.3 386.057 111.272C384.377 106.524 384.576 101.31 386.614 96.7052C388.137 93.4364 390.832 90.8631 394.161 89.4984C398.047 87.7665 401.709 89.7358 404.926 91.4956C407.635 92.7654 410.093 94.5161 412.18 96.6633C412.952 97.5847 413.65 98.5654 414.269 99.5963C414.77 100.378 415.272 101.175 415.843 101.901C417.709 104.102 419.96 105.943 422.485 107.334C427.063 110.112 431.952 112.339 437.05 113.968L439.237 114.652C442.941 115.77 446.77 116.929 449.82 119.443C455.821 124.387 457.297 134.136 453.19 141.65C449.625 148.158 442.384 152.823 433.792 154.318C431.674 154.659 429.532 154.827 427.387 154.82ZM387.38 110.798C387.77 111.444 388.238 112.04 388.773 112.571C389.457 113.201 390.011 113.961 390.402 114.806C391.307 117.278 390.485 120.393 389.678 123.535C389.075 125.454 388.733 127.446 388.661 129.457C388.879 134.32 390.819 138.946 394.134 142.502C398.618 147.167 405.051 149.36 410.76 150.882C416.469 152.404 425.145 154.318 433.527 152.921C441.688 151.524 448.566 147.097 451.922 140.966C455.724 133.982 454.387 125.044 448.901 120.518C446.116 118.172 442.37 117.055 438.791 115.965L436.591 115.295C431.389 113.622 426.398 111.349 421.719 108.521C419.072 107.032 416.714 105.078 414.757 102.753C414.158 101.971 413.629 101.147 413.113 100.337C412.521 99.3632 411.865 98.43 411.15 97.5432C409.181 95.5405 406.87 93.9085 404.327 92.7247C401.235 91.0487 398.047 89.3168 394.788 90.7693C391.77 91.9932 389.327 94.319 387.951 97.2778C386.041 101.545 385.836 106.384 387.38 110.798Z" fill="#093269"/>
<path d="M406.11 121.845C406.11 121.845 390.388 116.733 382.145 121.552C373.901 126.37 370.114 143.005 370.378 148.633C370.643 154.262 372.523 177.055 372.523 177.055C372.523 177.055 393.619 178.648 414.757 181.343L417.542 163.186C417.542 163.186 416.275 171.259 425.563 181.804C434.851 192.349 453.483 197.894 453.483 197.894L461.239 183.773C461.239 183.773 445.866 176.399 440.644 167.6C435.422 158.801 430.284 130.225 406.11 121.845Z" fill="#5872FF"/>
<path d="M395.93 123.102L345.341 68.0595L333.268 76.5233C333.268 76.5233 361.118 134.96 374.165 151.846L395.93 123.102Z" fill="#5872FF"/>
<path d="M393.535 122.976L392.142 130.435C392.142 130.435 390.75 135.1 396.111 134.736C397.715 134.611 399.272 134.13 400.669 133.328C402.065 132.526 403.267 131.424 404.187 130.099L406.666 115.323C406.411 114.968 406.137 114.628 405.844 114.303C405.246 113.242 404.898 112.057 404.828 110.839C404.826 108.904 404.966 106.972 405.246 105.057C403.512 104.948 401.813 104.522 400.233 103.8C398.631 102.948 396.487 98.9258 396.487 98.9258C395.721 101.719 388.87 104.876 388.87 104.876C388.87 104.876 387.338 114.974 387.324 118.004C387.38 122.166 393.535 122.976 393.535 122.976Z" fill="white"/>
<path d="M395.581 135.393C394.933 135.448 394.28 135.351 393.676 135.108C393.071 134.866 392.532 134.485 392.1 133.996C391.744 133.441 391.514 132.815 391.425 132.161C391.336 131.507 391.39 130.842 391.585 130.211L392.796 123.465C391.098 123.102 386.739 121.817 386.753 117.976C386.753 114.932 388.229 105.169 388.285 104.75C388.303 104.646 388.346 104.548 388.409 104.463C388.471 104.378 388.553 104.309 388.647 104.261C390.485 103.409 395.359 100.755 395.93 98.6745C395.962 98.5535 396.03 98.445 396.124 98.3629C396.218 98.2808 396.335 98.2288 396.459 98.2136C396.587 98.2002 396.715 98.2249 396.829 98.2845C396.943 98.3441 397.037 98.436 397.099 98.5488C397.67 99.6242 399.425 102.543 400.581 103.158C402.085 103.835 403.697 104.242 405.343 104.359C405.431 104.362 405.517 104.383 405.596 104.422C405.676 104.46 405.746 104.515 405.802 104.582C405.908 104.722 405.958 104.896 405.942 105.071C405.662 106.92 405.517 108.788 405.51 110.658C405.57 111.782 405.89 112.877 406.443 113.856L406.666 114.108C407.265 114.806 407.404 114.974 407.348 115.309L404.883 130.085C404.866 130.17 404.832 130.25 404.786 130.323C403.818 131.739 402.544 132.918 401.059 133.771C399.574 134.625 397.916 135.132 396.208 135.253L395.581 135.393ZM389.496 105.309C389.232 107.082 388.02 115.365 388.02 118.004C388.02 121.566 393.59 122.334 393.59 122.348C393.674 122.357 393.754 122.385 393.826 122.428C393.898 122.471 393.96 122.53 394.008 122.599C394.061 122.668 394.1 122.746 394.122 122.831C394.143 122.915 394.147 123.002 394.133 123.088L392.741 130.546C392.593 130.99 392.542 131.459 392.59 131.924C392.638 132.389 392.784 132.838 393.019 133.242C393.416 133.619 393.899 133.894 394.425 134.042C394.952 134.191 395.506 134.208 396.041 134.094C397.521 133.979 398.959 133.545 400.257 132.822C401.555 132.099 402.681 131.104 403.561 129.904C405.301 119.541 405.816 116.468 405.983 115.532L405.621 115.113C405.501 114.981 405.389 114.841 405.287 114.694C404.622 113.553 404.236 112.271 404.159 110.951C404.142 109.19 404.258 107.429 404.507 105.686C402.913 105.536 401.357 105.106 399.912 104.415C398.487 103.311 397.319 101.91 396.487 100.309C394.927 102.557 390.777 104.75 389.496 105.309Z" fill="#093269"/>
<path d="M403.825 113.954C404.079 113.456 404.445 113.025 404.895 112.695C405.345 112.366 405.865 112.146 406.415 112.055C407.054 111.875 407.738 111.95 408.323 112.264C408.625 112.44 408.881 112.688 409.067 112.984C409.254 113.281 409.366 113.618 409.395 113.968C409.403 114.813 409.145 115.639 408.657 116.328C408.396 116.739 408.056 117.092 407.657 117.368C407.257 117.645 406.807 117.838 406.332 117.937C405.857 118.036 405.367 118.038 404.891 117.945C404.415 117.851 403.963 117.662 403.561 117.39" fill="white"/>
<path d="M405.552 118.563C404.719 118.559 403.906 118.311 403.212 117.851C403.141 117.816 403.078 117.766 403.028 117.704C402.978 117.643 402.941 117.571 402.92 117.495C402.9 117.418 402.896 117.337 402.909 117.259C402.922 117.181 402.951 117.106 402.995 117.04C403.039 116.974 403.096 116.918 403.164 116.875C403.231 116.833 403.306 116.806 403.385 116.796C403.464 116.785 403.543 116.792 403.619 116.815C403.695 116.838 403.765 116.877 403.825 116.929C404.52 117.384 405.364 117.549 406.178 117.39C406.581 117.299 406.963 117.129 407.3 116.889C407.637 116.649 407.923 116.345 408.142 115.993C408.566 115.403 408.8 114.696 408.81 113.968C408.789 113.715 408.711 113.469 408.584 113.249C408.456 113.029 408.281 112.841 408.072 112.697C407.611 112.462 407.078 112.412 406.582 112.557C406.117 112.632 405.675 112.813 405.291 113.087C404.907 113.361 404.591 113.719 404.368 114.136C404.341 114.203 404.3 114.265 404.248 114.317C404.197 114.368 404.136 114.409 404.068 114.436C404 114.464 403.928 114.477 403.855 114.476C403.782 114.475 403.71 114.459 403.644 114.429C403.51 114.37 403.404 114.262 403.35 114.126C403.295 113.99 403.296 113.838 403.351 113.703C403.641 113.126 404.059 112.625 404.574 112.237C405.088 111.849 405.685 111.586 406.318 111.468C407.104 111.248 407.944 111.348 408.657 111.747C409.014 111.981 409.313 112.294 409.53 112.662C409.747 113.031 409.877 113.444 409.91 113.87C409.946 114.467 409.86 115.065 409.658 115.627C409.455 116.189 409.14 116.704 408.732 117.139C408.324 117.575 407.831 117.922 407.284 118.16C406.737 118.397 406.148 118.52 405.552 118.521V118.563Z" fill="#093269"/>
<path d="M397.629 108.381C397.629 108.381 394.078 111.887 394.565 112.725C395.053 113.563 396.974 113.479 396.974 113.479" fill="white"/>
<path d="M396.765 114.094C396.111 114.094 394.607 113.996 393.98 113.032C393.799 112.725 393.242 111.775 397.141 107.948C397.258 107.833 397.416 107.769 397.58 107.769C397.744 107.769 397.901 107.833 398.018 107.948C398.077 108.006 398.124 108.074 398.155 108.15C398.187 108.225 398.203 108.306 398.203 108.388C398.203 108.47 398.187 108.551 398.155 108.627C398.124 108.703 398.077 108.771 398.018 108.828C396.822 109.868 395.83 111.124 395.094 112.529C395.657 112.801 396.283 112.912 396.904 112.851C397.067 112.85 397.224 112.912 397.343 113.024C397.462 113.135 397.534 113.288 397.545 113.451C397.549 113.532 397.537 113.613 397.509 113.689C397.482 113.765 397.44 113.834 397.385 113.894C397.331 113.954 397.266 114.002 397.193 114.036C397.12 114.071 397.041 114.09 396.96 114.094H396.765Z" fill="#093269"/>
<path d="M394.217 120.77C393.607 120.76 393.023 120.515 392.588 120.085C391.762 119.391 391.182 118.448 390.931 117.397C390.68 116.346 390.773 115.242 391.195 114.247C391.249 114.13 391.339 114.034 391.452 113.973C391.565 113.913 391.695 113.891 391.822 113.912L398.603 114.708C398.699 114.719 398.791 114.752 398.871 114.806C398.951 114.859 399.017 114.931 399.063 115.016C399.104 115.1 399.125 115.194 399.125 115.288C399.125 115.382 399.104 115.475 399.063 115.56C398.854 116.035 397.03 120.211 394.704 120.714C394.544 120.749 394.381 120.768 394.217 120.77ZM392.1 115.183C391.917 115.902 391.944 116.658 392.179 117.362C392.414 118.066 392.846 118.686 393.423 119.15C393.546 119.29 393.703 119.396 393.879 119.457C394.054 119.519 394.243 119.533 394.426 119.499C395.526 119.261 396.793 117.348 397.559 115.826L392.1 115.183Z" fill="#093269"/>
<path d="M394.663 108.744H394.551C394.472 108.731 394.395 108.702 394.327 108.659C394.259 108.615 394.199 108.559 394.153 108.493C394.106 108.427 394.073 108.352 394.056 108.273C394.038 108.194 394.036 108.112 394.05 108.032C394.088 107.783 394.044 107.528 393.925 107.306C393.892 107.263 393.85 107.227 393.802 107.203C393.754 107.179 393.7 107.166 393.646 107.166C392.894 107.166 392.254 108.074 392.184 108.088C392.14 108.156 392.083 108.214 392.017 108.26C391.95 108.306 391.876 108.338 391.797 108.355C391.718 108.372 391.637 108.373 391.557 108.359C391.478 108.344 391.402 108.314 391.335 108.27C391.267 108.226 391.209 108.169 391.163 108.102C391.117 108.035 391.085 107.96 391.068 107.881C391.051 107.802 391.05 107.72 391.065 107.641C391.08 107.561 391.11 107.485 391.154 107.418C391.435 106.971 391.824 106.602 392.283 106.344C392.742 106.085 393.259 105.946 393.785 105.937C394.006 105.956 394.219 106.02 394.413 106.126C394.608 106.232 394.778 106.377 394.913 106.552C395.232 107.048 395.356 107.645 395.261 108.228C395.239 108.371 395.166 108.501 395.056 108.596C394.947 108.69 394.807 108.743 394.663 108.744Z" fill="#093269"/>
<path d="M402.698 109.862C402.617 109.858 402.538 109.839 402.465 109.804C402.392 109.77 402.327 109.722 402.272 109.662C402.218 109.603 402.176 109.533 402.149 109.457C402.121 109.381 402.109 109.3 402.113 109.219C402.113 109.219 402.113 108.032 401.333 107.823C401.251 107.78 401.161 107.755 401.068 107.751C400.976 107.748 400.884 107.764 400.799 107.8C400.714 107.836 400.637 107.891 400.576 107.96C400.514 108.029 400.468 108.111 400.442 108.2C400.415 108.276 400.374 108.346 400.32 108.405C400.267 108.465 400.201 108.513 400.129 108.547C400.056 108.581 399.977 108.6 399.897 108.602C399.817 108.605 399.737 108.592 399.662 108.563C399.509 108.509 399.383 108.396 399.313 108.25C399.242 108.103 399.233 107.934 399.286 107.781C399.367 107.542 399.495 107.322 399.663 107.135C399.83 106.948 400.034 106.796 400.262 106.69C400.49 106.585 400.737 106.526 400.988 106.519C401.24 106.512 401.489 106.557 401.723 106.649C402.239 106.862 402.674 107.233 402.964 107.711C403.255 108.188 403.386 108.746 403.338 109.303C403.324 109.461 403.249 109.608 403.13 109.712C403.011 109.816 402.856 109.87 402.698 109.862Z" fill="#093269"/>
<path d="M393.535 122.977C394.543 123.188 395.586 123.173 396.588 122.931C397.59 122.689 398.525 122.228 399.328 121.58C398.775 123.035 397.884 124.336 396.729 125.376C395.573 126.416 394.187 127.164 392.686 127.558L393.535 122.977Z" fill="#093269"/>
<path d="M392.685 128.2C392.519 128.197 392.36 128.132 392.239 128.018C392.164 127.946 392.108 127.855 392.076 127.755C392.045 127.655 392.038 127.549 392.058 127.446L392.88 122.865C392.895 122.775 392.93 122.689 392.981 122.614C393.033 122.539 393.1 122.476 393.178 122.43C393.256 122.383 393.343 122.354 393.434 122.345C393.524 122.336 393.616 122.346 393.701 122.376C394.617 122.554 395.56 122.529 396.465 122.302C397.369 122.076 398.213 121.652 398.937 121.063C399.044 120.985 399.174 120.943 399.306 120.943C399.439 120.943 399.568 120.985 399.675 121.063C399.782 121.144 399.86 121.256 399.9 121.383C399.94 121.511 399.94 121.648 399.898 121.775C399.318 123.332 398.372 124.725 397.141 125.836C395.909 126.947 394.428 127.744 392.824 128.158L392.685 128.2ZM394.077 123.731L393.562 126.65C395.322 125.966 396.82 124.738 397.837 123.144C396.656 123.664 395.36 123.866 394.077 123.731Z" fill="#093269"/>
<path d="M371.798 169.22C371.653 169.217 371.513 169.163 371.402 169.07C371.29 168.976 371.214 168.846 371.186 168.703C371.005 167.46 366.785 138.102 377.327 123.787C377.423 123.653 377.568 123.564 377.73 123.537C377.891 123.511 378.057 123.551 378.19 123.647C378.323 123.743 378.412 123.888 378.439 124.051C378.465 124.213 378.425 124.379 378.329 124.513C368.08 138.479 372.369 168.214 372.411 168.508C372.425 168.589 372.423 168.671 372.404 168.751C372.386 168.831 372.351 168.906 372.303 168.973C372.255 169.039 372.195 169.095 372.125 169.138C372.055 169.18 371.977 169.208 371.896 169.22H371.798Z" fill="#093269"/>
<path d="M417.946 200.436H417.751C404.299 197.894 403.171 190.505 402.628 186.958C402.583 186.48 402.476 186.01 402.308 185.561C402.214 185.409 402.181 185.227 402.218 185.051C402.254 184.876 402.355 184.722 402.502 184.619C402.648 184.517 402.828 184.475 403.005 184.503C403.181 184.53 403.34 184.624 403.45 184.765C403.778 185.397 403.968 186.092 404.007 186.804C404.536 190.282 405.524 196.762 418.015 199.123C418.2 199.139 418.37 199.229 418.489 199.372C418.608 199.514 418.665 199.699 418.649 199.884C418.632 200.069 418.543 200.24 418.401 200.359C418.258 200.479 418.075 200.536 417.89 200.519L417.946 200.436Z" fill="white"/>
<path d="M372.258 200.436C372.07 200.435 371.889 200.36 371.757 200.226C371.692 200.162 371.64 200.086 371.605 200.002C371.57 199.918 371.552 199.828 371.552 199.737C371.552 199.646 371.57 199.556 371.605 199.472C371.64 199.388 371.692 199.312 371.757 199.248C375.934 195.058 377.146 183.005 377.159 182.893C377.181 182.708 377.272 182.538 377.414 182.419C377.557 182.299 377.74 182.239 377.925 182.251C378.109 182.272 378.277 182.364 378.394 182.508C378.511 182.651 378.568 182.835 378.552 183.019C378.552 183.536 377.299 195.757 372.731 200.24C372.601 200.359 372.434 200.428 372.258 200.436Z" fill="white"/>
<path d="M423.237 179.583C423.135 179.584 423.034 179.558 422.944 179.509C422.854 179.461 422.777 179.39 422.722 179.304C414.158 166.036 414.019 149.108 414.019 148.941C414.019 148.776 414.083 148.618 414.197 148.501C414.312 148.383 414.467 148.316 414.631 148.312C414.795 148.312 414.952 148.376 415.069 148.491C415.187 148.606 415.254 148.762 415.258 148.927C415.258 149.094 415.383 165.687 423.752 178.62C423.798 178.688 423.83 178.765 423.846 178.846C423.862 178.927 423.862 179.01 423.845 179.091C423.828 179.172 423.795 179.249 423.748 179.316C423.701 179.384 423.641 179.442 423.571 179.486C423.472 179.551 423.356 179.586 423.237 179.583Z" fill="#093269"/>
<path d="M259.854 64.2466C259.67 64.2466 259.493 64.173 259.362 64.0421C259.232 63.9111 259.158 63.7335 259.158 63.5483V47.347C259.158 47.1617 259.232 46.9841 259.362 46.8532C259.493 46.7222 259.67 46.6486 259.854 46.6486C260.039 46.6486 260.216 46.7222 260.347 46.8532C260.477 46.9841 260.551 47.1617 260.551 47.347V63.5204C260.554 63.6144 260.539 63.7082 260.506 63.7962C260.473 63.8842 260.422 63.9645 260.357 64.0323C260.292 64.1001 260.214 64.1541 260.127 64.1909C260.041 64.2278 259.948 64.2467 259.854 64.2466Z" fill="#D5E6FB"/>
<path d="M226.435 131.398C226.25 131.398 226.073 131.325 225.942 131.194C225.812 131.063 225.738 130.885 225.738 130.7V72.04C225.738 71.8548 225.812 71.6772 225.942 71.5462C226.073 71.4152 226.25 71.3417 226.435 71.3417C226.619 71.3417 226.796 71.4152 226.927 71.5462C227.057 71.6772 227.131 71.8548 227.131 72.04V130.7C227.131 130.885 227.057 131.063 226.927 131.194C226.796 131.325 226.619 131.398 226.435 131.398Z" fill="#D5E6FB"/>
<path d="M239.803 141.818C239.618 141.818 239.441 141.744 239.31 141.613C239.18 141.482 239.106 141.304 239.106 141.119V61.6488C239.106 61.4636 239.18 61.286 239.31 61.155C239.441 61.0241 239.618 60.9505 239.803 60.9505C239.986 60.9541 240.161 61.0288 240.291 61.159C240.421 61.2892 240.495 61.4647 240.499 61.6488V141.063C240.505 141.159 240.491 141.255 240.459 141.346C240.426 141.436 240.376 141.519 240.311 141.589C240.246 141.66 240.167 141.716 240.08 141.755C239.993 141.795 239.898 141.816 239.803 141.818Z" fill="#D5E6FB"/>
<path d="M253.171 146.105C252.986 146.105 252.809 146.032 252.679 145.901C252.548 145.77 252.475 145.592 252.475 145.407V57.417C252.475 57.2318 252.548 57.0541 252.679 56.9232C252.809 56.7922 252.986 56.7186 253.171 56.7186C253.354 56.7222 253.529 56.7969 253.659 56.9271C253.789 57.0573 253.864 57.2329 253.867 57.417V145.407C253.864 145.591 253.789 145.767 253.659 145.897C253.529 146.027 253.354 146.102 253.171 146.105Z" fill="#D5E6FB"/>
<path d="M266.525 146.105C266.342 146.102 266.167 146.027 266.037 145.897C265.907 145.767 265.833 145.591 265.829 145.407V57.417C265.833 57.2329 265.907 57.0573 266.037 56.9271C266.167 56.7969 266.342 56.7222 266.525 56.7186C266.71 56.7186 266.887 56.7922 267.018 56.9232C267.148 57.0541 267.222 57.2318 267.222 57.417V145.407C267.222 145.592 267.148 145.77 267.018 145.901C266.887 146.032 266.71 146.105 266.525 146.105Z" fill="#D5E6FB"/>
<path d="M279.893 141.818C279.709 141.814 279.534 141.739 279.404 141.609C279.274 141.479 279.2 141.303 279.196 141.119V61.6488C279.2 61.4647 279.274 61.2892 279.404 61.159C279.534 61.0288 279.709 60.9541 279.893 60.9505C280.077 60.9505 280.254 61.0241 280.385 61.155C280.515 61.286 280.589 61.4636 280.589 61.6488V141.063C280.597 141.16 280.584 141.256 280.553 141.348C280.521 141.439 280.471 141.523 280.406 141.594C280.34 141.665 280.261 141.721 280.173 141.76C280.084 141.798 279.989 141.818 279.893 141.818Z" fill="#D5E6FB"/>
<path d="M293.274 131.398C293.09 131.398 292.913 131.325 292.782 131.194C292.651 131.063 292.578 130.885 292.578 130.7V72.04C292.578 71.8548 292.651 71.6772 292.782 71.5462C292.913 71.4152 293.09 71.3417 293.274 71.3417C293.458 71.3453 293.633 71.42 293.763 71.5502C293.893 71.6804 293.967 71.8559 293.971 72.04V130.7C293.967 130.884 293.893 131.06 293.763 131.19C293.633 131.32 293.458 131.395 293.274 131.398Z" fill="#D5E6FB"/>
<path d="M289.084 68.5623H230.599C230.414 68.5623 230.237 68.4887 230.106 68.3578C229.976 68.2268 229.902 68.0492 229.902 67.864C229.902 67.6788 229.976 67.5011 230.106 67.3702C230.237 67.2392 230.414 67.1656 230.599 67.1656H289.084C289.267 67.1692 289.442 67.2439 289.572 67.3741C289.702 67.5043 289.776 67.6799 289.78 67.864C289.78 68.0492 289.706 68.2268 289.576 68.3578C289.445 68.4887 289.268 68.5623 289.084 68.5623Z" fill="#D5E6FB"/>
<path d="M299.471 81.9703H220.238C220.054 81.9703 219.876 81.8968 219.746 81.7658C219.615 81.6348 219.542 81.4572 219.542 81.272C219.542 81.0868 219.615 80.9092 219.746 80.7782C219.876 80.6472 220.054 80.5737 220.238 80.5737H299.471C299.656 80.5737 299.833 80.6472 299.964 80.7782C300.094 80.9092 300.168 81.0868 300.168 81.272C300.168 81.4572 300.094 81.6348 299.964 81.7658C299.833 81.8968 299.656 81.9703 299.471 81.9703Z" fill="#D5E6FB"/>
<path d="M303.732 95.3783H216.005C215.82 95.3783 215.643 95.3047 215.513 95.1738C215.382 95.0428 215.309 94.8652 215.309 94.68C215.309 94.4948 215.382 94.3171 215.513 94.1862C215.643 94.0552 215.82 93.9816 216.005 93.9816H303.732C303.917 93.9816 304.094 94.0552 304.225 94.1862C304.355 94.3171 304.429 94.4948 304.429 94.68C304.429 94.8652 304.355 95.0428 304.225 95.1738C304.094 95.3047 303.917 95.3783 303.732 95.3783Z" fill="#D5E6FB"/>
<path d="M303.732 108.786H216.005C215.82 108.786 215.643 108.713 215.513 108.582C215.382 108.451 215.309 108.273 215.309 108.088C215.309 107.903 215.382 107.725 215.513 107.594C215.643 107.463 215.82 107.39 216.005 107.39H303.732C303.917 107.39 304.094 107.463 304.225 107.594C304.355 107.725 304.429 107.903 304.429 108.088C304.429 108.273 304.355 108.451 304.225 108.582C304.094 108.713 303.917 108.786 303.732 108.786Z" fill="#D5E6FB"/>
<path d="M299.471 122.194H220.238C220.054 122.194 219.876 122.121 219.746 121.99C219.615 121.859 219.542 121.681 219.542 121.496C219.542 121.311 219.615 121.133 219.746 121.002C219.876 120.871 220.054 120.798 220.238 120.798H299.471C299.656 120.798 299.833 120.871 299.964 121.002C300.094 121.133 300.168 121.311 300.168 121.496C300.168 121.681 300.094 121.859 299.964 121.99C299.833 122.121 299.656 122.194 299.471 122.194Z" fill="#D5E6FB"/>
<path d="M289.084 135.588H230.599C230.414 135.588 230.237 135.515 230.106 135.384C229.976 135.253 229.902 135.075 229.902 134.89C229.902 134.705 229.976 134.527 230.106 134.396C230.237 134.265 230.414 134.192 230.599 134.192H289.084C289.267 134.195 289.442 134.27 289.572 134.4C289.702 134.53 289.776 134.706 289.78 134.89C289.78 135.075 289.706 135.253 289.576 135.384C289.445 135.515 289.268 135.588 289.084 135.588Z" fill="#D5E6FB"/>
<path d="M304.234 101.384C304.237 108.374 302.606 115.267 299.471 121.51C297.79 124.821 295.709 127.912 293.275 130.714C291.97 132.196 290.575 133.596 289.097 134.904C282.734 140.5 274.906 144.149 266.539 145.421C260.152 146.404 253.629 145.971 247.427 144.154C241.225 142.337 235.495 139.18 230.64 134.904C229.159 133.599 227.763 132.2 226.463 130.714C219.374 122.597 215.466 112.174 215.466 101.384C215.466 90.5936 219.374 80.1706 226.463 72.054C227.767 70.572 229.163 69.1726 230.64 67.864C233.429 65.4166 236.511 63.3287 239.817 61.6488C246.031 58.4969 252.898 56.8547 259.862 56.8547C266.826 56.8547 273.692 58.4969 279.907 61.6488C283.214 63.332 286.301 65.4196 289.097 67.864C290.572 69.1762 291.967 70.5753 293.275 72.054C295.709 74.8556 297.79 77.9468 299.471 81.258C302.604 87.4967 304.235 94.3849 304.234 101.37V101.384Z" fill="white"/>
<path d="M259.841 146.65C257.571 146.647 255.304 146.475 253.059 146.133C244.571 144.845 236.627 141.147 230.167 135.477C228.66 134.172 227.236 132.772 225.906 131.287C223.432 128.439 221.318 125.296 219.612 121.929C217.444 117.653 215.977 113.055 215.267 108.311C214.599 103.797 214.599 99.2084 215.267 94.694C215.97 89.9264 217.437 85.3043 219.612 81.0067C221.311 77.6355 223.425 74.4917 225.906 71.649C227.234 70.1396 228.657 68.7168 230.167 67.3892C238.386 60.1775 248.935 56.2026 259.855 56.2026C270.775 56.2026 281.324 60.1775 289.543 67.3892C291.024 68.7191 292.419 70.1419 293.72 71.649C300.922 79.8872 304.892 90.4698 304.892 101.426C304.892 112.382 300.922 122.965 293.72 131.203C292.413 132.683 291.018 134.082 289.543 135.393C283.076 141.065 275.129 144.767 266.636 146.063C264.389 146.429 262.117 146.625 259.841 146.65ZM259.841 57.5985C257.64 57.5955 255.443 57.7636 253.268 58.1013C245.065 59.3597 237.392 62.9459 231.155 68.4367C229.671 69.7385 228.276 71.1383 226.978 72.6267C221.483 78.9032 217.902 86.6305 216.659 94.8895C216.01 99.2602 216.01 103.703 216.659 108.074C217.92 116.299 221.5 123.99 226.978 130.239C228.276 131.728 229.671 133.127 231.155 134.429C233.897 136.838 236.928 138.893 240.179 140.547C244.312 142.645 248.755 144.06 253.338 144.737C257.7 145.393 262.135 145.393 266.497 144.737C274.725 143.478 282.425 139.893 288.693 134.401C290.17 133.092 291.566 131.693 292.871 130.211C298.354 123.929 301.929 116.204 303.175 107.948C303.825 103.578 303.825 99.1345 303.175 94.7638C301.929 86.5086 298.354 78.7835 292.871 72.501C291.569 71.0161 290.174 69.6165 288.693 68.311C282.43 62.8118 274.728 59.2255 266.497 57.9756C264.293 57.6618 262.067 57.5217 259.841 57.5566V57.5985Z" fill="#D5E6FB"/>
<path d="M226.435 131.398C226.25 131.398 226.073 131.325 225.942 131.194C225.812 131.063 225.738 130.885 225.738 130.7V72.04C225.738 71.8548 225.812 71.6772 225.942 71.5462C226.073 71.4152 226.25 71.3417 226.435 71.3417C226.619 71.3417 226.796 71.4152 226.927 71.5462C227.057 71.6772 227.131 71.8548 227.131 72.04V130.7C227.131 130.885 227.057 131.063 226.927 131.194C226.796 131.325 226.619 131.398 226.435 131.398Z" fill="#D5E6FB"/>
<path d="M239.803 141.818C239.618 141.818 239.441 141.744 239.31 141.613C239.18 141.482 239.106 141.304 239.106 141.119V61.6488C239.106 61.4636 239.18 61.286 239.31 61.155C239.441 61.0241 239.618 60.9505 239.803 60.9505C239.986 60.9541 240.161 61.0288 240.291 61.159C240.421 61.2892 240.495 61.4647 240.499 61.6488V141.063C240.505 141.159 240.491 141.255 240.459 141.346C240.426 141.436 240.376 141.519 240.311 141.589C240.246 141.66 240.167 141.716 240.08 141.755C239.993 141.795 239.898 141.816 239.803 141.818Z" fill="#D5E6FB"/>
<path d="M253.171 146.105C252.986 146.105 252.809 146.032 252.679 145.901C252.548 145.77 252.475 145.592 252.475 145.407V57.417C252.475 57.2318 252.548 57.0541 252.679 56.9232C252.809 56.7922 252.986 56.7186 253.171 56.7186C253.354 56.7222 253.529 56.7969 253.659 56.9271C253.789 57.0573 253.864 57.2329 253.867 57.417V145.407C253.864 145.591 253.789 145.767 253.659 145.897C253.529 146.027 253.354 146.102 253.171 146.105Z" fill="#D5E6FB"/>
<path d="M266.525 146.105C266.342 146.102 266.167 146.027 266.037 145.897C265.907 145.767 265.833 145.591 265.829 145.407V57.417C265.833 57.2329 265.907 57.0573 266.037 56.9271C266.167 56.7969 266.342 56.7222 266.525 56.7186C266.71 56.7186 266.887 56.7922 267.018 56.9232C267.148 57.0541 267.222 57.2318 267.222 57.417V145.407C267.222 145.592 267.148 145.77 267.018 145.901C266.887 146.032 266.71 146.105 266.525 146.105Z" fill="#D5E6FB"/>
<path d="M279.893 141.818C279.709 141.814 279.534 141.739 279.404 141.609C279.274 141.479 279.2 141.303 279.196 141.119V61.6488C279.2 61.4647 279.274 61.2892 279.404 61.159C279.534 61.0288 279.709 60.9541 279.893 60.9505C280.077 60.9505 280.254 61.0241 280.385 61.155C280.515 61.286 280.589 61.4636 280.589 61.6488V141.063C280.597 141.16 280.584 141.256 280.553 141.348C280.521 141.439 280.471 141.523 280.406 141.594C280.34 141.665 280.261 141.721 280.173 141.76C280.084 141.798 279.989 141.818 279.893 141.818Z" fill="#D5E6FB"/>
<path d="M293.274 131.398C293.09 131.398 292.913 131.325 292.782 131.194C292.651 131.063 292.578 130.885 292.578 130.7V72.04C292.578 71.8548 292.651 71.6772 292.782 71.5462C292.913 71.4152 293.09 71.3417 293.274 71.3417C293.458 71.3453 293.633 71.42 293.763 71.5502C293.893 71.6804 293.967 71.8559 293.971 72.04V130.7C293.967 130.884 293.893 131.06 293.763 131.19C293.633 131.32 293.458 131.395 293.274 131.398Z" fill="#D5E6FB"/>
<path d="M289.084 68.5623H230.599C230.414 68.5623 230.237 68.4887 230.106 68.3578C229.976 68.2268 229.902 68.0492 229.902 67.864C229.902 67.6788 229.976 67.5011 230.106 67.3702C230.237 67.2392 230.414 67.1656 230.599 67.1656H289.084C289.267 67.1692 289.442 67.2439 289.572 67.3741C289.702 67.5043 289.776 67.6799 289.78 67.864C289.78 68.0492 289.706 68.2268 289.576 68.3578C289.445 68.4887 289.268 68.5623 289.084 68.5623Z" fill="#D5E6FB"/>
<path d="M299.471 81.9703H220.238C220.054 81.9703 219.876 81.8968 219.746 81.7658C219.615 81.6348 219.542 81.4572 219.542 81.272C219.542 81.0868 219.615 80.9092 219.746 80.7782C219.876 80.6472 220.054 80.5737 220.238 80.5737H299.471C299.656 80.5737 299.833 80.6472 299.964 80.7782C300.094 80.9092 300.168 81.0868 300.168 81.272C300.168 81.4572 300.094 81.6348 299.964 81.7658C299.833 81.8968 299.656 81.9703 299.471 81.9703Z" fill="#D5E6FB"/>
<path d="M303.732 95.3783H216.005C215.82 95.3783 215.643 95.3047 215.513 95.1738C215.382 95.0428 215.309 94.8652 215.309 94.68C215.309 94.4948 215.382 94.3171 215.513 94.1862C215.643 94.0552 215.82 93.9816 216.005 93.9816H303.732C303.917 93.9816 304.094 94.0552 304.225 94.1862C304.355 94.3171 304.429 94.4948 304.429 94.68C304.429 94.8652 304.355 95.0428 304.225 95.1738C304.094 95.3047 303.917 95.3783 303.732 95.3783Z" fill="#D5E6FB"/>
<path d="M303.732 108.786H216.005C215.82 108.786 215.643 108.713 215.513 108.582C215.382 108.451 215.309 108.273 215.309 108.088C215.309 107.903 215.382 107.725 215.513 107.594C215.643 107.463 215.82 107.39 216.005 107.39H303.732C303.917 107.39 304.094 107.463 304.225 107.594C304.355 107.725 304.429 107.903 304.429 108.088C304.429 108.273 304.355 108.451 304.225 108.582C304.094 108.713 303.917 108.786 303.732 108.786Z" fill="#D5E6FB"/>
<path d="M299.471 122.194H220.238C220.054 122.194 219.876 122.121 219.746 121.99C219.615 121.859 219.542 121.681 219.542 121.496C219.542 121.311 219.615 121.133 219.746 121.002C219.876 120.871 220.054 120.798 220.238 120.798H299.471C299.656 120.798 299.833 120.871 299.964 121.002C300.094 121.133 300.168 121.311 300.168 121.496C300.168 121.681 300.094 121.859 299.964 121.99C299.833 122.121 299.656 122.194 299.471 122.194Z" fill="#D5E6FB"/>
<path d="M289.084 135.588H230.599C230.414 135.588 230.237 135.515 230.106 135.384C229.976 135.253 229.902 135.075 229.902 134.89C229.902 134.705 229.976 134.527 230.106 134.396C230.237 134.265 230.414 134.192 230.599 134.192H289.084C289.267 134.195 289.442 134.27 289.572 134.4C289.702 134.53 289.776 134.706 289.78 134.89C289.78 135.075 289.706 135.253 289.576 135.384C289.445 135.515 289.268 135.588 289.084 135.588Z" fill="#D5E6FB"/>
<path d="M266.539 94.68H253.171V108.088H266.539V94.68Z" fill="#D5E6FB"/>
<path d="M266.525 108.786H253.171C252.986 108.786 252.809 108.713 252.679 108.582C252.548 108.451 252.475 108.273 252.475 108.088V94.68C252.475 94.4948 252.548 94.3171 252.679 94.1862C252.809 94.0552 252.986 93.9816 253.171 93.9816H266.525C266.71 93.9816 266.887 94.0552 267.017 94.1862C267.148 94.3171 267.221 94.4948 267.221 94.68V108.088C267.221 108.273 267.148 108.451 267.017 108.582C266.887 108.713 266.71 108.786 266.525 108.786ZM253.867 107.39H265.829V95.3783H253.867V107.39Z" fill="#D5E6FB"/>
<path d="M279.907 108.088H266.539V121.496H279.907V108.088Z" fill="#D5E6FB"/>
<path d="M279.893 122.194H266.539C266.354 122.194 266.177 122.121 266.047 121.99C265.916 121.859 265.843 121.681 265.843 121.496V108.088C265.843 107.903 265.916 107.725 266.047 107.594C266.177 107.463 266.354 107.39 266.539 107.39H279.893C280.078 107.39 280.255 107.463 280.385 107.594C280.516 107.725 280.589 107.903 280.589 108.088V121.51C280.586 121.693 280.511 121.867 280.381 121.995C280.25 122.123 280.075 122.194 279.893 122.194ZM267.235 120.798H279.197V108.786H267.235V120.798Z" fill="#D5E6FB"/>
<path d="M239.803 80.8111H226.435V94.2191H239.803V80.8111Z" fill="#D5E6FB"/>
<path d="M239.803 94.9733H226.435C226.25 94.9733 226.073 94.8997 225.942 94.7688C225.812 94.6378 225.738 94.4602 225.738 94.275V80.867C225.738 80.6818 225.812 80.5041 225.942 80.3732C226.073 80.2422 226.25 80.1686 226.435 80.1686H239.803C239.987 80.1686 240.164 80.2422 240.295 80.3732C240.425 80.5041 240.499 80.6818 240.499 80.867V94.275C240.495 94.4591 240.421 94.6346 240.291 94.7648C240.161 94.895 239.986 94.9697 239.803 94.9733ZM227.131 93.5766H239.106V81.5653H227.131V93.5766Z" fill="#D5E6FB"/>
<path d="M279.907 67.864H266.539V81.272H279.907V67.864Z" fill="#D5E6FB"/>
<path d="M279.893 81.9703H266.539C266.354 81.9703 266.177 81.8967 266.047 81.7658C265.916 81.6348 265.843 81.4572 265.843 81.272V67.864C265.843 67.6788 265.916 67.5011 266.047 67.3702C266.177 67.2392 266.354 67.1656 266.539 67.1656H279.893C280.078 67.1656 280.255 67.2392 280.385 67.3702C280.516 67.5011 280.589 67.6788 280.589 67.864V81.272C280.589 81.4572 280.516 81.6348 280.385 81.7658C280.255 81.8967 280.078 81.9703 279.893 81.9703ZM267.235 80.5736H279.197V68.5623H267.235V80.5736Z" fill="#D5E6FB"/>
<path d="M293.274 94.68H279.906V108.088H293.274V94.68Z" fill="#D5E6FB"/>
<path d="M293.261 108.786H279.893C279.708 108.786 279.531 108.713 279.4 108.582C279.27 108.451 279.196 108.273 279.196 108.088V94.68C279.196 94.4948 279.27 94.3171 279.4 94.1862C279.531 94.0552 279.708 93.9816 279.893 93.9816H293.261C293.445 93.9816 293.622 94.0552 293.753 94.1862C293.883 94.3171 293.957 94.4948 293.957 94.68V108.088C293.957 108.273 293.883 108.451 293.753 108.582C293.622 108.713 293.445 108.786 293.261 108.786ZM280.589 107.39H292.564V95.3783H280.589V107.39Z" fill="#D5E6FB"/>
<path d="M253.171 121.496H239.803V134.904H253.171V121.496Z" fill="#D5E6FB"/>
<path d="M253.171 135.588H239.803C239.618 135.588 239.441 135.515 239.31 135.384C239.18 135.253 239.106 135.075 239.106 134.89V121.51C239.106 121.325 239.18 121.147 239.31 121.016C239.441 120.885 239.618 120.812 239.803 120.812H253.171C253.355 120.812 253.532 120.885 253.663 121.016C253.794 121.147 253.867 121.325 253.867 121.51V134.904C253.863 135.087 253.788 135.261 253.658 135.389C253.528 135.517 253.353 135.588 253.171 135.588ZM240.499 134.192H252.474V122.194H240.499V134.192Z" fill="#D5E6FB"/>
<path d="M266.539 48.0453H253.157C252.974 48.0417 252.799 47.967 252.669 47.8368C252.539 47.7066 252.465 47.531 252.461 47.347C252.461 47.1617 252.534 46.9841 252.665 46.8532C252.795 46.7222 252.973 46.6486 253.157 46.6486H266.539C266.724 46.6486 266.901 46.7222 267.031 46.8532C267.162 46.9841 267.235 47.1617 267.235 47.347C267.232 47.531 267.157 47.7066 267.027 47.8368C266.898 47.967 266.723 48.0417 266.539 48.0453Z" fill="#D5E6FB"/>
<path d="M207.789 74.0233C203.601 71.4216 199.252 69.0891 194.77 67.04L207.789 74.0233Z" fill="#D5E6FB"/>
<path d="M207.789 74.6658C207.66 74.6699 207.532 74.6306 207.427 74.5541C203.253 71.9986 198.929 69.6992 194.477 67.6685C194.32 67.5856 194.201 67.4459 194.143 67.2778C194.086 67.1097 194.094 66.9259 194.167 66.7638C194.24 66.6018 194.371 66.4736 194.535 66.4056C194.699 66.3375 194.882 66.3346 195.048 66.3975C199.556 68.4496 203.933 70.782 208.151 73.3809C208.283 73.4592 208.385 73.579 208.442 73.7215C208.499 73.8641 208.508 74.0216 208.467 74.1695C208.426 74.3174 208.337 74.4476 208.214 74.5398C208.092 74.6321 207.943 74.6813 207.789 74.6798V74.6658Z" fill="#D5E6FB"/>
<path d="M200.521 89.9034C195.113 89.9616 189.712 90.3066 184.34 90.9369L200.521 89.9034Z" fill="#D5E6FB"/>
<path d="M184.27 91.6353C184.085 91.6446 183.905 91.5799 183.768 91.4554C183.63 91.331 183.548 91.1571 183.539 90.9719C183.53 90.7867 183.594 90.6054 183.718 90.4678C183.842 90.3303 184.016 90.2479 184.2 90.2386C189.618 89.6049 195.066 89.2599 200.52 89.2051C200.705 89.2051 200.882 89.2787 201.013 89.4096C201.143 89.5406 201.217 89.7182 201.217 89.9034C201.217 90.0886 201.143 90.2663 201.013 90.3972C200.882 90.5282 200.705 90.6018 200.52 90.6018C195.136 90.6591 189.758 91.0041 184.409 91.6353H184.27Z" fill="#D5E6FB"/>
<path d="M312.464 144.443C312.359 144.444 312.256 144.42 312.161 144.374C312.067 144.328 311.985 144.261 311.921 144.178L303.691 133.619C303.628 133.547 303.581 133.464 303.552 133.373C303.523 133.282 303.513 133.186 303.522 133.091C303.531 132.996 303.56 132.905 303.606 132.821C303.652 132.738 303.714 132.665 303.789 132.606C303.865 132.548 303.951 132.506 304.043 132.482C304.135 132.459 304.231 132.454 304.325 132.469C304.419 132.485 304.508 132.519 304.589 132.57C304.669 132.621 304.738 132.688 304.791 132.767L313.007 143.312C313.065 143.383 313.108 143.465 313.134 143.553C313.16 143.641 313.168 143.733 313.158 143.824C313.147 143.916 313.119 144.004 313.074 144.084C313.029 144.164 312.968 144.234 312.895 144.29C312.776 144.394 312.622 144.448 312.464 144.443Z" fill="#D5E6FB"/>
<path d="M315.986 98.3113C315.895 98.3242 315.802 98.3188 315.712 98.2956C315.623 98.2724 315.539 98.2317 315.465 98.1759C315.391 98.1202 315.329 98.0504 315.283 97.9706C315.236 97.8908 315.205 97.8025 315.192 97.7108C315.18 97.6191 315.185 97.5257 315.208 97.4361C315.231 97.3464 315.272 97.2623 315.327 97.1883C315.383 97.1144 315.453 97.0522 315.532 97.0052C315.612 96.9583 315.7 96.9275 315.791 96.9147L325.19 93.9817C325.282 93.9542 325.378 93.945 325.473 93.9547C325.568 93.9643 325.66 93.9927 325.744 94.0381C325.828 94.0835 325.902 94.145 325.963 94.2192C326.023 94.2934 326.068 94.3788 326.096 94.4705C326.123 94.5622 326.132 94.6584 326.123 94.7537C326.113 94.8489 326.085 94.9414 326.039 95.0257C325.994 95.11 325.933 95.1845 325.859 95.245C325.785 95.3055 325.7 95.3508 325.608 95.3783L316.195 98.3113H315.986Z" fill="#D5E6FB"/>
<path d="M223.065 155.351C222.907 155.356 222.753 155.302 222.633 155.198C222.562 155.141 222.502 155.07 222.459 154.989C222.415 154.909 222.387 154.821 222.378 154.729C222.369 154.638 222.379 154.546 222.406 154.459C222.433 154.371 222.477 154.29 222.536 154.22L230.083 144.96C230.203 144.817 230.373 144.727 230.558 144.709C230.743 144.691 230.927 144.746 231.072 144.862C231.143 144.92 231.201 144.992 231.243 145.073C231.286 145.154 231.312 145.242 231.32 145.333C231.327 145.425 231.317 145.516 231.289 145.603C231.26 145.69 231.215 145.771 231.155 145.84L223.608 155.1C223.542 155.18 223.459 155.244 223.365 155.287C223.271 155.33 223.169 155.352 223.065 155.351Z" fill="#D5E6FB"/>
<path d="M204.14 122.418C204 122.42 203.863 122.378 203.748 122.298C203.633 122.218 203.547 122.103 203.5 121.971C203.466 121.885 203.45 121.793 203.452 121.7C203.455 121.608 203.475 121.517 203.513 121.432C203.55 121.348 203.604 121.272 203.671 121.208C203.738 121.145 203.817 121.096 203.904 121.063L212.259 117.893C212.345 117.859 212.436 117.843 212.528 117.845C212.621 117.847 212.711 117.868 212.796 117.905C212.88 117.943 212.956 117.997 213.019 118.064C213.082 118.132 213.131 118.211 213.164 118.298C213.197 118.383 213.213 118.474 213.211 118.565C213.208 118.657 213.188 118.747 213.15 118.83C213.113 118.913 213.059 118.988 212.992 119.05C212.925 119.113 212.846 119.161 212.76 119.192L204.405 122.376C204.32 122.405 204.23 122.419 204.14 122.418Z" fill="#D5E6FB"/>
<path d="M148.26 367.072C170.025 367.072 187.668 363.852 187.668 359.879C187.668 355.907 170.025 352.686 148.26 352.686C126.496 352.686 108.853 355.907 108.853 359.879C108.853 363.852 126.496 367.072 148.26 367.072Z" fill="#D5E6FB"/>
<path d="M414.868 367.072C436.632 367.072 454.275 363.852 454.275 359.879C454.275 355.907 436.632 352.686 414.868 352.686C393.103 352.686 375.46 355.907 375.46 359.879C375.46 363.852 393.103 367.072 414.868 367.072Z" fill="#D5E6FB"/>
</svg>
