<svg width="230" height="132" viewBox="0 0 230 132" fill="none" xmlns="http://www.w3.org/2000/svg">
<path d="M15.1499 113.599H15.1495C6.92157 113.599 0.25 106.877 0.25 98.5661V15.2932C0.25 6.99198 6.92188 0.25 15.1495 0.25H214.788C223.016 0.25 229.699 6.99225 229.75 15.2947V98.5661C229.75 106.877 223.068 113.599 214.84 113.599L214.838 113.599L119.498 114.25L119.452 114.25L119.409 114.267L75.5969 131.305L93.6719 114.181L94.1261 113.751L93.5005 113.75L15.1499 113.599Z" fill="white" stroke="#093269" stroke-width="0.5"/>
<path d="M21.4766 31.2891L24.5234 25.5781H25.9609L22.1484 32.5703V37H20.8047V32.6328L17 25.5781H18.4531L21.4766 31.2891ZM34.7344 32.7109C34.7344 34.1068 34.3828 35.1979 33.6797 35.9844C32.9766 36.7656 32.0052 37.1562 30.7656 37.1562C30 37.1562 29.3203 36.9766 28.7266 36.6172C28.1328 36.2578 27.6745 35.7422 27.3516 35.0703C27.0286 34.3984 26.8672 33.612 26.8672 32.7109C26.8672 31.3151 27.2161 30.2292 27.9141 29.4531C28.612 28.6719 29.5807 28.2812 30.8203 28.2812C32.0182 28.2812 32.9688 28.6797 33.6719 29.4766C34.3802 30.2734 34.7344 31.3516 34.7344 32.7109ZM28.2109 32.7109C28.2109 33.8047 28.4297 34.638 28.8672 35.2109C29.3047 35.7839 29.9479 36.0703 30.7969 36.0703C31.6458 36.0703 32.2891 35.7865 32.7266 35.2188C33.1693 34.6458 33.3906 33.8099 33.3906 32.7109C33.3906 31.6224 33.1693 30.7969 32.7266 30.2344C32.2891 29.6667 31.6406 29.3828 30.7812 29.3828C29.9323 29.3828 29.2917 29.6615 28.8594 30.2188C28.4271 30.776 28.2109 31.6068 28.2109 32.7109ZM38.2344 28.4375V33.9922C38.2344 34.6901 38.3932 35.2109 38.7109 35.5547C39.0286 35.8984 39.526 36.0703 40.2031 36.0703C41.099 36.0703 41.7526 35.8255 42.1641 35.3359C42.5807 34.8464 42.7891 34.0469 42.7891 32.9375V28.4375H44.0859V37H43.0156L42.8281 35.8516H42.7578C42.4922 36.2734 42.1224 36.5964 41.6484 36.8203C41.1797 37.0443 40.6432 37.1562 40.0391 37.1562C38.9974 37.1562 38.2161 36.9089 37.6953 36.4141C37.1797 35.9193 36.9219 35.1276 36.9219 34.0391V28.4375H38.2344ZM56.8281 35.8516H56.7578C56.1589 36.7214 55.263 37.1562 54.0703 37.1562C52.9505 37.1562 52.0781 36.7734 51.4531 36.0078C50.8333 35.2422 50.5234 34.1536 50.5234 32.7422C50.5234 31.3307 50.8359 30.2344 51.4609 29.4531C52.0859 28.6719 52.9557 28.2812 54.0703 28.2812C55.2318 28.2812 56.1224 28.7031 56.7422 29.5469H56.8438L56.7891 28.9297L56.7578 28.3281V24.8438H58.0547V37H57L56.8281 35.8516ZM54.2344 36.0703C55.1198 36.0703 55.7604 35.8307 56.1562 35.3516C56.5573 34.8672 56.7578 34.0885 56.7578 33.0156V32.7422C56.7578 31.5286 56.5547 30.6641 56.1484 30.1484C55.7474 29.6276 55.1042 29.3672 54.2188 29.3672C53.4583 29.3672 52.875 29.6641 52.4688 30.2578C52.0677 30.8464 51.8672 31.6797 51.8672 32.7578C51.8672 33.8516 52.0677 34.6771 52.4688 35.2344C52.8698 35.7917 53.4583 36.0703 54.2344 36.0703ZM68.2031 32.7109C68.2031 34.1068 67.8516 35.1979 67.1484 35.9844C66.4453 36.7656 65.474 37.1562 64.2344 37.1562C63.4688 37.1562 62.7891 36.9766 62.1953 36.6172C61.6016 36.2578 61.1432 35.7422 60.8203 35.0703C60.4974 34.3984 60.3359 33.612 60.3359 32.7109C60.3359 31.3151 60.6849 30.2292 61.3828 29.4531C62.0807 28.6719 63.0495 28.2812 64.2891 28.2812C65.487 28.2812 66.4375 28.6797 67.1406 29.4766C67.849 30.2734 68.2031 31.3516 68.2031 32.7109ZM61.6797 32.7109C61.6797 33.8047 61.8984 34.638 62.3359 35.2109C62.7734 35.7839 63.4167 36.0703 64.2656 36.0703C65.1146 36.0703 65.7578 35.7865 66.1953 35.2188C66.638 34.6458 66.8594 33.8099 66.8594 32.7109C66.8594 31.6224 66.638 30.7969 66.1953 30.2344C65.7578 29.6667 65.1094 29.3828 64.25 29.3828C63.401 29.3828 62.7604 29.6615 62.3281 30.2188C61.8958 30.776 61.6797 31.6068 61.6797 32.7109ZM76.3438 37V31.4609C76.3438 30.763 76.1849 30.2422 75.8672 29.8984C75.5495 29.5547 75.0521 29.3828 74.375 29.3828C73.4792 29.3828 72.8229 29.625 72.4062 30.1094C71.9896 30.5938 71.7812 31.3932 71.7812 32.5078V37H70.4844V28.4375H71.5391L71.75 29.6094H71.8125C72.0781 29.1875 72.4505 28.862 72.9297 28.6328C73.4089 28.3984 73.9427 28.2812 74.5312 28.2812C75.5625 28.2812 76.3385 28.5312 76.8594 29.0312C77.3802 29.526 77.6406 30.3203 77.6406 31.4141V37H76.3438ZM81.3516 25.5781L81.4688 25.75C81.3333 26.2708 81.138 26.8776 80.8828 27.5703C80.6276 28.2578 80.362 28.8984 80.0859 29.4922H79.1328C79.4974 28.0078 79.763 26.7031 79.9297 25.5781H81.3516ZM85.7969 36.0859C86.026 36.0859 86.2474 36.0703 86.4609 36.0391C86.6745 36.0026 86.8438 35.9661 86.9688 35.9297V36.9219C86.8281 36.9896 86.6198 37.0443 86.3438 37.0859C86.0729 37.1328 85.8281 37.1562 85.6094 37.1562C83.9531 37.1562 83.125 36.2839 83.125 34.5391V29.4453H81.8984V28.8203L83.125 28.2812L83.6719 26.4531H84.4219V28.4375H86.9062V29.4453H84.4219V34.4844C84.4219 35 84.5443 35.3958 84.7891 35.6719C85.0339 35.9479 85.3698 36.0859 85.7969 36.0859ZM98.7031 37V31.4609C98.7031 30.763 98.5443 30.2422 98.2266 29.8984C97.9089 29.5547 97.4115 29.3828 96.7344 29.3828C95.8333 29.3828 95.1745 29.6276 94.7578 30.1172C94.3464 30.6068 94.1406 31.4089 94.1406 32.5234V37H92.8438V24.8438H94.1406V28.5234C94.1406 28.9661 94.1198 29.3333 94.0781 29.625H94.1562C94.4115 29.2135 94.7734 28.8906 95.2422 28.6562C95.7161 28.4167 96.2552 28.2969 96.8594 28.2969C97.9062 28.2969 98.6901 28.5469 99.2109 29.0469C99.737 29.5417 100 30.3307 100 31.4141V37H98.7031ZM107.938 37L107.68 35.7812H107.617C107.19 36.3177 106.763 36.6823 106.336 36.875C105.914 37.0625 105.385 37.1562 104.75 37.1562C103.901 37.1562 103.234 36.9375 102.75 36.5C102.271 36.0625 102.031 35.4401 102.031 34.6328C102.031 32.9036 103.414 31.9974 106.18 31.9141L107.633 31.8672V31.3359C107.633 30.6641 107.487 30.1693 107.195 29.8516C106.909 29.5286 106.448 29.3672 105.812 29.3672C105.099 29.3672 104.292 29.5859 103.391 30.0234L102.992 29.0312C103.414 28.8021 103.875 28.6224 104.375 28.4922C104.88 28.362 105.385 28.2969 105.891 28.2969C106.911 28.2969 107.667 28.5234 108.156 28.9766C108.651 29.4297 108.898 30.1562 108.898 31.1562V37H107.938ZM105.008 36.0859C105.815 36.0859 106.448 35.8646 106.906 35.4219C107.37 34.9792 107.602 34.3594 107.602 33.5625V32.7891L106.305 32.8438C105.273 32.8802 104.529 33.0417 104.07 33.3281C103.617 33.6094 103.391 34.0495 103.391 34.6484C103.391 35.1172 103.531 35.474 103.812 35.7188C104.099 35.9635 104.497 36.0859 105.008 36.0859ZM113.453 37L110.203 28.4375H111.594L113.438 33.5156C113.854 34.7031 114.099 35.474 114.172 35.8281H114.234C114.292 35.5521 114.471 34.9818 114.773 34.1172C115.081 33.2474 115.766 31.3542 116.828 28.4375H118.219L114.969 37H113.453ZM123.211 37.1562C121.945 37.1562 120.945 36.7708 120.211 36C119.482 35.2292 119.117 34.1589 119.117 32.7891C119.117 31.4089 119.456 30.3125 120.133 29.5C120.815 28.6875 121.729 28.2812 122.875 28.2812C123.948 28.2812 124.797 28.6354 125.422 29.3438C126.047 30.0469 126.359 30.9766 126.359 32.1328V32.9531H120.461C120.487 33.9583 120.74 34.7214 121.219 35.2422C121.703 35.763 122.383 36.0234 123.258 36.0234C124.18 36.0234 125.091 35.8307 125.992 35.4453V36.6016C125.534 36.7995 125.099 36.9401 124.688 37.0234C124.281 37.112 123.789 37.1562 123.211 37.1562ZM122.859 29.3672C122.172 29.3672 121.622 29.5911 121.211 30.0391C120.805 30.487 120.565 31.1068 120.492 31.8984H124.969C124.969 31.0807 124.786 30.4557 124.422 30.0234C124.057 29.5859 123.536 29.3672 122.859 29.3672ZM138 37L137.742 35.7812H137.68C137.253 36.3177 136.826 36.6823 136.398 36.875C135.977 37.0625 135.448 37.1562 134.812 37.1562C133.964 37.1562 133.297 36.9375 132.812 36.5C132.333 36.0625 132.094 35.4401 132.094 34.6328C132.094 32.9036 133.477 31.9974 136.242 31.9141L137.695 31.8672V31.3359C137.695 30.6641 137.549 30.1693 137.258 29.8516C136.971 29.5286 136.51 29.3672 135.875 29.3672C135.161 29.3672 134.354 29.5859 133.453 30.0234L133.055 29.0312C133.477 28.8021 133.938 28.6224 134.438 28.4922C134.943 28.362 135.448 28.2969 135.953 28.2969C136.974 28.2969 137.729 28.5234 138.219 28.9766C138.714 29.4297 138.961 30.1562 138.961 31.1562V37H138ZM135.07 36.0859C135.878 36.0859 136.51 35.8646 136.969 35.4219C137.432 34.9792 137.664 34.3594 137.664 33.5625V32.7891L136.367 32.8438C135.336 32.8802 134.591 33.0417 134.133 33.3281C133.68 33.6094 133.453 34.0495 133.453 34.6484C133.453 35.1172 133.594 35.474 133.875 35.7188C134.161 35.9635 134.56 36.0859 135.07 36.0859ZM147.5 37V31.4609C147.5 30.763 147.341 30.2422 147.023 29.8984C146.706 29.5547 146.208 29.3828 145.531 29.3828C144.635 29.3828 143.979 29.625 143.562 30.1094C143.146 30.5938 142.938 31.3932 142.938 32.5078V37H141.641V28.4375H142.695L142.906 29.6094H142.969C143.234 29.1875 143.607 28.862 144.086 28.6328C144.565 28.3984 145.099 28.2812 145.688 28.2812C146.719 28.2812 147.495 28.5312 148.016 29.0312C148.536 29.526 148.797 30.3203 148.797 31.4141V37H147.5ZM150.109 28.4375H151.5L153.375 33.3203C153.786 34.4349 154.042 35.2396 154.141 35.7344H154.203C154.271 35.4688 154.411 35.0156 154.625 34.375C154.844 33.7292 155.552 31.75 156.75 28.4375H158.141L154.461 38.1875C154.096 39.151 153.669 39.8333 153.18 40.2344C152.695 40.6406 152.099 40.8438 151.391 40.8438C150.995 40.8438 150.604 40.7995 150.219 40.7109V39.6719C150.505 39.7344 150.826 39.7656 151.18 39.7656C152.07 39.7656 152.706 39.2656 153.086 38.2656L153.562 37.0469L150.109 28.4375ZM167.109 37.1562C165.87 37.1562 164.909 36.776 164.227 36.0156C163.549 35.25 163.211 34.1693 163.211 32.7734C163.211 31.3411 163.555 30.2344 164.242 29.4531C164.935 28.6719 165.919 28.2812 167.195 28.2812C167.607 28.2812 168.018 28.3255 168.43 28.4141C168.841 28.5026 169.164 28.6068 169.398 28.7266L169 29.8281C168.714 29.7135 168.401 29.6198 168.062 29.5469C167.724 29.4688 167.424 29.4297 167.164 29.4297C165.424 29.4297 164.555 30.5391 164.555 32.7578C164.555 33.8099 164.766 34.6172 165.188 35.1797C165.615 35.7422 166.245 36.0234 167.078 36.0234C167.792 36.0234 168.523 35.8698 169.273 35.5625V36.7109C168.701 37.0078 167.979 37.1562 167.109 37.1562ZM172.609 37H171.312V24.8438H172.609V37ZM180.625 37L180.367 35.7812H180.305C179.878 36.3177 179.451 36.6823 179.023 36.875C178.602 37.0625 178.073 37.1562 177.438 37.1562C176.589 37.1562 175.922 36.9375 175.438 36.5C174.958 36.0625 174.719 35.4401 174.719 34.6328C174.719 32.9036 176.102 31.9974 178.867 31.9141L180.32 31.8672V31.3359C180.32 30.6641 180.174 30.1693 179.883 29.8516C179.596 29.5286 179.135 29.3672 178.5 29.3672C177.786 29.3672 176.979 29.5859 176.078 30.0234L175.68 29.0312C176.102 28.8021 176.562 28.6224 177.062 28.4922C177.568 28.362 178.073 28.2969 178.578 28.2969C179.599 28.2969 180.354 28.5234 180.844 28.9766C181.339 29.4297 181.586 30.1562 181.586 31.1562V37H180.625ZM177.695 36.0859C178.503 36.0859 179.135 35.8646 179.594 35.4219C180.057 34.9792 180.289 34.3594 180.289 33.5625V32.7891L178.992 32.8438C177.961 32.8802 177.216 33.0417 176.758 33.3281C176.305 33.6094 176.078 34.0495 176.078 34.6484C176.078 35.1172 176.219 35.474 176.5 35.7188C176.786 35.9635 177.185 36.0859 177.695 36.0859ZM189.789 34.6641C189.789 35.4609 189.492 36.0755 188.898 36.5078C188.305 36.9401 187.471 37.1562 186.398 37.1562C185.263 37.1562 184.378 36.9766 183.742 36.6172V35.4141C184.154 35.6224 184.594 35.7865 185.062 35.9062C185.536 36.026 185.992 36.0859 186.43 36.0859C187.107 36.0859 187.628 35.9792 187.992 35.7656C188.357 35.5469 188.539 35.2161 188.539 34.7734C188.539 34.4401 188.393 34.1562 188.102 33.9219C187.815 33.6823 187.253 33.401 186.414 33.0781C185.617 32.7812 185.049 32.5234 184.711 32.3047C184.378 32.0807 184.128 31.8281 183.961 31.5469C183.799 31.2656 183.719 30.9297 183.719 30.5391C183.719 29.8411 184.003 29.2917 184.57 28.8906C185.138 28.4844 185.917 28.2812 186.906 28.2812C187.828 28.2812 188.729 28.4688 189.609 28.8438L189.148 29.8984C188.289 29.5443 187.51 29.3672 186.812 29.3672C186.198 29.3672 185.734 29.4635 185.422 29.6562C185.109 29.849 184.953 30.1146 184.953 30.4531C184.953 30.6823 185.01 30.8776 185.125 31.0391C185.245 31.2005 185.435 31.3542 185.695 31.5C185.956 31.6458 186.456 31.8568 187.195 32.1328C188.211 32.5026 188.896 32.875 189.25 33.25C189.609 33.625 189.789 34.0964 189.789 34.6641ZM197.43 34.6641C197.43 35.4609 197.133 36.0755 196.539 36.5078C195.945 36.9401 195.112 37.1562 194.039 37.1562C192.904 37.1562 192.018 36.9766 191.383 36.6172V35.4141C191.794 35.6224 192.234 35.7865 192.703 35.9062C193.177 36.026 193.633 36.0859 194.07 36.0859C194.747 36.0859 195.268 35.9792 195.633 35.7656C195.997 35.5469 196.18 35.2161 196.18 34.7734C196.18 34.4401 196.034 34.1562 195.742 33.9219C195.456 33.6823 194.893 33.401 194.055 33.0781C193.258 32.7812 192.69 32.5234 192.352 32.3047C192.018 32.0807 191.768 31.8281 191.602 31.5469C191.44 31.2656 191.359 30.9297 191.359 30.5391C191.359 29.8411 191.643 29.2917 192.211 28.8906C192.779 28.4844 193.557 28.2812 194.547 28.2812C195.469 28.2812 196.37 28.4688 197.25 28.8438L196.789 29.8984C195.93 29.5443 195.151 29.3672 194.453 29.3672C193.839 29.3672 193.375 29.4635 193.062 29.6562C192.75 29.849 192.594 30.1146 192.594 30.4531C192.594 30.6823 192.651 30.8776 192.766 31.0391C192.885 31.2005 193.076 31.3542 193.336 31.5C193.596 31.6458 194.096 31.8568 194.836 32.1328C195.852 32.5026 196.536 32.875 196.891 33.25C197.25 33.625 197.43 34.0964 197.43 34.6641ZM203.164 37.1562C201.898 37.1562 200.898 36.7708 200.164 36C199.435 35.2292 199.07 34.1589 199.07 32.7891C199.07 31.4089 199.409 30.3125 200.086 29.5C200.768 28.6875 201.682 28.2812 202.828 28.2812C203.901 28.2812 204.75 28.6354 205.375 29.3438C206 30.0469 206.312 30.9766 206.312 32.1328V32.9531H200.414C200.44 33.9583 200.693 34.7214 201.172 35.2422C201.656 35.763 202.336 36.0234 203.211 36.0234C204.133 36.0234 205.044 35.8307 205.945 35.4453V36.6016C205.487 36.7995 205.052 36.9401 204.641 37.0234C204.234 37.112 203.742 37.1562 203.164 37.1562ZM202.812 29.3672C202.125 29.3672 201.576 29.5911 201.164 30.0391C200.758 30.487 200.518 31.1068 200.445 31.8984H204.922C204.922 31.0807 204.74 30.4557 204.375 30.0234C204.01 29.5859 203.49 29.3672 202.812 29.3672ZM214.055 34.6641C214.055 35.4609 213.758 36.0755 213.164 36.5078C212.57 36.9401 211.737 37.1562 210.664 37.1562C209.529 37.1562 208.643 36.9766 208.008 36.6172V35.4141C208.419 35.6224 208.859 35.7865 209.328 35.9062C209.802 36.026 210.258 36.0859 210.695 36.0859C211.372 36.0859 211.893 35.9792 212.258 35.7656C212.622 35.5469 212.805 35.2161 212.805 34.7734C212.805 34.4401 212.659 34.1562 212.367 33.9219C212.081 33.6823 211.518 33.401 210.68 33.0781C209.883 32.7812 209.315 32.5234 208.977 32.3047C208.643 32.0807 208.393 31.8281 208.227 31.5469C208.065 31.2656 207.984 30.9297 207.984 30.5391C207.984 29.8411 208.268 29.2917 208.836 28.8906C209.404 28.4844 210.182 28.2812 211.172 28.2812C212.094 28.2812 212.995 28.4688 213.875 28.8438L213.414 29.8984C212.555 29.5443 211.776 29.3672 211.078 29.3672C210.464 29.3672 210 29.4635 209.688 29.6562C209.375 29.849 209.219 30.1146 209.219 30.4531C209.219 30.6823 209.276 30.8776 209.391 31.0391C209.51 31.2005 209.701 31.3542 209.961 31.5C210.221 31.6458 210.721 31.8568 211.461 32.1328C212.477 32.5026 213.161 32.875 213.516 33.25C213.875 33.625 214.055 34.0964 214.055 34.6641ZM17.0156 50.4375H18.4062L20.2812 55.3203C20.6927 56.4349 20.9479 57.2396 21.0469 57.7344H21.1094C21.1771 57.4688 21.3177 57.0156 21.5312 56.375C21.75 55.7292 22.4583 53.75 23.6562 50.4375H25.0469L21.3672 60.1875C21.0026 61.151 20.5755 61.8333 20.0859 62.2344C19.6016 62.6406 19.0052 62.8438 18.2969 62.8438C17.901 62.8438 17.5104 62.7995 17.125 62.7109V61.6719C17.4115 61.7344 17.7318 61.7656 18.0859 61.7656C18.9766 61.7656 19.612 61.2656 19.9922 60.2656L20.4688 59.0469L17.0156 50.4375ZM30.0547 59.1562C28.7891 59.1562 27.7891 58.7708 27.0547 58C26.3255 57.2292 25.9609 56.1589 25.9609 54.7891C25.9609 53.4089 26.2995 52.3125 26.9766 51.5C27.6589 50.6875 28.5729 50.2812 29.7188 50.2812C30.7917 50.2812 31.6406 50.6354 32.2656 51.3438C32.8906 52.0469 33.2031 52.9766 33.2031 54.1328V54.9531H27.3047C27.3307 55.9583 27.5833 56.7214 28.0625 57.2422C28.5469 57.763 29.2266 58.0234 30.1016 58.0234C31.0234 58.0234 31.9349 57.8307 32.8359 57.4453V58.6016C32.3776 58.7995 31.9427 58.9401 31.5312 59.0234C31.125 59.112 30.6328 59.1562 30.0547 59.1562ZM29.7031 51.3672C29.0156 51.3672 28.4661 51.5911 28.0547 52.0391C27.6484 52.487 27.4089 53.1068 27.3359 53.8984H31.8125C31.8125 53.0807 31.6302 52.4557 31.2656 52.0234C30.901 51.5859 30.3802 51.3672 29.7031 51.3672ZM38.1875 58.0859C38.4167 58.0859 38.638 58.0703 38.8516 58.0391C39.0651 58.0026 39.2344 57.9661 39.3594 57.9297V58.9219C39.2188 58.9896 39.0104 59.0443 38.7344 59.0859C38.4635 59.1328 38.2188 59.1562 38 59.1562C36.3438 59.1562 35.5156 58.2839 35.5156 56.5391V51.4453H34.2891V50.8203L35.5156 50.2812L36.0625 48.4531H36.8125V50.4375H39.2969V51.4453H36.8125V56.4844C36.8125 57 36.9349 57.3958 37.1797 57.6719C37.4245 57.9479 37.7604 58.0859 38.1875 58.0859ZM40.8906 58.1719C40.8906 57.8229 40.9688 57.5599 41.125 57.3828C41.2865 57.2005 41.5156 57.1094 41.8125 57.1094C42.1146 57.1094 42.349 57.2005 42.5156 57.3828C42.6875 57.5599 42.7734 57.8229 42.7734 58.1719C42.7734 58.5104 42.6875 58.7708 42.5156 58.9531C42.3438 59.1354 42.1094 59.2266 41.8125 59.2266C41.5469 59.2266 41.3255 59.1458 41.1484 58.9844C40.9766 58.8177 40.8906 58.5469 40.8906 58.1719ZM49.6953 59V47.5781H51.0234V57.7969H56.0625V59H49.6953ZM61.4297 59.1562C60.1641 59.1562 59.1641 58.7708 58.4297 58C57.7005 57.2292 57.3359 56.1589 57.3359 54.7891C57.3359 53.4089 57.6745 52.3125 58.3516 51.5C59.0339 50.6875 59.9479 50.2812 61.0938 50.2812C62.1667 50.2812 63.0156 50.6354 63.6406 51.3438C64.2656 52.0469 64.5781 52.9766 64.5781 54.1328V54.9531H58.6797C58.7057 55.9583 58.9583 56.7214 59.4375 57.2422C59.9219 57.763 60.6016 58.0234 61.4766 58.0234C62.3984 58.0234 63.3099 57.8307 64.2109 57.4453V58.6016C63.7526 58.7995 63.3177 58.9401 62.9062 59.0234C62.5 59.112 62.0078 59.1562 61.4297 59.1562ZM61.0781 51.3672C60.3906 51.3672 59.8411 51.5911 59.4297 52.0391C59.0234 52.487 58.7839 53.1068 58.7109 53.8984H63.1875C63.1875 53.0807 63.0052 52.4557 62.6406 52.0234C62.276 51.5859 61.7552 51.3672 61.0781 51.3672ZM69.5625 58.0859C69.7917 58.0859 70.013 58.0703 70.2266 58.0391C70.4401 58.0026 70.6094 57.9661 70.7344 57.9297V58.9219C70.5938 58.9896 70.3854 59.0443 70.1094 59.0859C69.8385 59.1328 69.5938 59.1562 69.375 59.1562C67.7188 59.1562 66.8906 58.2839 66.8906 56.5391V51.4453H65.6641V50.8203L66.8906 50.2812L67.4375 48.4531H68.1875V50.4375H70.6719V51.4453H68.1875V56.4844C68.1875 57 68.3099 57.3958 68.5547 57.6719C68.7995 57.9479 69.1354 58.0859 69.5625 58.0859ZM73.4922 47.5781L73.6094 47.75C73.474 48.2708 73.2786 48.8776 73.0234 49.5703C72.7682 50.2578 72.5026 50.8984 72.2266 51.4922H71.2734C71.638 50.0078 71.9036 48.7031 72.0703 47.5781H73.4922ZM80.6953 56.6641C80.6953 57.4609 80.3984 58.0755 79.8047 58.5078C79.2109 58.9401 78.3776 59.1562 77.3047 59.1562C76.1693 59.1562 75.2839 58.9766 74.6484 58.6172V57.4141C75.0599 57.6224 75.5 57.7865 75.9688 57.9062C76.4427 58.026 76.8984 58.0859 77.3359 58.0859C78.013 58.0859 78.5339 57.9792 78.8984 57.7656C79.263 57.5469 79.4453 57.2161 79.4453 56.7734C79.4453 56.4401 79.2995 56.1562 79.0078 55.9219C78.7214 55.6823 78.1589 55.401 77.3203 55.0781C76.5234 54.7812 75.9557 54.5234 75.6172 54.3047C75.2839 54.0807 75.0339 53.8281 74.8672 53.5469C74.7057 53.2656 74.625 52.9297 74.625 52.5391C74.625 51.8411 74.9089 51.2917 75.4766 50.8906C76.0443 50.4844 76.8229 50.2812 77.8125 50.2812C78.7344 50.2812 79.6354 50.4688 80.5156 50.8438L80.0547 51.8984C79.1953 51.5443 78.4167 51.3672 77.7188 51.3672C77.1042 51.3672 76.6406 51.4635 76.3281 51.6562C76.0156 51.849 75.8594 52.1146 75.8594 52.4531C75.8594 52.6823 75.9167 52.8776 76.0312 53.0391C76.151 53.2005 76.3411 53.3542 76.6016 53.5C76.862 53.6458 77.362 53.8568 78.1016 54.1328C79.1172 54.5026 79.8021 54.875 80.1562 55.25C80.5156 55.625 80.6953 56.0964 80.6953 56.6641ZM93.9766 50.4375V51.2578L92.3906 51.4453C92.5365 51.6276 92.6667 51.8672 92.7812 52.1641C92.8958 52.4557 92.9531 52.7865 92.9531 53.1562C92.9531 53.9948 92.6667 54.6641 92.0938 55.1641C91.5208 55.6641 90.7344 55.9141 89.7344 55.9141C89.4792 55.9141 89.2396 55.8932 89.0156 55.8516C88.4635 56.1432 88.1875 56.5104 88.1875 56.9531C88.1875 57.1875 88.2839 57.362 88.4766 57.4766C88.6693 57.5859 89 57.6406 89.4688 57.6406H90.9844C91.9115 57.6406 92.6224 57.8359 93.1172 58.2266C93.6172 58.6172 93.8672 59.1849 93.8672 59.9297C93.8672 60.8776 93.487 61.599 92.7266 62.0938C91.9661 62.5938 90.8568 62.8438 89.3984 62.8438C88.2786 62.8438 87.4141 62.6354 86.8047 62.2188C86.2005 61.8021 85.8984 61.2135 85.8984 60.4531C85.8984 59.9323 86.0651 59.4818 86.3984 59.1016C86.7318 58.7214 87.2005 58.4635 87.8047 58.3281C87.5859 58.2292 87.401 58.0755 87.25 57.8672C87.1042 57.6589 87.0312 57.4167 87.0312 57.1406C87.0312 56.8281 87.1146 56.5547 87.2812 56.3203C87.4479 56.0859 87.7109 55.8594 88.0703 55.6406C87.6276 55.4583 87.2656 55.1484 86.9844 54.7109C86.7083 54.2734 86.5703 53.7734 86.5703 53.2109C86.5703 52.2734 86.8516 51.5521 87.4141 51.0469C87.9766 50.5365 88.7734 50.2812 89.8047 50.2812C90.2526 50.2812 90.6562 50.3333 91.0156 50.4375H93.9766ZM87.1484 60.4375C87.1484 60.901 87.3438 61.2526 87.7344 61.4922C88.125 61.7318 88.6849 61.8516 89.4141 61.8516C90.5026 61.8516 91.3073 61.6875 91.8281 61.3594C92.3542 61.0365 92.6172 60.5964 92.6172 60.0391C92.6172 59.5755 92.474 59.2526 92.1875 59.0703C91.901 58.8932 91.362 58.8047 90.5703 58.8047H89.0156C88.4271 58.8047 87.9688 58.9453 87.6406 59.2266C87.3125 59.5078 87.1484 59.9115 87.1484 60.4375ZM87.8516 53.1797C87.8516 53.7786 88.0208 54.2318 88.3594 54.5391C88.6979 54.8464 89.1693 55 89.7734 55C91.0391 55 91.6719 54.3854 91.6719 53.1562C91.6719 51.8698 91.0312 51.2266 89.75 51.2266C89.1406 51.2266 88.6719 51.3906 88.3438 51.7188C88.0156 52.0469 87.8516 52.5339 87.8516 53.1797ZM99.3516 59.1562C98.0859 59.1562 97.0859 58.7708 96.3516 58C95.6224 57.2292 95.2578 56.1589 95.2578 54.7891C95.2578 53.4089 95.5964 52.3125 96.2734 51.5C96.9557 50.6875 97.8698 50.2812 99.0156 50.2812C100.089 50.2812 100.938 50.6354 101.562 51.3438C102.188 52.0469 102.5 52.9766 102.5 54.1328V54.9531H96.6016C96.6276 55.9583 96.8802 56.7214 97.3594 57.2422C97.8438 57.763 98.5234 58.0234 99.3984 58.0234C100.32 58.0234 101.232 57.8307 102.133 57.4453V58.6016C101.674 58.7995 101.24 58.9401 100.828 59.0234C100.422 59.112 99.9297 59.1562 99.3516 59.1562ZM99 51.3672C98.3125 51.3672 97.763 51.5911 97.3516 52.0391C96.9453 52.487 96.7057 53.1068 96.6328 53.8984H101.109C101.109 53.0807 100.927 52.4557 100.562 52.0234C100.198 51.5859 99.6771 51.3672 99 51.3672ZM107.484 58.0859C107.714 58.0859 107.935 58.0703 108.148 58.0391C108.362 58.0026 108.531 57.9661 108.656 57.9297V58.9219C108.516 58.9896 108.307 59.0443 108.031 59.0859C107.76 59.1328 107.516 59.1562 107.297 59.1562C105.641 59.1562 104.812 58.2839 104.812 56.5391V51.4453H103.586V50.8203L104.812 50.2812L105.359 48.4531H106.109V50.4375H108.594V51.4453H106.109V56.4844C106.109 57 106.232 57.3958 106.477 57.6719C106.721 57.9479 107.057 58.0859 107.484 58.0859ZM120.055 56.6641C120.055 57.4609 119.758 58.0755 119.164 58.5078C118.57 58.9401 117.737 59.1562 116.664 59.1562C115.529 59.1562 114.643 58.9766 114.008 58.6172V57.4141C114.419 57.6224 114.859 57.7865 115.328 57.9062C115.802 58.026 116.258 58.0859 116.695 58.0859C117.372 58.0859 117.893 57.9792 118.258 57.7656C118.622 57.5469 118.805 57.2161 118.805 56.7734C118.805 56.4401 118.659 56.1562 118.367 55.9219C118.081 55.6823 117.518 55.401 116.68 55.0781C115.883 54.7812 115.315 54.5234 114.977 54.3047C114.643 54.0807 114.393 53.8281 114.227 53.5469C114.065 53.2656 113.984 52.9297 113.984 52.5391C113.984 51.8411 114.268 51.2917 114.836 50.8906C115.404 50.4844 116.182 50.2812 117.172 50.2812C118.094 50.2812 118.995 50.4688 119.875 50.8438L119.414 51.8984C118.555 51.5443 117.776 51.3672 117.078 51.3672C116.464 51.3672 116 51.4635 115.688 51.6562C115.375 51.849 115.219 52.1146 115.219 52.4531C115.219 52.6823 115.276 52.8776 115.391 53.0391C115.51 53.2005 115.701 53.3542 115.961 53.5C116.221 53.6458 116.721 53.8568 117.461 54.1328C118.477 54.5026 119.161 54.875 119.516 55.25C119.875 55.625 120.055 56.0964 120.055 56.6641ZM124.938 58.0859C125.167 58.0859 125.388 58.0703 125.602 58.0391C125.815 58.0026 125.984 57.9661 126.109 57.9297V58.9219C125.969 58.9896 125.76 59.0443 125.484 59.0859C125.214 59.1328 124.969 59.1562 124.75 59.1562C123.094 59.1562 122.266 58.2839 122.266 56.5391V51.4453H121.039V50.8203L122.266 50.2812L122.812 48.4531H123.562V50.4375H126.047V51.4453H123.562V56.4844C123.562 57 123.685 57.3958 123.93 57.6719C124.174 57.9479 124.51 58.0859 124.938 58.0859ZM133.094 59L132.836 57.7812H132.773C132.346 58.3177 131.919 58.6823 131.492 58.875C131.07 59.0625 130.542 59.1562 129.906 59.1562C129.057 59.1562 128.391 58.9375 127.906 58.5C127.427 58.0625 127.188 57.4401 127.188 56.6328C127.188 54.9036 128.57 53.9974 131.336 53.9141L132.789 53.8672V53.3359C132.789 52.6641 132.643 52.1693 132.352 51.8516C132.065 51.5286 131.604 51.3672 130.969 51.3672C130.255 51.3672 129.448 51.5859 128.547 52.0234L128.148 51.0312C128.57 50.8021 129.031 50.6224 129.531 50.4922C130.036 50.362 130.542 50.2969 131.047 50.2969C132.068 50.2969 132.823 50.5234 133.312 50.9766C133.807 51.4297 134.055 52.1562 134.055 53.1562V59H133.094ZM130.164 58.0859C130.971 58.0859 131.604 57.8646 132.062 57.4219C132.526 56.9792 132.758 56.3594 132.758 55.5625V54.7891L131.461 54.8438C130.43 54.8802 129.685 55.0417 129.227 55.3281C128.773 55.6094 128.547 56.0495 128.547 56.6484C128.547 57.1172 128.688 57.474 128.969 57.7188C129.255 57.9635 129.654 58.0859 130.164 58.0859ZM140.641 50.2812C141.021 50.2812 141.362 50.3125 141.664 50.375L141.484 51.5781C141.13 51.5 140.818 51.4609 140.547 51.4609C139.854 51.4609 139.26 51.7422 138.766 52.3047C138.276 52.8672 138.031 53.5677 138.031 54.4062V59H136.734V50.4375H137.805L137.953 52.0234H138.016C138.333 51.4661 138.716 51.0365 139.164 50.7344C139.612 50.4323 140.104 50.2812 140.641 50.2812ZM146.031 58.0859C146.26 58.0859 146.482 58.0703 146.695 58.0391C146.909 58.0026 147.078 57.9661 147.203 57.9297V58.9219C147.062 58.9896 146.854 59.0443 146.578 59.0859C146.307 59.1328 146.062 59.1562 145.844 59.1562C144.188 59.1562 143.359 58.2839 143.359 56.5391V51.4453H142.133V50.8203L143.359 50.2812L143.906 48.4531H144.656V50.4375H147.141V51.4453H144.656V56.4844C144.656 57 144.779 57.3958 145.023 57.6719C145.268 57.9479 145.604 58.0859 146.031 58.0859ZM152.539 59.1562C151.273 59.1562 150.273 58.7708 149.539 58C148.81 57.2292 148.445 56.1589 148.445 54.7891C148.445 53.4089 148.784 52.3125 149.461 51.5C150.143 50.6875 151.057 50.2812 152.203 50.2812C153.276 50.2812 154.125 50.6354 154.75 51.3438C155.375 52.0469 155.688 52.9766 155.688 54.1328V54.9531H149.789C149.815 55.9583 150.068 56.7214 150.547 57.2422C151.031 57.763 151.711 58.0234 152.586 58.0234C153.508 58.0234 154.419 57.8307 155.32 57.4453V58.6016C154.862 58.7995 154.427 58.9401 154.016 59.0234C153.609 59.112 153.117 59.1562 152.539 59.1562ZM152.188 51.3672C151.5 51.3672 150.951 51.5911 150.539 52.0391C150.133 52.487 149.893 53.1068 149.82 53.8984H154.297C154.297 53.0807 154.115 52.4557 153.75 52.0234C153.385 51.5859 152.865 51.3672 152.188 51.3672ZM163.734 57.8516H163.664C163.065 58.7214 162.169 59.1562 160.977 59.1562C159.857 59.1562 158.984 58.7734 158.359 58.0078C157.74 57.2422 157.43 56.1536 157.43 54.7422C157.43 53.3307 157.742 52.2344 158.367 51.4531C158.992 50.6719 159.862 50.2812 160.977 50.2812C162.138 50.2812 163.029 50.7031 163.648 51.5469H163.75L163.695 50.9297L163.664 50.3281V46.8438H164.961V59H163.906L163.734 57.8516ZM161.141 58.0703C162.026 58.0703 162.667 57.8307 163.062 57.3516C163.464 56.8672 163.664 56.0885 163.664 55.0156V54.7422C163.664 53.5286 163.461 52.6641 163.055 52.1484C162.654 51.6276 162.01 51.3672 161.125 51.3672C160.365 51.3672 159.781 51.6641 159.375 52.2578C158.974 52.8464 158.773 53.6797 158.773 54.7578C158.773 55.8516 158.974 56.6771 159.375 57.2344C159.776 57.7917 160.365 58.0703 161.141 58.0703ZM168.891 55.8516H168.07L167.672 47.5781H169.289L168.891 55.8516ZM167.531 58.1719C167.531 57.4635 167.844 57.1094 168.469 57.1094C168.771 57.1094 169.003 57.2005 169.164 57.3828C169.331 57.5651 169.414 57.8281 169.414 58.1719C169.414 58.5052 169.331 58.7656 169.164 58.9531C168.997 59.1354 168.766 59.2266 168.469 59.2266C168.198 59.2266 167.974 59.1458 167.797 58.9844C167.62 58.8177 167.531 58.5469 167.531 58.1719Z" fill="#323F4B"/>
<path d="M23.7484 84.996H19.5724L18.7084 87H17.1484L21.0124 78.456H22.2724L26.1484 87H24.6004L23.7484 84.996ZM23.2324 83.796L21.6604 80.136L20.0884 83.796H23.2324ZM27.5724 78.456H30.7164C32.1164 78.456 33.2004 78.828 33.9684 79.572C34.7444 80.316 35.1324 81.364 35.1324 82.716C35.1324 84.076 34.7444 85.132 33.9684 85.884C33.2004 86.628 32.1164 87 30.7164 87H27.5724V78.456ZM30.6204 85.74C32.5884 85.74 33.5724 84.732 33.5724 82.716C33.5724 80.716 32.5884 79.716 30.6204 79.716H29.1204V85.74H30.6204ZM37.2131 78.456H40.3571C41.7571 78.456 42.8411 78.828 43.6091 79.572C44.3851 80.316 44.7731 81.364 44.7731 82.716C44.7731 84.076 44.3851 85.132 43.6091 85.884C42.8411 86.628 41.7571 87 40.3571 87H37.2131V78.456ZM40.2611 85.74C42.2291 85.74 43.2131 84.732 43.2131 82.716C43.2131 80.716 42.2291 79.716 40.2611 79.716H38.7611V85.74H40.2611ZM57.8467 78.456V87H56.6947L52.0867 81.012V87H50.6467V78.456H51.7987L56.3947 84.432V78.456H57.8467ZM60.2053 78.456H65.9173V79.68H61.7173V82.044H65.6653V83.268H61.7173V85.776H65.9173V87H60.2053V78.456ZM80.082 78.456L77.058 87H75.798L73.65 80.856L71.478 87H70.218L67.206 78.456H68.778L70.914 84.828L73.134 78.456H74.238L76.41 84.876L78.594 78.456H80.082ZM89.4523 87.108C88.6123 87.108 87.8763 86.928 87.2443 86.568C86.6203 86.208 86.1403 85.7 85.8043 85.044C85.4683 84.38 85.3003 83.604 85.3003 82.716C85.3003 81.836 85.4683 81.068 85.8043 80.412C86.1403 79.748 86.6203 79.24 87.2443 78.888C87.8763 78.528 88.6123 78.348 89.4523 78.348C90.0283 78.348 90.5683 78.44 91.0723 78.624C91.5843 78.8 92.0083 79.048 92.3443 79.368L91.8403 80.496C91.4563 80.184 91.0723 79.96 90.6883 79.824C90.3123 79.68 89.9083 79.608 89.4763 79.608C88.6523 79.608 88.0123 79.876 87.5563 80.412C87.1083 80.948 86.8843 81.716 86.8843 82.716C86.8843 83.724 87.1083 84.5 87.5563 85.044C88.0043 85.58 88.6443 85.848 89.4763 85.848C89.9083 85.848 90.3123 85.78 90.6883 85.644C91.0723 85.5 91.4563 85.272 91.8403 84.96L92.3443 86.088C92.0083 86.408 91.5843 86.66 91.0723 86.844C90.5683 87.02 90.0283 87.108 89.4523 87.108ZM94.2912 78.456H95.8392V85.728H99.8352V87H94.2912V78.456ZM107.112 84.996H102.936L102.072 87H100.512L104.376 78.456H105.636L109.512 87H107.964L107.112 84.996ZM106.596 83.796L105.024 80.136L103.452 83.796H106.596ZM113.722 87.108C113.066 87.108 112.45 87.02 111.874 86.844C111.306 86.668 110.822 86.416 110.422 86.088L110.95 84.96C111.366 85.272 111.798 85.504 112.246 85.656C112.702 85.8 113.198 85.872 113.734 85.872C114.326 85.872 114.782 85.768 115.102 85.56C115.43 85.352 115.594 85.06 115.594 84.684C115.594 84.364 115.442 84.12 115.138 83.952C114.842 83.776 114.35 83.612 113.662 83.46C112.59 83.228 111.81 82.928 111.322 82.56C110.834 82.192 110.59 81.656 110.59 80.952C110.59 80.448 110.726 80 110.998 79.608C111.27 79.216 111.654 78.908 112.15 78.684C112.654 78.46 113.234 78.348 113.89 78.348C114.49 78.348 115.058 78.44 115.594 78.624C116.138 78.8 116.582 79.048 116.926 79.368L116.41 80.496C115.65 79.888 114.81 79.584 113.89 79.584C113.338 79.584 112.902 79.7 112.582 79.932C112.262 80.156 112.102 80.464 112.102 80.856C112.102 81.192 112.242 81.448 112.522 81.624C112.81 81.8 113.298 81.964 113.986 82.116C114.698 82.284 115.278 82.468 115.726 82.668C116.174 82.86 116.518 83.112 116.758 83.424C116.998 83.728 117.118 84.112 117.118 84.576C117.118 85.088 116.982 85.536 116.71 85.92C116.438 86.296 116.046 86.588 115.534 86.796C115.022 87.004 114.418 87.108 113.722 87.108ZM121.945 87.108C121.289 87.108 120.673 87.02 120.097 86.844C119.529 86.668 119.045 86.416 118.645 86.088L119.173 84.96C119.589 85.272 120.021 85.504 120.469 85.656C120.925 85.8 121.421 85.872 121.957 85.872C122.549 85.872 123.005 85.768 123.325 85.56C123.653 85.352 123.817 85.06 123.817 84.684C123.817 84.364 123.665 84.12 123.361 83.952C123.065 83.776 122.573 83.612 121.885 83.46C120.813 83.228 120.033 82.928 119.545 82.56C119.057 82.192 118.813 81.656 118.813 80.952C118.813 80.448 118.949 80 119.221 79.608C119.493 79.216 119.877 78.908 120.373 78.684C120.877 78.46 121.457 78.348 122.113 78.348C122.713 78.348 123.281 78.44 123.817 78.624C124.361 78.8 124.805 79.048 125.149 79.368L124.633 80.496C123.873 79.888 123.033 79.584 122.113 79.584C121.561 79.584 121.125 79.7 120.805 79.932C120.485 80.156 120.325 80.464 120.325 80.856C120.325 81.192 120.465 81.448 120.745 81.624C121.033 81.8 121.521 81.964 122.209 82.116C122.921 82.284 123.501 82.468 123.949 82.668C124.397 82.86 124.741 83.112 124.981 83.424C125.221 83.728 125.341 84.112 125.341 84.576C125.341 85.088 125.205 85.536 124.933 85.92C124.661 86.296 124.269 86.588 123.757 86.796C123.245 87.004 122.641 87.108 121.945 87.108Z" fill="#5872FF"/>
</svg>
