<svg width="751" height="563" viewBox="0 0 751 563" fill="none" xmlns="http://www.w3.org/2000/svg">
<path d="M230.407 439.759L206.638 467.59C206.638 467.59 160.639 441.786 162.329 436.7C164.019 431.615 193.908 439.29 193.908 439.29L208.741 420.073" fill="white"/>
<path d="M206.638 468.529C206.472 468.532 206.309 468.486 206.168 468.397C192.144 460.534 159.7 441.655 161.446 436.4C163.193 431.145 185.723 436.25 193.552 438.277L208.008 419.51C208.163 419.318 208.387 419.193 208.632 419.162C208.877 419.13 209.124 419.195 209.323 419.341C209.519 419.493 209.647 419.717 209.679 419.963C209.71 420.209 209.643 420.458 209.492 420.655L194.659 439.872C194.548 440.018 194.395 440.127 194.222 440.187C194.048 440.247 193.861 440.255 193.683 440.21C179.658 436.607 164.075 434.467 163.211 437.019C162.798 439.928 185.178 454.472 206.394 466.427L229.694 439.14C229.861 438.982 230.081 438.89 230.312 438.884C230.542 438.877 230.767 438.956 230.943 439.104C231.12 439.253 231.235 439.461 231.268 439.689C231.301 439.917 231.248 440.149 231.12 440.341L207.333 468.172C207.253 468.282 207.149 468.371 207.028 468.433C206.907 468.495 206.774 468.528 206.638 468.529Z" fill="#093269"/>
<path d="M306.896 175.581C304.404 173.144 301.262 171.476 297.847 170.777C294.918 170.345 293.303 171.584 290.863 172.653C289.886 173.085 289.774 174.53 288.741 174.962C287.708 175.393 285.587 174.324 284.404 174.286C281.247 174.109 278.091 174.666 275.186 175.913C272.28 177.161 269.703 179.064 267.657 181.474C265.123 185.018 263.148 188.929 261.799 193.072C254.777 210.787 244.019 228.578 226.539 236.235C242.329 247.495 261.63 254.645 280.987 253.519C290.444 252.957 299.665 250.338 308.004 245.843C314.557 242.296 326.46 234.959 327.643 226.814C328.75 219.176 325.127 207.466 322.724 200.259C319.734 190.774 314.271 182.256 306.896 175.581Z" fill="white"/>
<path d="M277.007 254.532C259.865 254.532 241.916 248.377 225.995 236.967C225.863 236.867 225.759 236.736 225.694 236.584C225.628 236.433 225.602 236.267 225.619 236.103C225.636 235.941 225.694 235.786 225.79 235.654C225.886 235.523 226.015 235.418 226.164 235.353C240.696 229.01 252.073 215.047 260.935 192.715L261.329 191.702C262.651 187.823 264.55 184.167 266.962 180.854C269.097 178.333 271.789 176.342 274.826 175.039C277.863 173.736 281.161 173.157 284.46 173.348C285.099 173.399 285.729 173.525 286.338 173.723C286.994 173.957 287.687 174.072 288.384 174.061C288.591 174.061 288.779 173.648 288.985 173.31C289.275 172.656 289.778 172.12 290.412 171.79C290.881 171.584 291.313 171.358 291.726 171.152C293.581 170.019 295.762 169.536 297.922 169.782C301.518 170.542 304.825 172.306 307.46 174.868C314.947 181.663 320.499 190.321 323.55 199.959C326.216 207.916 329.614 219.345 328.506 226.964C327.342 234.884 316.941 241.977 308.398 246.669C299.936 251.204 290.59 253.848 281.006 254.42C279.691 254.495 278.358 254.532 277.007 254.532ZM228.417 236.46C244.92 247.889 263.507 253.631 280.987 252.618C290.297 252.088 299.378 249.526 307.591 245.111C319.138 238.862 325.934 232.369 326.742 226.776C327.793 219.57 324.47 208.404 321.879 200.653C318.93 191.325 313.559 182.946 306.314 176.369C303.955 174.048 300.987 172.441 297.753 171.734C295.963 171.535 294.16 171.959 292.646 172.935C292.214 173.141 291.764 173.366 291.276 173.573C291.018 173.774 290.817 174.04 290.694 174.342C290.368 175.049 289.793 175.61 289.079 175.919C288.026 176.111 286.941 176.007 285.944 175.618C285.446 175.47 284.938 175.363 284.423 175.299C281.408 175.102 278.388 175.607 275.602 176.777C272.816 177.946 270.34 179.747 268.37 182.037C266.092 185.196 264.306 188.682 263.076 192.377L262.663 193.391C253.913 215.46 242.705 229.535 228.417 236.46Z" fill="#093269"/>
<path d="M274.284 235.39C277.401 232.106 266.117 234.659 265.066 256.203C264.258 272.642 269.572 299.497 269.572 299.497L234.237 329.036L256.072 335.267C256.072 335.267 295.894 306.328 295.875 304.208C295.857 302.087 274.284 235.39 274.284 235.39Z" fill="white"/>
<path d="M256.072 336.13C255.992 336.148 255.909 336.148 255.828 336.13L233.993 329.899C233.844 329.853 233.709 329.768 233.604 329.652C233.498 329.537 233.425 329.395 233.392 329.242C233.366 329.091 233.38 328.934 233.432 328.79C233.485 328.645 233.575 328.516 233.693 328.417L268.633 299.216C267.919 295.462 263.451 271.328 264.202 256.203C264.972 240.607 271.149 234.133 274.021 233.457C274.293 233.357 274.59 233.351 274.866 233.439C275.142 233.528 275.38 233.706 275.542 233.945C275.666 234.221 275.704 234.529 275.651 234.827C275.597 235.125 275.455 235.4 275.242 235.615C279.166 247.72 296.645 302.143 296.739 304.208C296.833 306.272 274.904 322.637 256.579 335.961C256.433 336.069 256.255 336.128 256.072 336.13ZM236.021 328.623L255.903 334.253C270.417 323.706 293.322 306.554 294.993 304.02C294.411 300.848 281.851 261.607 273.458 235.578C271.261 237.211 266.586 242.803 265.948 256.221C265.16 272.379 270.398 299.047 270.454 299.385C270.481 299.537 270.467 299.693 270.414 299.838C270.361 299.982 270.272 300.111 270.154 300.21L236.021 328.623Z" fill="#093269"/>
<path d="M366.394 488.421C479.096 488.421 570.46 482.616 570.46 475.454C570.46 468.292 479.096 462.486 366.394 462.486C253.692 462.486 162.329 468.292 162.329 475.454C162.329 482.616 253.692 488.421 366.394 488.421Z" fill="#D5E6FB"/>
<path d="M336.486 217.543C335.19 216.53 277.758 220.095 267.845 239.256C257.931 258.417 293.604 316.2 293.604 316.2L366.244 294.449C366.244 294.449 371.426 244.867 336.486 217.543Z" fill="#5872FF"/>
<path d="M565.898 386.462C575.285 429.625 544.119 461.022 544.119 461.022H324.658C324.658 461.022 293.529 429.757 302.86 386.462C312.191 343.167 378.335 319.578 398.443 301.824C418.551 284.071 411.379 253.894 379.762 230.811C348.145 207.728 305.338 193.09 306.54 143.227C307.253 111.324 332.412 90.5492 332.412 90.5492H536.44C536.44 90.5492 561.598 111.193 562.312 143.227C563.438 193.09 520.631 207.728 488.995 230.811C457.359 253.894 450.187 284.071 470.314 301.824C490.441 319.578 556.566 343.261 565.898 386.462Z" fill="white"/>
<path d="M544.119 461.885H324.658C324.425 461.883 324.202 461.788 324.038 461.622C323.738 461.303 292.703 429.438 302.034 386.274C308.793 355.009 345.329 333.615 372.008 318.001C382.86 311.658 392.21 306.178 397.88 301.111C401.526 298.047 404.411 294.18 406.31 289.813C408.21 285.447 409.071 280.7 408.826 275.945C408.131 260.932 397.355 244.624 379.255 231.431C373.041 226.889 366.244 222.591 359.673 218.425C332.637 201.329 304.7 183.632 305.601 143.133C306.315 111.23 331.529 90.0237 331.792 89.8173C331.943 89.6847 332.136 89.6113 332.337 89.6108H536.44C536.64 89.6146 536.832 89.6875 536.984 89.8173C537.228 90.0237 562.443 111.155 563.175 143.133C564.077 183.632 536.121 201.31 509.085 218.425C502.532 222.591 495.736 226.889 489.502 231.431C471.422 244.567 460.645 260.857 459.95 275.945C459.702 280.699 460.56 285.445 462.456 289.812C464.351 294.178 467.234 298.046 470.877 301.111C476.51 306.103 485.897 311.583 496.749 318.001C523.429 333.615 559.984 355.009 566.743 386.274C576.13 429.438 545.039 461.341 544.72 461.622C544.643 461.706 544.551 461.772 544.447 461.818C544.344 461.863 544.232 461.886 544.119 461.885ZM325.014 460.159H543.743C546.616 457.1 573.783 426.848 565.072 386.631C558.463 356.098 522.283 334.948 495.886 319.484C484.977 313.103 475.534 307.586 469.751 302.462C465.898 299.227 462.85 295.14 460.85 290.525C458.849 285.91 457.95 280.893 458.223 275.87C458.955 260.256 469.976 243.554 488.488 230.042C494.778 225.463 501.631 221.146 508.183 216.905C534.806 200.015 562.331 182.618 561.448 143.096C560.791 113.538 538.636 93.4392 536.121 91.2623H332.656C330.14 93.4392 307.986 113.538 307.31 143.096C306.427 182.618 333.97 200.053 360.593 216.905C367.183 221.071 373.998 225.388 380.269 230.042C398.781 243.554 409.821 260.256 410.535 275.87C410.8 280.879 409.898 285.881 407.901 290.482C405.904 295.084 402.866 299.159 399.026 302.387C393.224 307.511 383.799 313.028 372.891 319.409C346.474 334.872 310.314 356.022 303.705 386.556C295.012 426.848 322.142 457.1 325.014 460.159Z" fill="#093269"/>
<path d="M369.474 207.785C376.251 212.082 383.273 216.511 389.92 221.372C405.625 232.315 417.456 247.951 423.715 266.036C429.76 283.377 428.07 301.843 431.825 319.765C431.873 320.454 432.08 321.122 432.428 321.717C432.777 322.313 433.258 322.82 433.834 323.2C434.697 323.554 435.649 323.634 436.559 323.429C437.469 323.225 438.294 322.745 438.922 322.055C439.93 320.742 440.53 319.163 440.65 317.513C443.015 303.138 442.903 289.57 443.804 275.007C444.968 256.39 457.641 236.835 478.763 221.447C485.428 216.586 492.431 212.157 499.228 207.86C514.51 198.176 574.328 155.426 534.562 142.627C526.057 139.905 516.576 140.637 507.507 141.426L365.343 153.661C357.101 154.375 348.69 155.125 341.161 157.978C333.632 160.83 327.023 166.198 325.69 172.991C323.25 185.79 358.359 200.803 369.474 207.785Z" fill="#5872FF"/>
<path d="M544.287 382.84C535.968 376.446 525.65 373.207 515.167 373.701C500.636 374.226 486.498 378.974 471.985 378.28C454.693 377.454 438.359 368.896 421.161 370.661C400.978 372.65 386.333 387.945 366.714 392.486C356.293 394.888 344.953 394.119 334.796 397.253C322.818 401.006 317.579 411.084 318.969 421.03C319.401 424.127 327.868 448.448 332.618 448.448H536.083C546.54 448.448 554.426 403.784 553.375 397.591C552.241 391.733 549.011 386.489 544.287 382.84Z" fill="#5872FF"/>
<path d="M540.157 74.5787H328.6C324.183 74.5787 320.602 78.1538 320.602 82.5639C320.602 86.9741 324.183 90.5492 328.6 90.5492H540.157C544.574 90.5492 548.155 86.9741 548.155 82.5639C548.155 78.1538 544.574 74.5787 540.157 74.5787Z" fill="#093269"/>
<path d="M540.176 91.3749H328.563C326.222 91.3749 323.978 90.4456 322.323 88.7915C320.668 87.1374 319.739 84.8939 319.739 82.5546C319.739 80.2153 320.668 77.9718 322.323 76.3177C323.978 74.6635 326.222 73.7343 328.563 73.7343H540.176C542.516 73.7343 544.761 74.6635 546.415 76.3177C548.07 77.9718 549 80.2153 549 82.5546C549 84.8939 548.07 87.1374 546.415 88.7915C544.761 90.4456 542.516 91.3749 540.176 91.3749ZM328.563 75.4045C327.591 75.3548 326.62 75.5031 325.708 75.8404C324.795 76.1778 323.961 76.6971 323.256 77.3668C322.551 78.0365 321.989 78.8426 321.605 79.7361C321.222 80.6295 321.024 81.5917 321.024 82.564C321.024 83.5363 321.222 84.4984 321.605 85.3919C321.989 86.2853 322.551 87.0914 323.256 87.7612C323.961 88.4309 324.795 88.9502 325.708 89.2875C326.62 89.6249 327.591 89.7732 328.563 89.7235H540.176C542.012 89.6295 543.742 88.8342 545.008 87.5018C546.275 86.1694 546.981 84.4018 546.981 82.564C546.981 80.7261 546.275 78.9585 545.008 77.6262C543.742 76.2938 542.012 75.4985 540.176 75.4045H328.563Z" fill="#093269"/>
<path d="M544.25 461.022H324.526C320.109 461.022 316.528 464.597 316.528 469.007C316.528 473.417 320.109 476.992 324.526 476.992H544.25C548.667 476.992 552.248 473.417 552.248 469.007C552.248 464.597 548.667 461.022 544.25 461.022Z" fill="#093269"/>
<path d="M544.25 477.837H324.582C322.242 477.837 319.997 476.908 318.343 475.253C316.688 473.599 315.758 471.356 315.758 469.016C315.758 466.677 316.688 464.434 318.343 462.78C319.997 461.125 322.242 460.196 324.582 460.196H544.25C546.59 460.196 548.835 461.125 550.49 462.78C552.144 464.434 553.074 466.677 553.074 469.016C553.074 471.356 552.144 473.599 550.49 475.253C548.835 476.908 546.59 477.837 544.25 477.837ZM324.582 461.848C322.68 461.848 320.856 462.603 319.511 463.947C318.166 465.292 317.41 467.115 317.41 469.016C317.41 470.918 318.166 472.741 319.511 474.086C320.856 475.43 322.68 476.185 324.582 476.185H544.25C546.152 476.185 547.976 475.43 549.321 474.086C550.666 472.741 551.422 470.918 551.422 469.016C551.422 467.115 550.666 465.292 549.321 463.947C547.976 462.603 546.152 461.848 544.25 461.848H324.582Z" fill="#093269"/>
<path d="M431.149 330.293C425.066 330.293 425.048 350.411 431.149 350.411C437.251 350.411 437.251 330.293 431.149 330.293Z" fill="#5872FF"/>
<path d="M441.795 350.374C439.335 350.374 439.335 357.486 441.795 357.486C444.254 357.486 444.273 350.374 441.795 350.374Z" fill="#5872FF"/>
<path d="M426.756 189.055C398.811 188.816 371.041 184.614 344.277 176.576C344.17 176.544 344.069 176.49 343.983 176.419C343.897 176.347 343.826 176.258 343.775 176.158C343.724 176.058 343.694 175.948 343.687 175.836C343.679 175.724 343.695 175.612 343.733 175.506C343.806 175.29 343.961 175.111 344.165 175.009C344.369 174.907 344.605 174.89 344.822 174.962C345.986 175.356 462.579 213.171 525.062 154.731C525.23 154.581 525.45 154.503 525.675 154.513C525.9 154.523 526.112 154.62 526.266 154.784C526.42 154.948 526.504 155.166 526.5 155.391C526.496 155.616 526.405 155.83 526.245 155.989C498.683 181.755 460.814 189.055 426.756 189.055Z" fill="#093269"/>
<path d="M400.452 415.944C378.516 415.945 356.694 412.785 335.659 406.561C335.544 406.533 335.435 406.48 335.34 406.408C335.246 406.335 335.167 406.244 335.11 406.14C335.052 406.035 335.017 405.92 335.006 405.801C334.995 405.683 335.009 405.563 335.047 405.45C335.085 405.337 335.145 405.233 335.225 405.144C335.305 405.056 335.402 404.985 335.511 404.936C335.62 404.887 335.738 404.861 335.857 404.86C335.976 404.858 336.094 404.882 336.204 404.928C336.823 405.154 400.189 425.891 457.453 404.928L525.362 380.063C525.471 380.009 525.59 379.979 525.712 379.974C525.833 379.969 525.954 379.991 526.067 380.036C526.18 380.081 526.282 380.15 526.366 380.238C526.451 380.325 526.516 380.43 526.557 380.544C526.598 380.658 526.615 380.78 526.606 380.901C526.597 381.022 526.562 381.14 526.504 381.247C526.446 381.354 526.366 381.448 526.27 381.522C526.173 381.596 526.062 381.648 525.944 381.677L458.11 406.505C439.588 412.985 420.075 416.18 400.452 415.944Z" fill="#093269"/>
<path d="M485.221 384.36H485.014C465.451 379.537 431.299 371.336 430.943 371.224C430.737 371.154 430.566 371.01 430.462 370.821C430.358 370.631 430.329 370.409 430.381 370.199C430.433 369.988 430.562 369.805 430.742 369.686C430.923 369.566 431.142 369.519 431.356 369.553C431.694 369.647 465.845 377.829 485.428 382.69C485.538 382.714 485.643 382.76 485.735 382.826C485.828 382.891 485.906 382.975 485.965 383.071C486.025 383.167 486.065 383.274 486.082 383.386C486.099 383.498 486.094 383.612 486.066 383.722C486.016 383.907 485.906 384.07 485.753 384.186C485.6 384.301 485.413 384.363 485.221 384.36Z" fill="#093269"/>
<path d="M308.042 220.79L312.097 233.476C312.097 233.476 312.304 239.801 303.179 240.532C294.054 241.264 290.9 235.86 290.9 235.86L284.216 211.932C284.216 211.932 295.143 200.559 288.835 187.535C291.522 190.138 294.946 191.851 298.64 192.442C302.335 193.033 306.122 192.473 309.487 190.838C311.636 197.043 313.405 203.373 314.782 209.793C315.927 216.68 308.042 220.79 308.042 220.79Z" fill="white"/>
<path d="M301.489 241.527C293.228 241.527 290.224 236.554 290.093 236.329C290.085 236.254 290.085 236.178 290.093 236.104L283.39 212.195C283.35 212.038 283.349 211.873 283.389 211.716C283.428 211.559 283.506 211.414 283.615 211.294C283.728 211.181 294.017 200.203 288.084 187.967C287.992 187.767 287.973 187.54 288.032 187.327C288.09 187.115 288.222 186.929 288.403 186.804C288.585 186.679 288.805 186.621 289.024 186.642C289.244 186.662 289.449 186.759 289.605 186.916C292.151 189.393 295.403 191.021 298.913 191.575C302.423 192.13 306.019 191.584 309.206 190.013C309.323 189.957 309.451 189.929 309.581 189.929C309.711 189.929 309.839 189.957 309.957 190.013C310.083 190.057 310.198 190.131 310.289 190.229C310.381 190.327 310.447 190.446 310.482 190.576C312.666 196.823 314.447 203.205 315.814 209.68C316.847 215.948 311.271 220.002 309.262 221.24L313.017 233.213C313.026 233.295 313.026 233.376 313.017 233.457C313.017 233.457 313.13 240.683 303.235 241.471C302.634 241.508 302.052 241.527 301.489 241.527ZM291.764 235.465C292.214 236.141 295.275 240.213 303.029 239.594C310.783 238.975 311.064 234.433 311.083 233.626L307.084 221.09C307.014 220.88 307.02 220.651 307.103 220.445C307.185 220.238 307.338 220.068 307.535 219.964C307.535 219.964 314.801 216.079 313.787 209.962C312.519 203.922 310.876 197.968 308.868 192.133C305.964 193.384 302.791 193.882 299.643 193.58C296.496 193.278 293.475 192.187 290.862 190.407C293.96 201.066 286.901 210.168 285.23 212.176L291.764 235.465Z" fill="#093269"/>
<path d="M287.99 209.943C287.307 208.887 286.308 208.072 285.136 207.616C284.023 207.248 282.854 207.077 281.682 207.109C281.044 207.044 280.4 207.134 279.804 207.372C279.4 207.57 279.041 207.851 278.753 208.197C277.978 208.933 277.503 209.929 277.42 210.994C277.437 211.856 277.67 212.701 278.096 213.452C278.486 214.299 278.992 215.088 279.598 215.798C280.213 216.498 280.961 217.07 281.799 217.479C282.637 217.888 283.548 218.126 284.479 218.18C285.41 218.234 286.343 218.103 287.223 217.794C288.103 217.485 288.912 217.004 289.605 216.38" fill="white"/>
<path d="M284.874 219.138H284.423C283.351 219.089 282.3 218.824 281.332 218.36C280.364 217.895 279.5 217.241 278.791 216.436C278.133 215.663 277.584 214.804 277.157 213.884C276.672 212.996 276.408 212.005 276.387 210.994C276.48 209.701 277.041 208.487 277.964 207.578C278.344 207.145 278.803 206.788 279.316 206.527C280.05 206.241 280.84 206.126 281.626 206.189C282.901 206.155 284.172 206.346 285.381 206.752C286.746 207.281 287.904 208.235 288.685 209.474C288.753 209.577 288.799 209.694 288.821 209.816C288.843 209.939 288.84 210.064 288.812 210.185C288.783 210.306 288.731 210.42 288.658 210.521C288.584 210.621 288.491 210.705 288.384 210.768C288.172 210.896 287.918 210.936 287.676 210.88C287.434 210.824 287.224 210.676 287.089 210.468C286.521 209.607 285.692 208.949 284.723 208.592C283.704 208.269 282.638 208.117 281.569 208.141C281.075 208.086 280.574 208.144 280.105 208.31C279.814 208.47 279.553 208.679 279.335 208.929C278.736 209.516 278.358 210.292 278.265 211.125C278.291 211.832 278.491 212.522 278.847 213.133C279.199 213.904 279.653 214.624 280.199 215.272C281.289 216.488 282.812 217.229 284.442 217.337C285.247 217.383 286.053 217.269 286.813 217.001C287.574 216.734 288.274 216.319 288.873 215.779C288.96 215.691 289.064 215.621 289.178 215.574C289.293 215.526 289.415 215.502 289.539 215.502C289.663 215.502 289.786 215.526 289.9 215.574C290.015 215.621 290.118 215.691 290.206 215.779C290.293 215.865 290.363 215.967 290.41 216.08C290.457 216.193 290.482 216.314 290.482 216.436C290.482 216.558 290.457 216.679 290.41 216.792C290.363 216.905 290.293 217.007 290.206 217.093C288.741 218.407 286.842 219.136 284.874 219.138Z" fill="#093269"/>
<path d="M300.851 200.522C300.851 200.522 307.629 205.439 307.009 206.959C306.39 208.479 303.254 208.836 303.254 208.836" fill="white"/>
<path d="M303.198 209.736C302.949 209.749 302.705 209.662 302.52 209.495C302.335 209.327 302.225 209.094 302.212 208.845C302.2 208.596 302.287 208.352 302.454 208.168C302.621 207.983 302.855 207.872 303.104 207.86C304.212 207.747 305.883 207.24 306.145 206.602C304.493 204.529 302.522 202.73 300.306 201.272C300.11 201.126 299.978 200.909 299.939 200.667C299.901 200.425 299.958 200.178 300.1 199.978C300.171 199.875 300.262 199.789 300.367 199.723C300.472 199.657 300.59 199.613 300.713 199.593C300.836 199.574 300.961 199.58 301.082 199.61C301.202 199.641 301.315 199.696 301.414 199.771C306.296 203.318 308.474 205.851 307.892 207.278C307.084 209.154 303.93 209.624 303.31 209.68L303.198 209.736Z" fill="#093269"/>
<path d="M296.737 200.609C297.27 200.269 297.315 199.385 296.836 198.633C296.357 197.881 295.537 197.546 295.003 197.886C294.469 198.225 294.425 199.11 294.904 199.862C295.382 200.614 296.203 200.948 296.737 200.609Z" fill="#093269"/>
<path d="M303.959 197.966C304.492 197.627 304.537 196.742 304.058 195.99C303.579 195.238 302.759 194.904 302.225 195.243C301.692 195.583 301.647 196.467 302.126 197.219C302.604 197.971 303.425 198.306 303.959 197.966Z" fill="#093269"/>
<path d="M309.056 210.187C309.056 210.187 299.968 219.814 295.218 210.187H309.056Z" fill="white"/>
<path d="M300.907 215.441C300.589 215.469 300.268 215.469 299.95 215.441C298.684 215.202 297.501 214.641 296.515 213.813C295.528 212.985 294.772 211.917 294.317 210.712C294.212 210.487 294.199 210.231 294.279 209.996C294.36 209.762 294.528 209.568 294.749 209.455C294.86 209.4 294.981 209.368 295.104 209.36C295.227 209.353 295.351 209.369 295.468 209.409C295.585 209.45 295.692 209.512 295.785 209.594C295.878 209.676 295.953 209.775 296.007 209.886C296.332 210.811 296.884 211.638 297.612 212.294C298.34 212.95 299.222 213.413 300.175 213.64C303.93 214.221 308.286 209.755 308.323 209.717C308.411 209.63 308.515 209.56 308.629 209.512C308.743 209.464 308.866 209.44 308.99 209.44C309.114 209.44 309.237 209.464 309.351 209.512C309.465 209.56 309.569 209.63 309.656 209.717C309.83 209.896 309.927 210.135 309.927 210.384C309.927 210.632 309.83 210.871 309.656 211.05C309.563 211.069 305.376 215.441 300.907 215.441Z" fill="#093269"/>
<path d="M308.042 220.79C308.042 220.79 301.414 222.666 297.809 221.859C297.809 221.859 302.597 228.672 310.351 228.465L308.042 220.79Z" fill="#093269"/>
<path d="M310.013 229.404C302.052 229.404 297.246 222.685 297.04 222.385C296.931 222.228 296.873 222.043 296.873 221.852C296.873 221.662 296.931 221.476 297.039 221.319C297.146 221.163 297.3 221.042 297.477 220.975C297.655 220.907 297.85 220.895 298.035 220.94C301.358 221.766 307.723 219.926 307.779 219.908C308.015 219.837 308.27 219.863 308.488 219.979C308.706 220.095 308.869 220.292 308.943 220.527L311.252 228.184C311.297 228.322 311.309 228.469 311.286 228.612C311.263 228.756 311.206 228.892 311.121 229.01C311.036 229.126 310.926 229.222 310.8 229.29C310.673 229.358 310.532 229.397 310.389 229.404H310.013ZM300.062 223.023C302.468 225.507 305.658 227.084 309.093 227.489L307.422 221.859C305.026 222.508 302.562 222.873 300.081 222.948L300.062 223.023Z" fill="#093269"/>
<path d="M366.244 294.524C366.244 294.524 366.244 331.157 361.982 346.62C349.854 390.459 261.292 460.497 261.292 460.497L241.672 441.017L295.613 363.36L230.407 439.684L208.741 419.998L293.604 316.2L366.244 294.524Z" fill="#093269"/>
<path d="M261.292 461.435C261.047 461.432 260.813 461.339 260.635 461.172L241.015 441.767C240.858 441.612 240.76 441.407 240.74 441.187C240.719 440.968 240.777 440.748 240.902 440.566L284.178 378.242L231.12 440.36C231.041 440.459 230.941 440.541 230.828 440.599C230.715 440.657 230.59 440.691 230.463 440.698C230.34 440.707 230.216 440.69 230.099 440.648C229.983 440.606 229.876 440.539 229.787 440.454L208.121 420.767C207.954 420.593 207.862 420.361 207.862 420.12C207.862 419.879 207.954 419.647 208.121 419.473L292.89 315.674C293.007 315.531 293.164 315.426 293.341 315.374L365.981 293.623C366.121 293.587 366.268 293.581 366.411 293.607C366.553 293.633 366.689 293.69 366.807 293.773C366.922 293.863 367.015 293.976 367.08 294.106C367.145 294.236 367.18 294.379 367.183 294.524C367.183 296.025 367.183 331.457 362.883 346.883C357.814 365.218 339.264 390.046 307.741 420.674C284.329 443.438 262.099 461.06 261.874 461.228C261.708 461.36 261.503 461.432 261.292 461.435ZM242.892 441.017L261.348 459.277C269.421 452.783 349.722 387.475 361.081 346.395C364.836 332.827 365.249 302.369 365.305 295.725L294.148 317.157L210.036 420.054L230.332 438.502L294.899 362.91C295.053 362.726 295.272 362.609 295.511 362.585C295.749 362.56 295.988 362.63 296.176 362.778C296.367 362.921 296.494 363.133 296.529 363.368C296.564 363.604 296.505 363.844 296.363 364.036L242.892 441.017Z" fill="#093269"/>
<path d="M241.672 441.017L227.591 456.649C227.591 456.649 204.516 448.899 205.53 453.271C206.544 457.644 236.584 482.04 238.105 482.547C239.626 483.054 261.292 460.421 261.292 460.421" fill="white"/>
<path d="M238.086 483.561H237.823C235.946 482.941 205.737 458.357 204.629 453.534C204.541 453.222 204.542 452.892 204.632 452.58C204.721 452.268 204.896 451.988 205.136 451.77C207.708 449.443 222.033 453.891 227.309 455.523L240.977 440.36C241.148 440.192 241.377 440.096 241.616 440.091C241.855 440.087 242.087 440.173 242.265 440.334C242.442 440.495 242.552 440.717 242.571 440.955C242.59 441.194 242.517 441.431 242.367 441.617L228.285 457.231C228.163 457.367 228.004 457.464 227.827 457.511C227.65 457.558 227.464 457.552 227.29 457.494C217.077 454.059 207.502 452.051 206.394 453.065C207.333 456.818 234.819 479.338 238.217 481.515C240.414 480.276 251.21 469.561 260.616 459.746C260.702 459.658 260.804 459.589 260.917 459.542C261.03 459.494 261.151 459.47 261.273 459.47C261.396 459.47 261.517 459.494 261.63 459.542C261.742 459.589 261.845 459.658 261.93 459.746C262.018 459.833 262.088 459.937 262.136 460.051C262.183 460.165 262.208 460.288 262.208 460.412C262.208 460.536 262.183 460.658 262.136 460.773C262.088 460.887 262.018 460.991 261.93 461.078C242.292 481.722 239.044 483.561 238.086 483.561Z" fill="#093269"/>
<path d="M263.564 448.355C263.441 448.356 263.32 448.33 263.21 448.278C263.099 448.226 263.002 448.149 262.925 448.054C262.853 447.973 262.797 447.877 262.763 447.774C262.728 447.671 262.714 447.561 262.723 447.452C262.732 447.344 262.763 447.238 262.814 447.141C262.864 447.045 262.934 446.96 263.019 446.891C263.751 446.271 335.979 384.642 350.342 349.867C364.573 315.43 357.082 301.693 357.007 301.562C356.897 301.37 356.868 301.143 356.926 300.93C356.985 300.717 357.125 300.536 357.317 300.426C357.508 300.317 357.736 300.288 357.949 300.346C358.162 300.404 358.343 300.544 358.452 300.736C358.772 301.299 366.488 315.168 351.881 350.505C337.274 385.843 264.822 447.529 264.089 448.092C263.953 448.242 263.766 448.336 263.564 448.355Z" fill="white"/>
<path d="M300.851 333.84C300.642 333.836 300.442 333.756 300.287 333.615C300.209 333.54 300.147 333.45 300.104 333.35C300.061 333.25 300.04 333.142 300.04 333.033C300.04 332.925 300.061 332.817 300.104 332.717C300.147 332.617 300.209 332.527 300.287 332.452L318.462 312.634C318.577 312.512 318.726 312.427 318.89 312.391C319.054 312.354 319.225 312.367 319.382 312.428C319.536 312.488 319.67 312.594 319.763 312.731C319.857 312.868 319.907 313.031 319.907 313.197V327.948C319.907 328.167 319.82 328.377 319.665 328.532C319.51 328.686 319.3 328.773 319.081 328.773C318.862 328.773 318.652 328.686 318.497 328.532C318.342 328.377 318.255 328.167 318.255 327.948V315.28L301.508 333.521C301.427 333.618 301.327 333.697 301.214 333.752C301.1 333.807 300.977 333.837 300.851 333.84Z" fill="white"/>
<path d="M282.883 343.618L307.047 316.275H247.117L214.955 348.14L282.883 343.618Z" fill="white"/>
<path d="M214.955 349.06C214.789 349.06 214.626 349.013 214.486 348.923C214.347 348.833 214.236 348.705 214.167 348.553C214.096 348.395 214.074 348.219 214.104 348.049C214.134 347.878 214.215 347.72 214.336 347.596L246.516 315.693C246.679 315.54 246.893 315.453 247.117 315.449H307.047C307.214 315.446 307.378 315.493 307.518 315.583C307.658 315.673 307.769 315.803 307.835 315.956C307.897 316.107 307.918 316.272 307.894 316.433C307.871 316.595 307.806 316.747 307.704 316.875L283.503 344.199C283.353 344.365 283.144 344.466 282.921 344.481L215.012 349.06H214.955ZM247.474 317.157L217.19 347.183L282.47 342.848L305.151 317.157H247.474Z" fill="#093269"/>
<path d="M327.643 226.814C327.643 226.814 342.4 286.023 338.307 287.899C334.214 289.776 283.071 306.103 280.236 307.342C277.401 308.58 270.51 313.572 269.252 316.275C267.994 318.977 266.849 329.693 269.252 328.998C272.767 328.177 276.228 327.143 279.616 325.902C281.494 324.926 284.216 319.277 284.216 319.277C284.216 319.277 283.878 324.738 286.45 323.575C289.022 322.411 293.603 316.275 293.603 316.275C293.603 316.275 358.096 314.079 364.366 301.149C370.637 288.218 367.201 260.294 356.856 238.956C346.511 217.618 328.563 213.752 327.643 226.814Z" fill="white"/>
<path d="M269.046 329.899C268.818 329.896 268.594 329.842 268.389 329.741C268.185 329.641 268.005 329.496 267.863 329.317C266.117 327.272 267.413 318.189 268.483 315.899C269.853 312.953 276.875 307.905 279.898 306.516C281.175 305.953 291.482 302.575 303.442 298.653C318.462 293.717 335.697 288.106 337.95 287.055C339.828 284.822 333.726 254.739 326.798 227.002C326.789 226.908 326.789 226.814 326.798 226.72C327.117 222.235 329.408 219.213 333.087 218.557C339.846 217.262 350.417 223.699 357.626 238.543C368.122 260.162 371.501 288.406 365.136 301.486C358.772 314.567 300.081 316.838 294.054 317.063C292.984 318.47 289.248 323.218 286.807 324.326C286.483 324.498 286.119 324.58 285.752 324.564C285.386 324.547 285.03 324.433 284.723 324.232C284.116 323.727 283.709 323.021 283.578 322.242C282.741 323.96 281.52 325.462 280.011 326.634C277.406 327.665 274.726 328.493 271.994 329.111C270.999 329.374 270.116 329.599 269.497 329.787C269.352 329.843 269.2 329.88 269.046 329.899ZM328.506 226.683C328.882 228.203 332.355 242.278 335.34 256.409C341.837 287.13 339.79 288.087 338.682 288.594C336.336 289.682 319.138 295.312 303.967 300.267C292.552 304.02 281.775 307.529 280.593 308.055C277.682 309.35 271.205 314.229 270.022 316.556C268.839 318.883 268.145 327.272 269.177 328.154C269.949 327.841 270.747 327.596 271.562 327.422C274.166 326.818 276.726 326.035 279.222 325.076C280.405 324.457 282.433 320.91 283.428 318.827C283.516 318.652 283.662 318.513 283.84 318.432C284.019 318.351 284.219 318.333 284.409 318.381C284.599 318.429 284.767 318.54 284.886 318.696C285.004 318.852 285.066 319.044 285.061 319.24C284.895 320.46 285.119 321.701 285.699 322.787C285.793 322.787 285.962 322.787 286.112 322.787C287.99 321.905 291.745 317.401 292.928 315.73C293.004 315.627 293.102 315.543 293.216 315.484C293.33 315.425 293.457 315.394 293.585 315.393C293.735 315.393 309.863 314.83 326.535 312.69C354.097 309.162 361.907 304.245 363.597 300.755C369.736 288.087 366.357 260.519 356.087 239.294C349.328 225.406 339.358 219.12 333.425 220.264C330.534 220.827 328.807 223.117 328.563 226.758L328.506 226.683Z" fill="#093269"/>
<path d="M282.883 343.618C280.593 340.334 250.741 291.071 250.741 291.071L180.409 297.977L214.955 348.178L282.883 343.618Z" fill="white"/>
<path d="M214.955 349.06C214.815 349.059 214.677 349.024 214.553 348.959C214.429 348.893 214.322 348.799 214.242 348.685L179.715 298.39C179.642 298.261 179.604 298.116 179.604 297.968C179.604 297.82 179.642 297.675 179.715 297.546C179.778 297.409 179.875 297.291 179.996 297.202C180.118 297.113 180.26 297.057 180.409 297.039L250.722 290.151C250.883 290.131 251.046 290.157 251.193 290.227C251.339 290.297 251.463 290.408 251.548 290.546C251.848 291.052 281.419 339.864 283.653 343.092C283.731 343.223 283.772 343.372 283.772 343.524C283.772 343.676 283.731 343.825 283.653 343.955C283.588 344.092 283.487 344.209 283.362 344.295C283.237 344.381 283.091 344.432 282.94 344.443L215.012 349.06H214.955ZM181.949 298.653L215.368 347.258L281.363 342.867C276.368 334.985 253.2 296.889 250.271 291.934L181.949 298.653Z" fill="#093269"/>
<path d="M239.4 322.355C238.336 320.077 236.715 318.102 234.688 316.613C233.435 315.589 231.919 314.939 230.313 314.736C229.513 314.659 228.705 314.791 227.971 315.12C227.237 315.449 226.602 315.964 226.126 316.613C225.49 317.713 225.246 318.996 225.432 320.253C225.557 321.738 226.003 323.178 226.738 324.474C227.474 325.77 228.483 326.891 229.694 327.76C233.993 330.65 242.555 329.055 239.4 322.355Z" fill="white"/>
<path d="M234.538 329.974C232.653 329.996 230.805 329.461 229.224 328.435C227.907 327.512 226.809 326.31 226.008 324.916C225.207 323.522 224.721 321.968 224.587 320.366C224.366 318.917 224.658 317.437 225.413 316.181C225.975 315.407 226.73 314.794 227.603 314.402C228.476 314.01 229.436 313.853 230.388 313.947C232.151 314.136 233.823 314.819 235.214 315.918C237.342 317.497 239.045 319.58 240.17 321.98C241.86 325.583 240.395 327.61 239.363 328.454C237.979 329.503 236.274 330.041 234.538 329.974ZM229.938 315.637C229.341 315.62 228.748 315.745 228.209 316.003C227.671 316.261 227.201 316.643 226.84 317.119C226.312 318.053 226.114 319.137 226.277 320.197C226.394 321.55 226.804 322.862 227.478 324.041C228.153 325.221 229.075 326.24 230.182 327.028C231.375 327.816 232.769 328.247 234.199 328.27C235.63 328.294 237.037 327.908 238.255 327.159C239.419 326.165 239.532 324.663 238.631 322.712C237.619 320.569 236.09 318.712 234.181 317.307C233.06 316.389 231.697 315.816 230.257 315.655L229.938 315.637Z" fill="#093269"/>
<path d="M230.482 319.596C231.293 320.727 232.045 321.898 232.735 323.106L234.237 319.596" fill="white"/>
<path d="M232.81 323.969C232.661 323.968 232.514 323.928 232.386 323.852C232.257 323.776 232.151 323.668 232.078 323.537C231.271 322.186 230.2 320.591 230.013 320.253C229.917 320.169 229.84 320.065 229.788 319.948C229.736 319.832 229.71 319.705 229.712 319.578C229.712 319.354 229.801 319.139 229.96 318.981C230.118 318.822 230.333 318.733 230.557 318.733C231.045 318.733 231.177 318.733 232.679 321.229L233.524 319.352C233.611 319.141 233.779 318.973 233.99 318.885C234.201 318.797 234.438 318.796 234.65 318.883C234.858 318.974 235.022 319.143 235.107 319.354C235.191 319.565 235.189 319.8 235.101 320.009L233.599 323.537C233.534 323.682 233.432 323.806 233.303 323.898C233.174 323.99 233.024 324.047 232.866 324.063L232.81 323.969Z" fill="#093269"/>
</svg>
