<svg width="453" height="314" viewBox="0 0 453 314" fill="none" xmlns="http://www.w3.org/2000/svg">
<path d="M155.144 159.255C155.144 159.255 145.986 159.743 142.522 159.758C139.057 159.773 130.128 166.328 127.259 165.307C124.389 164.285 134.692 158.172 134.692 158.172C134.692 158.172 121.688 158.996 118.452 161.038C115.216 163.081 110.82 165.871 109.172 165.322C107.524 164.773 112.621 156.419 119.612 153.416C126.602 150.413 148.032 144.086 148.032 144.086" fill="white"/>
<path d="M127.9 166.145C127.573 166.152 127.247 166.1 126.938 165.993C126.673 165.92 126.437 165.769 126.26 165.56C126.083 165.35 125.973 165.092 125.946 164.819C125.809 163.295 128.754 161.008 131.563 159.148C127.167 159.575 120.757 160.413 118.788 161.648C114.209 164.499 110.637 166.618 108.867 166.008C108.622 165.923 108.411 165.762 108.265 165.547C108.119 165.333 108.047 165.078 108.058 164.819C107.981 162.38 112.988 155.367 119.246 152.623C126.205 149.651 146.872 143.476 147.757 143.263C147.959 143.206 148.176 143.232 148.359 143.335C148.542 143.438 148.677 143.61 148.734 143.812C148.79 144.014 148.764 144.23 148.661 144.413C148.558 144.596 148.387 144.731 148.184 144.787C147.971 144.787 126.724 151.145 119.841 154.087C113.842 156.663 109.737 163.051 109.584 164.606C111.11 164.606 115.689 161.77 117.933 160.352C121.306 158.233 133.99 157.41 134.524 157.38C134.696 157.363 134.868 157.407 135.011 157.504C135.153 157.602 135.256 157.747 135.302 157.913C135.354 158.077 135.349 158.253 135.288 158.414C135.227 158.574 135.114 158.709 134.966 158.797C131.166 161.054 127.869 163.6 127.457 164.56C128.846 164.911 132.295 163.188 135.089 161.785C137.882 160.383 140.69 158.98 142.415 158.965C145.757 158.965 154.9 158.462 154.992 158.462C155.093 158.449 155.196 158.458 155.294 158.488C155.392 158.518 155.482 158.569 155.559 158.637C155.636 158.704 155.697 158.788 155.739 158.881C155.78 158.975 155.801 159.076 155.801 159.178C155.805 159.279 155.789 159.379 155.754 159.473C155.72 159.567 155.667 159.653 155.599 159.727C155.531 159.8 155.449 159.86 155.358 159.902C155.267 159.944 155.168 159.967 155.068 159.971C154.702 159.971 145.803 160.474 142.415 160.49C141.056 160.49 138.37 161.846 135.775 163.157C132.753 164.712 129.853 166.145 127.9 166.145Z" fill="#093269"/>
<path d="M346.772 84.1286C347.581 85.4702 368.217 110.045 371.803 109.587C375.39 109.13 366.37 98.9161 367.118 97.3916C367.866 95.8671 376.275 98.8094 385.754 95.1201C395.232 91.4309 400.925 84.4488 393.843 81.0797C386.761 77.7106 371.544 85.5464 366.934 80.7443C362.325 75.9422 353.198 68.3198 353.198 68.3198" fill="white"/>
<path d="M371.743 110.349C366.95 110.349 346.284 84.7992 346.116 84.5401C346.063 84.4541 346.028 84.3586 346.013 84.2591C345.997 84.1595 346.002 84.0579 346.026 83.9601C346.05 83.8623 346.093 83.7702 346.153 83.6892C346.213 83.6082 346.289 83.5399 346.375 83.4882C346.459 83.4353 346.553 83.3997 346.651 83.3833C346.749 83.367 346.849 83.3703 346.946 83.393C347.042 83.4157 347.133 83.4573 347.214 83.5156C347.294 83.5738 347.362 83.6474 347.413 83.7321C348.94 86.1865 368.568 108.825 371.636 108.825C371.686 108.839 371.738 108.839 371.788 108.825C372.246 108.139 369.789 104.252 368.736 102.59C366.813 99.5409 365.897 98.0164 366.37 97.0865C366.843 96.1566 368.308 96.1413 370.949 96.2633C375.862 96.7259 380.817 96.1066 385.464 94.4492C391.691 92.01 396.148 88.1988 396.148 85.2108C396.148 83.8388 395.278 82.6802 393.416 81.796C390.272 80.2715 385.174 81.2015 380.244 82.0857C374.459 83.1223 368.995 84.1132 366.294 81.2929C361.715 76.5823 352.725 69.0057 352.633 68.9294C352.544 68.87 352.468 68.7924 352.41 68.7016C352.353 68.6108 352.315 68.5089 352.3 68.4026C352.285 68.2963 352.292 68.188 352.322 68.0848C352.352 67.9816 352.403 67.8857 352.472 67.8036C352.541 67.7215 352.627 67.6549 352.724 67.6082C352.821 67.5615 352.926 67.5358 353.034 67.5327C353.141 67.5296 353.248 67.5492 353.347 67.5902C353.447 67.6313 353.536 67.6928 353.61 67.7708C353.702 67.7708 362.768 75.3932 367.347 80.2411C369.484 82.4668 374.795 81.5064 379.939 80.5764C385.083 79.6465 390.44 78.7013 394.042 80.424C397.095 81.9485 397.675 83.8693 397.629 85.2566C397.491 88.9001 392.775 93.1686 385.891 95.9279C381.047 97.6695 375.877 98.3253 370.751 97.8487C369.736 97.7436 368.713 97.7436 367.698 97.8487C368.319 99.2426 369.07 100.575 369.942 101.828C372.353 105.624 373.757 108.047 373.086 109.45C372.961 109.703 372.774 109.92 372.542 110.081C372.309 110.241 372.039 110.339 371.758 110.365L371.743 110.349Z" fill="#093269"/>
<path d="M228.819 146.236C228.819 146.236 167.233 184.348 155.449 196.925C143.666 209.502 112.408 272.859 112.408 272.859L165.355 256.09C165.355 256.09 178.848 221.027 186.128 214.7C193.409 208.373 281.049 143.675 281.049 143.675C281.049 143.675 258.383 129.238 228.819 146.236Z" fill="white"/>
<path d="M112.408 273.545C112.3 273.546 112.194 273.523 112.096 273.478C111.999 273.433 111.912 273.368 111.843 273.286C111.742 273.173 111.678 273.033 111.659 272.883C111.64 272.733 111.667 272.581 111.736 272.447C113.003 269.871 143.132 208.907 154.854 196.406C166.576 183.906 225.842 147.151 228.361 145.596C257.986 128.552 281.202 142.76 281.43 142.897C281.537 142.964 281.625 143.056 281.686 143.165C281.747 143.274 281.78 143.397 281.781 143.522C281.786 143.646 281.761 143.768 281.708 143.88C281.655 143.992 281.575 144.089 281.476 144.163C280.606 144.803 193.79 208.953 186.601 215.157C179.412 221.362 166.164 255.891 166.027 256.318C165.986 256.424 165.923 256.52 165.841 256.599C165.759 256.678 165.661 256.739 165.554 256.776L112.621 273.545C112.551 273.556 112.478 273.556 112.408 273.545ZM229.155 146.891C228.04 147.577 167.492 185.14 155.892 197.443C145.361 208.678 118.772 261.578 113.827 271.517L164.699 255.343C166.225 251.47 178.435 220.081 185.563 213.999C192.691 207.916 269.51 151.023 279.568 143.629C275.223 141.428 270.547 139.95 265.725 139.254C257.406 137.973 244.25 138.248 229.2 146.891H229.155Z" fill="#093269"/>
<path d="M248.493 148.416C248.493 148.416 201.178 186.177 198.766 195.187C196.355 204.196 250.859 245.159 250.859 245.159L269.373 239.32L238.389 192.473C238.389 192.473 281.644 167.365 288.665 159.377C295.686 151.389 275.448 136.22 248.493 148.416Z" fill="white"/>
<path d="M250.859 245.921C250.688 245.925 250.522 245.871 250.386 245.769C244.769 241.546 195.439 204.242 198.018 194.989C200.598 185.735 246.081 149.376 248.02 147.852L248.172 147.745C268.014 138.781 284.056 144.315 289.108 151.129C291.352 154.178 291.397 157.41 289.23 159.865C282.621 167.396 245.257 189.333 239.472 192.702L269.999 238.893C270.066 238.99 270.109 239.101 270.125 239.218C270.141 239.334 270.129 239.453 270.09 239.564C270.049 239.674 269.984 239.774 269.899 239.855C269.815 239.937 269.713 239.999 269.602 240.037L251.088 245.921C251.012 245.936 250.934 245.936 250.859 245.921ZM248.89 149.071C232.589 162.09 201.391 188.464 199.499 195.4C197.789 201.605 229.231 227.963 250.996 244.321L268.167 238.863L237.748 192.839C237.689 192.753 237.648 192.656 237.63 192.553C237.612 192.451 237.615 192.346 237.641 192.245C237.666 192.145 237.712 192.051 237.775 191.97C237.838 191.889 237.917 191.821 238.007 191.772C238.435 191.513 281.232 166.633 288.085 158.828C288.885 157.857 289.304 156.629 289.265 155.373C289.225 154.117 288.73 152.917 287.872 151.998C280.103 141.525 260.062 144.056 248.89 149.071Z" fill="#093269"/>
<path d="M214.289 56.8253C214.289 56.8253 205.299 75.8202 202.078 87.9551C198.858 100.09 217.189 116.676 225.858 120.091C234.527 123.506 243.64 134.665 243.64 134.665L225.11 148.385C225.11 148.385 233.673 144.041 240.999 154.483C240.999 154.483 266.641 150.855 279.706 167.548C279.706 167.548 315.986 149.498 309.408 121.128C302.83 92.7572 258.078 53.944 248.539 48.959C239 43.9739 214.289 56.8253 214.289 56.8253Z" fill="#5872FF"/>
<path d="M227.994 49.1572L233.642 61.0938C233.642 61.0938 234.649 68.4723 226.361 68.8077C223.908 68.8903 221.466 68.424 219.216 67.4427C216.966 66.4615 214.964 64.9902 213.357 63.1366L207.252 41.2451C207.252 41.1384 208.229 39.7207 208.32 39.5682C209.07 37.8721 209.405 36.0224 209.297 34.1716C208.994 31.2578 208.484 28.3692 207.771 25.5278C210.338 25.0709 212.803 24.1624 215.051 22.8447C217.341 21.3202 219.951 14.8717 219.951 14.8717C221.477 18.9116 232.466 22.6008 232.466 22.6008C232.466 22.6008 234.939 37.2815 235.519 41.8549C236.13 48.09 227.994 49.1572 227.994 49.1572Z" fill="white"/>
<path d="M225.675 69.524C223.227 69.5141 220.81 68.9764 218.59 67.9477C216.369 66.9189 214.397 65.4234 212.808 63.5633C212.747 63.4999 212.705 63.4207 212.686 63.3346C207.634 45.4068 206.703 42.0987 206.581 41.4279C206.474 41.0468 206.581 40.8181 207.39 39.7358C207.527 39.5071 207.665 39.3241 207.71 39.2479C208.401 37.6538 208.709 35.9208 208.611 34.1867C208.303 31.3238 207.793 28.4863 207.085 25.6953C207.061 25.6025 207.056 25.5058 207.072 25.4112C207.088 25.3167 207.123 25.2265 207.176 25.1465C207.23 25.0658 207.299 24.9971 207.381 24.9446C207.462 24.8921 207.554 24.8571 207.649 24.8416C210.125 24.3839 212.501 23.4965 214.67 22.2195C216.41 21.0609 218.608 16.2893 219.249 14.5971C219.301 14.4661 219.392 14.3538 219.509 14.2749C219.626 14.196 219.764 14.1543 219.906 14.155C220.044 14.1592 220.178 14.2032 220.291 14.2816C220.405 14.36 220.494 14.4696 220.547 14.5971C221.768 17.6461 229.704 20.9237 232.635 21.9299C232.756 21.9697 232.865 22.0418 232.948 22.1385C233.031 22.2353 233.087 22.3529 233.108 22.4787C233.108 22.6159 235.596 37.2204 236.084 41.7633C236.634 46.7483 232.101 49.0198 228.972 49.7058L234.238 60.8193C234.244 60.8852 234.244 60.9515 234.238 61.0174C234.404 62.1249 234.318 63.2556 233.986 64.3252C233.654 65.3949 233.085 66.3759 232.321 67.1952C231.556 68.0144 230.616 68.6506 229.571 69.0565C228.526 69.4624 227.403 69.6274 226.286 69.5393L225.675 69.524ZM213.984 62.8011C215.532 64.53 217.438 65.9015 219.57 66.8203C221.703 67.7391 224.01 68.1831 226.331 68.1215C227.313 68.154 228.291 67.9794 229.201 67.6091C230.111 67.2387 230.933 66.6809 231.612 65.972C232.627 64.6265 233.11 62.9552 232.971 61.2766L227.369 49.4467C227.321 49.3496 227.296 49.2426 227.296 49.1341C227.296 49.0257 227.321 48.9187 227.369 48.8216C227.422 48.7249 227.496 48.6416 227.586 48.5782C227.676 48.5147 227.779 48.4729 227.888 48.4558C228.193 48.4558 235.337 47.4039 234.741 41.8853C234.283 37.8149 232.223 25.4819 231.826 23.0732C230.01 22.4329 222.668 19.6736 220.043 16.335C219.127 18.3626 217.25 22.1433 215.464 23.3781C213.338 24.6697 211.004 25.5827 208.565 26.0764C209.258 28.7273 209.738 31.4291 210 34.1562C210.11 36.1183 209.749 38.0784 208.947 39.8729C208.821 40.0937 208.684 40.3074 208.535 40.5132L207.985 41.3212C208.565 43.6384 213.495 61.0479 213.984 62.8011Z" fill="#093269"/>
<path d="M230.757 54.6453C229.371 55.2155 227.88 55.4833 226.382 55.4307C224.884 55.3781 223.415 55.0064 222.072 54.3404C220.865 53.78 219.794 52.9631 218.934 51.9468C218.075 50.9305 217.448 49.7392 217.097 48.4559C217.097 48.4559 223.843 51.5049 228.636 49.0047L230.757 54.6453Z" fill="#093269"/>
<path d="M226.651 56.1239C224.948 56.133 223.27 55.7192 221.767 54.9196C220.467 54.3163 219.315 53.4359 218.392 52.3403C217.469 51.2446 216.798 49.9604 216.425 48.5777C216.406 48.4553 216.421 48.3302 216.466 48.2151C216.512 48.0999 216.587 47.9989 216.684 47.9222C216.788 47.8589 216.907 47.8253 217.028 47.8253C217.149 47.8253 217.268 47.8589 217.371 47.9222C217.371 47.9222 223.888 50.773 228.33 48.4863C228.416 48.4445 228.51 48.4228 228.605 48.4228C228.7 48.4228 228.794 48.4445 228.879 48.4863C228.969 48.5153 229.05 48.5649 229.116 48.6312C229.182 48.6974 229.232 48.7783 229.261 48.8674L231.398 54.5232C231.455 54.6814 231.451 54.8555 231.386 55.0109C231.321 55.1662 231.2 55.2914 231.047 55.3617C229.647 55.9059 228.153 56.1651 226.651 56.1239ZM218.211 49.5991C219.121 51.3952 220.588 52.8495 222.393 53.7457C223.546 54.3218 224.802 54.6642 226.088 54.7532C227.374 54.8421 228.665 54.6759 229.887 54.264L228.269 49.9193C224.652 51.3828 220.363 50.2852 218.211 49.5991Z" fill="#093269"/>
<path d="M230.818 30.2079C230.818 30.2079 236.786 34.9033 236.176 36.3058C235.565 37.7083 232.665 37.8303 232.665 37.8303" fill="white"/>
<path d="M232.665 38.4552C232.491 38.4556 232.323 38.3897 232.195 38.2707C232.068 38.1518 231.99 37.9889 231.979 37.815C231.974 37.7268 231.988 37.6388 232.018 37.5558C232.048 37.4729 232.094 37.3967 232.153 37.3315C232.213 37.2664 232.285 37.2136 232.365 37.1762C232.445 37.1389 232.531 37.1176 232.62 37.1137C233.429 37.1137 235.214 36.7021 235.565 35.9703C235.565 35.3758 233.154 32.9214 230.406 30.7414C230.293 30.6219 230.227 30.4657 230.219 30.3014C230.212 30.1371 230.264 29.9756 230.366 29.8463C230.467 29.717 230.612 29.6284 230.774 29.5969C230.935 29.5653 231.103 29.5928 231.246 29.6743C234.161 31.9915 237.565 35.0404 236.786 36.5649C236.008 38.0894 233.032 38.4705 232.696 38.4857L232.665 38.4552Z" fill="#093269"/>
<path d="M229.933 42.3133C228.926 42.3375 227.928 42.1202 227.023 41.6798C226.117 41.2394 225.33 40.5886 224.728 39.782C224.619 39.6404 224.571 39.4613 224.593 39.284C224.616 39.1067 224.709 38.9457 224.85 38.8365C224.992 38.7273 225.171 38.6788 225.349 38.7017C225.526 38.7246 225.687 38.817 225.797 38.9585C229.017 43.1368 234.573 39.5837 234.802 39.4312C234.953 39.3377 235.134 39.3061 235.307 39.3431C235.481 39.38 235.634 39.4827 235.733 39.6295C235.781 39.7035 235.815 39.7863 235.831 39.8732C235.847 39.9601 235.846 40.0493 235.827 40.1358C235.809 40.2222 235.774 40.3041 235.723 40.3769C235.673 40.4496 235.609 40.5118 235.535 40.5597C233.866 41.6509 231.927 42.2579 229.933 42.3133Z" fill="#093269"/>
<path d="M233.521 29.6291H233.353C232.832 29.4535 232.273 29.4219 231.735 29.5376C231.66 29.5811 231.577 29.6093 231.491 29.6206C231.405 29.6319 231.317 29.626 231.234 29.6033C231.15 29.5806 231.071 29.5416 231.003 29.4884C230.934 29.4352 230.877 29.369 230.834 29.2936C230.789 29.2159 230.759 29.1298 230.747 29.0404C230.736 28.9511 230.742 28.8603 230.766 28.7735C230.791 28.6866 230.832 28.6056 230.888 28.5351C230.945 28.4647 231.014 28.4063 231.094 28.3634C231.927 28.0323 232.855 28.0323 233.689 28.3634C233.843 28.4105 233.977 28.5107 234.065 28.6464C234.153 28.7821 234.19 28.9445 234.17 29.105C234.15 29.2655 234.074 29.4137 233.955 29.5235C233.836 29.6334 233.682 29.6977 233.521 29.7053V29.6291Z" fill="#093269"/>
<path d="M227.857 30.3458C227.729 30.3388 227.603 30.3023 227.491 30.239C227.287 30.0901 227.132 29.8827 227.048 29.6443C226.835 29.1869 226.499 28.4092 223.752 29.4308C223.584 29.4935 223.398 29.487 223.234 29.4126C223.071 29.3383 222.944 29.2022 222.882 29.0344C222.819 28.8665 222.825 28.6807 222.9 28.5177C222.974 28.3547 223.11 28.2279 223.278 28.1652C226.758 26.869 227.857 27.9822 228.285 29.0801C228.359 29.1278 228.424 29.1902 228.474 29.2634C228.524 29.3366 228.558 29.4192 228.575 29.5061C228.592 29.593 228.592 29.6825 228.573 29.7692C228.555 29.8559 228.519 29.9379 228.468 30.0103C228.404 30.1145 228.314 30.2002 228.207 30.2591C228.1 30.3179 227.98 30.3478 227.857 30.3458Z" fill="#093269"/>
<path d="M202.017 87.9551C202.017 87.9551 195.286 122.149 182.175 128.643C169.064 135.138 142.339 145.26 142.339 145.26L152.764 161.572C152.764 161.572 178.711 164.011 194.264 154.392C209.817 144.772 229.643 111.95 229.643 111.95L202.017 87.9551Z" fill="#5872FF"/>
<path d="M238.007 48.2727C238.007 48.2727 304.584 33.6225 316.474 36.3208C328.364 39.0192 365.514 73.0455 365.514 73.0455L347.763 89.9214C347.763 89.9214 326.517 71.4295 307.072 62.3284C289.459 64.2798 251.072 73.9144 251.072 73.9144L238.007 48.2727Z" fill="#5872FF"/>
<path d="M219.936 27.6012C220.781 26.7173 221.37 25.6205 221.639 24.4282C221.907 23.2359 221.847 21.993 221.462 20.8325L233.52 26.778C235.474 27.7384 231.338 12.9053 230.681 11.7924C228.071 7.37142 225.797 4.53589 220.989 2.53883C207.497 -3.07124 193.226 6.92932 184.587 16.0304C174.071 27.1134 156.93 30.2233 142.064 27.7994C134.662 26.5951 127.534 23.9425 120.085 23.1345C112.591 22.3158 105.011 23.3799 98.0334 26.2303C91.0556 29.0807 84.9013 33.627 80.1295 39.4563C75.3576 45.2856 72.1194 52.2133 70.7089 59.6101C69.2983 67.0069 69.7602 74.6384 72.0526 81.8116C77.0283 97.3918 93.6192 110.258 109.386 105.868C112.668 104.953 115.827 103.368 119.215 103.368C124.161 103.368 128.373 106.737 132.632 109.176C138.18 112.209 144.349 113.938 150.667 114.231C156.986 114.524 163.288 113.374 169.095 110.868C175.795 107.987 177.764 105.654 180.313 99.3736C182.45 94.1294 183.564 87.5131 189.547 85.1959C192.508 84.0373 195.912 84.449 198.888 83.3513C201.955 81.9597 204.514 79.6538 206.215 76.7503C215.372 63.152 216.395 45.8645 210.381 31.0161C213.984 32.0832 217.296 30.6502 219.936 27.6012Z" fill="white"/>
<path d="M152.443 115.014C145.371 115.063 138.408 113.277 132.235 109.831C131.365 109.343 130.495 108.81 129.625 108.307C126.328 106.279 122.924 104.175 119.2 104.16C116.923 104.299 114.684 104.814 112.576 105.685C111.599 106.02 110.607 106.355 109.615 106.63C96.1223 110.395 77.5625 101.416 71.3352 82.0705C69.0081 74.7766 68.5412 67.0176 69.977 59.4978C71.4128 51.9779 74.7057 44.9352 79.5571 39.0085C84.4084 33.0818 90.6646 28.4588 97.7579 25.559C104.851 22.6591 112.557 21.5741 120.177 22.4026C124.361 22.9622 128.502 23.8078 132.57 24.9332C135.715 25.7259 138.95 26.5491 142.186 27.0675C155.114 29.1865 172.895 27.2656 184.037 15.5272C190.005 9.24633 205.589 -4.65689 221.279 1.80689C226.194 3.84969 228.606 6.76144 231.338 11.3958C231.338 11.5178 236.023 25.5277 234.39 27.2504C234.234 27.4134 234.029 27.5209 233.805 27.5567C233.582 27.5924 233.353 27.5545 233.154 27.4486L222.47 22.2196C222.539 23.2848 222.393 24.353 222.042 25.361C221.691 26.3691 221.141 27.2967 220.425 28.0889C219.411 29.4353 218.07 30.5006 216.529 31.1837C214.988 31.8667 213.297 32.1448 211.618 31.9915C214.485 39.353 215.548 47.2929 214.717 55.1482C213.886 63.0035 211.185 70.5462 206.84 77.1465C205.314 79.4637 202.765 82.6956 199.209 84.0219C197.661 84.5295 196.057 84.8469 194.432 84.9671C192.873 85.0693 191.334 85.3716 189.853 85.8665C185.274 87.6349 183.747 92.1321 182.221 96.5378C181.84 97.605 181.458 98.6721 181.061 99.6783C178.497 105.959 176.482 108.551 169.431 111.584C164.059 113.866 158.28 115.033 152.443 115.014ZM119.17 102.605C123.336 102.605 126.923 104.831 130.403 106.965C131.258 107.499 132.113 108.017 132.967 108.49C138.412 111.463 144.464 113.158 150.664 113.446C156.863 113.734 163.046 112.607 168.744 110.151C175.338 107.316 177.154 105.014 179.565 99.0685C179.962 98.0928 180.329 97.0562 180.695 96.0195C182.359 91.3394 184.053 86.4915 189.227 84.4792C190.825 83.9335 192.487 83.6003 194.172 83.4883C195.671 83.3762 197.151 83.0897 198.583 82.6346C201.788 81.4455 204.078 78.4728 205.543 76.3233C209.872 69.7229 212.51 62.1603 213.223 54.3018C213.937 46.4433 212.704 38.5302 209.634 31.2598C209.581 31.1243 209.567 30.9768 209.594 30.834C209.621 30.6912 209.688 30.5588 209.786 30.4518C209.882 30.3456 210.006 30.269 210.144 30.2312C210.282 30.1933 210.428 30.1958 210.565 30.2384C214.487 31.4579 217.494 29.2017 219.326 27.1894C220.08 26.4112 220.609 25.4422 220.853 24.3865C221.098 23.3309 221.05 22.2286 220.715 21.1982C220.653 21.0532 220.64 20.8926 220.675 20.7393C220.711 20.5859 220.794 20.4478 220.913 20.3445C221.026 20.2404 221.169 20.173 221.321 20.1512C221.474 20.1294 221.63 20.1543 221.768 20.2226L233.276 25.8936C232.643 21.2164 231.523 16.618 229.933 12.1733C227.323 7.72185 225.156 5.115 220.623 3.22465C205.787 -2.87325 190.814 10.4812 185.06 16.5333C173.521 28.7291 155.19 30.711 141.85 28.531C138.569 27.9974 135.287 27.1742 132.128 26.3662C128.12 25.2555 124.04 24.4252 119.917 23.8813C112.551 23.0778 105.101 24.1253 98.2428 26.9286C91.3849 29.7319 85.3369 34.2022 80.6482 39.9333C75.9595 45.6644 72.7788 52.4748 71.395 59.7457C70.0111 67.0167 70.468 74.5177 72.7241 81.5675C77.3946 96.2177 93.4971 109.481 109.126 105.136C110.088 104.861 111.05 104.541 111.996 104.206C114.282 103.28 116.706 102.739 119.17 102.605Z" fill="#093269"/>
<path d="M74.2499 249.367C71.6704 247.583 162.394 227.338 308.415 189.211C373.65 172.167 428.856 168.691 447.004 182.244C465.152 195.796 437.678 250.845 349.32 284.201C260.963 317.556 161.249 309.217 74.2499 249.367Z" fill="#093269"/>
<path d="M206.657 270.237C206.485 270.237 206.319 270.173 206.192 270.058C206.064 269.942 205.985 269.783 205.97 269.611C205.961 269.43 206.023 269.253 206.143 269.117C206.262 268.98 206.43 268.895 206.611 268.88C319.13 261.456 433.13 200.278 434.259 199.608C434.417 199.523 434.602 199.504 434.774 199.555C434.946 199.607 435.09 199.724 435.175 199.882C435.26 200.04 435.279 200.225 435.227 200.396C435.176 200.568 435.058 200.712 434.9 200.797C433.771 201.406 319.512 262.782 206.687 270.237H206.657Z" fill="white"/>
<path d="M238.007 129.695C237.796 129.695 237.594 129.613 237.443 129.467C229.384 120.899 209.618 108.505 209.42 108.368C209.333 108.318 209.258 108.251 209.199 108.171C209.139 108.091 209.097 107.999 209.074 107.902C209.051 107.805 209.048 107.704 209.066 107.606C209.083 107.508 209.12 107.414 209.176 107.331C209.227 107.244 209.296 107.169 209.377 107.109C209.459 107.05 209.552 107.007 209.65 106.984C209.748 106.962 209.85 106.959 209.95 106.977C210.049 106.994 210.144 107.032 210.229 107.087C211.038 107.59 230.361 119.71 238.557 128.43C238.665 128.535 238.738 128.671 238.768 128.819C238.797 128.966 238.781 129.12 238.721 129.258C238.662 129.397 238.562 129.514 238.434 129.595C238.307 129.675 238.158 129.716 238.007 129.71V129.695Z" fill="#093269"/>
<path d="M145.391 305.986C85.1223 287.539 34.4919 246.235 4.36083 190.933C1.67453 185.964 -0.370712 178.738 4.23872 175.536C10.9313 179.637 16.2705 185.611 19.5933 192.717C6.0245 176.817 -3.86595 147.257 4.49819 126.814C5.56661 124.207 7.71869 121.417 10.6034 121.753C13.4881 122.088 14.7244 124.985 15.5486 127.485C18.2502 135.32 18.7539 143.461 21.9744 151.114C25.1949 158.767 28.4612 166.145 32.1853 173.387C39.4135 188.037 48.0524 201.95 57.9799 214.929C54.9273 211.072 53.7978 203.556 52.4241 198.937C50.5739 192.46 50.5739 185.595 52.4241 179.119C52.8534 176.72 54.1318 174.556 56.0262 173.021C57.3037 172.316 58.7607 172.002 60.2155 172.119C61.6703 172.235 63.0586 172.777 64.2072 173.676C66.4844 175.513 68.2374 177.915 69.2898 180.643C74.5097 192.229 74.815 205.492 79.516 217.307C84.7207 230.356 96.0611 242.461 106.333 251.821C118.131 262.592 131.6 271.381 146.215 277.844C140.956 270.064 137.801 261.057 137.058 251.699C138.584 249.412 142.201 249.504 144.46 251.089C146.719 252.675 148.017 255.251 149.405 257.644C153.369 264.345 158.663 270.165 164.963 274.745C171.263 279.325 178.435 282.569 186.037 284.277C194.996 286.244 244.418 298.135 353.549 282.753C353.549 282.753 296.74 302.571 263.344 308.089C227.552 313.821 180.099 316.428 145.391 305.986Z" fill="white"/>
<path d="M202.46 313.867C183.335 313.867 162.974 312.084 145.116 306.717C84.6141 288.307 33.8019 246.844 3.67384 191.299C2.14753 188.525 -2.20243 179.104 3.79594 174.911C3.91901 174.825 4.06553 174.779 4.21568 174.779C4.36583 174.779 4.51235 174.825 4.63541 174.911C6.27026 175.911 7.8311 177.027 9.3059 178.25C1.3386 162.106 -2.40085 141.662 3.79594 126.555C4.98646 123.643 7.38276 120.64 10.6185 121.021C13.0759 121.295 14.938 123.338 16.2811 127.256C17.4073 130.756 18.3246 134.319 19.0285 137.927C19.8441 142.334 21.0652 146.657 22.6763 150.84C26.0494 158.874 29.3768 166.085 32.872 173.082C39.02 185.48 46.1663 197.36 54.2403 208.602C53.6603 206.758 53.1871 204.837 52.714 203.023C52.3629 201.605 52.0424 200.263 51.6913 199.105C49.8046 192.498 49.8046 185.497 51.6913 178.89C52.1306 176.277 53.509 173.914 55.5682 172.243C56.9764 171.456 58.5853 171.1 60.1946 171.219C61.804 171.339 63.3427 171.928 64.6191 172.914C66.9931 174.835 68.824 177.342 69.9307 180.186C72.4875 186.466 74.3604 193.003 75.5169 199.684C76.5832 205.548 78.1456 211.311 80.1874 216.911C84.3695 227.445 93.0847 238.634 106.806 251.15C117.899 261.295 130.491 269.671 144.14 275.984C139.631 268.585 136.933 260.228 136.264 251.592C136.252 251.421 136.294 251.25 136.386 251.105C136.756 250.575 137.23 250.125 137.778 249.782C138.326 249.439 138.937 249.21 139.576 249.107C141.429 248.81 143.325 249.236 144.872 250.297C146.854 251.905 148.45 253.937 149.543 256.242L150.046 257.096C153.961 263.697 159.182 269.431 165.392 273.947C171.601 278.464 178.667 281.667 186.159 283.362L186.861 283.515C225.614 292.098 284.758 291.488 353.396 281.823C353.496 281.8 353.6 281.797 353.701 281.814C353.803 281.831 353.9 281.868 353.987 281.922C354.074 281.977 354.15 282.048 354.209 282.131C354.269 282.215 354.311 282.31 354.334 282.41C354.358 282.51 354.361 282.613 354.344 282.715C354.326 282.816 354.29 282.913 354.235 283C354.18 283.087 354.109 283.163 354.025 283.222C353.942 283.282 353.847 283.324 353.747 283.347C353.182 283.545 296.495 303.303 263.42 308.715C243.266 312.022 222.883 313.745 202.46 313.867ZM145.559 305.254C186.769 317.648 241.502 310.757 263.084 307.221C288.864 302.982 329.112 289.994 345.673 284.46C280.194 293.119 223.874 293.363 186.433 285.07L185.731 284.917C178.033 283.176 170.771 279.883 164.391 275.241C158.011 270.598 152.647 264.704 148.627 257.919L148.138 257.05C147.132 254.956 145.691 253.101 143.911 251.608C142.698 250.775 141.211 250.442 139.759 250.678C138.961 250.797 138.233 251.204 137.714 251.821C138.486 260.946 141.586 269.722 146.719 277.31C146.816 277.443 146.868 277.603 146.868 277.768C146.868 277.932 146.816 278.092 146.719 278.225C146.609 278.348 146.463 278.435 146.302 278.473C146.141 278.511 145.972 278.499 145.818 278.438C131.12 271.95 117.578 263.114 105.723 252.278C91.8331 239.61 82.9958 228.222 78.7222 217.475C76.6485 211.79 75.0605 205.941 73.9754 199.989C72.8395 193.429 71.0026 187.01 68.496 180.841C67.4932 178.241 65.8312 175.945 63.6728 174.179C62.6422 173.38 61.4022 172.896 60.1022 172.785C58.8023 172.674 57.4979 172.942 56.3466 173.554C54.6181 175.006 53.4564 177.019 53.065 179.241C51.2465 185.577 51.2465 192.296 53.065 198.632C53.4161 199.821 53.7519 201.178 54.1029 202.611C55.1561 206.834 56.3466 211.621 58.4834 214.38C58.552 214.458 58.6039 214.55 58.6358 214.649C58.6677 214.748 58.6789 214.852 58.6688 214.956C58.6587 215.059 58.6275 215.16 58.5771 215.251C58.5267 215.342 58.4581 215.422 58.3757 215.485C58.2932 215.549 58.1986 215.595 58.0976 215.621C57.9967 215.646 57.8915 215.651 57.7886 215.635C57.6858 215.618 57.5874 215.581 57.4995 215.525C57.4116 215.469 57.3361 215.396 57.2776 215.31C47.3504 202.337 38.7211 188.423 31.5136 173.768C28.0031 166.786 24.6605 159.484 21.2721 151.434C19.6196 147.164 18.3677 142.749 17.5327 138.248C16.8424 134.701 15.9403 131.198 14.8311 127.759C13.7017 124.451 12.2669 122.744 10.4506 122.53C8.06959 122.241 6.19224 124.741 5.21541 127.104C-1.31717 143.05 3.52121 165.063 12.6638 181.329C15.8027 184.572 18.3815 188.312 20.2953 192.397C20.3729 192.563 20.3878 192.752 20.3374 192.928C20.2869 193.105 20.1744 193.257 20.0206 193.357C19.8638 193.453 19.6782 193.49 19.4966 193.462C19.3151 193.434 19.1492 193.343 19.0285 193.205C16.1378 189.816 13.5821 186.155 11.3969 182.274C9.24579 180.062 6.84341 178.107 4.23857 176.451C0.789127 179.408 2.31543 185.598 4.98646 190.568C34.923 245.777 85.4335 286.982 145.574 305.254H145.559Z" fill="#093269"/>
<path d="M28.4613 95.4707C28.7635 94.9027 29.2493 94.4535 29.8395 94.1961C30.4297 93.9387 31.0897 93.8882 31.7123 94.0529C33.2386 94.6627 33.5133 96.736 33.5133 98.3977C33.5133 102.788 33.8491 107.148 34.0628 111.523C34.2307 114.572 35.8638 122.561 34.2002 125.244C31.7123 129.223 29.7586 123.887 28.8123 120.67C26.935 114.481 24.966 101.477 28.4613 95.4707Z" fill="white"/>
<path d="M32.4907 127.393H32.2465C30.7202 127.18 29.4381 125.198 28.1407 120.96C26.1108 114.222 24.2182 101.264 27.866 95.0438C28.2566 94.3179 28.8858 93.7487 29.6476 93.4321C30.4094 93.1155 31.2572 93.071 32.0481 93.3059C34.3681 94.1901 34.3375 97.3305 34.3375 98.3672C34.3375 101.569 34.5054 104.831 34.6886 107.987C34.6886 109.13 34.8412 110.289 34.887 111.432C34.887 112.179 35.0549 113.216 35.2075 114.481C35.6959 118.445 36.3065 123.399 34.9175 125.61C34.1849 126.799 33.3607 127.393 32.4907 127.393ZM30.9644 94.6779C30.5848 94.7107 30.2192 94.8363 29.8997 95.0437C29.5803 95.2511 29.3169 95.5339 29.1328 95.867C25.9124 101.294 27.4386 113.536 29.5449 120.503C31.0712 125.32 32.0786 125.823 32.3839 125.869C32.6891 125.914 33.1165 125.503 33.5591 124.802C34.6581 123.048 34.0475 118.002 33.6354 114.664C33.4828 113.429 33.3454 112.347 33.3149 111.615C33.3149 110.472 33.1776 109.328 33.1165 108.185C32.9181 104.999 32.7197 101.721 32.7502 98.4586C32.7502 96.3549 32.3381 95.1658 31.4376 94.8304C31.3104 94.7554 31.1708 94.7038 31.0255 94.6779H30.9644Z" fill="#D5E6FB"/>
<path d="M111.263 218.74C110.316 216.423 109.37 214.09 108.409 211.773C106.18 206.331 98.4571 203.892 96.9308 210.935C95.9082 215.63 98.9455 221.606 100.609 225.813C102.686 231.324 105.794 236.389 109.767 240.738C111.766 242.888 123.427 249.885 120.36 241.881C117.292 233.878 114.376 226.423 111.263 218.74Z" fill="white"/>
<path d="M119.322 246.363C116.04 246.363 110.469 242.552 109.263 241.256C105.189 236.823 102.007 231.647 99.8919 226.012C99.6171 225.31 99.3271 224.579 99.0066 223.816C97.3429 219.822 95.2824 214.852 96.1829 210.706C96.8087 207.779 98.5792 205.995 101.006 205.782C104.059 205.523 107.707 207.977 109.126 211.407L111.965 218.374C115.018 225.996 118.162 233.847 121.123 241.531C121.993 243.757 121.855 245.235 120.741 245.937C120.319 246.213 119.826 246.361 119.322 246.363ZM101.51 207.306H101.143C99.3729 207.459 98.0908 208.831 97.6634 211.041C96.8698 214.73 98.8387 219.456 100.411 223.237L101.311 225.448C103.369 230.878 106.446 235.866 110.378 240.143C112.041 241.912 118.467 245.555 119.932 244.641C120.314 244.412 120.222 243.421 119.703 242.08C116.742 234.457 113.598 226.621 110.545 218.953C109.599 216.616 108.648 214.293 107.691 211.986C107.198 210.71 106.358 209.595 105.267 208.769C104.175 207.942 102.874 207.436 101.51 207.306Z" fill="#093269"/>
<path d="M254.598 73.808C254.423 73.8052 254.254 73.7435 254.118 73.6329C253.982 73.5222 253.888 73.369 253.85 73.1982C253.83 73.1001 253.829 72.999 253.848 72.9007C253.867 72.8024 253.906 72.7088 253.961 72.6253C254.016 72.5418 254.087 72.4699 254.171 72.4139C254.254 72.3579 254.347 72.3187 254.445 72.2987L306.919 61.6274C307.02 61.6074 307.123 61.6073 307.223 61.6271C307.323 61.6469 307.419 61.6862 307.504 61.7429C307.589 61.7995 307.662 61.8723 307.719 61.9571C307.776 62.0419 307.815 62.1371 307.835 62.2372C307.855 62.3373 307.855 62.4404 307.836 62.5405C307.816 62.6406 307.776 62.7359 307.72 62.8208C307.663 62.9058 307.59 62.9787 307.505 63.0355C307.42 63.0923 307.325 63.1319 307.225 63.1519L254.75 73.8232L254.598 73.808Z" fill="#093269"/>
<path d="M47.7078 139.101C46.7854 138.568 45.6981 138.394 44.6552 138.613C42.7626 139.132 41.9842 141.357 41.7247 143.309C41.3088 146.507 41.5004 149.755 42.2894 152.882C43.1289 156.175 45.052 160.749 49.3409 159.666C57.3541 157.685 53.1415 141.891 47.7078 139.101Z" fill="white"/>
<path d="M48.166 160.596C45.1134 160.596 42.8544 157.974 41.6181 153.065C40.8084 149.843 40.6117 146.497 41.0381 143.202C41.4197 140.275 42.656 138.385 44.5181 137.866C45.7225 137.602 46.9825 137.803 48.0439 138.43C51.8902 140.397 55.1412 148.248 54.4849 153.995C54.088 157.441 52.348 159.727 49.5854 160.413C49.1216 160.532 48.6449 160.594 48.166 160.596ZM45.495 139.254C45.3027 139.225 45.1072 139.225 44.9149 139.254C43.2513 139.711 42.7171 141.998 42.5492 143.309C42.143 146.415 42.3295 149.571 43.0986 152.608C43.9381 155.931 45.6781 159.743 49.2039 158.843C50.2901 158.498 51.2388 157.818 51.9135 156.9C52.5882 155.982 52.9541 154.875 52.9586 153.736C53.5386 148.599 50.6539 141.388 47.3418 139.696C46.7666 139.415 46.135 139.269 45.495 139.269V139.254Z" fill="#D5E6FB"/>
<path d="M8.93935 94.1446C8.63911 93.8121 8.24302 93.5808 7.80565 93.4825C7.36829 93.3842 6.91117 93.4238 6.49727 93.5958C6.10459 93.8967 5.79105 94.2884 5.58365 94.7372C5.37626 95.186 5.28123 95.6785 5.30675 96.1722C4.98623 99.4955 4.02466 107.636 8.35936 108.81C13.7167 110.228 11.0304 96.2789 8.93935 94.1446Z" fill="white"/>
<path d="M9.12279 109.74C8.81383 109.735 8.5065 109.694 8.20701 109.618C3.3381 108.322 4.13178 100.334 4.51336 96.4921V96.172C4.50105 95.5454 4.64364 94.9254 4.92851 94.367C5.21338 93.8086 5.63173 93.3289 6.1465 92.9706C6.70379 92.7125 7.32929 92.6399 7.93099 92.7634C8.53269 92.8869 9.07884 93.1999 9.4891 93.6566C11.3054 95.5164 13.5185 104.785 11.458 108.307C11.2401 108.738 10.9063 109.101 10.4939 109.354C10.0815 109.607 9.60679 109.741 9.12279 109.74ZM7.27596 94.2511C7.13367 94.2522 6.99322 94.2834 6.86386 94.3426C6.43649 94.5865 6.17703 95.2115 6.07019 96.3244V96.6446C5.74966 99.8002 5.01703 107.179 8.63437 108.139C8.91434 108.259 9.22996 108.265 9.51469 108.157C9.79942 108.049 10.031 107.835 10.1607 107.56C11.7938 104.77 9.79436 96.172 8.42069 94.7542C8.12891 94.42 7.71838 94.2122 7.27596 94.1749V94.2511Z" fill="#D5E6FB"/>
<path d="M19.3797 76.8873C19.166 76.186 18.7234 75.3628 17.9755 75.3628C17.2276 75.3628 16.9987 76.0031 16.8003 76.5671C16.0829 78.5185 16.0066 83.6255 17.9297 85.0432C19.8529 86.461 20.4329 83.8694 20.4634 82.604C20.4057 80.6534 20.04 78.724 19.3797 76.8873Z" fill="white"/>
<path d="M18.9061 86.2323C18.3853 86.2105 17.8863 86.0176 17.4866 85.6835C15.1056 83.9456 15.3345 78.3355 16.0824 76.3232C16.1928 75.8971 16.4272 75.5133 16.7559 75.2203C17.0846 74.9272 17.4929 74.7381 17.9292 74.6768C18.5245 74.6768 19.4556 74.8597 20.1119 76.7043C20.8026 78.6288 21.1788 80.6517 21.2261 82.6955C21.2261 83.6712 20.8598 85.5005 19.6998 86.0951C19.4488 86.1996 19.1776 86.2465 18.9061 86.2323ZM18.0208 76.2012C17.8987 76.2012 17.6698 76.4604 17.5172 76.9025C16.8608 78.6556 16.8608 83.3815 18.3871 84.5249C18.5092 84.6163 18.8298 84.8298 18.9977 84.7383C19.1656 84.6468 19.6845 83.5645 19.6998 82.6803C19.6355 80.8038 19.2856 78.9481 18.6619 77.1769C18.4635 76.4909 18.1887 76.2012 18.0208 76.2012Z" fill="#D5E6FB"/>
<path d="M183.488 304.385H183.336C139.073 295.391 110.47 278.164 94.2453 265.297C76.6318 251.318 69.3971 239.32 69.3208 239.168C69.2199 238.992 69.1921 238.783 69.2435 238.586C69.2948 238.389 69.4212 238.221 69.5955 238.116C69.7698 238.016 69.9766 237.989 70.1709 238.04C70.3653 238.092 70.5314 238.217 70.6334 238.39C70.9081 238.863 99.6332 285.802 183.58 302.876C183.782 302.896 183.968 302.996 184.097 303.153C184.226 303.31 184.287 303.512 184.267 303.714C184.246 303.916 184.147 304.102 183.989 304.231C183.832 304.36 183.63 304.421 183.427 304.4L183.488 304.385Z" fill="#D5E6FB"/>
<path d="M18.3875 162.67C18.2487 162.668 18.1128 162.63 17.9944 162.557C17.8761 162.484 17.7798 162.381 17.7159 162.258C13.137 153.187 7.5813 138.324 7.53551 138.171C7.46599 137.983 7.47346 137.775 7.55631 137.593C7.63916 137.41 7.79072 137.267 7.97814 137.195C8.1705 137.126 8.38239 137.136 8.56803 137.221C8.75366 137.307 8.89813 137.462 8.97023 137.653C8.97023 137.79 14.4954 152.577 19.0744 161.557C19.1216 161.647 19.1503 161.745 19.159 161.846C19.1676 161.947 19.156 162.049 19.1247 162.145C19.0934 162.242 19.0432 162.331 18.9769 162.408C18.9105 162.485 18.8295 162.548 18.7386 162.593C18.6279 162.642 18.5085 162.668 18.3875 162.67Z" fill="#D5E6FB"/>
<path d="M247.714 304.507C242.021 304.507 236.16 304.507 231.398 304.263C231.197 304.252 231.008 304.162 230.871 304.014C230.735 303.867 230.661 303.672 230.665 303.47C230.684 303.272 230.775 303.088 230.922 302.953C231.068 302.818 231.26 302.741 231.459 302.738C245.608 303.303 269.54 302.738 269.784 302.738C269.883 302.736 269.98 302.754 270.072 302.789C270.163 302.825 270.247 302.878 270.318 302.946C270.389 303.014 270.445 303.096 270.485 303.186C270.524 303.275 270.546 303.372 270.548 303.47C270.552 303.572 270.535 303.673 270.5 303.768C270.464 303.863 270.41 303.95 270.34 304.024C270.271 304.098 270.187 304.157 270.094 304.198C270.001 304.239 269.901 304.261 269.8 304.263C269.616 304.263 259.009 304.507 247.714 304.507Z" fill="#D5E6FB"/>
</svg>
